<svg width="54" height="54" viewBox="0 0 54 54" fill="none" xmlns="http://www.w3.org/2000/svg">
<circle cx="27" cy="27" r="27" fill="#FD8F52" fill-opacity="0.19"/>
<g clip-path="url(#clip0_15_750)">
<path d="M47.7525 44.8955L47.8346 43.0355C48.6899 42.5746 49.6439 42.3311 50.6137 42.3262C49.2789 43.4265 49.4457 45.5473 48.5408 47.0269C48.255 47.4862 47.8704 47.8747 47.4155 48.1638C46.9605 48.4528 46.4469 48.6349 45.9126 48.6967L44.7956 49.3862C44.6424 48.5247 44.6762 47.64 44.8947 46.7929C45.1132 45.9459 45.5113 45.1567 46.0615 44.4797C46.3738 44.103 46.732 43.7675 47.1276 43.481C47.3951 44.1922 47.7525 44.8955 47.7525 44.8955Z" fill="#F2F2F2"/>
<path d="M30.8141 49.8492C30.2452 49.8084 30.0968 49.9215 29.236 49.8492H27.658L27.8632 46.0417L30.3476 47.0454L42.6933 47.351L42.6861 47.3721C42.6805 47.3883 42.1324 49.0048 42.5608 49.6169L42.5786 49.6423L42.5439 49.6426L31.2186 49.7473C31.095 49.7484 30.9368 49.858 30.8141 49.8492Z" fill="#F2F2F2"/>
<path d="M31.4545 49.8989C30.3555 49.8201 29.2175 50.2509 28.2677 49.7646L27.5085 49.8109L27.5063 49.8045C27.5004 49.7868 27.1418 46.9417 27.8668 45.8386L27.8988 45.79L27.9237 46.0513L27.6847 49.5955L28.2144 49.4172C29.5011 50.0278 31.0312 49.6246 32.5039 49.6189L42.5256 49.5816C42.7355 49.5809 42.9104 49.7255 42.916 49.904L42.9165 49.9215L32.0599 49.9206C31.8574 49.9206 31.6556 49.9134 31.4545 49.8989Z" fill="#CCCCCC"/>
<path d="M41.9974 48.1188L30.7194 47.8928L30.7079 47.8885L28.0433 46.8817L28.0937 46.7462L30.7468 47.7488L42.0002 47.9742L41.9974 48.1188Z" fill="#E6E6E6"/>
<path d="M41.9372 48.7277L30.6593 48.5017L30.6478 48.4973L27.9832 47.4905L28.0335 47.3551L30.6867 48.3576L41.94 48.583L41.9372 48.7277Z" fill="#E6E6E6"/>
<path d="M41.877 49.3366L30.5991 49.1105L30.5876 49.1062L27.923 48.0993L27.9733 47.9639L30.6265 48.9665L41.8799 49.192L41.877 49.3366Z" fill="#E6E6E6"/>
<path d="M31.5325 47.3903C30.4868 47.319 29.4673 47.029 28.5389 46.5387L27.7572 46.1207L27.7776 45.914C27.7833 45.8837 27.7999 45.8566 27.8243 45.8379C27.8486 45.8191 27.879 45.8102 27.9095 45.8126L27.9785 45.8135L38.4962 45.9696C39.1845 45.9782 39.8666 46.103 40.5141 46.3388L42.8057 47.1776L42.8045 47.1898C42.7853 47.3845 42.5906 47.5349 42.3612 47.5322L32.001 47.4098C31.8443 47.408 31.6881 47.4015 31.5325 47.3903Z" fill="#E6E6E6"/>
<path d="M42.7837 47.2224L42.7813 47.2222L30.1687 46.9308L30.16 46.9268L27.886 45.8651L27.9091 45.8296L27.9782 45.8305L30.1898 46.8636L42.6855 47.152L42.7856 47.1544L42.7837 47.2224Z" fill="#CCCCCC"/>
<path d="M32.9785 45.9048L32.8184 45.9025L29.2038 45.8486L29.0325 45.8462C29.8583 46.7326 31.6845 46.9544 34.3612 46.611L32.9785 45.9048Z" fill="#CCCCCC"/>
<path d="M43.1411 24.7021L43.3616 25.2192L43.0012 27.0557L39.3247 26.5404L39.354 24.3009L39.4279 23.8105L43.1411 24.7021Z" fill="#FFB6B6"/>
<path d="M45.0406 48.5041H44.2294L43.8434 45.3498H45.0406V48.5041Z" fill="#FFB6B6"/>
<path d="M42.6279 49.5716C42.628 49.6643 42.6645 49.7531 42.7295 49.8186C42.7945 49.8841 42.8826 49.9209 42.9745 49.921H44.5176L44.7836 49.3674L44.8869 49.921H45.4685L45.305 47.9437L45.0407 47.9281L44.1524 47.8748L44.0092 47.8657V48.4259L42.7776 49.2837C42.7314 49.3159 42.6937 49.359 42.6676 49.4091C42.6415 49.4592 42.6279 49.515 42.6279 49.5716Z" fill="#2F2E41"/>
<path d="M37.5435 44.8882H36.7324L36.2552 40.2444L37.7793 40.1526L37.5435 44.8882Z" fill="#FFB6B6"/>
<path d="M35.1307 45.9557C35.1308 46.0483 35.1673 46.1372 35.2323 46.2027C35.2973 46.2682 35.3854 46.305 35.4773 46.3051H37.0204L37.2864 45.7515L37.3897 46.3051H37.9714L37.8078 44.3277L37.5719 44.3138L36.6682 44.2589L36.512 44.2498V44.81L35.2804 45.6678C35.2342 45.7 35.1965 45.743 35.1704 45.7932C35.1443 45.8433 35.1307 45.8991 35.1307 45.9557Z" fill="#2F2E41"/>
<path d="M45.3849 45.784H45.3817L45.2257 40.6553C45.3267 40.459 45.3779 40.2406 45.3749 40.0195C45.3718 39.7983 45.3146 39.5814 45.2083 39.388L45.1859 39.3472L45.2438 39.0766C45.3182 38.7289 45.2841 38.3665 45.1461 38.0392L45.0006 33.255C45.5205 29.858 43.0428 27.6425 43.0428 27.6425L43.2705 25.862L39.2629 25.9538L39.3311 27.6425L38.5342 30.4028C38.1149 34.522 35.2925 37.1111 35.7215 41.0503C35.7223 41.0616 35.7207 41.0729 35.7166 41.0835C35.673 41.217 35.6577 41.3581 35.6716 41.4979C35.6855 41.6377 35.7282 41.773 35.7971 41.8951C35.815 41.9262 35.8273 41.9603 35.8334 41.9957C35.9218 42.6863 35.9333 41.8128 36.0504 42.4972L36.0276 42.5089C35.9456 42.5374 35.9104 42.652 35.949 42.7649C35.9876 42.8777 36.0855 42.946 36.1675 42.9174L38.3099 42.9405C38.3919 42.912 38.4272 42.7974 38.3885 42.6845C38.3499 42.5717 38.2521 42.5034 38.17 42.5319L38.0367 42.5999L38.2597 41.8644L38.3379 41.7908C38.3753 41.7556 38.4044 41.7122 38.4229 41.6641C38.4414 41.6159 38.4488 41.5641 38.4446 41.5126C38.4405 41.4612 38.4248 41.4113 38.3989 41.3668C38.3729 41.3222 38.3373 41.2842 38.2947 41.2555L38.5168 40.0603L38.4853 39.1563L38.5502 38.1308L41.3613 34.0242L42.4985 39.6967L43.6602 45.8411C43.6331 45.8657 43.6128 45.897 43.6011 45.9319C43.5894 45.9667 43.5869 46.004 43.5936 46.0402C43.6043 46.0907 43.6321 46.1359 43.6722 46.168C43.7123 46.2001 43.7623 46.2172 43.8135 46.2162H45.3905C45.4236 46.2162 45.4562 46.2085 45.4858 46.1937C45.5155 46.1788 45.5413 46.1573 45.5613 46.1308C45.5813 46.1043 45.595 46.0734 45.6012 46.0407C45.6075 46.008 45.6062 45.9742 45.5974 45.9421C45.5841 45.8959 45.5561 45.8554 45.5177 45.8268C45.4793 45.7982 45.4326 45.7832 45.3849 45.784Z" fill="#2F2E41"/>
<path d="M43.9825 15.9752C43.9826 16.3026 43.903 16.6251 43.7507 16.9143C43.5983 17.2035 43.3779 17.4505 43.1087 17.6338C42.8395 17.817 42.5299 17.9309 42.2069 17.9653C41.8839 17.9997 41.5575 17.9537 41.2563 17.8312C40.955 17.7087 40.6883 17.5136 40.4793 17.2629C40.2704 17.0122 40.1256 16.7137 40.0579 16.3934C39.9901 16.0732 40.0013 15.7411 40.0905 15.4262C40.1798 15.1114 40.3443 14.8234 40.5697 14.5877L40.5792 14.5781C40.5951 14.5613 40.611 14.5445 40.6277 14.5285L40.628 14.5284L40.6282 14.5282L40.6284 14.528L40.6285 14.5277C40.6512 14.5109 40.6722 14.4919 40.6912 14.4709C40.959 14.0935 41.2627 13.7771 41.9983 13.9748C43.0574 14.2594 43.9825 14.8701 43.9825 15.9752Z" fill="#2F2E41"/>
<path d="M33.083 15.1188C33.0786 15.2259 33.0974 15.3326 33.1382 15.4315C33.1791 15.5304 33.2409 15.619 33.3194 15.6912C33.3979 15.7634 33.4912 15.8174 33.5926 15.8493C33.694 15.8812 33.8011 15.8903 33.9064 15.876L39.0235 20.11L39.8051 18.7249L34.5294 14.9986C34.4938 14.8219 34.3951 14.6644 34.2521 14.5561C34.109 14.4478 33.9316 14.3962 33.7533 14.411C33.575 14.4258 33.4083 14.5061 33.2848 14.6365C33.1612 14.767 33.0895 14.9386 33.083 15.1188Z" fill="#FFB6B6"/>
<path d="M41.1841 21.3586C41.1841 21.3586 41.1825 21.2061 40.369 21.212C39.3593 21.2193 36.5784 19.7578 36.8217 18.3813C36.7062 18.4339 36.5766 18.4463 36.4534 18.4165C36.3301 18.3867 36.2202 18.3164 36.141 18.2167L37.4948 16.9026C37.9196 16.9315 37.924 17.2181 37.8876 17.3827L38.9756 17.8185L41.8094 19.46L41.309 21.1087L41.1841 21.3586Z" fill="#FD8F52"/>
<path d="M41.5094 18.1155C42.4283 18.1155 43.1732 17.3645 43.1732 16.438C43.1732 15.5116 42.4283 14.7606 41.5094 14.7606C40.5905 14.7606 39.8456 15.5116 39.8456 16.438C39.8456 17.3645 40.5905 18.1155 41.5094 18.1155Z" fill="#FFB7B7"/>
<path d="M39.2228 24.7815C39.1309 24.9051 39.0839 25.0569 39.0899 25.2113C39.0958 25.3657 39.1542 25.5134 39.2553 25.6295C39.2561 25.6787 39.2634 25.7263 39.3326 25.9026C39.3416 25.9197 39.3523 25.9359 39.3643 25.951C39.3666 25.9547 39.369 25.9582 39.3716 25.9616C39.4445 26.0566 39.5457 26.1254 39.6604 26.1577L42.706 27.0147L43.1087 27.1279L43.1795 27.1476L43.2185 26.5932C43.3091 26.5175 43.3697 26.4116 43.3896 26.2947C43.4094 26.1778 43.3871 26.0576 43.3267 25.9559L43.2706 25.8624L43.5976 24.9759L43.6293 24.8881L44.4631 22.6254L44.4639 22.4744L44.4655 22.3186L44.4737 21.2311C44.4741 20.8884 44.3957 20.5502 44.2447 20.2431C44.0936 19.9361 43.8741 19.6685 43.6033 19.4613C43.3566 19.2712 43.0722 19.137 42.7695 19.0676L42.763 19.0668L42.4335 18.6198L41.097 18.7543L40.9864 18.9831L40.8521 19.2587L39.8833 19.8402L39.5522 20.616L39.3285 21.1409C38.982 21.3919 38.7754 21.7142 38.716 22.098C38.5891 22.9132 39.1553 23.7293 39.2228 23.8227L39.2398 24.7585L39.2228 24.7815Z" fill="#FD8F52"/>
<path d="M43.2507 16.8778C43.2357 16.8754 43.2206 16.8722 43.2055 16.8698C42.946 16.8234 42.6864 16.7778 42.4277 16.7306L42.4039 16.1392L42.0904 16.6689C41.3753 16.9082 40.7062 16.773 40.0769 16.4745C39.8693 16.3751 39.6678 16.2632 39.4737 16.1392C39.4097 15.1392 39.8108 14.4989 40.557 14.5661C40.5843 14.5685 40.6039 14.5405 40.6277 14.5285L40.628 14.5284L40.6282 14.5282L40.6284 14.528L40.6285 14.5277C40.6689 14.5085 40.7102 14.4901 40.7515 14.4733C41.0746 14.346 41.4269 14.3137 41.7675 14.3803C42.108 14.4469 42.4228 14.6095 42.6753 14.8493C43.1833 15.3383 43.4119 16.1456 43.2507 16.8778Z" fill="#2F2E41"/>
<path d="M43.2055 16.8698C43.2055 16.8698 42.7126 15.015 40.5999 14.5869C40.5975 14.5861 40.5895 14.5829 40.5792 14.5781C40.5729 14.5741 40.5649 14.5701 40.557 14.5661C40.5808 14.5525 40.6038 14.5405 40.6276 14.5285L40.6279 14.5284L40.6282 14.5282L40.6284 14.528L40.6284 14.5277C40.6491 14.5085 40.6697 14.4893 40.6911 14.4709L40.7515 14.4733C40.7515 14.4733 42.8713 14.1348 43.2055 16.8698Z" fill="#FD6584"/>
<path d="M44.0182 28.562C43.9791 28.5957 43.9315 28.6179 43.8807 28.6262C43.8299 28.6345 43.7778 28.6286 43.7302 28.609C43.6353 28.5685 43.5511 28.5063 43.484 28.4275C43.2103 28.138 43.0148 27.7827 42.916 27.3954L43.0073 27.2317C42.9715 27.0299 43.0052 26.8217 43.1028 26.6418C43.2005 26.4619 43.3563 26.3211 43.5443 26.2428C43.6512 26.197 43.7698 26.1866 43.883 26.2131C43.9391 26.2271 43.9904 26.2562 44.0315 26.2972C44.0726 26.3383 44.1019 26.3897 44.1164 26.4462C44.1516 26.6213 44.0068 26.7794 43.8603 26.8799C43.6051 27.0546 43.31 27.161 43.0027 27.1893C43.3785 27.4029 43.7034 27.6968 43.9545 28.0505C44.0126 28.1242 44.0554 28.209 44.0805 28.2997C44.0925 28.3452 44.0931 28.393 44.0822 28.4388C44.0714 28.4846 44.0494 28.5269 44.0182 28.562Z" fill="#2F2E41"/>
<path d="M22.9874 49.9805H50.9106C50.9343 49.9805 50.957 49.971 50.9738 49.9541C50.9906 49.9372 51 49.9143 51 49.8903C51 49.8664 50.9906 49.8435 50.9738 49.8266C50.957 49.8097 50.9343 49.8002 50.9106 49.8002H22.9874C22.9637 49.8002 22.9409 49.8097 22.9241 49.8266C22.9074 49.8435 22.8979 49.8664 22.8979 49.8903C22.8979 49.9143 22.9074 49.9372 22.9241 49.9541C22.9409 49.971 22.9637 49.9805 22.9874 49.9805Z" fill="#CCCCCC"/>
<path d="M30.4031 26.7961V26.8432C30.3026 26.7244 30.1999 26.6066 30.0983 26.4888C30.0557 26.4396 30.013 26.3904 29.9703 26.3413C29.7895 26.1344 29.6076 25.9281 29.4247 25.7226C29.2408 25.5177 29.0569 25.3129 28.871 25.109C28.8263 25.0599 28.7816 25.0107 28.7359 24.9615C28.6993 24.9202 28.6595 24.8818 28.617 24.8468C28.5741 24.8108 28.5248 24.7833 28.4717 24.7659C28.4106 24.7488 28.3462 24.7481 28.2848 24.7638C28.2147 24.7802 28.1476 24.8058 28.0796 24.8273C28.0094 24.8509 27.9404 24.8734 27.8703 24.896C27.73 24.9421 27.5909 24.9882 27.4506 25.0342C27.449 25.0349 27.4471 25.0353 27.4453 25.0353C27.4435 25.0353 27.4417 25.0349 27.44 25.0342C27.4383 25.0335 27.4368 25.0324 27.4355 25.0311C27.4342 25.0298 27.4332 25.0282 27.4326 25.0265L27.4324 25.026C27.4316 25.0241 27.4312 25.022 27.4313 25.0199C27.4314 25.0178 27.4319 25.0158 27.4329 25.0139C27.4339 25.0121 27.4352 25.0104 27.4369 25.0092C27.4386 25.0079 27.4405 25.007 27.4425 25.0066C27.4771 24.9953 27.5126 24.9841 27.5482 24.9728C27.6894 24.9257 27.8296 24.8796 27.9708 24.8335C28.0409 24.8099 28.111 24.7874 28.1812 24.7649C28.2462 24.74 28.3148 24.7261 28.3844 24.7239C28.4978 24.7321 28.6043 24.7825 28.6831 24.8652C28.7267 24.9062 28.7664 24.9492 28.806 24.9933C28.8527 25.0445 28.8995 25.0957 28.9462 25.1469C29.1342 25.3538 29.3207 25.5614 29.506 25.7697C29.6919 25.9787 29.8762 26.188 30.0587 26.3976C30.0719 26.413 30.0851 26.4284 30.0983 26.4437C30.2009 26.5605 30.3015 26.6783 30.4031 26.7961Z" fill="white"/>
<path d="M28.6014 25.0355C28.563 24.9857 28.5118 24.9473 28.4534 24.9247L28.3956 24.9267C28.8491 25.6381 29.4432 26.2476 30.1408 26.7171C29.6276 26.1566 29.1145 25.5961 28.6014 25.0355Z" fill="white"/>
<path d="M38.0646 32.4286L35.763 20.0037C35.7236 19.7988 35.6164 19.6136 35.4588 19.4783C35.3013 19.343 35.1029 19.2656 34.8961 19.2589C34.8775 19.2585 34.8588 19.2585 34.8402 19.2589L33.2723 19.3156L33.1035 19.3219L32.321 19.3502L32.1523 19.3561L31.6489 19.3744L21.4993 19.7418C21.484 19.7426 21.4683 19.7426 21.453 19.7422L19.1786 19.6942L18.3369 19.6767L18.31 19.6763L17.6888 19.663L12.2757 19.5496L10.8405 19.5191L10.1328 19.5045L9.96325 19.5008L9.15633 19.4841L8.98717 19.4803L8.16163 19.4632L7.99247 19.4595L7.08545 19.4403L6.94317 19.4374L6.13418 19.4203L6.00638 19.4178H5.98777C5.773 19.4187 5.56545 19.4961 5.40182 19.6363C5.23818 19.7766 5.129 19.9706 5.09357 20.1842L3.01194 33.0774C2.9908 33.208 2.99808 33.3417 3.03327 33.4692C3.06846 33.5967 3.13072 33.715 3.21573 33.8158C3.30075 33.9166 3.40649 33.9976 3.52563 34.0531C3.64477 34.1087 3.77446 34.1374 3.90572 34.1374H15.8603C16.0363 34.1379 16.2075 34.1949 16.3492 34.3L16.5758 34.4693C16.732 34.5852 16.9208 34.648 17.1147 34.6486C19.4236 34.0343 21.8511 34.0343 24.1599 34.6486C24.279 34.6489 24.3969 34.6254 24.5069 34.5795C24.6168 34.5335 24.7167 34.466 24.8006 34.3809C24.9441 34.2363 25.1356 34.1503 25.3383 34.1395L37.2217 33.5082C37.3506 33.5014 37.4765 33.4669 37.5911 33.4071C37.7057 33.3472 37.8062 33.2634 37.886 33.1611C37.9659 33.0589 38.0231 32.9407 38.0539 32.8143C38.0847 32.688 38.0883 32.5565 38.0646 32.4286Z" fill="#CCCCCC"/>
<path d="M34.8081 30.4911C34.7928 30.9121 34.6124 31.3098 34.3064 31.5968C34.0004 31.8837 33.5939 32.0364 33.1762 32.0213C32.4862 31.9967 31.6627 31.9844 30.769 32.0032C27.8503 32.0662 24.1834 32.4711 21.9777 33.9276C21.7005 34.1111 21.3729 34.2017 21.0416 34.1865C21.0172 34.1851 20.9936 34.1836 20.9692 34.1815C20.6257 34.1498 20.3021 34.0052 20.0482 33.77C18.8331 32.649 16.0464 31.2916 9.66739 31.1962C9.64085 31.1962 9.61503 31.1947 9.58921 31.1933C9.3826 31.1802 9.18058 31.1261 8.9947 31.0343C8.80881 30.9424 8.64271 30.8145 8.50588 30.6579C8.36905 30.5013 8.26418 30.319 8.19726 30.1215C8.13034 29.924 8.10268 29.7151 8.11587 29.5068L8.74279 19.4756L8.83676 17.9721L9.00174 15.3419C9.01838 15.077 9.13441 14.8284 9.32626 14.6467C9.51811 14.4649 9.7714 14.3637 10.0347 14.3634H10.0411L13.8414 14.3858C15.4424 14.4589 16.7684 14.6645 17.8195 15.0027C18.1786 15.1149 18.5279 15.2567 18.8639 15.4265C19.3229 15.6508 19.7353 15.9613 20.079 16.3413C20.2931 16.5841 20.5852 16.743 20.9039 16.7904C20.9533 16.7978 21.0032 16.8024 21.0531 16.8041C21.3471 16.8164 21.6371 16.7327 21.8802 16.5655C24.3627 14.8884 29.4219 14.7612 32.2158 14.8335C32.6065 14.8427 32.9798 14.9982 33.2631 15.2697C33.5463 15.5412 33.7191 15.9093 33.7479 16.3023L33.8612 17.7985L33.9739 19.2904L34.6237 27.9129L34.8045 30.3117C34.8089 30.3714 34.8101 30.4313 34.8081 30.4911Z" fill="#F2F2F2"/>
<path d="M10.6128 17.8932C12.9029 17.1566 15.4578 17.3516 17.6274 18.3894C18.2465 18.684 18.8311 19.047 19.3706 19.4718C19.5232 19.5926 19.7403 19.3766 19.5861 19.2545C17.5934 17.6963 15.0896 16.956 12.5777 17.1825C11.8828 17.2452 11.1967 17.3842 10.5317 17.5969C10.3456 17.6568 10.4251 17.9536 10.6128 17.8932Z" fill="#3F3D56"/>
<path d="M23.2146 19.591C25.3438 18.4627 27.8935 18.2167 30.2086 18.8571C30.8686 19.0393 31.5064 19.295 32.1103 19.6195C32.2833 19.7125 32.4374 19.4474 32.2641 19.3541C30.0577 18.1671 27.4091 17.8939 24.9997 18.5556C24.3276 18.7405 23.6774 18.9987 23.0608 19.3257C22.8871 19.4177 23.041 19.6831 23.2146 19.591Z" fill="#3F3D56"/>
<path d="M23.2146 21.6397C25.3438 20.5114 27.8935 20.2653 30.2086 20.9058C30.8686 21.088 31.5064 21.3436 32.1103 21.6681C32.2833 21.7612 32.4374 21.496 32.2641 21.4028C30.0577 20.2158 27.4091 19.9425 24.9997 20.6042C24.3276 20.7891 23.6774 21.0474 23.0608 21.3743C22.8871 21.4664 23.041 21.7317 23.2146 21.6397Z" fill="#3F3D56"/>
<path d="M32.3387 23.5784C32.3403 23.5521 32.334 23.5258 32.3206 23.5031C32.3072 23.4804 32.2873 23.4622 32.2636 23.4511C30.496 22.5179 28.4919 22.1395 26.5092 22.3644C26.4968 22.3654 26.4854 22.3674 26.4719 22.3684H26.4714C26.4592 22.3695 26.4471 22.3713 26.4351 22.3739C25.2559 22.5107 24.1119 22.8662 23.0608 23.4225C23.0379 23.4362 23.0189 23.4558 23.0058 23.4792C22.9926 23.5025 22.9857 23.529 22.9857 23.5559V27.3776C22.9861 27.4011 22.9918 27.4242 23.0023 27.4452C23.0129 27.4662 23.028 27.4844 23.0466 27.4987C23.0652 27.5129 23.0868 27.5226 23.1096 27.5272C23.1325 27.5317 23.1561 27.531 23.1787 27.525C23.2255 27.5115 23.2722 27.4984 23.32 27.4859C24.3825 27.1959 25.4733 27.0239 26.5729 26.9729C26.5963 26.9719 26.6197 26.9709 26.644 26.9699C27.5397 26.9311 28.4369 26.9636 29.3275 27.0671C29.3461 27.0682 29.3647 27.0702 29.3832 27.0732C29.4289 27.0782 29.4757 27.0837 29.5215 27.0897C29.5399 27.0917 29.5573 27.0937 29.5742 27.0967C29.7522 27.1193 29.9288 27.1449 30.1059 27.1725C30.3615 27.2136 30.6172 27.2594 30.8729 27.3099C30.8888 27.3129 30.9052 27.3169 30.9216 27.3199C31.332 27.4021 31.7403 27.4974 32.1467 27.6027C32.1693 27.6086 32.193 27.6092 32.2159 27.6046C32.2388 27.5999 32.2603 27.59 32.2789 27.5758C32.2975 27.5615 32.3126 27.5431 32.3232 27.5221C32.3337 27.501 32.3393 27.4778 32.3397 27.4543V23.5844C32.3398 23.5824 32.3395 23.5803 32.3387 23.5784Z" fill="#3F3D56"/>
<path d="M26.7482 22.5728C26.6365 22.5176 26.5085 22.5063 26.389 22.541C26.3363 22.5609 26.2879 22.5912 26.2469 22.6302C26.2058 22.6691 26.1728 22.7159 26.1498 22.7678C26.1084 22.8673 26.0819 22.9724 26.0711 23.0798C26.0648 23.122 26.0644 23.1753 26.1065 23.195C26.1218 23.2006 26.1383 23.2018 26.1542 23.1987C26.1702 23.1955 26.1849 23.188 26.197 23.1769C26.2187 23.1553 26.2366 23.1301 26.2499 23.1024C26.323 22.9877 26.4236 22.8935 26.5424 22.8284C26.6612 22.7633 26.7943 22.7294 26.9295 22.7299L27.042 22.7751C26.9535 22.6947 26.8547 22.6267 26.7482 22.5728Z" fill="#FF6582"/>
<path d="M27.9661 23.4536C27.8787 23.324 27.7753 23.1856 27.6132 23.1433C27.4255 23.0943 27.2328 23.1916 27.0692 23.2877C26.583 23.5732 26.1121 23.8846 25.6586 24.2204L25.6591 24.2255L26.7117 24.1603C26.9652 24.1446 27.2275 24.1268 27.4515 24.0192C27.532 23.9683 27.6219 23.9346 27.7157 23.92C27.774 23.9232 27.831 23.9379 27.8835 23.9634C27.936 23.989 27.983 24.0247 28.0218 24.0686C28.5069 24.5322 28.6473 25.2412 29.1916 25.6485C28.8452 24.8833 28.4353 24.1491 27.9661 23.4536Z" fill="white"/>
<path d="M26.6442 26.9698C26.6199 26.9708 26.5965 26.9718 26.5731 26.9729C26.4034 26.9114 26.2297 26.8571 26.054 26.81C25.9402 26.7793 25.8243 26.7516 25.7085 26.7281C25.5774 26.6994 25.4454 26.6768 25.3133 26.6574C25.0618 26.6205 24.8084 26.599 24.5543 26.5928C24.5524 26.5931 24.5505 26.5929 24.5486 26.5923C24.5468 26.5917 24.5451 26.5907 24.5436 26.5894C24.5422 26.5881 24.541 26.5865 24.5403 26.5847C24.5395 26.5829 24.5391 26.581 24.5391 26.579C24.5391 26.5771 24.5395 26.5751 24.5403 26.5734C24.541 26.5716 24.5422 26.57 24.5436 26.5687C24.5451 26.5674 24.5468 26.5664 24.5486 26.5658C24.5505 26.5652 24.5524 26.565 24.5543 26.5652C24.5868 26.5652 24.6194 26.5662 24.6509 26.5683C24.9054 26.5777 25.1592 26.6027 25.4108 26.643C25.5419 26.6646 25.673 26.6902 25.803 26.7188C25.9208 26.7455 26.0387 26.7752 26.1545 26.808C26.3201 26.8551 26.4834 26.909 26.6442 26.9698Z" fill="white"/>
<path d="M29.5743 27.0968C29.5571 27.0937 29.5398 27.0917 29.5215 27.0897C29.4514 27.0313 29.3803 26.976 29.3061 26.9217C29.2136 26.8541 29.1181 26.7905 29.0206 26.7311C28.8046 26.5989 28.5791 26.4832 28.346 26.3849C27.9774 26.2302 27.5959 26.1088 27.206 26.0223C26.7613 25.9241 26.3111 25.8529 25.8578 25.8092C25.4047 25.7621 24.9495 25.7335 24.4943 25.7048C24.4751 25.7037 24.474 25.6751 24.4943 25.6761C24.5512 25.6802 24.6082 25.6832 24.666 25.6873C25.1263 25.716 25.5865 25.7488 26.0437 25.8011C26.4971 25.85 26.9467 25.9287 27.3899 26.0366C27.7683 26.1306 28.1375 26.2585 28.4933 26.4187C28.6979 26.5114 28.8961 26.6178 29.0866 26.7373C29.2075 26.8141 29.3244 26.8961 29.4361 26.9831C29.4829 27.02 29.5296 27.0569 29.5743 27.0968Z" fill="white"/>
<path d="M29.3834 27.0733C29.3649 27.0702 29.3462 27.0682 29.3275 27.0671C29.3062 27.0497 29.2838 27.0333 29.2615 27.0169C29.105 26.904 28.9418 26.8011 28.7728 26.7086C28.6192 26.6245 28.4615 26.5482 28.3003 26.4802C27.9319 26.325 27.5504 26.2036 27.1604 26.1176C26.7156 26.0193 26.2654 25.9482 25.8121 25.9045C25.359 25.8574 24.9038 25.8287 24.4487 25.8C24.4294 25.798 24.4294 25.7703 24.4487 25.7713C24.5066 25.7754 24.5635 25.7785 24.6204 25.7826C25.0806 25.8113 25.5409 25.8441 25.9981 25.8963C26.4514 25.9453 26.9011 26.024 27.3443 26.1319C27.7226 26.2257 28.0919 26.3536 28.4476 26.514C28.5817 26.5754 28.7128 26.642 28.8408 26.7147C29.0306 26.8198 29.2121 26.9397 29.3834 27.0733Z" fill="white"/>
<path d="M30.9216 27.3201C30.9054 27.317 30.8891 27.313 30.8729 27.3099C30.8546 27.2904 30.8373 27.2699 30.82 27.2494C30.7327 27.148 30.6463 27.0456 30.5609 26.9421C30.2247 26.5386 29.9056 26.1227 29.6049 25.6986C29.3468 25.336 29.102 24.9662 28.8703 24.5893C28.7596 24.411 28.6529 24.2308 28.5483 24.0484C28.467 23.9071 28.3877 23.7654 28.3105 23.6233C28.2882 23.5824 28.2668 23.5414 28.2455 23.5004C28.1957 23.4041 28.1459 23.3068 28.0931 23.2116C28.0357 23.0949 27.9514 22.9937 27.8472 22.9166C27.7952 22.8814 27.7349 22.8606 27.6725 22.8561C27.5844 22.8565 27.4977 22.879 27.4205 22.9217C26.8521 23.1886 26.3159 23.5202 25.8223 23.9101C25.3403 24.2881 24.9045 24.7224 24.5239 25.2039C24.5117 25.2182 24.4853 25.2049 24.4965 25.1895C24.5422 25.1322 24.5889 25.0748 24.6357 25.0185C25.0014 24.5823 25.4133 24.1876 25.864 23.8415C25.865 23.8405 25.867 23.8395 25.8681 23.8385C25.9077 23.8067 25.9473 23.776 25.9879 23.7463C26.2396 23.5595 26.5014 23.3871 26.7723 23.23C26.9105 23.1491 27.0517 23.0723 27.196 22.9995C27.2315 22.9811 27.2681 22.9627 27.3047 22.9452C27.3413 22.9268 27.3778 22.9094 27.4144 22.892C27.4868 22.8548 27.566 22.8328 27.6471 22.8275C27.9295 22.8234 28.0748 23.1102 28.1754 23.3038C28.2069 23.3642 28.2394 23.4246 28.2709 23.4851C28.3928 23.7135 28.5198 23.9409 28.6519 24.1652C28.7321 24.3045 28.8155 24.4428 28.8998 24.5801C29.0207 24.7757 29.1446 24.9693 29.2737 25.1619C29.2737 25.162 29.2737 25.1621 29.2737 25.1623C29.2738 25.1624 29.2739 25.1625 29.2739 25.1626C29.274 25.1627 29.2741 25.1628 29.2743 25.1628C29.2744 25.1629 29.2745 25.1629 29.2747 25.1629C29.424 25.3903 29.5795 25.6136 29.74 25.8359C30.0154 26.2159 30.3039 26.5874 30.6057 26.9503C30.7093 27.0753 30.8146 27.1986 30.9216 27.3201Z" fill="white"/>
<path d="M27.2969 22.7962L27.2688 22.8086C27.2044 22.699 27.1142 22.6071 27.0061 22.5412C26.898 22.4752 26.7754 22.4372 26.6493 22.4305C26.2333 22.4007 25.8679 22.6802 25.8347 23.0534C25.8212 23.2071 25.8654 23.3603 25.9584 23.4829L25.9323 23.4984C25.8354 23.3708 25.7895 23.2113 25.8035 23.0512C25.8381 22.6625 26.2186 22.3715 26.6518 22.4025C26.7832 22.4095 26.9108 22.449 27.0233 22.5177C27.1359 22.5864 27.2298 22.6821 27.2969 22.7962Z" fill="#FF6582"/>
<path d="M25.2415 23.5514C25.1323 23.5036 25.0134 23.4826 24.8946 23.4902C24.7758 23.4978 24.6605 23.5338 24.5582 23.5953C24.9316 23.653 25.3016 23.7305 25.6669 23.8275C25.5157 23.7479 25.3974 23.6233 25.2415 23.5514Z" fill="white"/>
<path d="M24.5561 23.5949L24.515 23.6249C24.5289 23.6144 24.5434 23.6046 24.5582 23.5953L24.5561 23.5949Z" fill="white"/>
<path d="M25.7941 23.7688C25.7777 23.7524 25.7614 23.7361 25.7449 23.7197C25.6185 23.5809 25.4662 23.4686 25.2967 23.389C25.2105 23.3524 25.1179 23.3331 25.0243 23.3323C24.9276 23.3346 24.832 23.3533 24.7414 23.3877C24.6988 23.403 24.6572 23.4203 24.6162 23.4387C24.5693 23.4599 24.5233 23.4825 24.4774 23.5052C24.3914 23.548 24.3065 23.5926 24.2228 23.639C24.0561 23.7315 23.8946 23.831 23.7383 23.9375C23.6573 23.9928 23.578 24.0499 23.5003 24.1088C23.4281 24.1635 23.3573 24.2197 23.288 24.2773C23.2732 24.2896 23.2511 24.2697 23.2659 24.2574C23.2842 24.2422 23.3026 24.227 23.3211 24.212C23.3733 24.1697 23.4263 24.1281 23.4802 24.0874C23.5784 24.013 23.6792 23.9415 23.7825 23.8729C23.9431 23.7661 24.1093 23.6666 24.281 23.5743C24.3668 23.5282 24.4538 23.484 24.5419 23.4418C24.5686 23.4291 24.5955 23.4166 24.6227 23.4048C24.685 23.3767 24.7492 23.3533 24.8148 23.3347C24.909 23.3075 25.0075 23.2988 25.1049 23.3091C25.1982 23.3211 25.2887 23.3492 25.3725 23.3922C25.5386 23.486 25.6885 23.6065 25.8162 23.7489C25.8296 23.7624 25.8076 23.7823 25.7941 23.7688Z" fill="white"/>
<path d="M10.6128 19.9419C12.9029 19.2052 15.4578 19.4003 17.6274 20.438C18.2465 20.7326 18.8311 21.0957 19.3706 21.5205C19.5232 21.6412 19.7403 21.4252 19.5861 21.3032C17.5934 19.7449 15.0896 19.0046 12.5777 19.2311C11.8828 19.2938 11.1967 19.4328 10.5317 19.6456C10.3456 19.7054 10.4251 20.0022 10.6128 19.9419Z" fill="#3F3D56"/>
<path d="M10.6128 21.9905C12.9029 21.2539 15.4578 21.4489 17.6274 22.4867C18.2465 22.7813 18.8311 23.1443 19.3706 23.5691C19.5232 23.6899 19.7403 23.4739 19.5861 23.3518C17.5934 21.7935 15.0896 21.0533 12.5777 21.2798C11.8828 21.3425 11.1967 21.4814 10.5317 21.6942C10.3456 21.7541 10.4251 22.0509 10.6128 21.9905Z" fill="#3F3D56"/>
<path d="M10.6128 24.0392C12.9029 23.3025 15.4578 23.4975 17.6274 24.5353C18.2465 24.8299 18.8311 25.1929 19.3706 25.6178C19.5232 25.7385 19.7403 25.5225 19.5861 25.4005C17.5934 23.8422 15.0896 23.1019 12.5777 23.3284C11.8828 23.3911 11.1967 23.5301 10.5317 23.7428C10.3456 23.8027 10.4251 24.0995 10.6128 24.0392Z" fill="#3F3D56"/>
<path d="M10.6128 26.0878C12.9029 25.3511 15.4578 25.5462 17.6274 26.584C18.2465 26.8785 18.8311 27.2416 19.3706 27.6664C19.5232 27.7871 19.7403 27.5712 19.5861 27.4491C17.5934 25.8908 15.0896 25.1506 12.5777 25.3771C11.8828 25.4398 11.1967 25.5787 10.5317 25.7915C10.3456 25.8514 10.4251 26.1482 10.6128 26.0878Z" fill="#3F3D56"/>
<path d="M10.6128 28.1364C12.9029 27.3998 15.4578 27.5948 17.6274 28.6326C18.2465 28.9272 18.8311 29.2902 19.3706 29.715C19.5232 29.8358 19.7403 29.6198 19.5861 29.4978C17.5934 27.9395 15.0896 27.1992 12.5777 27.4257C11.8828 27.4884 11.1967 27.6274 10.5317 27.8401C10.3456 27.9 10.4251 28.1968 10.6128 28.1364Z" fill="#3F3D56"/>
<path d="M18.8638 15.4265V20.339C18.8638 20.4367 18.6946 20.5184 18.4665 20.5408C18.4645 20.5407 18.4626 20.5409 18.4607 20.5415C18.4227 20.5444 18.3825 20.5466 18.3417 20.5466C18.2159 20.5489 18.0908 20.5283 17.9722 20.4858C17.9615 20.4815 17.9507 20.4764 17.94 20.4721C17.9299 20.4663 17.9192 20.4613 17.9091 20.4555C17.8525 20.4215 17.8195 20.3817 17.8195 20.339V15.0027C18.1785 15.1149 18.5278 15.2567 18.8638 15.4265Z" fill="#FD8F52"/>
<path d="M21.0529 16.5659H20.9037V34.0838H21.0529V16.5659Z" fill="#E6E6E6"/>
<path d="M37.2799 28.5581C37.3857 28.5484 37.4881 28.5153 37.5799 28.4614C37.6717 28.4074 37.7506 28.3338 37.8111 28.2457C37.8716 28.1577 37.9123 28.0573 37.9301 27.9517C37.948 27.8461 37.9427 27.7379 37.9146 27.6345L41.0118 26.1769L42.8763 23.136L41.4107 22.5395L40.1529 24.9899L36.9691 27.1289C36.8001 27.188 36.6585 27.3075 36.5711 27.4649C36.4837 27.6223 36.4566 27.8065 36.4949 27.9827C36.5332 28.1588 36.6342 28.3147 36.7789 28.4208C36.9236 28.5268 37.1019 28.5757 37.2799 28.5581Z" fill="#FFB6B6"/>
<path d="M44.0264 20.2229C44.0264 20.2229 44.3914 20.3431 43.9908 21.0569C43.6701 21.6283 42.1077 24.9199 41.4701 25.5662C41.5372 25.6746 41.5666 25.8024 41.5537 25.9295C41.5408 26.0567 41.4863 26.1758 41.3989 26.2683L39.9268 25.0905C39.8986 24.6622 40.1798 24.6197 40.3464 24.6341L40.6851 23.424L41.8663 20.4388L43.7641 20.1314L44.0264 20.2229Z" fill="#FD8F52"/>
<path d="M44.0583 14.6277C44.1279 14.344 44.6328 14.1345 43.7679 13.7384C43.558 13.6423 43.5667 13.3112 43.3891 13.163C43.2115 13.0147 42.9515 12.946 42.7451 13.0496C42.5608 13.1422 42.457 13.3516 42.4348 13.5579C42.4242 13.7657 42.448 13.9737 42.5052 14.1735L42.4884 14.1982C42.8311 14.4626 43.1737 14.7269 43.5163 14.9912C43.6422 15.0883 43.8068 15.19 43.9479 15.1172C44.1076 15.0347 44.0152 14.8034 44.0583 14.6277Z" fill="#2F2E41"/>
</g>
<defs>
<clipPath id="clip0_15_750">
<rect width="48" height="37" fill="white" transform="translate(3 13)"/>
</clipPath>
</defs>
</svg>
