<svg width="54" height="54" viewBox="0 0 54 54" fill="none" xmlns="http://www.w3.org/2000/svg">
<circle cx="27" cy="27" r="27" fill="#FD8F52" fill-opacity="0.19"/>
<g clip-path="url(#clip0_146_5600)">
<path d="M41.589 22.9567C41.589 22.9567 40.5545 23.5771 40.8523 24.2833C41.1501 24.9896 45.3784 24.4117 45.3784 24.4117C45.3784 24.4117 45.0807 23.4486 44.5447 23.256C44.0087 23.0634 41.589 22.9567 41.589 22.9567Z" fill="#FD8F52"/>
<path d="M41.1857 23.1221C41.3936 22.9764 41.6247 22.8734 41.8674 22.8182C42.6767 22.6067 43.5241 22.6352 44.3197 22.9007L44.3051 22.8879C44.644 23.0808 44.9416 23.3483 45.1785 23.673L41.1857 23.1221Z" fill="#CCCCCC"/>
<path d="M45.7667 26.1594C45.7524 26.3899 45.7381 26.6202 45.7238 26.8503C45.7042 27.3322 45.6555 27.8122 45.5779 28.2872C45.5052 28.6846 45.3897 29.0789 45.183 29.4172C44.9764 29.755 44.6697 30.0343 44.3064 30.137C44.0834 30.1946 43.8515 30.2001 43.6263 30.153C43.2017 29.893 42.914 30.2256 43.338 30.564C43.4342 30.6406 43.5342 30.7116 43.6376 30.7765L43.83 33.9784L40.2567 33.1438L40.9541 28.8843C40.8473 28.7797 40.7496 28.6647 40.6623 28.5408C40.2627 27.9687 40.1251 27.2233 40.1513 26.5081C40.1781 25.7922 40.355 25.0942 40.5307 24.404C40.5754 24.2168 40.6295 24.0322 40.6926 23.8512C40.7707 23.8859 40.8499 23.9173 40.9303 23.9437C41.4442 24.1119 41.9903 24.1254 42.5275 24.1247C43.4834 24.1241 44.438 24.0838 45.3915 24.004C45.6106 24.3929 45.7437 24.831 45.7804 25.2843C45.7958 25.576 45.7912 25.8685 45.7667 26.1594Z" fill="#CCCCCC"/>
<path d="M30.4839 34.8513L35.9849 35.3778L36.0439 35.3836V10.0774C36.0242 10.0626 36.0046 10.0479 35.9849 10.0331C34.8385 9.16854 33.5983 8.4583 32.292 7.91815L32.0109 12.098L31.9853 12.4806L31.7071 16.6258L31.6214 17.9009L30.494 34.7036L30.4839 34.8513Z" fill="#E6E6E6"/>
<path d="M16.8799 9.60612C16.8406 9.63309 16.8013 9.66006 16.762 9.68831V35.3836L16.8799 35.372L22.3214 34.8513L22.3112 34.7036L21.1839 17.9009L21.0981 16.6258L20.82 12.4806L20.7944 12.098L20.4996 7.71461C19.2283 8.1897 18.0134 8.82458 16.8799 9.60612Z" fill="#E6E6E6"/>
<path d="M16.7619 9.68831C16.6827 9.74353 16.6035 9.80003 16.5255 9.85717V35.7341C16.5255 36.3807 16.8811 36.9226 17.3563 37.0606C17.434 37.0833 17.5141 37.0947 17.5945 37.0946H35.2703C35.3505 37.0948 35.4304 37.0833 35.5079 37.0606C35.6845 37.0078 35.8446 36.9044 35.9712 36.7614C36.2126 36.4832 36.3445 36.115 36.3393 35.7341V10.3073C36.2416 10.2296 36.1433 10.1525 36.0439 10.0774C36.0242 10.0626 36.0046 10.0479 35.9849 10.0331V35.7341C35.9851 35.8174 35.9759 35.9004 35.9575 35.9813C35.8736 36.3633 35.5966 36.6433 35.2703 36.6433H17.5945C17.2003 36.6433 16.8799 36.2356 16.8799 35.7341V9.60612C16.8406 9.63309 16.8012 9.66006 16.7619 9.68831Z" fill="#E6E6E6"/>
<path d="M36.1622 12.0982H16.7026V12.4808H36.1622V12.0982Z" fill="#E6E6E6"/>
<path d="M30.2022 7.21766C30.0843 7.1862 29.9664 7.15667 29.8473 7.12906V17.5182H30.2022V7.21766Z" fill="#E6E6E6"/>
<path d="M23.0175 7C22.899 7.02376 22.7805 7.04815 22.6626 7.07448V17.5182H23.0175V7Z" fill="#E6E6E6"/>
<path d="M12.8873 36.425C12.8872 36.6445 12.9263 36.8621 13.0023 37.0658C13.0315 37.1447 13.0663 37.2212 13.1065 37.2943C13.1584 37.3897 13.2186 37.4796 13.2863 37.5627C13.436 37.7465 13.6202 37.8938 13.8269 37.9947C14.0335 38.0955 14.2577 38.1477 14.4846 38.1476H37.7888C38.2124 38.1476 38.6187 37.9662 38.9183 37.6433C39.2178 37.3203 39.3861 36.8823 39.3861 36.4256C39.3861 35.9689 39.2178 35.5309 38.9183 35.208C38.6187 34.885 38.2124 34.7036 37.7888 34.7036H14.4846C14.0612 34.7041 13.6553 34.8855 13.3558 35.2082C13.0564 35.531 12.8879 35.9685 12.8873 36.425Z" fill="#E6E6E6"/>
<path d="M16.7026 17.901L36.0438 17.901V16.6257L16.7026 16.6257V17.901Z" fill="#E6E6E6"/>
<path d="M27.2013 16.9445H25.5452C25.5452 16.8524 25.562 16.7612 25.5947 16.6761C25.6274 16.591 25.6753 16.5137 25.7357 16.4485C25.7961 16.3834 25.8679 16.3317 25.9468 16.2965C26.0257 16.2612 26.1103 16.2431 26.1958 16.2431H26.5507C26.7232 16.2431 26.8887 16.317 27.0107 16.4485C27.1327 16.5801 27.2013 16.7585 27.2013 16.9445Z" fill="#E6E6E6"/>
<path d="M5 37.4086C5.51736 38.0695 6.07695 38.6906 6.67467 39.2674H47.3253C47.923 38.6906 48.4826 38.0695 49 37.4086H5Z" fill="#3F3D56"/>
<path d="M16.0271 31.1928V37.7778H20.3061V31.1928C20.3062 31.1455 20.2921 31.0993 20.2661 31.0612C20.24 31.023 20.2033 30.9949 20.1614 30.9809C20.1416 30.9739 20.1209 30.9704 20.1 30.9707H16.2338C16.2067 30.9706 16.1798 30.9763 16.1547 30.9874C16.1297 30.9986 16.1069 31.0149 16.0877 31.0356C16.0685 31.0562 16.0533 31.0807 16.0429 31.1077C16.0325 31.1347 16.0271 31.1636 16.0271 31.1928ZM17.697 33.4554C17.6981 33.3256 17.7467 33.2015 17.8323 33.1102C17.9178 33.0188 18.0334 32.9675 18.1538 32.9675C18.2742 32.9675 18.3898 33.0188 18.4753 33.1102C18.5608 33.2015 18.6095 33.3256 18.6106 33.4554V34.2195C18.61 34.3497 18.5616 34.4743 18.476 34.5661C18.3904 34.6579 18.2745 34.7094 18.1538 34.7094C18.033 34.7094 17.9172 34.6579 17.8316 34.5661C17.746 34.4743 17.6976 34.3497 17.697 34.2195V33.4554Z" fill="#2F2E41"/>
<path d="M16.014 37.5672V38.2022C16.0141 38.2351 16.0263 38.2666 16.0478 38.2899C16.0693 38.3133 16.0985 38.3265 16.129 38.3268H20.2043C20.2348 38.3266 20.2641 38.3134 20.2856 38.2901C20.3071 38.2667 20.3192 38.2351 20.3192 38.2022V37.5672H16.014Z" fill="#3F3D56"/>
<path d="M9.29565 21.2717V33.2949C9.29577 33.4482 9.35227 33.5951 9.45277 33.7034C9.55326 33.8117 9.68953 33.8727 9.83164 33.8728H26.358C26.5001 33.8727 26.6364 33.8117 26.7369 33.7034C26.8374 33.5951 26.8939 33.4482 26.894 33.2949V21.2717C26.8936 21.1186 26.8371 20.9719 26.7366 20.8637C26.6361 20.7556 26.5 20.6947 26.358 20.6945H9.83164C9.68965 20.6947 9.55351 20.7556 9.45305 20.8637C9.35259 20.9719 9.29599 21.1186 9.29565 21.2717Z" fill="#3F3D56"/>
<path d="M9.68335 21.4213V33.1466C9.68348 33.2285 9.7137 33.307 9.76739 33.3648C9.82109 33.4227 9.89387 33.4553 9.96981 33.4555H26.2204C26.2964 33.4553 26.3691 33.4227 26.4228 33.3648C26.4765 33.307 26.5067 33.2285 26.5069 33.1466V21.4213C26.5069 21.3394 26.4767 21.2607 26.423 21.2027C26.3693 21.1447 26.2964 21.112 26.2204 21.1118H9.96981C9.89378 21.112 9.82093 21.1447 9.76722 21.2027C9.71352 21.2607 9.68336 21.3394 9.68335 21.4213Z" fill="#FD8F52"/>
<path d="M12.9969 38.4764C13.0134 38.4987 13.0345 38.5167 13.0584 38.5291C13.0823 38.5414 13.1085 38.5478 13.1351 38.5476H22.8031C22.8296 38.5476 22.8557 38.5412 22.8795 38.5289C22.9034 38.5166 22.9244 38.4988 22.9411 38.4766C22.9577 38.4545 22.9696 38.4286 22.9758 38.4009C22.9821 38.3732 22.9825 38.3444 22.977 38.3165L22.827 37.5479C22.8207 37.5166 22.8074 37.4874 22.788 37.4631C22.7687 37.4388 22.744 37.42 22.7162 37.4086C22.6961 37.4001 22.6747 37.3957 22.6531 37.3958H13.2846C13.263 37.3957 13.2415 37.4001 13.2214 37.4086C13.1937 37.42 13.169 37.4388 13.1496 37.4631C13.1303 37.4874 13.1169 37.5166 13.1107 37.5479L12.9606 38.3165C12.9552 38.3444 12.9557 38.3732 12.962 38.4008C12.9683 38.4285 12.9802 38.4543 12.9969 38.4764Z" fill="#2F2E41"/>
<path d="M22.3158 37.7268H22.5554C22.5715 37.7268 22.5845 37.7128 22.5845 37.6954V37.5655C22.5845 37.5482 22.5715 37.5342 22.5554 37.5342H22.3158C22.2997 37.5342 22.2867 37.5482 22.2867 37.5655V37.6954C22.2867 37.7128 22.2997 37.7268 22.3158 37.7268Z" fill="#3F3D56"/>
<path d="M21.7202 37.7268H21.9598C21.9759 37.7268 21.9889 37.7128 21.9889 37.6954V37.5655C21.9889 37.5482 21.9759 37.5342 21.9598 37.5342H21.7202C21.7041 37.5342 21.6911 37.5482 21.6911 37.5655V37.6954C21.6911 37.7128 21.7041 37.7268 21.7202 37.7268Z" fill="#3F3D56"/>
<path d="M21.1246 37.7268H21.3642C21.3803 37.7268 21.3933 37.7128 21.3933 37.6954V37.5655C21.3933 37.5482 21.3803 37.5342 21.3642 37.5342H21.1246C21.1086 37.5342 21.0955 37.5482 21.0955 37.5655V37.6954C21.0955 37.7128 21.1086 37.7268 21.1246 37.7268Z" fill="#3F3D56"/>
<path d="M20.5292 37.7268H20.7688C20.7848 37.7268 20.7979 37.7128 20.7979 37.6954V37.5655C20.7979 37.5482 20.7848 37.5342 20.7688 37.5342H20.5292C20.5131 37.5342 20.5001 37.5482 20.5001 37.5655V37.6954C20.5001 37.7128 20.5131 37.7268 20.5292 37.7268Z" fill="#3F3D56"/>
<path d="M19.9336 37.7268H20.1732C20.1893 37.7268 20.2023 37.7128 20.2023 37.6954V37.5655C20.2023 37.5482 20.1893 37.5342 20.1732 37.5342H19.9336C19.9175 37.5342 19.9045 37.5482 19.9045 37.5655V37.6954C19.9045 37.7128 19.9175 37.7268 19.9336 37.7268Z" fill="#3F3D56"/>
<path d="M19.338 37.7268H19.5776C19.5937 37.7268 19.6067 37.7128 19.6067 37.6954V37.5655C19.6067 37.5482 19.5937 37.5342 19.5776 37.5342H19.338C19.3219 37.5342 19.3089 37.5482 19.3089 37.5655V37.6954C19.3089 37.7128 19.3219 37.7268 19.338 37.7268Z" fill="#3F3D56"/>
<path d="M18.7425 37.7268H18.9822C18.9982 37.7268 19.0112 37.7128 19.0112 37.6954V37.5655C19.0112 37.5482 18.9982 37.5342 18.9822 37.5342H18.7425C18.7265 37.5342 18.7135 37.5482 18.7135 37.5655V37.6954C18.7135 37.7128 18.7265 37.7268 18.7425 37.7268Z" fill="#3F3D56"/>
<path d="M18.147 37.7268H18.3866C18.4026 37.7268 18.4156 37.7128 18.4156 37.6954V37.5655C18.4156 37.5482 18.4026 37.5342 18.3866 37.5342H18.147C18.1309 37.5342 18.1179 37.5482 18.1179 37.5655V37.6954C18.1179 37.7128 18.1309 37.7268 18.147 37.7268Z" fill="#3F3D56"/>
<path d="M17.5514 37.7268H17.791C17.8071 37.7268 17.8201 37.7128 17.8201 37.6954V37.5655C17.8201 37.5482 17.8071 37.5342 17.791 37.5342H17.5514C17.5353 37.5342 17.5223 37.5482 17.5223 37.5655V37.6954C17.5223 37.7128 17.5353 37.7268 17.5514 37.7268Z" fill="#3F3D56"/>
<path d="M16.9559 37.7268H17.1955C17.2116 37.7268 17.2246 37.7128 17.2246 37.6954V37.5655C17.2246 37.5482 17.2116 37.5342 17.1955 37.5342H16.9559C16.9399 37.5342 16.9268 37.5482 16.9268 37.5655V37.6954C16.9268 37.7128 16.9399 37.7268 16.9559 37.7268Z" fill="#3F3D56"/>
<path d="M16.3603 37.7268H16.6C16.616 37.7268 16.629 37.7128 16.629 37.6954V37.5655C16.629 37.5482 16.616 37.5342 16.6 37.5342H16.3603C16.3443 37.5342 16.3313 37.5482 16.3313 37.5655V37.6954C16.3313 37.7128 16.3443 37.7268 16.3603 37.7268Z" fill="#3F3D56"/>
<path d="M15.7647 37.7268H16.0044C16.0204 37.7268 16.0334 37.7128 16.0334 37.6954V37.5655C16.0334 37.5482 16.0204 37.5342 16.0044 37.5342H15.7647C15.7487 37.5342 15.7357 37.5482 15.7357 37.5655V37.6954C15.7357 37.7128 15.7487 37.7268 15.7647 37.7268Z" fill="#3F3D56"/>
<path d="M15.1692 37.7268H15.4088C15.4248 37.7268 15.4379 37.7128 15.4379 37.6954V37.5655C15.4379 37.5482 15.4248 37.5342 15.4088 37.5342H15.1692C15.1531 37.5342 15.1401 37.5482 15.1401 37.5655V37.6954C15.1401 37.7128 15.1531 37.7268 15.1692 37.7268Z" fill="#3F3D56"/>
<path d="M14.5737 37.7268H14.8133C14.8294 37.7268 14.8424 37.7128 14.8424 37.6954V37.5655C14.8424 37.5482 14.8294 37.5342 14.8133 37.5342H14.5737C14.5577 37.5342 14.5446 37.5482 14.5446 37.5655V37.6954C14.5446 37.7128 14.5577 37.7268 14.5737 37.7268Z" fill="#3F3D56"/>
<path d="M13.9781 37.7268H14.2178C14.2338 37.7268 14.2468 37.7128 14.2468 37.6954V37.5655C14.2468 37.5482 14.2338 37.5342 14.2178 37.5342H13.9781C13.9621 37.5342 13.9491 37.5482 13.9491 37.5655V37.6954C13.9491 37.7128 13.9621 37.7268 13.9781 37.7268Z" fill="#3F3D56"/>
<path d="M13.3825 37.7268H13.6222C13.6382 37.7268 13.6512 37.7128 13.6512 37.6954V37.5655C13.6512 37.5482 13.6382 37.5342 13.6222 37.5342H13.3825C13.3665 37.5342 13.3535 37.5482 13.3535 37.5655V37.6954C13.3535 37.7128 13.3665 37.7268 13.3825 37.7268Z" fill="#3F3D56"/>
<path d="M22.3229 38.0478H22.5625C22.5785 38.0478 22.5916 38.0338 22.5916 38.0165V37.8865C22.5916 37.8692 22.5785 37.8552 22.5625 37.8552H22.3229C22.3068 37.8552 22.2938 37.8692 22.2938 37.8865V38.0165C22.2938 38.0338 22.3068 38.0478 22.3229 38.0478Z" fill="#3F3D56"/>
<path d="M21.7273 38.0478H21.9669C21.983 38.0478 21.996 38.0338 21.996 38.0165V37.8865C21.996 37.8692 21.983 37.8552 21.9669 37.8552H21.7273C21.7112 37.8552 21.6982 37.8692 21.6982 37.8865V38.0165C21.6982 38.0338 21.7112 38.0478 21.7273 38.0478Z" fill="#3F3D56"/>
<path d="M21.1317 38.0478H21.3713C21.3874 38.0478 21.4004 38.0338 21.4004 38.0165V37.8865C21.4004 37.8692 21.3874 37.8552 21.3713 37.8552H21.1317C21.1156 37.8552 21.1026 37.8692 21.1026 37.8865V38.0165C21.1026 38.0338 21.1156 38.0478 21.1317 38.0478Z" fill="#3F3D56"/>
<path d="M20.5361 38.0478H20.7757C20.7918 38.0478 20.8048 38.0338 20.8048 38.0165V37.8865C20.8048 37.8692 20.7918 37.8552 20.7757 37.8552H20.5361C20.5201 37.8552 20.507 37.8692 20.507 37.8865V38.0165C20.507 38.0338 20.5201 38.0478 20.5361 38.0478Z" fill="#3F3D56"/>
<path d="M19.9407 38.0478H20.1803C20.1963 38.0478 20.2094 38.0338 20.2094 38.0165V37.8865C20.2094 37.8692 20.1963 37.8552 20.1803 37.8552H19.9407C19.9246 37.8552 19.9116 37.8692 19.9116 37.8865V38.0165C19.9116 38.0338 19.9246 38.0478 19.9407 38.0478Z" fill="#3F3D56"/>
<path d="M19.3451 38.0478H19.5847C19.6008 38.0478 19.6138 38.0338 19.6138 38.0165V37.8865C19.6138 37.8692 19.6008 37.8552 19.5847 37.8552H19.3451C19.329 37.8552 19.316 37.8692 19.316 37.8865V38.0165C19.316 38.0338 19.329 38.0478 19.3451 38.0478Z" fill="#3F3D56"/>
<path d="M18.7495 38.0478H18.9891C19.0052 38.0478 19.0182 38.0338 19.0182 38.0165V37.8865C19.0182 37.8692 19.0052 37.8552 18.9891 37.8552H18.7495C18.7334 37.8552 18.7204 37.8692 18.7204 37.8865V38.0165C18.7204 38.0338 18.7334 38.0478 18.7495 38.0478Z" fill="#3F3D56"/>
<path d="M18.154 38.0478H18.3937C18.4097 38.0478 18.4227 38.0338 18.4227 38.0165V37.8865C18.4227 37.8692 18.4097 37.8552 18.3937 37.8552H18.154C18.138 37.8552 18.125 37.8692 18.125 37.8865V38.0165C18.125 38.0338 18.138 38.0478 18.154 38.0478Z" fill="#3F3D56"/>
<path d="M17.5585 38.0478H17.7981C17.8141 38.0478 17.8271 38.0338 17.8271 38.0165V37.8865C17.8271 37.8692 17.8141 37.8552 17.7981 37.8552H17.5585C17.5424 37.8552 17.5294 37.8692 17.5294 37.8865V38.0165C17.5294 38.0338 17.5424 38.0478 17.5585 38.0478Z" fill="#3F3D56"/>
<path d="M16.9629 38.0478H17.2025C17.2186 38.0478 17.2316 38.0338 17.2316 38.0165V37.8865C17.2316 37.8692 17.2186 37.8552 17.2025 37.8552H16.9629C16.9468 37.8552 16.9338 37.8692 16.9338 37.8865V38.0165C16.9338 38.0338 16.9468 38.0478 16.9629 38.0478Z" fill="#3F3D56"/>
<path d="M16.3674 38.0478H16.607C16.6231 38.0478 16.6361 38.0338 16.6361 38.0165V37.8865C16.6361 37.8692 16.6231 37.8552 16.607 37.8552H16.3674C16.3514 37.8552 16.3383 37.8692 16.3383 37.8865V38.0165C16.3383 38.0338 16.3514 38.0478 16.3674 38.0478Z" fill="#3F3D56"/>
<path d="M15.7718 38.0478H16.0115C16.0275 38.0478 16.0405 38.0338 16.0405 38.0165V37.8865C16.0405 37.8692 16.0275 37.8552 16.0115 37.8552H15.7718C15.7558 37.8552 15.7428 37.8692 15.7428 37.8865V38.0165C15.7428 38.0338 15.7558 38.0478 15.7718 38.0478Z" fill="#3F3D56"/>
<path d="M15.1762 38.0478H15.4159C15.4319 38.0478 15.4449 38.0338 15.4449 38.0165V37.8865C15.4449 37.8692 15.4319 37.8552 15.4159 37.8552H15.1762C15.1602 37.8552 15.1472 37.8692 15.1472 37.8865V38.0165C15.1472 38.0338 15.1602 38.0478 15.1762 38.0478Z" fill="#3F3D56"/>
<path d="M14.5807 38.0478H14.8203C14.8363 38.0478 14.8494 38.0338 14.8494 38.0165V37.8865C14.8494 37.8692 14.8363 37.8552 14.8203 37.8552H14.5807C14.5646 37.8552 14.5516 37.8692 14.5516 37.8865V38.0165C14.5516 38.0338 14.5646 38.0478 14.5807 38.0478Z" fill="#3F3D56"/>
<path d="M13.9852 38.0478H14.2248C14.2409 38.0478 14.2539 38.0338 14.2539 38.0165V37.8865C14.2539 37.8692 14.2409 37.8552 14.2248 37.8552H13.9852C13.9692 37.8552 13.9561 37.8692 13.9561 37.8865V38.0165C13.9561 38.0338 13.9692 38.0478 13.9852 38.0478Z" fill="#3F3D56"/>
<path d="M13.3896 38.0478H13.6293C13.6453 38.0478 13.6583 38.0338 13.6583 38.0165V37.8865C13.6583 37.8692 13.6453 37.8552 13.6293 37.8552H13.3896C13.3736 37.8552 13.3606 37.8692 13.3606 37.8865V38.0165C13.3606 38.0338 13.3736 38.0478 13.3896 38.0478Z" fill="#3F3D56"/>
<path d="M17.3798 38.4331H19.7038C19.7199 38.4331 19.7329 38.419 19.7329 38.4017V38.2718C19.7329 38.2545 19.7199 38.2404 19.7038 38.2404H17.3798C17.3637 38.2404 17.3507 38.2545 17.3507 38.2718V38.4017C17.3507 38.419 17.3637 38.4331 17.3798 38.4331Z" fill="#3F3D56"/>
<path d="M10.7864 22.727H25.9921C26.0079 22.7267 26.0229 22.7196 26.034 22.7075C26.045 22.6953 26.0512 22.6789 26.0512 22.6619C26.0512 22.6448 26.045 22.6284 26.034 22.6163C26.0229 22.6041 26.0079 22.597 25.9921 22.5967H10.7864C10.7706 22.597 10.7556 22.6041 10.7445 22.6163C10.7335 22.6284 10.7273 22.6448 10.7273 22.6619C10.7273 22.6789 10.7335 22.6953 10.7445 22.7075C10.7556 22.7196 10.7706 22.7267 10.7864 22.727Z" fill="#3F3D56"/>
<path d="M24.957 22.2638C25.1528 22.2638 25.3114 22.089 25.3114 21.8732C25.3114 21.6575 25.1528 21.4827 24.957 21.4827C24.7613 21.4827 24.6027 21.6575 24.6027 21.8732C24.6027 22.089 24.7613 22.2638 24.957 22.2638Z" fill="#3F3D56"/>
<path d="M23.7328 22.2638C23.9285 22.2638 24.0872 22.089 24.0872 21.8732C24.0872 21.6575 23.9285 21.4827 23.7328 21.4827C23.5371 21.4827 23.3784 21.6575 23.3784 21.8732C23.3784 22.089 23.5371 22.2638 23.7328 22.2638Z" fill="#3F3D56"/>
<path d="M22.5085 22.2638C22.7043 22.2638 22.8629 22.089 22.8629 21.8732C22.8629 21.6575 22.7043 21.4827 22.5085 21.4827C22.3128 21.4827 22.1542 21.6575 22.1542 21.8732C22.1542 22.089 22.3128 22.2638 22.5085 22.2638Z" fill="#3F3D56"/>
<path d="M11.4586 21.6505C11.4586 21.6598 11.4602 21.6689 11.4635 21.6775C11.4667 21.686 11.4715 21.6938 11.4775 21.7003C11.4835 21.7069 11.4907 21.7121 11.4986 21.7157C11.5065 21.7192 11.515 21.7211 11.5235 21.7211H12.393C12.4102 21.7207 12.4266 21.7131 12.4386 21.6998C12.4506 21.6865 12.4573 21.6687 12.4573 21.6502C12.4573 21.6317 12.4506 21.6139 12.4386 21.6006C12.4266 21.5873 12.4102 21.5797 12.393 21.5793H11.5235C11.5062 21.5795 11.4896 21.5871 11.4774 21.6005C11.4653 21.6138 11.4585 21.6318 11.4586 21.6505Z" fill="#3F3D56"/>
<path d="M11.4586 21.917C11.4586 21.9262 11.4602 21.9354 11.4635 21.9439C11.4667 21.9525 11.4715 21.9602 11.4775 21.9668C11.4835 21.9734 11.4907 21.9786 11.4986 21.9821C11.5065 21.9857 11.515 21.9876 11.5235 21.9876H12.393C12.4102 21.9872 12.4266 21.9795 12.4386 21.9663C12.4507 21.953 12.4574 21.9352 12.4574 21.9167C12.4574 21.8981 12.4507 21.8803 12.4386 21.867C12.4266 21.8538 12.4102 21.8461 12.393 21.8457H11.5235C11.5062 21.8459 11.4896 21.8536 11.4774 21.8669C11.4653 21.8803 11.4585 21.8983 11.4586 21.917Z" fill="#3F3D56"/>
<path d="M11.4586 22.1828C11.4585 22.2015 11.4653 22.2195 11.4774 22.2329C11.4896 22.2462 11.5062 22.2538 11.5235 22.2541H12.393C12.4102 22.2536 12.4266 22.246 12.4386 22.2327C12.4506 22.2195 12.4573 22.2017 12.4573 22.1831C12.4573 22.1646 12.4506 22.1468 12.4386 22.1335C12.4266 22.1203 12.4102 22.1126 12.393 22.1122H11.5235C11.515 22.1122 11.5065 22.1141 11.4986 22.1176C11.4907 22.1212 11.4835 22.1264 11.4775 22.133C11.4715 22.1395 11.4667 22.1473 11.4635 22.1559C11.4602 22.1644 11.4586 22.1736 11.4586 22.1828Z" fill="#3F3D56"/>
<path d="M11.7274 24.2421H11.4149C11.3202 24.2421 11.2434 24.3249 11.2434 24.427C11.2434 24.5291 11.3202 24.6119 11.4149 24.6119H11.7274C11.8221 24.6119 11.8989 24.5291 11.8989 24.427C11.8989 24.3249 11.8221 24.2421 11.7274 24.2421Z" fill="#E6E6E6"/>
<path d="M15.3006 24.2421H14.9882C14.8934 24.2421 14.8167 24.3249 14.8167 24.427C14.8167 24.5291 14.8934 24.6119 14.9882 24.6119H15.3006C15.3953 24.6119 15.4721 24.5291 15.4721 24.427C15.4721 24.3249 15.3953 24.2421 15.3006 24.2421Z" fill="#E6E6E6"/>
<path d="M16.313 24.2421H16.0006C15.9059 24.2421 15.8291 24.3249 15.8291 24.427C15.8291 24.5291 15.9059 24.6119 16.0006 24.6119H16.313C16.4078 24.6119 16.4846 24.5291 16.4846 24.427C16.4846 24.3249 16.4078 24.2421 16.313 24.2421Z" fill="#E6E6E6"/>
<path d="M14.3287 24.2113H12.3868C12.2921 24.2113 12.2153 24.294 12.2153 24.3962C12.2153 24.4983 12.2921 24.5811 12.3868 24.5811H14.3287C14.4234 24.5811 14.5002 24.4983 14.5002 24.3962C14.5002 24.294 14.4234 24.2113 14.3287 24.2113Z" fill="#E6E6E6"/>
<path d="M19.0931 24.2113H17.1513C17.0565 24.2113 16.9797 24.294 16.9797 24.3962C16.9797 24.4983 17.0565 24.5811 17.1513 24.5811H19.0931C19.1878 24.5811 19.2646 24.4983 19.2646 24.3962C19.2646 24.294 19.1878 24.2113 19.0931 24.2113Z" fill="#E6E6E6"/>
<path d="M12.6802 25.0768H12.3678C12.2731 25.0768 12.1963 25.1596 12.1963 25.2617C12.1963 25.3638 12.2731 25.4466 12.3678 25.4466H12.6802C12.775 25.4466 12.8518 25.3638 12.8518 25.2617C12.8518 25.1596 12.775 25.0768 12.6802 25.0768Z" fill="#E6E6E6"/>
<path d="M16.2535 25.0768H15.941C15.8463 25.0768 15.7695 25.1596 15.7695 25.2617C15.7695 25.3638 15.8463 25.4466 15.941 25.4466H16.2535C16.3482 25.4466 16.425 25.3638 16.425 25.2617C16.425 25.1596 16.3482 25.0768 16.2535 25.0768Z" fill="#E6E6E6"/>
<path d="M17.2659 25.0768H16.9535C16.8588 25.0768 16.782 25.1596 16.782 25.2617C16.782 25.3638 16.8588 25.4466 16.9535 25.4466H17.2659C17.3607 25.4466 17.4374 25.3638 17.4374 25.2617C17.4374 25.1596 17.3607 25.0768 17.2659 25.0768Z" fill="#E6E6E6"/>
<path d="M15.2815 25.0459H13.3397C13.245 25.0459 13.1682 25.1287 13.1682 25.2309C13.1682 25.333 13.245 25.4158 13.3397 25.4158H15.2815C15.3763 25.4158 15.4531 25.333 15.4531 25.2309C15.4531 25.1287 15.3763 25.0459 15.2815 25.0459Z" fill="#E6E6E6"/>
<path d="M20.046 25.0459H18.1041C18.0094 25.0459 17.9326 25.1287 17.9326 25.2309C17.9326 25.333 18.0094 25.4158 18.1041 25.4158H20.046C20.1407 25.4158 20.2175 25.333 20.2175 25.2309C20.2175 25.1287 20.1407 25.0459 20.046 25.0459Z" fill="#E6E6E6"/>
<path d="M13.6331 25.9115H13.3207C13.226 25.9115 13.1492 25.9942 13.1492 26.0964C13.1492 26.1985 13.226 26.2813 13.3207 26.2813H13.6331C13.7278 26.2813 13.8046 26.1985 13.8046 26.0964C13.8046 25.9942 13.7278 25.9115 13.6331 25.9115Z" fill="#E6E6E6"/>
<path d="M17.2064 25.9115H16.8939C16.7992 25.9115 16.7224 25.9942 16.7224 26.0964C16.7224 26.1985 16.7992 26.2813 16.8939 26.2813H17.2064C17.3011 26.2813 17.3779 26.1985 17.3779 26.0964C17.3779 25.9942 17.3011 25.9115 17.2064 25.9115Z" fill="#E6E6E6"/>
<path d="M18.2188 25.9115H17.9064C17.8117 25.9115 17.7349 25.9942 17.7349 26.0964C17.7349 26.1985 17.8117 26.2813 17.9064 26.2813H18.2188C18.3135 26.2813 18.3903 26.1985 18.3903 26.0964C18.3903 25.9942 18.3135 25.9115 18.2188 25.9115Z" fill="#E6E6E6"/>
<path d="M16.2344 25.8806H14.2926C14.1979 25.8806 14.1211 25.9634 14.1211 26.0655C14.1211 26.1677 14.1979 26.2504 14.2926 26.2504H16.2344C16.3292 26.2504 16.4059 26.1677 16.4059 26.0655C16.4059 25.9634 16.3292 25.8806 16.2344 25.8806Z" fill="#E6E6E6"/>
<path d="M20.9988 25.8806H19.057C18.9623 25.8806 18.8855 25.9634 18.8855 26.0655C18.8855 26.1677 18.9623 26.2504 19.057 26.2504H20.9988C21.0936 26.2504 21.1703 26.1677 21.1703 26.0655C21.1703 25.9634 21.0936 25.8806 20.9988 25.8806Z" fill="#E6E6E6"/>
<path d="M14.586 26.7461H14.2736C14.1788 26.7461 14.1021 26.8289 14.1021 26.931C14.1021 27.0332 14.1788 27.1159 14.2736 27.1159H14.586C14.6807 27.1159 14.7575 27.0332 14.7575 26.931C14.7575 26.8289 14.6807 26.7461 14.586 26.7461Z" fill="#E6E6E6"/>
<path d="M18.1592 26.7461H17.8468C17.7521 26.7461 17.6753 26.8289 17.6753 26.931C17.6753 27.0332 17.7521 27.1159 17.8468 27.1159H18.1592C18.254 27.1159 18.3308 27.0332 18.3308 26.931C18.3308 26.8289 18.254 26.7461 18.1592 26.7461Z" fill="#E6E6E6"/>
<path d="M19.1717 26.7461H18.8593C18.7645 26.7461 18.6877 26.8289 18.6877 26.931C18.6877 27.0332 18.7645 27.1159 18.8593 27.1159H19.1717C19.2664 27.1159 19.3432 27.0332 19.3432 26.931C19.3432 26.8289 19.2664 26.7461 19.1717 26.7461Z" fill="#E6E6E6"/>
<path d="M17.1873 26.7153H15.2455C15.1508 26.7153 15.074 26.7981 15.074 26.9002C15.074 27.0023 15.1508 27.0851 15.2455 27.0851H17.1873C17.282 27.0851 17.3588 27.0023 17.3588 26.9002C17.3588 26.7981 17.282 26.7153 17.1873 26.7153Z" fill="#E6E6E6"/>
<path d="M15.3006 30.0652H14.9882C14.8934 30.0652 14.8167 30.148 14.8167 30.2501C14.8167 30.3522 14.8934 30.435 14.9882 30.435H15.3006C15.3953 30.435 15.4721 30.3522 15.4721 30.2501C15.4721 30.148 15.3953 30.0652 15.3006 30.0652Z" fill="#E6E6E6"/>
<path d="M16.313 30.0652H16.0006C15.9059 30.0652 15.8291 30.148 15.8291 30.2501C15.8291 30.3522 15.9059 30.435 16.0006 30.435H16.313C16.4078 30.435 16.4846 30.3522 16.4846 30.2501C16.4846 30.148 16.4078 30.0652 16.313 30.0652Z" fill="#E6E6E6"/>
<path d="M19.0931 30.096H17.1513C17.0565 30.096 16.9797 30.1788 16.9797 30.2809C16.9797 30.383 17.0565 30.4658 17.1513 30.4658H19.0931C19.1878 30.4658 19.2646 30.383 19.2646 30.2809C19.2646 30.1788 19.1878 30.096 19.0931 30.096Z" fill="#E6E6E6"/>
<path d="M11.7274 30.0652H11.4149C11.3202 30.0652 11.2434 30.148 11.2434 30.2501C11.2434 30.3522 11.3202 30.435 11.4149 30.435H11.7274C11.8221 30.435 11.8989 30.3522 11.8989 30.2501C11.8989 30.148 11.8221 30.0652 11.7274 30.0652Z" fill="#E6E6E6"/>
<path d="M14.3287 30.096H12.3868C12.2921 30.096 12.2153 30.1788 12.2153 30.2809C12.2153 30.383 12.2921 30.4658 12.3868 30.4658H14.3287C14.4234 30.4658 14.5002 30.383 14.5002 30.2809C14.5002 30.1788 14.4234 30.096 14.3287 30.096Z" fill="#E6E6E6"/>
<path d="M12.6802 29.2305H12.3678C12.2731 29.2305 12.1963 29.3133 12.1963 29.4154C12.1963 29.5175 12.2731 29.6003 12.3678 29.6003H12.6802C12.775 29.6003 12.8518 29.5175 12.8518 29.4154C12.8518 29.3133 12.775 29.2305 12.6802 29.2305Z" fill="#E6E6E6"/>
<path d="M16.2535 29.2305H15.941C15.8463 29.2305 15.7695 29.3133 15.7695 29.4154C15.7695 29.5175 15.8463 29.6003 15.941 29.6003H16.2535C16.3482 29.6003 16.425 29.5175 16.425 29.4154C16.425 29.3133 16.3482 29.2305 16.2535 29.2305Z" fill="#E6E6E6"/>
<path d="M17.2659 29.2305H16.9535C16.8588 29.2305 16.782 29.3133 16.782 29.4154C16.782 29.5175 16.8588 29.6003 16.9535 29.6003H17.2659C17.3607 29.6003 17.4374 29.5175 17.4374 29.4154C17.4374 29.3133 17.3607 29.2305 17.2659 29.2305Z" fill="#E6E6E6"/>
<path d="M15.2815 29.2613H13.3397C13.245 29.2613 13.1682 29.3441 13.1682 29.4462C13.1682 29.5484 13.245 29.6311 13.3397 29.6311H15.2815C15.3763 29.6311 15.4531 29.5484 15.4531 29.4462C15.4531 29.3441 15.3763 29.2613 15.2815 29.2613Z" fill="#E6E6E6"/>
<path d="M13.6331 28.3958H13.3207C13.226 28.3958 13.1492 28.4786 13.1492 28.5807C13.1492 28.6828 13.226 28.7656 13.3207 28.7656H13.6331C13.7278 28.7656 13.8046 28.6828 13.8046 28.5807C13.8046 28.4786 13.7278 28.3958 13.6331 28.3958Z" fill="#E6E6E6"/>
<path d="M17.2064 28.3958H16.8939C16.7992 28.3958 16.7224 28.4786 16.7224 28.5807C16.7224 28.6828 16.7992 28.7656 16.8939 28.7656H17.2064C17.3011 28.7656 17.3779 28.6828 17.3779 28.5807C17.3779 28.4786 17.3011 28.3958 17.2064 28.3958Z" fill="#E6E6E6"/>
<path d="M18.2188 28.3958H17.9064C17.8117 28.3958 17.7349 28.4786 17.7349 28.5807C17.7349 28.6828 17.8117 28.7656 17.9064 28.7656H18.2188C18.3135 28.7656 18.3903 28.6828 18.3903 28.5807C18.3903 28.4786 18.3135 28.3958 18.2188 28.3958Z" fill="#E6E6E6"/>
<path d="M16.2344 28.4266H14.2926C14.1979 28.4266 14.1211 28.5094 14.1211 28.6115C14.1211 28.7137 14.1979 28.7965 14.2926 28.7965H16.2344C16.3292 28.7965 16.4059 28.7137 16.4059 28.6115C16.4059 28.5094 16.3292 28.4266 16.2344 28.4266Z" fill="#E6E6E6"/>
<path d="M14.586 27.5611H14.2736C14.1788 27.5611 14.1021 27.6439 14.1021 27.746C14.1021 27.8482 14.1788 27.9309 14.2736 27.9309H14.586C14.6807 27.9309 14.7575 27.8482 14.7575 27.746C14.7575 27.6439 14.6807 27.5611 14.586 27.5611Z" fill="#E6E6E6"/>
<path d="M18.1592 27.5611H17.8468C17.7521 27.5611 17.6753 27.6439 17.6753 27.746C17.6753 27.8482 17.7521 27.9309 17.8468 27.9309H18.1592C18.254 27.9309 18.3308 27.8482 18.3308 27.746C18.3308 27.6439 18.254 27.5611 18.1592 27.5611Z" fill="#E6E6E6"/>
<path d="M19.1717 27.5611H18.8593C18.7645 27.5611 18.6877 27.6439 18.6877 27.746C18.6877 27.8482 18.7645 27.9309 18.8593 27.9309H19.1717C19.2664 27.9309 19.3432 27.8482 19.3432 27.746C19.3432 27.6439 19.2664 27.5611 19.1717 27.5611Z" fill="#E6E6E6"/>
<path d="M17.1873 27.592H15.2455C15.1508 27.592 15.074 27.6748 15.074 27.7769C15.074 27.879 15.1508 27.9618 15.2455 27.9618H17.1873C17.282 27.9618 17.3588 27.879 17.3588 27.7769C17.3588 27.6748 17.282 27.592 17.1873 27.592Z" fill="#E6E6E6"/>
<path d="M10.6041 42.1233C10.6405 42.1432 10.6774 42.1631 10.7137 42.1823C11.6547 42.6896 12.4074 42.9778 13.4371 43.2937C13.5241 42.2472 13.6081 40.4077 13.6896 39.2674C13.7111 38.9714 13.7325 38.7229 13.7534 38.5476C13.7586 38.4544 13.7763 38.3625 13.8058 38.2748L13.8022 38.5476L13.7933 39.2674L13.7415 43.3836C15.0223 43.749 16.3381 43.9535 17.6625 43.9929C17.7316 43.9949 17.7995 43.9962 17.865 43.9974C17.8882 43.9981 17.9109 43.9987 17.9335 43.9987C18.0079 43.9994 18.0818 44 18.1562 44C19.5519 44.0011 20.9426 43.8194 22.2976 43.4587C22.2685 42.4231 22.2393 40.6041 22.2113 39.2674C22.2053 39.0061 22.2 38.7627 22.194 38.5476C22.1827 38.0879 22.1708 37.7566 22.1595 37.6455C22.1695 37.6652 22.1773 37.6861 22.1827 37.7078C22.2379 37.9847 22.2755 38.2653 22.2953 38.5476C22.3161 38.7627 22.3369 39.0061 22.3578 39.2674C22.4686 40.6561 22.5841 42.5444 22.7032 43.3451C23.4122 43.1364 24.1078 42.8784 24.7858 42.5727C25.1431 42.4122 25.4941 42.239 25.8387 42.0533C25.7732 41.591 25.7047 41.0728 25.6345 40.5354C25.5797 40.1187 25.5231 39.6905 25.4653 39.2674C25.376 38.6138 24.0485 34.0461 23.9646 33.8728C23.8925 33.7245 23.824 33.5845 23.7591 33.4554C23.6019 33.1421 23.4685 32.8924 23.3696 32.7344C22.9563 32.0585 22.341 31.5553 21.6259 31.3084L21.608 31.3033L21.5955 31.309L20.3776 30.9058L20.1995 30.8468L20.0798 30.807L19.6582 30.4609L19.4289 30.2728L19.2139 30.0962L18.7935 29.7514L16.1903 29.9241L15.6835 31.2397L14.5484 31.6872L14.5288 31.6776L14.5115 31.6699L14.4936 31.675C13.7786 31.9222 13.1634 32.4253 12.7499 33.101C12.6939 33.1916 12.626 33.311 12.5492 33.4554C12.4837 33.5781 12.4122 33.7181 12.3348 33.8728C12.2246 34.093 12.1043 34.3415 11.9769 34.6105C11.9489 34.6696 11.9203 34.7299 11.8917 34.7909C11.8387 34.9039 11.7849 35.0193 11.7303 35.137C11.6035 35.4099 11.4724 35.695 11.3414 35.9845C11.2277 36.2356 11.1127 36.7518 10.9996 37.4086C10.9061 37.9544 10.8132 38.5977 10.7232 39.2674C10.6053 40.1354 10.731 41.1749 10.6244 41.9737C10.6178 42.0244 10.6107 42.0738 10.6041 42.1233Z" fill="#3F3D56"/>
<path opacity="0.2" d="M23.0801 37.4058L22.574 35.3003L22.1272 37.1171L23.0801 37.4058Z" fill="black"/>
<path d="M9.61426 36.034C9.7953 38.7229 9.60771 39.9069 10.607 42.1239C11.5163 42.6037 12.4634 42.9952 13.4371 43.2937C13.5383 43.3246 13.6397 43.3545 13.7414 43.3836C15.0222 43.749 16.338 43.9535 17.6624 43.9929C17.7315 43.9949 17.7994 43.9962 17.8649 43.9974C17.8882 43.9981 17.9108 43.9987 17.9334 43.9987C18.0079 43.9994 18.0817 44 18.1561 44C19.5519 44.0011 20.9425 43.8194 22.2976 43.4587C22.4333 43.4228 22.5685 43.3849 22.7031 43.3451C23.4121 43.1364 24.1078 42.8784 24.7857 42.5727C25.1431 42.4122 25.494 42.239 25.8387 42.0533C25.9167 42.0109 25.9947 41.9685 26.0715 41.9249C26.4664 41.1762 26.6909 40.2658 26.6957 39.1717C26.4223 37.2866 10.2181 34.4083 9.61426 36.034Z" fill="#2F2E41"/>
<path opacity="0.2" d="M9.61477 36.4944C9.60552 36.328 9.59519 36.156 9.58313 35.977C10.187 34.3513 26.3912 37.2296 26.6645 39.1147C26.6638 39.2875 26.6569 39.4553 26.6454 39.619C25.9834 37.7584 10.5892 35.0227 9.61477 36.4944Z" fill="black"/>
<path d="M5.94267 37.3814C5.96891 37.4637 6.01868 37.535 6.08484 37.585C6.151 37.6349 6.23015 37.661 6.31091 37.6594L7.88861 37.6157C7.96997 37.614 8.04862 37.5839 8.11282 37.53C8.17702 37.4761 8.22332 37.4013 8.2448 37.3167L8.46806 34.7428C8.54727 34.7815 8.6335 34.8006 8.72045 34.7987C8.87293 34.7945 9.01761 34.7252 9.12269 34.606C9.22777 34.4868 9.28465 34.3275 9.28082 34.1631C9.27699 33.9987 9.21277 33.8426 9.10228 33.7293C8.99178 33.6159 8.84406 33.5545 8.69157 33.5585C8.65682 33.5584 8.62216 33.5623 8.58817 33.5701C8.55121 33.527 8.50629 33.4927 8.4563 33.4694C8.4063 33.4462 8.35235 33.4345 8.2979 33.4351L5.87103 33.5026C5.85089 33.5034 5.83086 33.5061 5.81116 33.5106C5.75794 33.5213 5.70746 33.5442 5.66312 33.5777C5.61879 33.6112 5.58162 33.6545 5.55412 33.7048C5.52662 33.7551 5.50943 33.8111 5.50371 33.8692C5.49799 33.9272 5.50386 33.9859 5.52094 34.0413L5.94267 37.3814ZM8.51385 34.5681L8.67271 33.9547C8.69079 33.8839 8.69121 33.8091 8.67393 33.7381C8.68164 33.738 8.68844 33.7341 8.69614 33.7341C8.80508 33.7316 8.91046 33.7759 8.98918 33.8571C9.0679 33.9383 9.11354 34.0499 9.11609 34.1673C9.11864 34.2847 9.0779 34.3984 9.00279 34.4835C8.92768 34.5686 8.82433 34.6181 8.71542 34.6212C8.64499 34.6236 8.5753 34.6052 8.51385 34.5681Z" fill="#2F2E41"/>
<path d="M5.81116 33.5106C5.86286 33.8294 6.44417 34.0534 7.14314 34.0145C7.7859 33.9826 8.31145 33.7392 8.40773 33.4509C8.3721 33.4395 8.33505 33.4342 8.29789 33.4351L5.87102 33.5026C5.85089 33.5034 5.83086 33.5061 5.81116 33.5106Z" fill="#3F3D56"/>
<path d="M7.27125 35.967C7.27445 35.9662 7.27749 35.9647 7.28024 35.9628L7.62287 35.721C7.62701 35.7181 7.63041 35.7141 7.63277 35.7094C7.63513 35.7047 7.63636 35.6995 7.63636 35.6941C7.63637 35.6888 7.63513 35.6836 7.63278 35.6789C7.63043 35.6742 7.62703 35.6702 7.62289 35.6673L7.26676 35.4158C7.2635 35.4135 7.25983 35.4119 7.25598 35.4111C7.25214 35.4103 7.24818 35.4103 7.24434 35.4111C7.2405 35.412 7.23686 35.4137 7.23362 35.416C7.23038 35.4184 7.2276 35.4215 7.22545 35.425C7.2233 35.4285 7.22182 35.4325 7.2211 35.4366C7.22037 35.4408 7.22041 35.445 7.22122 35.4492C7.22203 35.4533 7.22358 35.4572 7.2258 35.4607C7.22801 35.4642 7.23085 35.4672 7.23413 35.4695L7.55221 35.6941L7.24765 35.909C7.24175 35.9132 7.23741 35.9195 7.2354 35.9268C7.2334 35.934 7.23385 35.9419 7.23668 35.9488C7.23951 35.9558 7.24454 35.9614 7.25087 35.9648C7.2572 35.9681 7.26442 35.9689 7.27125 35.967Z" fill="#FD8F52"/>
<path d="M6.73012 35.9939C6.73587 35.9924 6.74105 35.989 6.74501 35.9842C6.74896 35.9795 6.7515 35.9735 6.75231 35.9672C6.75312 35.9608 6.75215 35.9544 6.74953 35.9487C6.74692 35.9429 6.74277 35.9382 6.73763 35.935L6.42181 35.7398L6.72706 35.4953C6.7302 35.4928 6.73284 35.4896 6.73485 35.486C6.73685 35.4824 6.73818 35.4784 6.73875 35.4742C6.73932 35.4701 6.73912 35.4658 6.73817 35.4617C6.73722 35.4577 6.73553 35.4538 6.7332 35.4504C6.73086 35.447 6.72794 35.4442 6.72459 35.442C6.72123 35.4399 6.71752 35.4384 6.71365 35.4378C6.70978 35.4372 6.70584 35.4374 6.70205 35.4385C6.69827 35.4395 6.6947 35.4413 6.69156 35.4438L6.3498 35.7175C6.34583 35.7207 6.34266 35.7249 6.34056 35.7297C6.33847 35.7345 6.33753 35.7398 6.33782 35.7452C6.33811 35.7505 6.33963 35.7556 6.34223 35.7602C6.34483 35.7647 6.34844 35.7685 6.35273 35.7711L6.70799 35.9907C6.71469 35.9948 6.72263 35.996 6.73012 35.9939Z" fill="#FD8F52"/>
<path d="M7.2372 36.1789C7.24008 36.1781 7.24284 36.1769 7.24536 36.1752C7.24871 36.173 7.25162 36.1701 7.25393 36.1667C7.25624 36.1633 7.25791 36.1595 7.25883 36.1554C7.25976 36.1513 7.25993 36.147 7.25933 36.1428C7.25873 36.1387 7.25737 36.1347 7.25534 36.1311L6.76964 35.2702C6.76551 35.2629 6.75889 35.2578 6.75123 35.2558C6.74357 35.2538 6.7355 35.2552 6.72877 35.2596C6.72204 35.264 6.71721 35.2711 6.71533 35.2794C6.71346 35.2876 6.71469 35.2963 6.71876 35.3036L7.20445 36.1645C7.20777 36.1704 7.21274 36.1749 7.21863 36.1775C7.22452 36.1801 7.23103 36.1806 7.2372 36.1789Z" fill="#FD8F52"/>
<path d="M44.9615 32.5659H39.6611V37.574H44.9615V32.5659Z" fill="#3F3D56"/>
<path d="M45.7471 25.5707C45.6488 26.1985 45.7351 26.8438 45.9939 27.4161C46.0897 27.6266 46.2083 27.8802 46.0917 28.0781C46.059 28.1276 46.0164 28.1685 45.9671 28.198C45.9178 28.2274 45.863 28.2447 45.8068 28.2483C45.6942 28.2548 45.5815 28.239 45.4742 28.2019" fill="#CCCCCC"/>
<path d="M41.0905 23.6413C41.1892 23.6413 41.2692 23.5694 41.2692 23.4808C41.2692 23.3921 41.1892 23.3202 41.0905 23.3202C40.9919 23.3202 40.9119 23.3921 40.9119 23.4808C40.9119 23.5694 40.9919 23.6413 41.0905 23.6413Z" fill="#3F3D56"/>
<path d="M41.7456 23.7055C41.8442 23.7055 41.9242 23.6336 41.9242 23.545C41.9242 23.4563 41.8442 23.3844 41.7456 23.3844C41.6469 23.3844 41.5669 23.4563 41.5669 23.545C41.5669 23.6336 41.6469 23.7055 41.7456 23.7055Z" fill="#3F3D56"/>
<path d="M42.4007 24.0265C42.4994 24.0265 42.5794 23.9546 42.5794 23.866C42.5794 23.7773 42.4994 23.7055 42.4007 23.7055C42.302 23.7055 42.222 23.7773 42.222 23.866C42.222 23.9546 42.302 24.0265 42.4007 24.0265Z" fill="#3F3D56"/>
<path d="M43.1749 23.8339C43.2736 23.8339 43.3535 23.762 43.3535 23.6734C43.3535 23.5847 43.2736 23.5128 43.1749 23.5128C43.0762 23.5128 42.9962 23.5847 42.9962 23.6734C42.9962 23.762 43.0762 23.8339 43.1749 23.8339Z" fill="#3F3D56"/>
<path d="M26.912 26.8762C27.7798 26.6165 28.7463 26.8948 29.4168 27.5323C29.7786 27.8787 30.0441 28.3265 30.1838 28.826C30.355 29.4204 30.3833 30.0475 30.4012 30.6655C30.4211 31.3487 30.4383 32.0321 30.4567 32.7154C30.4743 33.3669 30.4764 34.0214 30.5167 34.6719C30.5506 35.2177 30.6316 35.7842 30.9025 36.2576C31.1537 36.6965 31.5506 36.9928 31.999 37.1562C32.4536 37.3217 32.9436 37.3603 33.4204 37.3569C33.9754 37.355 34.5294 37.3077 35.0777 37.2154C36.1191 37.0356 37.1478 36.5768 37.7839 35.6303C38.0767 35.2005 38.2413 34.6848 38.2557 34.1517C38.2691 33.5305 38.085 32.9289 37.8834 32.3551C37.6872 31.7968 37.4749 31.2467 37.3507 30.6629C37.2354 30.1166 37.1804 29.5575 37.187 28.9972C37.1976 27.8764 37.4468 26.7732 37.9153 25.7725C38.1524 25.2586 38.4532 24.7818 38.8094 24.3552C39.1768 23.9242 39.6317 23.5685 40.1726 23.4518C40.4366 23.3929 40.71 23.4047 40.9687 23.4863C41.0791 23.522 41.1263 23.3361 41.0162 23.3006C40.4803 23.1276 39.8982 23.2591 39.423 23.5594C38.9559 23.8546 38.5867 24.2975 38.2734 24.7671C37.6714 25.6877 37.2706 26.7434 37.1012 27.8549C36.9317 28.9664 36.998 30.1049 37.295 31.1848C37.6129 32.3077 38.3045 33.4766 38.0074 34.6918C37.7473 35.7555 36.8466 36.4783 35.916 36.8049C35.3515 37.003 34.7596 37.0868 34.1692 37.1301C33.6703 37.1668 33.1646 37.1901 32.6671 37.121C32.2102 37.0575 31.7401 36.9069 31.3859 36.5762C30.9975 36.2137 30.82 35.6929 30.7428 35.1583C30.6554 34.5535 30.6682 33.9299 30.6517 33.3196L30.5954 31.2366C30.5636 30.0601 30.5911 28.7562 29.8811 27.7814C29.5972 27.4015 29.2368 27.0965 28.8271 26.8894C28.4174 26.6824 27.9694 26.5788 27.517 26.5865C27.2963 26.592 27.0772 26.6269 26.8645 26.6904C26.8424 26.6979 26.8239 26.7143 26.8128 26.7363C26.8017 26.7582 26.7989 26.7839 26.8051 26.808C26.8113 26.8321 26.8259 26.8527 26.8458 26.8654C26.8658 26.8781 26.8895 26.882 26.912 26.8762Z" fill="#3F3D56"/>
<path d="M14.2289 25.6576C14.3554 26.6278 14.8339 27.5041 15.5594 28.0941C16.2849 28.6841 17.1979 28.9395 18.0979 28.8041C18.9979 28.6687 19.8112 28.1537 20.3592 27.3722C20.9072 26.5907 21.145 25.6066 21.0203 24.6361L21.0135 24.5837C20.8685 23.6263 20.3802 22.7688 19.654 22.1961C18.9278 21.6234 18.0219 21.3814 17.1317 21.5223C16.2415 21.6632 15.4384 22.1757 14.8955 22.9493C14.3527 23.7229 14.1136 24.6956 14.23 25.6575L14.2289 25.6576Z" fill="#FFB6B6"/>
<path d="M17.2514 28.7141C17.0741 28.3291 16.892 27.9158 16.9401 27.4892C16.9883 27.0625 17.375 26.6535 17.7563 26.7789C17.9843 26.8538 18.1572 27.0957 18.3953 27.1072C18.723 27.1231 18.9096 26.7182 19.0105 26.3818L19.4216 25.0115C20.2144 25.683 19.2103 24.979 20.1925 24.7331C20.5778 24.6367 20.9668 24.45 21.1919 24.0993C21.417 23.7487 21.4139 23.206 21.1029 22.9426C20.9503 22.8134 20.7477 22.7648 20.6019 22.627C20.5115 22.5414 20.449 22.4268 20.4236 22.3C20.3983 22.1731 20.4116 22.0409 20.4614 21.9228C20.5112 21.8048 20.5949 21.7071 20.7002 21.6443C20.8055 21.5816 20.9268 21.557 21.046 21.5743L19.9998 21.4372L20.3095 20.8285C20.0856 21.0201 19.7733 21.0469 19.4917 20.9933C19.2102 20.9397 18.9449 20.8158 18.6694 20.7335C17.3468 20.3384 15.8134 21.0392 15.157 22.3385C14.8994 22.2468 14.622 22.2416 14.3616 22.3237C14.1012 22.4058 13.8701 22.5713 13.6989 22.7981C13.4201 23.1822 13.3456 23.6936 13.3363 24.1812C13.3189 25.1425 13.5163 26.0943 13.9117 26.9561C14.035 27.2239 14.1806 27.4867 14.3901 27.6826C14.5996 27.8785 16.9671 28.9638 17.2404 28.9126" fill="#2F2E41"/>
<path d="M41.9838 26.1774C41.9843 26.3441 41.9645 26.5101 41.9249 26.6711V26.6718C41.9243 26.675 41.9231 26.6782 41.9225 26.6814C41.8022 27.1585 41.5151 27.4936 41.1798 27.4936C40.8463 27.4936 40.5605 27.161 40.4384 26.6878C40.43 26.6551 40.4229 26.6223 40.4164 26.5883C40.408 26.5504 40.4015 26.5113 40.3961 26.4708C40.3913 26.4387 40.3878 26.406 40.3848 26.3726C40.3806 26.3264 40.3776 26.2801 40.377 26.232V26.2313C40.3759 26.2134 40.3759 26.1954 40.3759 26.1774V26.1613L40.3765 26.1607C40.3765 26.0793 40.3815 25.998 40.3913 25.9174C40.3955 25.8833 40.4003 25.8506 40.4062 25.8178C40.4134 25.778 40.4211 25.7389 40.4306 25.7003C40.4384 25.6663 40.4473 25.6336 40.4569 25.6008C40.47 25.5572 40.4842 25.5148 40.5003 25.4743C40.5104 25.448 40.5212 25.4223 40.5319 25.3973C40.6784 25.0724 40.9142 24.8612 41.1798 24.8612C41.5473 24.8612 41.857 25.265 41.9529 25.8159C41.954 25.8243 41.9558 25.8326 41.9564 25.841V25.8416C41.9748 25.9524 41.9839 26.0648 41.9838 26.1774Z" fill="#E6E6E6"/>
<path d="M40.5397 25.4256C40.5393 25.4373 40.5352 25.4486 40.5281 25.4575C40.5209 25.4664 40.5111 25.4724 40.5004 25.4744C40.5105 25.448 40.5212 25.4223 40.5319 25.3973C40.5369 25.4058 40.5396 25.4155 40.5397 25.4256Z" fill="#FD8F52"/>
<path d="M41.2437 25.3671H40.7196C40.6941 25.3671 40.6733 25.3894 40.6733 25.417C40.6733 25.4445 40.6941 25.4669 40.7196 25.4669H41.2437C41.2693 25.4669 41.29 25.4445 41.29 25.417C41.29 25.3894 41.2693 25.3671 41.2437 25.3671Z" fill="#FD8F52"/>
<path d="M40.5236 25.6503C40.5236 25.6635 40.5187 25.6763 40.5099 25.6857C40.5012 25.6951 40.4894 25.7003 40.4771 25.7004H40.4307C40.4384 25.6663 40.4473 25.6336 40.4569 25.6008H40.4771C40.4893 25.6008 40.5011 25.606 40.5098 25.6153C40.5185 25.6245 40.5234 25.6371 40.5236 25.6503Z" fill="#FD8F52"/>
<path d="M40.7506 25.6007H40.6663C40.6407 25.6007 40.62 25.623 40.62 25.6506C40.62 25.6781 40.6407 25.7005 40.6663 25.7005H40.7506C40.7762 25.7005 40.7969 25.6781 40.7969 25.6506C40.7969 25.623 40.7762 25.6007 40.7506 25.6007Z" fill="#FD8F52"/>
<path d="M41.5009 25.5923H40.9768C40.9513 25.5923 40.9305 25.6147 40.9305 25.6423C40.9305 25.6698 40.9513 25.6922 40.9768 25.6922H41.5009C41.5265 25.6922 41.5472 25.6698 41.5472 25.6423C41.5472 25.6147 41.5265 25.5923 41.5009 25.5923Z" fill="#FD8F52"/>
<path d="M40.7345 25.8259H40.6502C40.6246 25.8259 40.6039 25.8483 40.6039 25.8758C40.6039 25.9034 40.6246 25.9257 40.6502 25.9257H40.7345C40.7601 25.9257 40.7808 25.9034 40.7808 25.8758C40.7808 25.8483 40.7601 25.8259 40.7345 25.8259Z" fill="#FD8F52"/>
<path d="M41.0078 25.8259H40.9235C40.8979 25.8259 40.8772 25.8483 40.8772 25.8758C40.8772 25.9034 40.8979 25.9257 40.9235 25.9257H41.0078C41.0334 25.9257 41.0541 25.9034 41.0541 25.8758C41.0541 25.8483 41.0334 25.8259 41.0078 25.8259Z" fill="#FD8F52"/>
<path d="M40.5188 25.8673C40.5188 25.8806 40.5139 25.8933 40.5052 25.9027C40.4965 25.9121 40.4847 25.9174 40.4724 25.9174H40.3914C40.3955 25.8833 40.4003 25.8506 40.4062 25.8179H40.4724C40.4784 25.8178 40.4844 25.819 40.4901 25.8215C40.4957 25.8239 40.5008 25.8276 40.5051 25.8322C40.5094 25.8368 40.5129 25.8422 40.5152 25.8483C40.5176 25.8543 40.5188 25.8608 40.5188 25.8673Z" fill="#FD8F52"/>
<path d="M41.7581 25.8176H41.234C41.2085 25.8176 41.1877 25.84 41.1877 25.8675C41.1877 25.8951 41.2085 25.9174 41.234 25.9174H41.7581C41.7837 25.9174 41.8044 25.8951 41.8044 25.8675C41.8044 25.84 41.7837 25.8176 41.7581 25.8176Z" fill="#FD8F52"/>
<path d="M40.5396 26.196C40.5396 26.2026 40.5384 26.209 40.536 26.2151C40.5337 26.2211 40.5303 26.2266 40.5259 26.2312C40.5216 26.2358 40.5165 26.2394 40.5109 26.2418C40.5053 26.2443 40.4992 26.2455 40.4932 26.2455H40.4092C40.3973 26.2455 40.3858 26.2407 40.377 26.232V26.2313C40.3759 26.2134 40.3759 26.1954 40.3759 26.1774V26.1614L40.3765 26.1607C40.3807 26.156 40.3858 26.1523 40.3914 26.1498C40.3971 26.1472 40.4031 26.1459 40.4092 26.146H40.4932C40.5055 26.146 40.5173 26.1512 40.526 26.1606C40.5347 26.17 40.5396 26.1828 40.5396 26.196Z" fill="#CCCCCC"/>
<path d="M41.2437 26.1375H40.7196C40.6941 26.1375 40.6733 26.1599 40.6733 26.1874C40.6733 26.215 40.6941 26.2374 40.7196 26.2374H41.2437C41.2693 26.2374 41.29 26.215 41.29 26.1874C41.29 26.1599 41.2693 26.1375 41.2437 26.1375Z" fill="#CCCCCC"/>
<path d="M40.5235 26.4208C40.5235 26.434 40.5186 26.4468 40.5099 26.4561C40.5012 26.4655 40.4894 26.4708 40.4771 26.4708H40.3961C40.3913 26.4387 40.3877 26.406 40.3848 26.3726C40.3874 26.3715 40.3903 26.3711 40.3931 26.3713H40.4771C40.4893 26.3713 40.501 26.3765 40.5097 26.3857C40.5184 26.395 40.5234 26.4076 40.5235 26.4208Z" fill="#CCCCCC"/>
<path d="M40.7506 26.3711H40.6663C40.6407 26.3711 40.62 26.3935 40.62 26.421C40.62 26.4486 40.6407 26.471 40.6663 26.471H40.7506C40.7762 26.471 40.7969 26.4486 40.7969 26.421C40.7969 26.3935 40.7762 26.3711 40.7506 26.3711Z" fill="#CCCCCC"/>
<path d="M41.5009 26.3628H40.9768C40.9513 26.3628 40.9305 26.3852 40.9305 26.4127C40.9305 26.4403 40.9513 26.4626 40.9768 26.4626H41.5009C41.5265 26.4626 41.5472 26.4403 41.5472 26.4127C41.5472 26.3852 41.5265 26.3628 41.5009 26.3628Z" fill="#CCCCCC"/>
<path d="M40.7345 26.5964H40.6502C40.6246 26.5964 40.6039 26.6187 40.6039 26.6463C40.6039 26.6739 40.6246 26.6962 40.6502 26.6962H40.7345C40.7601 26.6962 40.7808 26.6739 40.7808 26.6463C40.7808 26.6187 40.7601 26.5964 40.7345 26.5964Z" fill="#CCCCCC"/>
<path d="M41.0078 26.5964H40.9235C40.8979 26.5964 40.8772 26.6187 40.8772 26.6463C40.8772 26.6739 40.8979 26.6962 40.9235 26.6962H41.0078C41.0334 26.6962 41.0541 26.6739 41.0541 26.6463C41.0541 26.6187 41.0334 26.5964 41.0078 26.5964Z" fill="#CCCCCC"/>
<path d="M40.5188 26.6378C40.5188 26.651 40.5139 26.6638 40.5052 26.6732C40.4965 26.6825 40.4847 26.6878 40.4724 26.6878H40.4384C40.4301 26.6551 40.4229 26.6223 40.4164 26.5883H40.4724C40.4784 26.5883 40.4844 26.5895 40.4901 26.5919C40.4957 26.5944 40.5008 26.598 40.5051 26.6026C40.5094 26.6072 40.5129 26.6127 40.5152 26.6187C40.5176 26.6247 40.5188 26.6312 40.5188 26.6378Z" fill="#CCCCCC"/>
<path d="M41.7581 26.5881H41.234C41.2085 26.5881 41.1877 26.6104 41.1877 26.638C41.1877 26.6656 41.2085 26.6879 41.234 26.6879H41.7581C41.7837 26.6879 41.8044 26.6656 41.8044 26.638C41.8044 26.6104 41.7837 26.5881 41.7581 26.5881Z" fill="#CCCCCC"/>
</g>
<defs>
<clipPath id="clip0_146_5600">
<rect width="44" height="37" fill="white" transform="translate(5 7)"/>
</clipPath>
</defs>
</svg>
