<svg width="73" height="40" viewBox="0 0 73 40" fill="none" xmlns="http://www.w3.org/2000/svg">
<g clip-path="url(#clip0_15_2718)">
<path d="M41.8578 39.1446C41.406 39.1442 40.9728 38.9454 40.6534 38.5917C40.3341 38.2381 40.1547 37.7585 40.1547 37.2586C40.1547 36.7586 40.3341 36.279 40.6534 35.9254C40.9728 35.5717 41.406 35.3729 41.8578 35.3725H67.1735C67.0462 35.1139 66.8583 34.8979 66.6295 34.7474C66.4007 34.5969 66.1394 34.5173 65.8733 34.5171H15.5524C14.8958 34.5179 14.2665 34.8071 13.8025 35.3212C13.3386 35.8352 13.078 36.532 13.0781 37.2586C13.0785 37.9849 13.3391 38.6815 13.803 39.1954C14.2668 39.7094 14.896 39.9987 15.5524 40H65.8733C66.1394 39.9998 66.4007 39.9202 66.6295 39.7697C66.8582 39.6192 67.0462 39.4032 67.1735 39.1446L41.8578 39.1446Z" fill="#CCCCCC"/>
<path d="M67.2072 36.4118H43.1378C43.101 36.4117 43.0657 36.3954 43.0397 36.3666C43.0136 36.3377 42.999 36.2986 42.999 36.2578C42.999 36.217 43.0136 36.1779 43.0397 36.1491C43.0657 36.1202 43.101 36.1039 43.1378 36.1039H67.2072C67.244 36.1039 67.2793 36.1202 67.3053 36.1491C67.3314 36.1779 67.346 36.217 67.346 36.2578C67.346 36.2986 67.3314 36.3377 67.3053 36.3666C67.2793 36.3954 67.244 36.4117 67.2072 36.4118Z" fill="#CCCCCC"/>
<path d="M67.2071 37.4125H43.1378C43.1009 37.4125 43.0655 37.3963 43.0394 37.3674C43.0133 37.3386 42.9987 37.2994 42.9987 37.2586C42.9987 37.2177 43.0133 37.1786 43.0394 37.1497C43.0655 37.1208 43.1009 37.1046 43.1378 37.1046H67.2071C67.244 37.1046 67.2794 37.1208 67.3055 37.1497C67.3316 37.1786 67.3463 37.2177 67.3463 37.2586C67.3463 37.2994 67.3316 37.3386 67.3055 37.3674C67.2794 37.3963 67.244 37.4125 67.2071 37.4125Z" fill="#CCCCCC"/>
<path d="M67.2072 38.4133H43.1378C43.101 38.4132 43.0657 38.3969 43.0397 38.368C43.0136 38.3392 42.999 38.3001 42.999 38.2593C42.999 38.2185 43.0136 38.1794 43.0397 38.1506C43.0657 38.1217 43.101 38.1054 43.1378 38.1053H67.2072C67.244 38.1054 67.2793 38.1217 67.3053 38.1506C67.3314 38.1794 67.346 38.2185 67.346 38.2593C67.346 38.3001 67.3314 38.3392 67.3053 38.368C67.2793 38.3969 67.244 38.4132 67.2072 38.4133Z" fill="#CCCCCC"/>
<path d="M35.3188 33.8329C34.867 33.8325 34.4337 33.6337 34.1144 33.28C33.795 32.9264 33.6156 32.4468 33.6156 31.9469C33.6156 31.4469 33.795 30.9673 34.1144 30.6137C34.4337 30.26 34.867 30.0612 35.3188 30.0608H60.6345C60.5071 29.8022 60.3192 29.5862 60.0904 29.4357C59.8616 29.2852 59.6004 29.2056 59.3342 29.2054H9.01334C8.35682 29.2062 7.72745 29.4954 7.26351 30.0095C6.79956 30.5235 6.539 31.2203 6.53906 31.9468C6.5394 32.6732 6.8001 33.3698 7.26395 33.8837C7.72781 34.3977 8.35695 34.687 9.01334 34.6883H59.3342C59.6004 34.6881 59.8616 34.6085 60.0904 34.458C60.3192 34.3075 60.5071 34.0915 60.6345 33.8329L35.3188 33.8329Z" fill="#FE676E"/>
<path d="M60.6681 31.1001H36.5988C36.5619 31.1 36.5266 31.0837 36.5006 31.0548C36.4746 31.026 36.46 30.9869 36.46 30.9461C36.46 30.9053 36.4746 30.8662 36.5006 30.8374C36.5266 30.8085 36.5619 30.7922 36.5988 30.7921H60.6681C60.705 30.7921 60.7404 30.8084 60.7665 30.8372C60.7926 30.8661 60.8072 30.9053 60.8072 30.9461C60.8072 30.9869 60.7926 31.0261 60.7665 31.055C60.7404 31.0838 60.705 31.1001 60.6681 31.1001Z" fill="#CCCCCC"/>
<path d="M60.6681 32.1008H36.5987C36.5618 32.1008 36.5264 32.0846 36.5003 32.0557C36.4743 32.0269 36.4596 31.9877 36.4596 31.9469C36.4596 31.906 36.4743 31.8669 36.5003 31.838C36.5264 31.8091 36.5618 31.7929 36.5987 31.7929H60.6681C60.705 31.7929 60.7404 31.8091 60.7665 31.838C60.7925 31.8669 60.8072 31.906 60.8072 31.9469C60.8072 31.9877 60.7925 32.0269 60.7665 32.0557C60.7404 32.0846 60.705 32.1008 60.6681 32.1008Z" fill="#CCCCCC"/>
<path d="M60.6681 33.1016H36.5988C36.5619 33.1015 36.5266 33.0852 36.5006 33.0563C36.4746 33.0275 36.46 32.9884 36.46 32.9476C36.46 32.9068 36.4746 32.8677 36.5006 32.8389C36.5266 32.81 36.5619 32.7937 36.5988 32.7936H60.6681C60.6864 32.7936 60.7045 32.7975 60.7215 32.8053C60.7384 32.813 60.7537 32.8243 60.7667 32.8386C60.7797 32.8529 60.7899 32.8699 60.7969 32.8886C60.804 32.9073 60.8076 32.9273 60.8076 32.9476C60.8076 32.9678 60.804 32.9879 60.7969 33.0066C60.7899 33.0253 60.7797 33.0423 60.7667 33.0566C60.7537 33.0709 60.7384 33.0822 60.7215 33.09C60.7045 33.0977 60.6864 33.1016 60.6681 33.1016Z" fill="#CCCCCC"/>
<path d="M28.7797 28.344C28.3279 28.3436 27.8947 28.1448 27.5753 27.7911C27.2559 27.4374 27.0765 26.9579 27.0765 26.4579C27.0765 25.958 27.2559 25.4784 27.5753 25.1248C27.8947 24.7711 28.3279 24.5722 28.7797 24.5719H54.0954C53.9681 24.3132 53.7801 24.0973 53.5513 23.9468C53.3226 23.7963 53.0614 23.7167 52.7952 23.7165H2.47423C1.81772 23.7173 1.18835 24.0065 0.72441 24.5205C0.260472 25.0346 -8.16835e-05 25.7314 1.92091e-08 26.4579C0.000332171 27.1843 0.261018 27.8809 0.724867 28.3948C1.18871 28.9087 1.81784 29.1981 2.47423 29.1994H52.7952C53.0614 29.1991 53.3226 29.1196 53.5513 28.9691C53.7801 28.8186 53.9681 28.6026 54.0954 28.344L28.7797 28.344Z" fill="#CCCCCC"/>
<path d="M54.129 25.6111H30.0597C30.0229 25.6111 29.9875 25.5948 29.9615 25.5659C29.9355 25.5371 29.9209 25.498 29.9209 25.4572C29.9209 25.4164 29.9355 25.3773 29.9615 25.3484C29.9875 25.3196 30.0229 25.3033 30.0597 25.3032H54.129C54.1659 25.3032 54.2013 25.3194 54.2274 25.3483C54.2535 25.3772 54.2682 25.4164 54.2682 25.4572C54.2682 25.498 54.2535 25.5372 54.2274 25.5661C54.2013 25.5949 54.1659 25.6111 54.129 25.6111Z" fill="#CCCCCC"/>
<path d="M54.129 26.6119H30.0597C30.0414 26.6119 30.0233 26.6079 30.0064 26.6002C29.9895 26.5925 29.9742 26.5811 29.9613 26.5668C29.9484 26.5525 29.9381 26.5355 29.9311 26.5169C29.9241 26.4982 29.9205 26.4782 29.9205 26.4579C29.9205 26.4377 29.9241 26.4177 29.9311 26.399C29.9381 26.3803 29.9484 26.3634 29.9613 26.3491C29.9742 26.3348 29.9895 26.3234 30.0064 26.3157C30.0233 26.308 30.0414 26.304 30.0597 26.304H54.129C54.1473 26.304 54.1654 26.308 54.1823 26.3157C54.1991 26.3234 54.2145 26.3348 54.2274 26.3491C54.2403 26.3634 54.2506 26.3803 54.2575 26.399C54.2645 26.4177 54.2681 26.4377 54.2681 26.4579C54.2681 26.4782 54.2645 26.4982 54.2575 26.5169C54.2506 26.5355 54.2403 26.5525 54.2274 26.5668C54.2145 26.5811 54.1991 26.5925 54.1823 26.6002C54.1654 26.6079 54.1473 26.6119 54.129 26.6119Z" fill="#CCCCCC"/>
<path d="M54.129 27.6127H30.0597C30.0228 27.6127 29.9874 27.5964 29.9613 27.5676C29.9352 27.5387 29.9205 27.4995 29.9205 27.4587C29.9205 27.4179 29.9352 27.3787 29.9613 27.3498C29.9874 27.321 30.0228 27.3047 30.0597 27.3047H54.129C54.1473 27.3047 54.1654 27.3087 54.1823 27.3165C54.1991 27.3242 54.2145 27.3355 54.2274 27.3498C54.2403 27.3641 54.2506 27.3811 54.2575 27.3998C54.2645 27.4185 54.2681 27.4385 54.2681 27.4587C54.2681 27.4789 54.2645 27.499 54.2575 27.5176C54.2506 27.5363 54.2403 27.5533 54.2274 27.5676C54.2145 27.5819 54.1991 27.5932 54.1823 27.601C54.1654 27.6087 54.1473 27.6127 54.129 27.6127Z" fill="#CCCCCC"/>
<path d="M54.6849 16.6345C54.5528 16.6343 54.4258 16.5785 54.3295 16.4786C54.2333 16.3786 54.1749 16.2419 54.1662 16.0961L54.089 14.791C54.08 14.6386 54.126 14.4884 54.2171 14.3735C54.3081 14.2587 54.4366 14.1885 54.5744 14.1786L63.8145 13.5089C63.9601 13.4984 64.1062 13.5197 64.2445 13.5716C64.3827 13.6235 64.5103 13.7051 64.62 13.8116C64.7298 13.9181 64.8195 14.0475 64.884 14.1923C64.9486 14.3372 64.9867 14.4947 64.9962 14.6559C65.0058 14.8171 64.9865 14.9788 64.9396 15.1317C64.8927 15.2847 64.819 15.4259 64.7227 15.5473C64.6265 15.6688 64.5096 15.768 64.3787 15.8395C64.2477 15.9109 64.1054 15.9531 63.9597 15.9636L54.7197 16.6332C54.708 16.6341 54.6964 16.6345 54.6849 16.6345Z" fill="#FE676E"/>
<path d="M56.5069 16.8028C56.3723 16.8025 56.243 16.7447 56.1461 16.6413C56.0492 16.5379 55.9922 16.3971 55.987 16.2482L55.9211 14.2989C55.9186 14.2233 55.9295 14.1479 55.9533 14.077C55.9771 14.006 56.0133 13.941 56.0598 13.8856C56.1063 13.8301 56.1622 13.7853 56.2243 13.7538C56.2864 13.7223 56.3536 13.7046 56.4219 13.7018L64.0202 13.3875C64.1582 13.3818 64.2926 13.437 64.3937 13.5409C64.4949 13.6448 64.5547 13.789 64.5598 13.9416L64.6257 15.891C64.6282 15.9666 64.6173 16.042 64.5935 16.1129C64.5697 16.1838 64.5336 16.2489 64.4871 16.3043C64.4406 16.3598 64.3847 16.4045 64.3225 16.4361C64.2604 16.4676 64.1933 16.4853 64.125 16.4881L56.5266 16.8024C56.52 16.8027 56.5134 16.8028 56.5069 16.8028Z" fill="#2F2E41"/>
<path d="M65.411 34.7725H64.229C64.091 34.7723 63.9587 34.7115 63.8611 34.6036C63.7635 34.4956 63.7087 34.3492 63.7085 34.1965V23.2954C63.7087 23.1427 63.7635 22.9963 63.8611 22.8883C63.9587 22.7803 64.091 22.7196 64.229 22.7194H65.411C65.549 22.7196 65.6813 22.7803 65.7788 22.8883C65.8764 22.9963 65.9313 23.1427 65.9315 23.2954V34.1965C65.9313 34.3492 65.8764 34.4956 65.7788 34.6036C65.6813 34.7115 65.549 34.7723 65.411 34.7725Z" fill="#2F2E41"/>
<path d="M60.1648 29.0102L59.1541 28.3323C59.0361 28.253 58.9514 28.1251 58.9186 27.9768C58.8857 27.8285 58.9073 27.6718 58.9787 27.5411L64.0849 18.2189C64.1566 18.0884 64.2721 17.9946 64.4061 17.9583C64.5401 17.9219 64.6817 17.9459 64.7998 18.0249L65.8106 18.7028C65.9285 18.7821 66.0132 18.91 66.0461 19.0583C66.0789 19.2066 66.0573 19.3633 65.9859 19.494L60.8797 28.8162C60.8081 28.9467 60.6925 29.0405 60.5585 29.0768C60.4245 29.1132 60.2829 29.0893 60.1648 29.0102Z" fill="#2F2E41"/>
<path d="M63.6158 11.3429C65.8713 11.3429 67.6998 9.31952 67.6998 6.82351C67.6998 4.3275 65.8713 2.30408 63.6158 2.30408C61.3602 2.30408 59.5317 4.3275 59.5317 6.82351C59.5317 9.31952 61.3602 11.3429 63.6158 11.3429Z" fill="#FE676E"/>
<path d="M61.4052 8.36661C61.2738 8.31884 61.1532 8.2405 61.0515 8.13686C60.9841 8.06285 60.9321 7.97343 60.8992 7.87487C60.8663 7.7763 60.8533 7.67097 60.8611 7.56626C60.8653 7.49165 60.8852 7.41914 60.9189 7.3544C60.9527 7.28967 60.9996 7.23446 61.0559 7.19308C61.2019 7.08941 61.3972 7.0891 61.5961 7.18609L61.5886 5.42177L61.7487 5.42093L61.7576 7.49507L61.6342 7.40918C61.4911 7.30974 61.2868 7.23974 61.1424 7.34227C61.1067 7.36936 61.0771 7.40519 61.056 7.44698C61.0348 7.48877 61.0227 7.53539 61.0205 7.58321C61.0151 7.66122 61.025 7.73959 61.0494 7.81301C61.0738 7.88642 61.1122 7.95315 61.1621 8.00865C61.3389 8.19559 61.5969 8.25405 61.8912 8.30629L61.8658 8.48127C61.7095 8.45835 61.5553 8.41998 61.4052 8.36661Z" fill="#2F2E41"/>
<path d="M59.9376 5.33262L59.9166 5.5083L60.7718 5.63328L60.7928 5.45759L59.9376 5.33262Z" fill="#2F2E41"/>
<path d="M62.6369 5.72702L62.616 5.90271L63.4711 6.02769L63.4921 5.852L62.6369 5.72702Z" fill="#2F2E41"/>
<path d="M67.0259 26.2202H60.1392C59.9587 26.22 59.7857 26.1405 59.6581 25.9993C59.5305 25.8581 59.4587 25.6666 59.4585 25.4669L60.9002 13.2322C60.9014 13.0334 60.9736 12.8432 61.1011 12.7031C61.2286 12.563 61.4009 12.4845 61.5806 12.4846H64.0246C65.0008 12.4859 65.9367 12.9155 66.627 13.6794C67.3172 14.4433 67.7055 15.479 67.7066 16.5592V25.4669C67.7064 25.6666 67.6346 25.8581 67.507 25.9993C67.3794 26.1405 67.2064 26.22 67.0259 26.2202Z" fill="#2F2E41"/>
<path d="M72.9511 21.3992C72.9936 21.4999 73.0089 21.6121 72.9952 21.7223C72.9814 21.8324 72.9392 21.9359 72.8736 22.0201L72.1009 23.0098C72.0562 23.067 72.0017 23.114 71.9407 23.1479C71.8796 23.1819 71.8131 23.2022 71.7449 23.2077C71.6767 23.2132 71.6082 23.2038 71.5433 23.18C71.4785 23.1562 71.4184 23.1185 71.3667 23.0691L64.3598 16.3699C64.2493 16.2644 64.1587 16.1357 64.0931 15.9914C64.0276 15.847 63.9883 15.6898 63.9777 15.5287C63.967 15.3676 63.9852 15.2058 64.0311 15.0524C64.077 14.899 64.1497 14.7572 64.2451 14.635C64.3406 14.5127 64.4568 14.4125 64.5873 14.34C64.7177 14.2675 64.8598 14.2241 65.0054 14.2124C65.151 14.2006 65.2973 14.2207 65.4358 14.2715C65.5744 14.3224 65.7026 14.4029 65.813 14.5085L72.82 21.2076C72.8754 21.2605 72.9201 21.3258 72.9511 21.3992Z" fill="#FE676E"/>
<path d="M71.4045 19.1884C71.4471 19.2892 71.4624 19.4014 71.4486 19.5115C71.4349 19.6217 71.3927 19.7251 71.3271 19.8093L70.0072 21.4998C69.9169 21.6153 69.7889 21.6863 69.6512 21.6974C69.5136 21.7086 69.3776 21.6588 69.2731 21.5591L63.5194 16.0581C63.4676 16.0087 63.4252 15.9484 63.3945 15.8809C63.3638 15.8133 63.3455 15.7396 63.3405 15.6642C63.3355 15.5888 63.344 15.513 63.3655 15.4412C63.387 15.3694 63.4211 15.3029 63.4658 15.2457L64.7856 13.5552C64.8302 13.498 64.8847 13.451 64.9458 13.4171C65.0068 13.3831 65.0734 13.3628 65.1415 13.3573C65.2097 13.3518 65.2782 13.3612 65.3431 13.385C65.408 13.4088 65.468 13.4465 65.5197 13.4959L71.2735 18.9969C71.3289 19.0498 71.3736 19.115 71.4045 19.1884Z" fill="#2F2E41"/>
<path d="M63.6923 4.14304C63.1463 3.64308 62.4165 4.11594 61.7991 4.04883C61.2084 3.98462 60.733 3.40938 60.6034 2.79036C60.4523 2.06817 60.7799 1.33457 61.2734 0.871942C61.814 0.36525 62.5397 0.207794 63.2313 0.284896C64.0239 0.373264 64.7542 0.766001 65.4117 1.24579C66.046 1.69415 66.6314 2.22222 67.156 2.81949C67.6261 3.37257 68.0278 4.03516 68.1654 4.78981C68.2904 5.47564 68.217 6.24008 67.8594 6.83081C67.6696 7.13373 67.4124 7.37739 67.1127 7.53831C66.8004 7.71624 66.4663 7.84578 66.1642 8.04588C65.7074 8.34844 65.269 8.9651 65.4245 9.59397C65.4579 9.73136 65.5213 9.85756 65.6091 9.96146C65.7146 10.0862 65.8981 9.91457 65.7923 9.78947C65.6065 9.56975 65.6086 9.27147 65.701 9.00254C65.8111 8.69937 66.0111 8.44659 66.268 8.28561C66.5842 8.07662 66.9351 7.94435 67.2596 7.75322C67.5703 7.57832 67.8383 7.32293 68.0406 7.00878C68.4224 6.39744 68.5263 5.61008 68.4249 4.88585C68.3151 4.10213 67.938 3.39579 67.4704 2.80706C66.9616 2.16637 66.3408 1.62802 65.7077 1.14599C65.0284 0.628752 64.2804 0.19512 63.4583 0.0498781C62.7457 -0.0760244 61.9774 0.0268664 61.3637 0.468204C60.7909 0.880163 60.3582 1.5772 60.3272 2.34655C60.3173 2.69652 60.3919 3.04307 60.5432 3.35055C60.6946 3.65803 60.9172 3.91532 61.1883 4.09596C61.4662 4.27218 61.7872 4.34738 62.1058 4.31095C62.4466 4.27961 62.7862 4.1568 63.1301 4.18168C63.2857 4.18885 63.4349 4.25195 63.5551 4.3614C63.6744 4.47063 63.8106 4.25138 63.6923 4.14304Z" fill="#2F2E41"/>
<path d="M58.89 27.6986C58.8914 27.6886 58.8932 27.6786 58.8951 27.6687C58.9094 27.5947 58.9367 27.5245 58.9756 27.4623C59.0145 27.4 59.0642 27.347 59.1218 27.3061L60.115 26.5972C60.2311 26.5146 60.372 26.4863 60.5069 26.5185C60.6418 26.5507 60.7596 26.6408 60.8346 26.769L63.8985 32.0257C63.9733 32.1541 63.999 32.3101 63.9698 32.4594C63.9407 32.6088 63.8592 32.7392 63.7432 32.822L62.7499 33.5309C62.6339 33.6135 62.493 33.6419 62.3581 33.6096C62.2232 33.5774 62.1053 33.4873 62.0304 33.3591L58.9665 28.1024C58.8965 27.983 58.8692 27.839 58.89 27.6986Z" fill="#2F2E41"/>
</g>
<defs>
<clipPath id="clip0_15_2718">
<rect width="73" height="40" fill="white"/>
</clipPath>
</defs>
</svg>
