<svg width="41" height="41" viewBox="0 0 41 41" fill="none" xmlns="http://www.w3.org/2000/svg">
<circle cx="20.5" cy="20.5" r="19.5" fill="url(#paint0_linear_469_4762)" stroke="#9A9994" stroke-width="2"/>
<path d="M25.9414 25.9688V28H16.3125V26.2617L20.9316 21.2715C21.4134 20.7246 21.7943 20.2493 22.0742 19.8457C22.3542 19.4421 22.5527 19.0775 22.6699 18.752C22.7936 18.4199 22.8555 18.1042 22.8555 17.8047C22.8555 17.3685 22.7773 16.9876 22.6211 16.6621C22.4648 16.3301 22.237 16.0729 21.9375 15.8906C21.6445 15.7083 21.2832 15.6172 20.8535 15.6172C20.3783 15.6172 19.9714 15.7279 19.6328 15.9492C19.3008 16.1641 19.0469 16.4635 18.8711 16.8477C18.7018 17.2318 18.6172 17.6712 18.6172 18.166H16.0293C16.0293 17.3262 16.2246 16.5612 16.6152 15.8711C17.0059 15.1745 17.5658 14.6178 18.2949 14.2012C19.0241 13.7845 19.89 13.5762 20.8926 13.5762C21.8691 13.5762 22.696 13.7389 23.373 14.0645C24.0501 14.3835 24.5645 14.8392 24.916 15.4316C25.2676 16.0241 25.4434 16.7305 25.4434 17.5508C25.4434 18.0065 25.3685 18.4557 25.2188 18.8984C25.069 19.3411 24.8574 19.7806 24.584 20.2168C24.3171 20.6465 23.998 21.0827 23.627 21.5254C23.2559 21.9681 22.8424 22.4206 22.3867 22.8828L19.6133 25.9688H25.9414Z" fill="white"/>
<defs>
<linearGradient id="paint0_linear_469_4762" x1="20.5" y1="0" x2="20.5" y2="41" gradientUnits="userSpaceOnUse">
<stop stop-color="#979797"/>
<stop offset="1" stop-color="#CACAC8"/>
</linearGradient>
</defs>
</svg>
