<svg width="77" height="70" viewBox="0 0 77 70" fill="none" xmlns="http://www.w3.org/2000/svg">
<g clip-path="url(#clip0_39_2887)">
<path d="M39.0231 17.418H10.8261C8.99128 17.418 7.50391 18.9093 7.50391 20.7489V48.6605C7.50391 50.5001 8.99128 51.9914 10.8261 51.9914H39.0231C40.8579 51.9914 42.3453 50.5001 42.3453 48.6605V20.7489C42.3453 18.9093 40.8579 17.418 39.0231 17.418Z" fill="#F2F2F2"/>
<path d="M16.7472 18.103C14.4769 18.103 12.2996 19.0072 10.6942 20.6168C9.08889 22.2264 8.18701 24.4095 8.18701 26.6858V48.6605C8.18701 49.008 8.25527 49.352 8.38789 49.673C8.52051 49.9941 8.71489 50.2858 8.95994 50.5314C9.20499 50.7771 9.49591 50.972 9.81608 51.105C10.1363 51.238 10.4794 51.3064 10.826 51.3064H28.822C32.2274 51.3064 35.4932 49.9501 37.9012 47.5358C40.3091 45.1214 41.6619 41.8469 41.6619 38.4326V20.7489C41.6619 20.0472 41.3839 19.3742 40.889 18.878C40.3941 18.3818 39.7229 18.103 39.023 18.103H16.7472Z" fill="white"/>
<path d="M73.0029 6.00697H2.60371C2.57077 6.00697 2.53917 5.99385 2.51587 5.97049C2.49258 5.94713 2.47949 5.91545 2.47949 5.88242C2.47949 5.84939 2.49258 5.81771 2.51587 5.79435C2.53917 5.771 2.57077 5.75787 2.60371 5.75787H73.0029C73.0359 5.75787 73.0675 5.771 73.0908 5.79435C73.1141 5.81771 73.1272 5.84939 73.1272 5.88242C73.1272 5.91545 73.1141 5.94713 73.0908 5.97049C73.0675 5.99385 73.0359 6.00697 73.0029 6.00697Z" fill="#E6E6E6"/>
<path d="M6.12616 2.26798C6.70633 2.26798 7.17664 1.78591 7.17664 1.19125C7.17664 0.596585 6.70633 0.114517 6.12616 0.114517C5.546 0.114517 5.07568 0.596585 5.07568 1.19125C5.07568 1.78591 5.546 2.26798 6.12616 2.26798Z" fill="#E6E6E6"/>
<path d="M9.75507 2.26798C10.3352 2.26798 10.8055 1.78591 10.8055 1.19125C10.8055 0.596585 10.3352 0.114517 9.75507 0.114517C9.17491 0.114517 8.70459 0.596585 8.70459 1.19125C8.70459 1.78591 9.17491 2.26798 9.75507 2.26798Z" fill="#E6E6E6"/>
<path d="M13.384 2.26798C13.9641 2.26798 14.4345 1.78591 14.4345 1.19125C14.4345 0.596585 13.9641 0.114517 13.384 0.114517C12.8038 0.114517 12.3335 0.596585 12.3335 1.19125C12.3335 1.78591 12.8038 2.26798 13.384 2.26798Z" fill="#E6E6E6"/>
<path d="M17.5215 2.04227C17.505 2.04229 17.4886 2.03899 17.4733 2.03255C17.4581 2.02612 17.4443 2.01669 17.4327 2.00481L16.7239 1.27832C16.7012 1.25505 16.6885 1.22379 16.6885 1.19123C16.6885 1.15868 16.7012 1.12741 16.7239 1.10415L17.4327 0.377717C17.4441 0.36584 17.4577 0.356338 17.4727 0.349761C17.4878 0.343185 17.504 0.339664 17.5204 0.339402C17.5368 0.33914 17.5531 0.342143 17.5684 0.348235C17.5836 0.354328 17.5975 0.36339 17.6092 0.374899C17.621 0.386407 17.6303 0.400133 17.6367 0.415283C17.6431 0.430434 17.6465 0.446707 17.6466 0.463165C17.6467 0.479623 17.6435 0.495938 17.6373 0.511167C17.6311 0.526396 17.6219 0.540235 17.6103 0.551888L16.9865 1.19123L17.6103 1.83064C17.6274 1.84816 17.639 1.87036 17.6435 1.89444C17.6481 1.91852 17.6455 1.94342 17.636 1.96602C17.6265 1.98862 17.6106 2.00791 17.5902 2.02147C17.5699 2.03504 17.546 2.04227 17.5215 2.04227Z" fill="#E6E6E6"/>
<path d="M18.713 2.04227C18.6885 2.04227 18.6646 2.03503 18.6442 2.02147C18.6239 2.00791 18.6079 1.98862 18.5985 1.96602C18.589 1.94342 18.5864 1.91852 18.5909 1.89444C18.5955 1.87036 18.6071 1.84816 18.6242 1.83064L19.2479 1.19123L18.6242 0.551888C18.6126 0.540235 18.6034 0.526394 18.5972 0.511165C18.5909 0.495936 18.5878 0.479621 18.5879 0.463163C18.588 0.446706 18.5913 0.430432 18.5978 0.415281C18.6042 0.400131 18.6135 0.386405 18.6252 0.374897C18.637 0.363388 18.6509 0.354326 18.6661 0.348233C18.6814 0.342141 18.6977 0.33914 18.7141 0.339402C18.7305 0.339664 18.7467 0.343185 18.7617 0.349761C18.7768 0.356338 18.7904 0.365838 18.8018 0.377715L19.5105 1.10415C19.5332 1.12741 19.5459 1.15867 19.5459 1.19123C19.5459 1.22379 19.5332 1.25505 19.5105 1.27832L18.8018 2.00481C18.7902 2.01669 18.7764 2.02612 18.7611 2.03255C18.7459 2.03899 18.7295 2.04229 18.713 2.04227Z" fill="#E6E6E6"/>
<path d="M66.7253 0.239182H65.4073C65.3716 0.239171 65.3362 0.24622 65.3032 0.259923C65.2702 0.273627 65.2402 0.293718 65.2149 0.319048C65.1897 0.344379 65.1696 0.374451 65.1559 0.407549C65.1423 0.440647 65.1352 0.47612 65.1353 0.511943V1.83465C65.1352 1.87047 65.1423 1.90594 65.1559 1.93904C65.1696 1.97214 65.1897 2.00221 65.2149 2.02754C65.2402 2.05287 65.2702 2.07296 65.3032 2.08667C65.3362 2.10037 65.3716 2.10742 65.4073 2.10741H66.7253C66.7976 2.10748 66.8669 2.0788 66.9181 2.02767C66.9694 1.97654 66.9983 1.90712 66.9986 1.83465V0.511943C66.9983 0.439466 66.9694 0.370051 66.9181 0.318919C66.8669 0.267787 66.7976 0.239112 66.7253 0.239182Z" fill="#E6E6E6"/>
<path d="M63.4953 0.239182H62.1773C62.1416 0.239171 62.1062 0.24622 62.0732 0.259923C62.0402 0.273627 62.0102 0.293718 61.9849 0.319048C61.9597 0.344379 61.9396 0.374451 61.926 0.407549C61.9123 0.440647 61.9053 0.47612 61.9053 0.511943V1.83465C61.9053 1.87047 61.9123 1.90594 61.926 1.93904C61.9396 1.97214 61.9597 2.00221 61.9849 2.02754C62.0102 2.05287 62.0402 2.07296 62.0732 2.08667C62.1062 2.10037 62.1416 2.10742 62.1773 2.10741H63.4953C63.5676 2.10748 63.6369 2.0788 63.6882 2.02767C63.7394 1.97654 63.7683 1.90712 63.7686 1.83465V0.511943C63.7683 0.439466 63.7394 0.370051 63.6882 0.318919C63.6369 0.267787 63.5676 0.239112 63.4953 0.239182Z" fill="#E6E6E6"/>
<path d="M69.7682 0.301453H68.4503C68.4145 0.301442 68.3792 0.308491 68.3462 0.322194C68.3131 0.335898 68.2831 0.355989 68.2579 0.381319C68.2326 0.40665 68.2126 0.436722 68.1989 0.46982C68.1852 0.502918 68.1782 0.538391 68.1782 0.574214V1.89692C68.1782 1.93274 68.1852 1.96821 68.1989 2.00131C68.2126 2.03441 68.2326 2.06448 68.2579 2.08981C68.2831 2.11514 68.3131 2.13523 68.3462 2.14894C68.3792 2.16264 68.4145 2.16969 68.4503 2.16968H69.7682C69.8405 2.16975 69.9099 2.14107 69.9611 2.08994C70.0123 2.03881 70.0413 1.96939 70.0415 1.89692V0.574214C70.0413 0.501738 70.0123 0.432322 69.9611 0.38119C69.9099 0.330058 69.8405 0.301383 69.7682 0.301453Z" fill="#E6E6E6"/>
<path d="M43.3376 2.24187H34.7664C34.4699 2.24187 34.1855 2.12377 33.9759 1.91356C33.7662 1.70334 33.6484 1.41823 33.6484 1.12093C33.6484 0.823645 33.7662 0.538531 33.9759 0.328315C34.1855 0.118099 34.4699 0 34.7664 0H43.3376C43.6341 0 43.9185 0.118099 44.1281 0.328315C44.3378 0.538531 44.4556 0.823645 44.4556 1.12093C44.4556 1.41823 44.3378 1.70334 44.1281 1.91356C43.9185 2.12377 43.6341 2.24187 43.3376 2.24187Z" fill="#E6E6E6"/>
<path d="M29.2251 39.5316H10.0961C9.9867 39.5316 9.88178 39.488 9.80442 39.4104C9.72706 39.3329 9.68359 39.2277 9.68359 39.118C9.68359 39.0083 9.72706 38.9031 9.80442 38.8255C9.88178 38.748 9.9867 38.7044 10.0961 38.7044H29.2251C29.3345 38.7044 29.4394 38.748 29.5168 38.8255C29.5941 38.9031 29.6376 39.0083 29.6376 39.118C29.6376 39.2277 29.5941 39.3329 29.5168 39.4104C29.4394 39.488 29.3345 39.5316 29.2251 39.5316Z" fill="#F2F2F2"/>
<path d="M29.2251 27.734H0.412745C0.358513 27.7341 0.304793 27.7235 0.254661 27.7028C0.20453 27.682 0.158971 27.6516 0.120589 27.6132C0.0822074 27.5747 0.0517594 27.5291 0.0309837 27.4789C0.010208 27.4287 -0.000488281 27.3748 -0.000488281 27.3204C-0.000488281 27.2661 0.010208 27.2122 0.0309837 27.162C0.0517594 27.1118 0.0822074 27.0661 0.120589 27.0277C0.158971 26.9893 0.20453 26.9589 0.254661 26.9381C0.304793 26.9174 0.358513 26.9067 0.412745 26.9068H29.2251C29.3344 26.907 29.4392 26.9507 29.5164 27.0282C29.5936 27.1058 29.6369 27.2109 29.6369 27.3204C29.6369 27.43 29.5936 27.5351 29.5164 27.6126C29.4392 27.6902 29.3344 27.7339 29.2251 27.734Z" fill="#F2F2F2"/>
<path d="M29.2257 30.6875H0.412119C0.302752 30.6877 0.197931 30.7314 0.120664 30.809C0.0433969 30.8866 0 30.9918 0 31.1015C0 31.2111 0.0433969 31.3163 0.120664 31.3939C0.197931 31.4715 0.302752 31.5152 0.412119 31.5154H29.2257C29.3351 31.5152 29.4399 31.4715 29.5172 31.3939C29.5944 31.3163 29.6378 31.2111 29.6378 31.1015C29.6378 30.9918 29.5944 30.8866 29.5172 30.809C29.4399 30.7314 29.3351 30.6877 29.2257 30.6875Z" fill="#F2F2F2"/>
<path d="M29.2249 35.2967H0.412517C0.303111 35.2967 0.198185 35.2532 0.120823 35.1756C0.0434613 35.098 0 34.9928 0 34.8831C0 34.7734 0.0434613 34.6682 0.120823 34.5907C0.198185 34.5131 0.303111 34.4695 0.412517 34.4695H29.2249C29.3343 34.4695 29.4392 34.5131 29.5166 34.5907C29.594 34.6682 29.6374 34.7734 29.6374 34.8831C29.6374 34.9928 29.594 35.098 29.5166 35.1756C29.4392 35.2532 29.3343 35.2967 29.2249 35.2967Z" fill="#F2F2F2"/>
<path d="M53.4867 68.3414L52.1638 68.3413L51.5347 63.2257L53.4869 63.2258L53.4867 68.3414Z" fill="#A0616A"/>
<path d="M53.5335 69.725L49.4658 69.7249V69.6733C49.4658 69.2523 49.6327 68.8485 49.9296 68.5508C50.2265 68.2531 50.6292 68.0859 51.0491 68.0859L51.7922 67.5207L53.1785 68.086L53.5336 68.086L53.5335 69.725Z" fill="#2F2E41"/>
<path d="M66.7962 68.3414L65.4735 68.3413L64.8442 63.2257L66.7966 63.2258L66.7962 68.3414Z" fill="#A0616A"/>
<path d="M66.8426 69.725L62.7749 69.7249V69.6733C62.7749 69.2523 62.9417 68.8485 63.2387 68.5508C63.5356 68.2531 63.9383 68.0859 64.3582 68.0859L65.1013 67.5207L66.4876 68.086L66.8426 68.086L66.8426 69.725Z" fill="#2F2E41"/>
<path d="M54.5663 38.9523C54.5663 38.9523 53.6975 39.8767 53.6609 40.4764C53.6242 41.0761 54.0769 39.9868 53.6242 41.0761C53.1715 42.1655 53.1715 41.4392 53.1715 42.1655C53.1715 42.8917 52.2122 43.6009 52.2122 43.6009L50.6304 50.1263L51.5417 65.405H53.5336C55.3847 59.7474 56.2459 55.3785 55.2539 53.4221L58.0201 47.2576C58.0201 47.2576 63.2471 63.6568 63.4606 63.8501C63.6741 64.0433 63.6741 63.771 63.6741 64.0433C63.6741 64.3156 63.4025 64.0433 63.6741 64.3156L64.9417 65.5866L66.843 65.405C66.843 65.405 67.0975 53.5318 64.9784 51.4798C64.9784 51.4798 65.4677 45.1255 64.9784 45.1434C64.489 45.1612 64.489 45.9782 64.489 45.1612C64.489 44.3442 65.0689 44.1262 65.0689 44.1262L63.4392 38.3873L54.5663 38.9523Z" fill="#2F2E41"/>
<path d="M64.8296 26.3027L62.9886 34.031L63.4234 36.9055L63.9451 40.3493L62.1414 40.2322L59.3502 40.0504L54.1678 39.7141L53.7144 24.4632L56.0919 21.9722L56.5168 20.7628L59.9539 20.7417L60.7763 22.1939L62.8905 22.7967C63.1622 22.9696 63.4176 23.1672 63.6532 23.3871C64.1749 23.8716 64.637 24.4868 64.8532 25.117C64.9183 25.3007 64.9596 25.492 64.9761 25.6862L64.8296 26.3027Z" fill="#E6E6E6"/>
<path d="M48.8303 45.9113C48.9688 45.8345 49.089 45.7285 49.1826 45.6006C49.2762 45.4727 49.341 45.3259 49.3725 45.1704C49.404 45.0149 49.4014 44.8544 49.3649 44.7C49.3285 44.5456 49.259 44.401 49.1613 44.2762L51.7832 39.4903L50.6412 38.4377L47.5686 44.1448C47.3713 44.3253 47.2469 44.5721 47.2189 44.8385C47.1909 45.1048 47.2614 45.3722 47.4169 45.5899C47.5724 45.8077 47.8022 45.9606 48.0627 46.0199C48.3232 46.0791 48.5963 46.0405 48.8303 45.9113Z" fill="#E6E6E6"/>
<path d="M55.2249 23.5308L54.6138 34.5078L51.6694 41.4061L49.7531 43.9542L49.9709 42.7996L48.6499 42.1369L48.5259 42.0752L51.0619 32.2075L51.2955 28.373C51.3358 27.7131 51.5122 27.0688 51.8136 26.4808C52.115 25.8928 52.5348 25.3739 53.0465 24.9569L54.5133 23.7623L55.2249 23.5308Z" fill="#E6E6E6"/>
<path d="M48.8303 45.9113C48.9688 45.8345 49.089 45.7285 49.1826 45.6006C49.2762 45.4727 49.341 45.3259 49.3725 45.1704C49.404 45.0149 49.4014 44.8544 49.3649 44.7C49.3285 44.5456 49.259 44.401 49.1613 44.2762L51.7832 39.4903L50.6412 38.4377L47.5686 44.1448C47.3713 44.3253 47.2469 44.5721 47.2189 44.8385C47.1909 45.1048 47.2614 45.3722 47.4169 45.5899C47.5724 45.8077 47.8022 45.9606 48.0627 46.0199C48.3232 46.0791 48.5963 46.0405 48.8303 45.9113Z" fill="#A0616A"/>
<path d="M55.2249 23.5308L54.6138 34.5078L51.6694 41.4061L49.7531 43.9542L49.9709 42.7996L48.6499 42.1369L48.5259 42.0752L51.0619 32.2075L51.2955 28.373C51.3358 27.7131 51.5122 27.0688 51.8136 26.4808C52.115 25.8928 52.5348 25.3739 53.0465 24.9569L54.5133 23.7623L55.2249 23.5308Z" fill="#E6E6E6"/>
<path d="M58.0627 23.9092H29.8656C28.0308 23.9092 26.5435 25.4005 26.5435 27.2401V41.825C26.5435 43.6647 28.0308 45.156 29.8656 45.156H58.0627C59.8974 45.156 61.3848 43.6647 61.3848 41.825V27.2401C61.3848 25.4005 59.8974 23.9092 58.0627 23.9092Z" fill="white"/>
<path d="M58.0629 45.2805H29.8658C28.9521 45.2795 28.0761 44.9151 27.43 44.2673C26.7839 43.6195 26.4205 42.7412 26.4194 41.8251V27.2401C26.4205 26.324 26.7839 25.4457 27.43 24.7979C28.0761 24.1501 28.9521 23.7857 29.8658 23.7846H58.0629C58.9766 23.7857 59.8526 24.1501 60.4986 24.7979C61.1447 25.4457 61.5082 26.324 61.5092 27.2401V41.8251C61.5082 42.7412 61.1447 43.6195 60.4986 44.2673C59.8526 44.9151 58.9766 45.2795 58.0629 45.2805ZM29.8658 24.0337C29.0177 24.0337 28.2043 24.3716 27.6045 24.9729C27.0048 25.5742 26.6679 26.3897 26.6679 27.2401V32.6916C26.6679 35.9643 27.9645 39.103 30.2726 41.4172C32.5807 43.7313 35.7111 45.0314 38.9752 45.0314H58.0629C58.911 45.0314 59.7244 44.6936 60.3241 44.0923C60.9238 43.491 61.2608 42.6755 61.2608 41.8251V27.2401C61.2608 26.8191 61.178 26.4021 61.0173 26.0131C60.8566 25.6241 60.6211 25.2706 60.3241 24.9729C60.0271 24.6751 59.6746 24.4389 59.2866 24.2778C58.8986 24.1167 58.4828 24.0337 58.0628 24.0337L29.8658 24.0337Z" fill="#3F3D56"/>
<path d="M37.3187 39.39H30.7351C30.4949 39.39 30.3003 39.5851 30.3003 39.8259C30.3003 40.0666 30.4949 40.2618 30.7351 40.2618H37.3187C37.5588 40.2618 37.7535 40.0666 37.7535 39.8259C37.7535 39.5851 37.5588 39.39 37.3187 39.39Z" fill="#FE676E"/>
<path d="M57.1935 38.2068H52.5974C52.3573 38.2068 52.1626 38.4019 52.1626 38.6427V41.0091C52.1626 41.2498 52.3573 41.445 52.5974 41.445H57.1935C57.4336 41.445 57.6283 41.2498 57.6283 41.0091V38.6427C57.6283 38.4019 57.4336 38.2068 57.1935 38.2068Z" fill="#FE676E"/>
<path d="M32.5362 32.1039C33.7711 32.1039 34.7722 31.1002 34.7722 29.862C34.7722 28.6239 33.7711 27.6202 32.5362 27.6202C31.3014 27.6202 30.3003 28.6239 30.3003 29.862C30.3003 31.1002 31.3014 32.1039 32.5362 32.1039Z" fill="#FE676E"/>
<path d="M58.1098 20.0998C59.6604 20.0998 60.9174 18.8395 60.9174 17.2848C60.9174 15.7301 59.6604 14.4698 58.1098 14.4698C56.5592 14.4698 55.3022 15.7301 55.3022 17.2848C55.3022 18.8395 56.5592 20.0998 58.1098 20.0998Z" fill="#A0616A"/>
<path d="M60.4129 18.7398C60.4348 18.908 60.1314 18.9257 60.063 18.7706C59.9946 18.6155 60.0833 18.4397 60.1696 18.2938L60.3699 17.9552C60.4076 17.8915 60.4295 17.8196 60.4339 17.7456C60.4383 17.6716 60.425 17.5976 60.3951 17.5298C60.3652 17.462 60.3196 17.4023 60.262 17.3558C60.2045 17.3092 60.1366 17.2772 60.0642 17.2622C60.2475 16.849 60.0486 16.3332 59.6835 16.0677C59.3183 15.8021 58.775 16.2989 58.3321 16.3841C57.8891 16.4693 57.5344 16.1294 57.1306 16.3309L57.3732 15.7702L56.0304 16.3503L56.3423 15.7195C56.0034 15.738 55.8591 16.1519 55.7916 16.4854C55.7197 16.8407 55.5309 17.2849 55.1456 17.2113C55.0542 17.1908 54.9704 17.145 54.9039 17.0789C54.8374 17.0128 54.7909 16.9293 54.7696 16.8379C54.472 15.6869 55.3363 14.4287 56.4821 14.2268C56.6046 13.8876 56.8323 13.5967 57.1317 13.3966C57.4311 13.1965 57.7866 13.0978 58.146 13.115C58.5054 13.1322 58.8499 13.2642 59.129 13.4919C59.4081 13.7196 59.6071 14.0309 59.697 14.3803L60.0726 13.9191L60.1459 14.5725C60.4158 14.5437 60.6709 14.7348 60.8021 14.9732C60.9333 15.2115 60.8713 15.5191 60.9972 15.7603C61.5618 16.841 61.375 18.0576 60.5033 18.8865" fill="#2F2E41"/>
<path d="M70.2601 67.8412C70.3179 67.8439 70.375 67.8287 70.4239 67.7977C70.4727 67.7667 70.5109 67.7214 70.5332 67.6679C70.5555 67.6144 70.5608 67.5554 70.5485 67.4988C70.5363 67.4421 70.5069 67.3907 70.4645 67.3513L70.4451 67.2743C70.4477 67.2682 70.4502 67.262 70.4528 67.2559C70.511 67.1181 70.6084 67.0006 70.733 66.9183C70.8575 66.8359 71.0035 66.7922 71.1527 66.7928C71.3019 66.7933 71.4476 66.8381 71.5716 66.9214C71.6955 67.0047 71.7921 67.1229 71.8492 67.2611C72.0776 67.8126 72.3684 68.365 72.44 68.9482C72.4715 69.2059 72.4582 69.4672 72.4007 69.7204C72.9371 68.5472 73.2156 67.272 73.2174 65.9814C73.2175 65.6575 73.1996 65.3339 73.1637 65.0121C73.134 64.7482 73.0928 64.4862 73.0401 64.2261C72.7526 62.8148 72.1353 61.492 71.2389 60.3664C70.8051 60.1291 70.4542 59.7641 70.2336 59.3206C70.1537 59.1612 70.0972 58.9911 70.0659 58.8154C70.1149 58.8219 70.2505 58.0745 70.2135 58.0287C70.2817 57.9249 70.4038 57.8733 70.4783 57.7721C70.8488 57.2685 71.3592 57.3564 71.6256 58.0408C72.1948 58.3288 72.2003 58.8065 71.8511 59.2659C71.6289 59.5582 71.5984 59.9537 71.4034 60.2666C71.4235 60.2924 71.4443 60.3173 71.4644 60.3431C71.831 60.8158 72.1506 61.3234 72.4185 61.8587C72.3533 61.259 72.4311 60.6525 72.6454 60.0889C72.8625 59.5636 73.2696 59.1212 73.628 58.6672C73.7228 58.5452 73.8516 58.4541 73.998 58.4055C74.1444 58.3568 74.3019 58.3528 74.4506 58.3939C74.5993 58.435 74.7325 58.5194 74.8333 58.6364C74.9342 58.7534 74.9982 58.8977 75.0173 59.0512C75.018 59.0579 75.0187 59.0646 75.0194 59.0713C74.9662 59.1014 74.9141 59.1333 74.8631 59.1671C74.799 59.2101 74.7494 59.2714 74.7207 59.3431C74.692 59.4147 74.6855 59.4934 74.7022 59.5689C74.7189 59.6443 74.7579 59.7129 74.8141 59.7657C74.8703 59.8185 74.9411 59.8531 75.0173 59.8648L75.0251 59.866C75.0061 60.0584 74.9726 60.2491 74.9248 60.4364C75.3846 62.2194 74.3918 62.8688 72.9743 62.898C72.943 62.9141 72.9125 62.9302 72.8813 62.9454C73.1504 63.7102 73.3192 64.5069 73.3835 65.3153C73.4199 65.7923 73.4177 66.2714 73.3771 66.748L73.3795 66.7311C73.4822 66.2012 73.7642 65.7229 74.1778 65.3773C74.7921 64.8713 75.6601 64.6849 76.3229 64.2782C76.3933 64.2329 76.4752 64.2087 76.5589 64.2085C76.6426 64.2083 76.7246 64.2321 76.7953 64.2771C76.8659 64.3221 76.9223 64.3864 76.9577 64.4624C76.9931 64.5385 77.006 64.6231 76.9951 64.7063L76.9923 64.7241C76.8935 64.7644 76.7973 64.8109 76.7043 64.8632C76.6511 64.8933 76.599 64.9253 76.548 64.9591C76.4839 65.002 76.4343 65.0633 76.4056 65.135C76.3768 65.2067 76.3704 65.2854 76.3871 65.3608C76.4037 65.4362 76.4427 65.5049 76.4989 65.5577C76.5552 65.6105 76.626 65.645 76.7021 65.6568L76.7099 65.658C76.7155 65.6588 76.7204 65.6596 76.726 65.6604C76.5572 66.0646 76.3202 66.4366 76.0255 66.7601C75.738 68.3166 74.5031 68.4643 73.1821 68.011H73.1813C73.0364 68.6425 72.8264 69.2572 72.5547 69.8451H70.3162C70.3082 69.8202 70.301 69.7944 70.2938 69.7695C70.501 69.7826 70.709 69.7701 70.9132 69.7325C70.7471 69.5282 70.581 69.3222 70.4149 69.1179C70.4112 69.1141 70.4077 69.1101 70.4045 69.1058C70.3202 69.0013 70.2352 68.8975 70.151 68.7929L70.1509 68.7928C70.1464 68.4722 70.1832 68.1524 70.2601 67.8412Z" fill="#F2F2F2"/>
<path d="M35.6582 69.8518C35.6581 69.8713 35.6619 69.8906 35.6693 69.9086C35.6767 69.9266 35.6876 69.943 35.7014 69.9567C35.7151 69.9705 35.7314 69.9814 35.7494 69.9888C35.7674 69.9963 35.7866 70.0001 35.806 70H76.8346C76.8738 70 76.9114 69.9844 76.9392 69.9566C76.9669 69.9288 76.9824 69.8911 76.9824 69.8518C76.9824 69.8125 76.9669 69.7748 76.9392 69.747C76.9114 69.7192 76.8738 69.7036 76.8346 69.7036H35.806C35.7866 69.7035 35.7673 69.7073 35.7494 69.7147C35.7314 69.7222 35.7151 69.7331 35.7014 69.7469C35.6876 69.7606 35.6767 69.777 35.6693 69.795C35.6619 69.813 35.6581 69.8323 35.6582 69.8518Z" fill="#CCCCCC"/>
<path d="M59.3053 45.2451C59.441 45.1635 59.5574 45.0533 59.6464 44.9221C59.7354 44.7909 59.795 44.6419 59.821 44.4854C59.8469 44.3289 59.8386 44.1686 59.7967 44.0156C59.7548 43.8626 59.6802 43.7205 59.5782 43.5993L62.0288 38.723L60.8503 37.7118L57.9818 43.5247C57.791 43.7121 57.6754 43.9632 57.6569 44.2304C57.6384 44.4975 57.7183 44.7622 57.8814 44.9743C58.0446 45.1864 58.2796 45.3311 58.542 45.381C58.8045 45.4309 59.076 45.3826 59.3053 45.2451Z" fill="#A0616A"/>
<path d="M64.8531 25.117L64.9761 25.6862L64.6817 33.6424L63.4234 36.9055L62.1414 40.2322L61.9836 40.642L60.1588 43.2563L60.3352 42.0942L58.9912 41.479L58.8657 41.4229L59.3502 40.0504L60.4644 36.8968L60.9464 35.5318L61.0507 31.4703L61.1476 27.6304C61.1645 26.9696 61.3179 26.3194 61.5983 25.7211C61.8786 25.1227 62.2797 24.5892 62.7762 24.1543L63.6532 23.3871C64.1749 23.8716 64.637 24.4868 64.8531 25.117Z" fill="#E6E6E6"/>
<path d="M35.5359 44.9928L29.7127 44.8682C28.9883 44.8671 28.294 44.5781 27.7818 44.0644C27.2697 43.5508 26.9817 42.8544 26.9809 42.1282L26.7324 36.0237C27.4474 41.0005 30.1952 44.1574 35.5359 44.9928Z" fill="#FE676E"/>
</g>
<defs>
<clipPath id="clip0_39_2887">
<rect width="77" height="70" fill="white"/>
</clipPath>
</defs>
</svg>
