<svg width="91" height="61" viewBox="0 0 91 61" fill="none" xmlns="http://www.w3.org/2000/svg">
<g clip-path="url(#clip0_15_2940)">
<path d="M91 32.4205C91 44.759 83.1804 55.2719 72.2278 59.2722C70.5617 59.8819 68.8418 60.3334 67.091 60.6206C62.2743 61.4107 57.3359 60.9621 52.7404 59.3172C41.7185 55.3499 33.8417 44.8015 33.8469 32.4145C33.8469 16.6369 46.6414 3.84109 62.4235 3.84109C68.388 3.83242 74.2044 5.69861 79.0507 9.17592C86.2857 14.3601 91 22.8395 91 32.4205Z" fill="#E5E5E5"/>
<path d="M72.2278 59.2723C70.5617 59.882 68.8418 60.3335 67.091 60.6207C62.2743 61.4107 57.3359 60.9622 52.7404 59.3173L54.0601 54.0215L54.1397 53.7036L56.8328 53.714L70.3626 53.7625L70.5357 54.2743L72.2278 59.2723Z" fill="#2F2E41"/>
<path d="M24.8227 0H0V28.0905H24.8227V0Z" fill="#E6E6E6"/>
<path d="M24.3368 0.594238H0.442627V27.4963H24.3368V0.594238Z" fill="white"/>
<path d="M12.4114 26.5399C13.1511 26.5399 13.7508 25.9401 13.7508 25.2003C13.7508 24.4606 13.1511 23.8608 12.4114 23.8608C11.6717 23.8608 11.072 24.4606 11.072 25.2003C11.072 25.9401 11.6717 26.5399 12.4114 26.5399Z" fill="#E6E6E6"/>
<path d="M12.1851 10.1171H4.49219V10.9041H12.1851V10.1171Z" fill="#E6E6E6"/>
<path d="M16.1028 12.4756H4.49219V13.2626H16.1028V12.4756Z" fill="#FF6582"/>
<path d="M14.9632 14.8489H4.49219V15.6359H14.9632V14.8489Z" fill="#E6E6E6"/>
<path d="M20.6616 17.1594H4.49219V17.9465H20.6616V17.1594Z" fill="#FF6582"/>
<path d="M17.838 19.36H4.66028V20.147H17.838V19.36Z" fill="#E6E6E6"/>
<path d="M35.2971 45.7089C35.3915 45.8058 35.4781 45.9101 35.5561 46.0207L47.689 45.7238L49.1044 43.1371L53.2869 44.7632L51.226 49.5859C51.0595 49.9755 50.7711 50.3006 50.4042 50.5123C50.0373 50.7241 49.6115 50.8111 49.191 50.7603L35.4829 49.1042C35.1595 49.5136 34.7192 49.8148 34.2205 49.9679C33.7218 50.1209 33.1883 50.1184 32.691 49.9608C32.1937 49.8032 31.7562 49.4979 31.4366 49.0856C31.1171 48.6732 30.9306 48.1733 30.902 47.6524C30.8735 47.1315 31.0042 46.6142 31.2768 46.1693C31.5493 45.7245 31.9508 45.3732 32.4279 45.1622C32.905 44.9511 33.435 44.8904 33.9475 44.9879C34.4599 45.0855 34.9305 45.3368 35.2967 45.7084L35.2971 45.7089Z" fill="#9F616A"/>
<path d="M51.6273 30.9386L57.3053 29.0776L58.973 26.7903L67.0884 27.2706L68.2798 29.9397L72.6072 31.9847L71.9421 44.3366L70.8044 55.8963C64.9542 52.8666 54.0361 55.1764 53.9405 55.214L51.6273 30.9386Z" fill="#FF6582"/>
<path d="M52.8411 47.6575L47.0657 45.3466L47.0903 45.2438C47.115 45.1398 49.5731 34.8671 49.8995 33.2162C50.2395 31.4964 51.4817 31.0208 51.5344 31.0015L51.573 30.9873L53.8586 31.6831L54.8624 39.5711L52.8411 47.6575Z" fill="#FF6582"/>
<path d="M65.3113 55.3881C65.4467 55.3849 65.5821 55.3923 65.7163 55.4104L73.7478 46.3107L72.8136 43.5146L76.8496 41.5529L78.9847 46.3432C79.1571 46.7302 79.1995 47.1627 79.1052 47.5758C79.011 47.9889 78.7854 48.3602 78.4621 48.6341L67.9278 57.5607C68.008 58.0762 67.9295 58.6039 67.7025 59.0736C67.4756 59.5434 67.1111 59.9329 66.6574 60.1904C66.2037 60.4479 65.6824 60.5611 65.1628 60.5151C64.6432 60.469 64.1499 60.2659 63.7485 59.9326C63.3472 59.5993 63.0568 59.1518 62.916 58.6494C62.7752 58.1471 62.7907 57.6138 62.9603 57.1205C63.13 56.6271 63.4458 56.1971 63.8657 55.8877C64.2857 55.5782 64.7899 55.404 65.3113 55.3881Z" fill="#9F616A"/>
<path d="M73.1068 47.1965L69.7565 39.315L71.0632 33.8251L72.4712 32.0461C72.5743 32.0021 72.6854 31.9798 72.7976 31.9809C72.9097 31.9819 73.0204 32.0062 73.1227 32.0522C73.6423 32.2612 74.0839 32.9018 74.437 33.9561L77.5768 42.9005L73.1068 47.1965Z" fill="#FF6582"/>
<path d="M55.7245 23.8697V17.9278C55.7211 16.8822 55.9236 15.8462 56.3205 14.8788C56.7174 13.9115 57.3009 13.0318 58.0377 12.29C58.7745 11.5482 59.6503 10.9588 60.6149 10.5554C61.5794 10.1521 62.614 9.94272 63.6595 9.93925C64.705 9.93579 65.741 10.1383 66.7082 10.5352C67.6755 10.9322 68.5551 11.5158 69.2968 12.2527C70.0385 12.9896 70.6279 13.8654 71.0312 14.8301C71.4345 15.7948 71.6438 16.8295 71.6473 17.8751C71.6473 17.8926 71.6473 17.9102 71.6473 17.9278V23.8697C71.647 24.1533 71.5342 24.4252 71.3337 24.6257C71.1332 24.8262 70.8614 24.939 70.5778 24.9393H56.794C56.5104 24.939 56.2386 24.8262 56.0381 24.6257C55.8376 24.4252 55.7249 24.1533 55.7245 23.8697Z" fill="#2F2E41"/>
<path d="M62.0499 24.8009C65.2735 24.8009 67.8868 22.1873 67.8868 18.9633C67.8868 15.7393 65.2735 13.1257 62.0499 13.1257C58.8262 13.1257 56.2129 15.7393 56.2129 18.9633C56.2129 22.1873 58.8262 24.8009 62.0499 24.8009Z" fill="#9F616A"/>
<path d="M53.8411 18.4032C53.8429 16.7333 54.5071 15.1324 55.6877 13.9516C56.8684 12.7708 58.4692 12.1066 60.1389 12.1047H61.3272C62.997 12.1066 64.5977 12.7708 65.7784 13.9516C66.959 15.1324 67.6231 16.7333 67.625 18.4032V18.522H65.1137L64.2572 16.1231L64.0859 18.522H62.7882L62.3561 17.3118L62.2695 18.522H53.8411V18.4032Z" fill="#2F2E41"/>
<path d="M61.4755 25.6076C61.3576 25.4479 61.2872 25.2582 61.2723 25.0603C61.2575 24.8623 61.2989 24.6643 61.3917 24.4888C62.6509 22.0935 64.4139 17.6674 62.0738 14.9378L61.906 14.7419H68.7V24.9431L62.5282 26.0321C62.4657 26.0432 62.4024 26.0488 62.339 26.0488C62.1705 26.0488 62.0044 26.0089 61.8544 25.9322C61.7043 25.8555 61.5746 25.7444 61.4759 25.6078L61.4755 25.6076Z" fill="#2F2E41"/>
<path d="M12.3899 2.18787C11.8265 2.18784 11.2759 2.35487 10.8075 2.66784C10.3391 2.98082 9.97397 3.42567 9.75837 3.94615C9.54277 4.46664 9.48633 5.03937 9.5962 5.59193C9.70607 6.14449 9.97731 6.65206 10.3756 7.05045C10.7739 7.44884 11.2814 7.72016 11.8339 7.83009C12.3864 7.94003 12.9591 7.88365 13.4795 7.66808C14 7.45252 14.4448 7.08744 14.7578 6.61902C15.0708 6.15061 15.2379 5.59989 15.2379 5.03651V5.03636C15.2379 4.66229 15.1642 4.29188 15.0211 3.94629C14.878 3.60069 14.6682 3.28668 14.4037 3.02217C14.1392 2.75766 13.8252 2.54784 13.4797 2.40469C13.1341 2.26154 12.7637 2.18787 12.3897 2.18787H12.3899ZM12.3899 3.04234C12.5588 3.04234 12.724 3.09245 12.8645 3.18634C13.005 3.28023 13.1145 3.41368 13.1792 3.56981C13.2439 3.72595 13.2608 3.89776 13.2278 4.06351C13.1949 4.22926 13.1135 4.38151 12.994 4.50101C12.8745 4.62051 12.7223 4.70189 12.5565 4.73486C12.3908 4.76783 12.219 4.75091 12.0629 4.68624C11.9068 4.62157 11.7733 4.51205 11.6795 4.37153C11.5856 4.23102 11.5355 4.06581 11.5355 3.89681C11.5355 3.67019 11.6255 3.45285 11.7857 3.29261C11.9459 3.13236 12.1633 3.04234 12.3899 3.04234ZM12.3899 7.15615C12.0523 7.15461 11.7202 7.07073 11.4224 6.91179C11.1246 6.75284 10.8701 6.52364 10.6809 6.24406C10.6947 5.67436 11.8202 5.36077 12.3899 5.36077C12.9595 5.36077 14.0851 5.67436 14.0988 6.24406C13.9094 6.52343 13.6548 6.75248 13.3571 6.9114C13.0593 7.07032 12.7274 7.15432 12.3899 7.15615Z" fill="#FF6582"/>
<path d="M12.423 25.7137C13.5963 23.5633 16.4072 22.2014 18.7066 23.4289C19.7416 23.9814 20.5643 24.9586 20.8255 26.1137C21.1286 27.4554 20.49 28.7348 19.8307 29.8621C19.4729 30.4739 19.0808 31.0733 18.7846 31.7187C18.478 32.387 18.2588 33.1594 18.4897 33.8865C18.6975 34.5415 19.2186 35.0179 19.7893 35.368C20.4192 35.7398 21.0891 36.0391 21.7863 36.2601C23.2215 36.7374 24.7353 36.9333 26.2447 36.8369C26.9948 36.786 27.7387 36.6657 28.4667 36.4777C29.2411 36.2802 30.0011 36.0299 30.7768 35.8368C32.0719 35.5151 33.5487 35.3551 34.7768 36.0014C35.9699 36.6294 36.5038 37.943 36.669 39.2208C36.9739 41.5804 36.0385 44.0291 34.3494 45.6815C33.539 46.4743 32.5193 47.1292 31.4086 47.3972C30.4395 47.631 29.1952 47.616 28.4239 46.8915C27.5633 46.0829 27.7658 44.7863 28.4493 43.9331C29.3218 42.8446 30.7998 42.5831 32.1187 42.5566C33.6191 42.5265 35.118 42.7499 36.6175 42.611C37.3494 42.554 38.0676 42.3808 38.745 42.0978C39.3405 41.8358 39.8837 41.4682 40.3483 41.0127C41.274 40.1133 41.8984 38.915 42.2088 37.6691C42.5827 36.1709 42.5012 34.5962 42.211 33.0913C42.0563 32.3153 41.8572 31.5488 41.6145 30.7957C41.5143 30.4778 41.0125 30.6138 41.1135 30.9338C42.0071 33.7678 42.5054 37.0449 40.7788 39.6762C40.0643 40.792 38.9511 41.5934 37.6663 41.9169C36.1719 42.2883 34.6038 42.1047 33.0846 42.0495C31.64 41.9969 30.0537 42.0536 28.8154 42.8951C27.7996 43.5852 27.0891 44.898 27.3961 46.1373C27.6922 47.3324 28.8406 47.9387 29.9892 48.032C31.1944 48.1302 32.3803 47.7257 33.3924 47.0931C35.4978 45.7774 36.8977 43.4633 37.1907 41.0099C37.3434 39.7315 37.188 38.3545 36.6083 37.1942C36.3029 36.566 35.8275 36.0362 35.2361 35.6647C34.6463 35.3031 33.9652 35.1251 33.2811 35.0621C31.7269 34.919 30.2336 35.4526 28.7592 35.8609C28.0061 36.0794 27.2341 36.2268 26.4534 36.3011C25.6957 36.3639 24.9336 36.3515 24.1783 36.264C23.4289 36.1756 22.6903 36.0117 21.9739 35.7747C21.2718 35.5577 20.5996 35.2537 19.9728 34.87C19.4199 34.5164 18.9417 34.0099 18.9145 33.3198C18.885 32.5714 19.2623 31.8714 19.6211 31.2405C20.3301 29.9941 21.2058 28.7751 21.3907 27.3161C21.5527 26.0398 21.0391 24.7819 20.1524 23.8716C19.708 23.4095 19.173 23.0442 18.5809 22.7986C17.9888 22.5529 17.3523 22.4322 16.7114 22.4439C15.3957 22.4816 14.136 23.0538 13.1683 23.9325C12.6883 24.3686 12.2845 24.8817 11.9733 25.4507C11.813 25.7444 12.2615 26.0069 12.4219 25.713L12.423 25.7137Z" fill="#3F3D56"/>
</g>
<defs>
<clipPath id="clip0_15_2940">
<rect width="91" height="61" fill="white"/>
</clipPath>
</defs>
</svg>
