<svg width="103" height="72" viewBox="0 0 103 72" fill="none" xmlns="http://www.w3.org/2000/svg">
<g clip-path="url(#clip0_15_2816)">
<path d="M52.6041 71.8474C55.702 71.8474 58.2134 69.3563 58.2134 66.2834C58.2134 63.2105 55.702 60.7195 52.6041 60.7195C49.5062 60.7195 46.9949 63.2105 46.9949 66.2834C46.9949 69.3563 49.5062 71.8474 52.6041 71.8474Z" fill="#FF6582"/>
<path d="M86.1143 71.5349C89.2523 70.6 92.5885 69.6252 95.0772 67.4029C97.3011 65.417 98.8026 62.3846 97.8812 59.4064C96.9618 56.4343 94.2079 54.4525 91.3645 53.4668C89.7519 52.9078 88.0647 52.5976 86.3782 52.354C84.5449 52.0891 82.7034 51.8722 80.8628 51.6633C73.4101 50.8178 65.9293 50.3013 58.4205 50.1138C54.7154 50.0212 51.0109 50.0234 47.3053 50.0768C43.9959 50.1245 40.5105 50.1233 37.4404 48.7281C35.053 47.6431 32.8862 45.6693 32.221 43.0754C31.4531 40.0812 32.8695 37.032 34.9012 34.8635C35.9722 33.7205 37.2239 32.7584 38.5151 31.8738C39.9159 30.9142 41.3655 30.0224 42.8465 29.1901C45.7635 27.5514 48.813 26.1569 51.9636 25.0209C53.5178 24.4603 55.0951 23.9767 56.686 23.5306C58.0295 23.1538 59.3771 22.7766 60.6754 22.2633C63.1854 21.271 65.5727 19.5902 66.2109 16.8346C66.8157 14.223 65.7959 11.3879 64.008 9.44781C61.9396 7.20325 58.8207 6.2193 55.8307 6.0601C52.4739 5.88137 49.1944 6.71471 46.0393 7.77232C42.6741 8.90035 39.3815 10.1974 35.9453 11.1111C32.5377 12.0162 29.0643 12.6567 25.5565 13.0266C23.8393 13.208 22.0702 13.4128 20.3427 13.2739C18.895 13.1575 17.4547 12.7352 16.3877 11.7161C15.4729 10.8422 14.9279 9.64119 15.1152 8.37377C15.1493 8.14357 15.5018 8.24144 15.468 8.47024C15.2399 10.013 16.2972 11.4347 17.6 12.1629C19.1058 13.0046 20.938 13.0057 22.6144 12.9095C26.2493 12.6917 29.8596 12.174 33.4079 11.3618C36.8945 10.5718 40.2566 9.44264 43.6148 8.23638C46.8043 7.09075 50.065 5.97261 53.4725 5.72447C56.4291 5.50916 59.5392 5.93641 62.1149 7.46903C64.3786 8.81598 66.0432 11.0623 66.5736 13.6399C67.0919 16.1588 66.3741 18.6941 64.4518 20.4518C62.4616 22.2717 59.7326 23.0498 57.1895 23.7664C53.9639 24.6753 50.8075 25.7377 47.7522 27.1172C44.6554 28.5116 41.6853 30.1679 38.8749 32.0677C36.1622 33.9065 33.4851 36.2202 32.6271 39.5006C32.2275 41.0286 32.3013 42.6493 32.97 44.0926C33.5646 45.3759 34.5438 46.4554 35.6846 47.288C38.4064 49.2747 41.8368 49.6825 45.1245 49.7231C48.817 49.7687 52.5097 49.6451 56.2034 49.7052C63.7311 49.8278 71.2434 50.2823 78.7402 51.0687C80.6188 51.2659 82.4949 51.4839 84.3687 51.7227C86.0541 51.9375 87.7452 52.151 89.4022 52.5325C92.3486 53.2108 95.2156 54.5151 97.0469 56.9931C97.8597 58.0671 98.3632 59.3399 98.5037 60.6757C98.6319 62.0695 98.2879 63.466 97.6526 64.706C96.2463 67.4505 93.6122 69.1962 90.8149 70.3431C89.3167 70.9574 87.7626 71.4227 86.2115 71.8848C85.9856 71.9521 85.889 71.602 86.1143 71.5349Z" fill="#F2F2F2"/>
<path d="M15.3514 11.3093C16.9677 11.3093 18.2779 10.0096 18.2779 8.40634C18.2779 6.8031 16.9677 5.50342 15.3514 5.50342C13.7351 5.50342 12.4248 6.8031 12.4248 8.40634C12.4248 10.0096 13.7351 11.3093 15.3514 11.3093Z" fill="#F2F2F2"/>
<path d="M35.6545 16.8128C37.2708 16.8128 38.581 15.5131 38.581 13.9099C38.581 12.3066 37.2708 11.007 35.6545 11.007C34.0382 11.007 32.7279 12.3066 32.7279 13.9099C32.7279 15.5131 34.0382 16.8128 35.6545 16.8128Z" fill="#F2F2F2"/>
<path d="M52.8481 5.80585C54.4644 5.80585 55.7746 4.50617 55.7746 2.90293C55.7746 1.29968 54.4644 0 52.8481 0C51.2318 0 49.9215 1.29968 49.9215 2.90293C49.9215 4.50617 51.2318 5.80585 52.8481 5.80585Z" fill="#F2F2F2"/>
<path d="M63.5788 18.1433C65.1951 18.1433 66.5054 16.8436 66.5054 15.2403C66.5054 13.6371 65.1951 12.3374 63.5788 12.3374C61.9625 12.3374 60.6522 13.6371 60.6522 15.2403C60.6522 16.8436 61.9625 18.1433 63.5788 18.1433Z" fill="#F2F2F2"/>
<path d="M49.0679 32.416C50.6842 32.416 51.9945 31.1163 51.9945 29.513C51.9945 27.9098 50.6842 26.6101 49.0679 26.6101C47.4516 26.6101 46.1414 27.9098 46.1414 29.513C46.1414 31.1163 47.4516 32.416 49.0679 32.416Z" fill="#F2F2F2"/>
<path d="M30.655 39.3105C32.2713 39.3105 33.5815 38.0108 33.5815 36.4076C33.5815 34.8043 32.2713 33.5046 30.655 33.5046C29.0387 33.5046 27.7284 34.8043 27.7284 36.4076C27.7284 38.0108 29.0387 39.3105 30.655 39.3105Z" fill="#F2F2F2"/>
<path d="M50.1653 50.0755C51.7816 50.0755 53.0919 48.7758 53.0919 47.1726C53.0919 45.5693 51.7816 44.2697 50.1653 44.2697C48.549 44.2697 47.2388 45.5693 47.2388 47.1726C47.2388 48.7758 48.549 50.0755 50.1653 50.0755Z" fill="#F2F2F2"/>
<path d="M71.1391 56.1232C72.7554 56.1232 74.0657 54.8236 74.0657 53.2203C74.0657 51.6171 72.7554 50.3174 71.1391 50.3174C69.5228 50.3174 68.2125 51.6171 68.2125 53.2203C68.2125 54.8236 69.5228 56.1232 71.1391 56.1232Z" fill="#F2F2F2"/>
<path d="M95.6491 54.7927C97.2654 54.7927 98.5757 53.493 98.5757 51.8897C98.5757 50.2865 97.2654 48.9868 95.6491 48.9868C94.0328 48.9868 92.7225 50.2865 92.7225 51.8897C92.7225 53.493 94.0328 54.7927 95.6491 54.7927Z" fill="#F2F2F2"/>
<path d="M52.0033 8.22539C43.2368 8.28682 36.0589 15.3533 35.9344 24.0483C35.9332 24.1286 35.9327 24.6931 35.9327 25.4313C35.9328 26.5138 36.3663 27.552 37.138 28.3174C37.9096 29.0829 38.9562 29.513 40.0475 29.5131C40.5885 29.513 41.1241 29.4071 41.6238 29.2016C42.1235 28.9961 42.5775 28.6949 42.9599 28.3152C43.3422 27.9356 43.6453 27.4849 43.852 26.989C44.0587 26.4931 44.1648 25.9617 44.1643 25.4251C44.1639 24.9229 44.1637 24.5753 44.1637 24.5539C44.1634 23.2101 44.5158 21.8894 45.1862 20.7216C45.8566 19.5539 46.8219 18.5794 47.9871 17.8939C49.1524 17.2085 50.4774 16.8357 51.832 16.8123C53.1865 16.7889 54.5239 17.1157 55.7125 17.7605C56.9011 18.4053 57.9001 19.3459 58.611 20.4897C59.322 21.6336 59.7206 22.9414 59.7674 24.2844C59.8143 25.6274 59.508 26.9594 58.8785 28.1493C58.249 29.3392 57.3181 30.3461 56.1773 31.0709L56.1787 31.0727C56.1787 31.0727 50.3221 34.8125 48.5366 39.943L48.5381 39.9433C48.2241 40.9943 48.065 42.0849 48.0658 43.181C48.0658 43.6316 48.0925 47.5743 48.1441 50.7743C48.1622 51.8785 48.6171 52.9313 49.4108 53.7057C50.2044 54.4801 51.2732 54.914 52.3864 54.9137C52.9458 54.9137 53.4997 54.8039 54.0162 54.5908C54.5326 54.3776 55.0015 54.0653 55.3958 53.6717C55.7902 53.2782 56.1021 52.8111 56.3138 52.2975C56.5255 51.7839 56.6327 51.2338 56.6292 50.679C56.6113 47.7483 56.6016 44.3359 56.6016 44.0882C56.6016 40.938 59.6654 37.7992 62.182 35.7523C65.08 33.3952 67.1655 30.1832 68.0031 26.5598C68.1884 25.8138 68.2906 25.0499 68.3079 24.2818C68.3079 22.1634 67.8853 20.066 67.0644 18.1103C66.2436 16.1547 65.0408 14.3795 63.5252 12.887C62.0096 11.3945 60.2113 10.2142 58.2339 9.41415C56.2564 8.6141 54.1389 8.21009 52.0033 8.22539Z" fill="#FF6582"/>
<path d="M102.855 72H0.145139C0.106704 71.9998 0.0698827 71.9846 0.0427446 71.9576C0.0156066 71.9306 0.000366211 71.8941 0.000366211 71.8559C0.000366211 71.8178 0.0156066 71.7812 0.0427446 71.7542C0.0698827 71.7272 0.106704 71.712 0.145139 71.7119H102.855C102.893 71.7119 102.93 71.7271 102.957 71.7541C102.985 71.7811 103 71.8177 103 71.8559C103 71.8941 102.985 71.9308 102.957 71.9578C102.93 71.9848 102.893 72 102.855 72Z" fill="#3F3D56"/>
<path d="M76.6333 33.0203C78.6537 33.0203 80.2915 31.3956 80.2915 29.3916C80.2915 27.3875 78.6537 25.7629 76.6333 25.7629C74.6129 25.7629 72.9751 27.3875 72.9751 29.3916C72.9751 31.3956 74.6129 33.0203 76.6333 33.0203Z" fill="#2F2E41"/>
<path d="M69.8733 70.4115H68.3784L67.6671 64.6918H69.8736L69.8733 70.4115Z" fill="#A0616A"/>
<path d="M67.3105 69.9878H70.1937V71.7884H65.4952C65.4952 71.552 65.5422 71.3178 65.6334 71.0994C65.7246 70.8809 65.8584 70.6824 66.0269 70.5152C66.1955 70.348 66.3956 70.2153 66.6159 70.1249C66.8361 70.0344 67.0722 69.9878 67.3105 69.9878Z" fill="#2F2E41"/>
<path d="M81.4576 70.4115H79.9627L79.2515 64.6918H81.458L81.4576 70.4115Z" fill="#A0616A"/>
<path d="M78.8949 69.9878H81.778V71.7884H77.0796C77.0796 71.552 77.1265 71.3178 77.2178 71.0994C77.309 70.8809 77.4427 70.6824 77.6113 70.5152C77.7798 70.348 77.98 70.2153 78.2002 70.1249C78.4205 70.0344 78.6565 69.9878 78.8949 69.9878Z" fill="#2F2E41"/>
<path d="M76.0774 33.0414C77.7315 33.0414 79.0724 31.7114 79.0724 30.0706C79.0724 28.4299 77.7315 27.0999 76.0774 27.0999C74.4233 27.0999 73.0824 28.4299 73.0824 30.0706C73.0824 31.7114 74.4233 33.0414 76.0774 33.0414Z" fill="#A0616A"/>
<path d="M77.8624 42.6253L79.2025 39.5712C79.528 38.8548 79.6212 38.0558 79.4695 37.2845C79.3177 36.5132 78.9283 35.8076 78.355 35.2652C78.2373 35.1498 78.1123 35.0419 77.9806 34.9423C77.3194 34.4292 76.5045 34.1495 75.665 34.1476C75.1006 34.1498 74.5432 34.2727 74.031 34.508C73.9871 34.5274 73.9445 34.5479 73.9005 34.5685C73.8164 34.6084 73.7335 34.652 73.653 34.6967C73.1281 34.9957 72.6813 35.4129 72.3487 35.9146C72.0162 36.4163 71.8072 36.9886 71.7385 37.5851L71.1471 42.5008C70.9984 42.8866 65.6915 56.8206 67.5475 67.4587C67.5672 67.5723 67.6231 67.6766 67.7069 67.7565C67.7907 67.8364 67.8981 67.8875 68.0133 67.9026L69.8948 68.1566C70.0322 68.1752 70.1716 68.1415 70.285 68.0623C70.3983 67.9831 70.4772 67.8642 70.5057 67.7296L73.6628 52.8025C73.6825 52.7098 73.7329 52.6262 73.8061 52.5653C73.8792 52.5043 73.9709 52.4695 74.0664 52.4663C74.1619 52.463 74.2557 52.4917 74.3328 52.5476C74.41 52.6035 74.466 52.6835 74.492 52.7747L78.9525 68.4723C78.9843 68.5863 79.0529 68.6869 79.1479 68.7585C79.2428 68.8302 79.3588 68.869 79.4781 68.869C79.5137 68.8688 79.5492 68.8655 79.5842 68.8593L81.8827 68.4202C82.0164 68.3955 82.1358 68.3221 82.2177 68.2144C82.2996 68.1068 82.338 67.9727 82.3254 67.8385C81.9876 64.1021 80.1927 45.3867 77.8624 42.6253Z" fill="#2F2E41"/>
<path d="M64.4381 32.5429C64.4173 32.7196 64.4358 32.8986 64.4923 33.0673C64.5488 33.2361 64.6419 33.3905 64.7651 33.5197C64.8882 33.6489 65.0385 33.7497 65.2052 33.8151C65.3719 33.8805 65.551 33.9088 65.73 33.8981L67.4041 37.8887L68.6704 36.0266L66.8865 32.5226C66.8484 32.2256 66.7018 31.9528 66.4745 31.7558C66.2472 31.5589 65.955 31.4515 65.6532 31.454C65.3514 31.4565 65.061 31.5688 64.837 31.7695C64.6131 31.9702 64.4711 32.2454 64.4381 32.5429Z" fill="#A0616A"/>
<path d="M75.9113 46.6435C76.0893 46.6224 76.2604 46.5628 76.4127 46.469C76.565 46.3752 76.6947 46.2494 76.7926 46.1005C76.8906 45.9515 76.9545 45.7831 76.9797 45.6071C77.005 45.431 76.991 45.2517 76.9388 45.0815L80.4611 42.5368L78.3405 41.7491L75.3208 44.2864C75.0385 44.3923 74.8052 44.5973 74.6651 44.8625C74.525 45.1276 74.4878 45.4346 74.5606 45.7251C74.6333 46.0156 74.811 46.2696 75.06 46.4388C75.3089 46.6081 75.6118 46.6809 75.9113 46.6435Z" fill="#A0616A"/>
<path d="M70.1693 40.5491C70.0343 40.549 69.8996 40.5358 69.7671 40.5098C69.4467 40.4493 69.1463 40.3116 68.8922 40.1087C68.6381 39.9059 68.4383 39.6442 68.3102 39.3466L65.9648 36.5099C65.9152 36.4499 65.8791 36.3801 65.8589 36.3052C65.8387 36.2302 65.8349 36.1519 65.8478 36.0754C65.8606 35.9988 65.8898 35.9259 65.9333 35.8615C65.9769 35.7971 66.0338 35.7426 66.1003 35.7018L67.7689 34.6772C67.8305 34.6394 67.8991 34.614 67.9706 34.6026C68.0422 34.5912 68.1153 34.5939 68.1858 34.6107C68.2562 34.6275 68.3226 34.6579 68.3812 34.7003C68.4397 34.7426 68.4892 34.796 68.5268 34.8575L70.1799 37.5589L73.3456 35.2382C73.5977 35.1071 73.8889 35.0703 74.166 35.1346C74.4432 35.1989 74.6877 35.3599 74.855 35.5883C75.0224 35.8166 75.1013 36.0971 75.0774 36.3784C75.0534 36.6597 74.9283 36.9231 74.7248 37.1204L71.5651 39.9794C71.1938 40.3445 70.6921 40.5492 70.1693 40.5491Z" fill="#2F2E41"/>
<path d="M78.7235 44.8156C78.7192 44.8156 78.7149 44.8156 78.7106 44.8155C78.6336 44.8136 78.5579 44.7957 78.4884 44.763C78.4188 44.7303 78.357 44.6835 78.3068 44.6255L76.8233 42.9088C76.7728 42.8503 76.7353 42.7819 76.7134 42.708C76.6915 42.6341 76.6857 42.5564 76.6963 42.4801C76.7069 42.4039 76.7337 42.3307 76.775 42.2654C76.8162 42.2002 76.8709 42.1444 76.9355 42.1016L79.7135 40.2646L77.1968 37.2634C77.0504 37.0213 76.9967 36.7351 77.0455 36.457C77.0944 36.1788 77.2424 35.9274 77.4627 35.7486C77.6829 35.5699 77.9607 35.4756 78.2452 35.4832C78.5297 35.4908 78.8019 35.5996 79.0122 35.7899L82.0709 38.7548C82.3116 38.973 82.4954 39.2458 82.6064 39.5499C82.7175 39.854 82.7524 40.1802 82.7084 40.5007C82.6643 40.8212 82.5425 41.1262 82.3534 41.3897C82.1643 41.6532 81.9136 41.8672 81.6227 42.0134L79.1228 44.6447C79.0715 44.6986 79.0096 44.7416 78.9409 44.771C78.8722 44.8004 78.7982 44.8155 78.7235 44.8156Z" fill="#2F2E41"/>
<path d="M75.3158 38.4897C75.292 38.4897 75.2682 38.4882 75.2446 38.4852C75.1412 38.4728 75.0437 38.4312 74.9635 38.3654C74.8833 38.2996 74.8238 38.2124 74.7921 38.114L73.6773 34.7237C73.6493 34.638 73.6536 34.5452 73.6894 34.4624C73.7251 34.3795 73.7899 34.3124 73.8717 34.2732L73.9078 34.2563C73.9406 34.2408 73.9731 34.2255 74.0063 34.2109C74.5261 33.9717 75.092 33.847 75.665 33.8452C76.4089 33.8466 77.1362 34.0634 77.7577 34.4689C77.841 34.5239 77.8992 34.6092 77.9198 34.7064C77.9403 34.8035 77.9216 34.9048 77.8676 34.9884L75.7763 38.2382C75.7273 38.3153 75.6593 38.3789 75.5788 38.4229C75.4982 38.4669 75.4077 38.4899 75.3158 38.4897Z" fill="#E6E6E6"/>
<path d="M79.5175 27.7716C80.1786 27.7716 80.7145 27.24 80.7145 26.5842C80.7145 25.9285 80.1786 25.3969 79.5175 25.3969C78.8564 25.3969 78.3204 25.9285 78.3204 26.5842C78.3204 27.24 78.8564 27.7716 79.5175 27.7716Z" fill="#2F2E41"/>
<path d="M75.4139 25.2792C74.573 25.2792 73.7666 25.6105 73.172 26.2003C72.5774 26.79 72.2434 27.5899 72.2434 28.424V29.7545H73.8932L74.6822 28.424L74.919 29.7545H79.9256L78.5843 28.424C78.5843 27.5899 78.2503 26.79 77.6557 26.2003C77.0611 25.6105 76.2547 25.2792 75.4139 25.2792Z" fill="#2F2E41"/>
<path d="M80.1327 25.771C80.2651 25.3604 80.5391 25.0093 80.9067 24.7793C81.2743 24.5493 81.7118 24.4552 82.1424 24.5136C82.9052 24.6401 83.5084 25.2483 83.8678 25.9277C84.2271 26.607 84.3931 27.3673 84.6347 28.0961C84.8763 28.825 85.2189 29.5577 85.8288 30.0295C86.4388 30.5013 87.3747 30.6292 87.9737 30.1439C87.9053 30.6497 87.6783 31.1214 87.3248 31.4921C86.9713 31.8629 86.5093 32.1141 86.004 32.2102C85.4987 32.3062 84.9758 32.2422 84.5092 32.0273C84.0425 31.8124 83.6558 31.4574 83.4038 31.0125C83.0877 30.4547 83.0061 29.8009 82.9124 29.1678C82.8186 28.5348 82.6969 27.8797 82.3195 27.3607C81.9421 26.8418 81.2357 26.5028 80.6362 26.7392L80.1327 25.771Z" fill="#2F2E41"/>
<path d="M41.2093 27.5824C40.118 27.5823 39.0714 27.1522 38.2998 26.3867C37.5281 25.6213 37.0946 24.5831 37.0945 23.5006C37.0945 22.7624 37.095 22.1979 37.0961 22.1176C37.1308 19.5889 37.7729 17.1047 38.969 14.8713C37.0038 17.54 35.9232 20.7484 35.8767 24.0529C35.8756 24.1332 35.8751 24.6976 35.8751 25.4359C35.8752 26.5184 36.3087 27.5566 37.0804 28.322C37.852 29.0875 38.8986 29.5176 39.9899 29.5177C40.8867 29.5173 41.7588 29.2267 42.4738 28.6898C43.1888 28.153 43.7077 27.3993 43.9515 26.5433C43.198 27.2135 42.2213 27.5836 41.2093 27.5824Z" fill="#3F3D56"/>
<path d="M52.2823 16.826C53.5439 16.8858 54.7721 17.2484 55.8613 17.8827C56.9505 18.517 57.8683 19.404 58.5357 20.4676C59.2032 21.5312 59.6005 22.7396 59.6935 23.9891C59.7864 25.2385 59.5723 26.4917 59.0694 27.641C59.7967 26.7937 60.3314 25.8007 60.6368 24.7299C60.9422 23.659 61.0112 22.5354 60.8392 21.4357C60.6672 20.3359 60.2581 19.2859 59.6399 18.3573C59.0216 17.4286 58.2088 16.643 57.2568 16.0542C56.3047 15.4653 55.2359 15.087 54.1231 14.9451C53.0103 14.8031 51.8798 14.9008 50.8085 15.2316C49.7372 15.5623 48.7505 16.1183 47.9155 16.8616C47.0804 17.6049 46.4168 18.518 45.9698 19.5388C46.7424 18.6373 47.7133 17.9239 48.8078 17.4536C49.9022 16.9833 51.0909 16.7685 52.2823 16.826Z" fill="#3F3D56"/>
<path d="M53.5482 52.9831C52.435 52.9833 51.3662 52.5494 50.5726 51.775C49.7789 51.0006 49.324 49.9478 49.3059 48.8437C49.2543 45.6437 49.2276 41.701 49.2276 41.2504C49.2269 40.1542 49.386 39.0637 49.6999 38.0127L49.6984 38.0123C49.8838 37.4848 50.1077 36.9713 50.3684 36.4761C49.5683 37.5337 48.9315 38.7038 48.479 39.9476L48.4805 39.948C48.1666 40.999 48.0075 42.0895 48.0082 43.1857C48.0082 43.6363 48.0349 47.5789 48.0865 50.779C48.1046 51.8831 48.5595 52.9359 49.3532 53.7103C50.1468 54.4847 51.2156 54.9186 52.3288 54.9183C53.2468 54.9182 54.1399 54.6228 54.8742 54.0766C55.6086 53.5303 56.1446 52.7626 56.4019 51.8886C55.6218 52.5941 54.6039 52.9845 53.5482 52.9831Z" fill="#3F3D56"/>
<path d="M15.4304 70.4667L16.9253 70.4666L17.6366 64.7468L15.4301 64.7469L15.4304 70.4667Z" fill="#FFB8B8"/>
<path d="M19.8086 71.8435L15.1101 71.8437L15.1101 70.0431L17.9932 70.0429C18.4747 70.0429 18.9364 70.2326 19.2768 70.5703C19.6173 70.908 19.8086 71.3659 19.8086 71.8435Z" fill="#2F2E41"/>
<path d="M10.0651 70.4667L11.5599 70.4666L12.2712 64.7468L10.0647 64.7469L10.0651 70.4667Z" fill="#FFB8B8"/>
<path d="M14.4432 71.8435L9.74479 71.8437L9.74471 70.0431L12.6278 70.0429C13.1093 70.0429 13.571 70.2326 13.9115 70.5703C14.2519 70.908 14.4432 71.3659 14.4432 71.8435Z" fill="#2F2E41"/>
<path d="M11.3714 68.7075L9.91118 68.6314C9.83589 68.6274 9.76213 68.6087 9.69417 68.5763C9.62622 68.5439 9.56542 68.4984 9.51531 68.4426C9.46519 68.3867 9.42676 68.3215 9.40222 68.2508C9.37769 68.1801 9.36755 68.1052 9.37239 68.0306L11.1177 48.8633L19.1549 51.0145L19.9292 50.805L17.5077 67.7732C17.4871 67.9008 17.4232 68.0177 17.3266 68.1044C17.2299 68.1912 17.1064 68.2426 16.9763 68.2503L15.4022 68.323C15.3235 68.3274 15.2447 68.3155 15.1709 68.2881C15.097 68.2607 15.0297 68.2184 14.9732 68.1639C14.9167 68.1094 14.8722 68.0438 14.8425 67.9714C14.8128 67.8989 14.7986 67.8212 14.8008 67.743L15.086 57.559C15.0874 57.5119 15.0709 57.466 15.0398 57.4304C15.0087 57.3948 14.9653 57.372 14.9181 57.3665C14.871 57.3611 14.8234 57.3733 14.7849 57.4009C14.7464 57.4284 14.7197 57.4693 14.7101 57.5154L11.9595 68.2578C11.9335 68.3852 11.8638 68.4998 11.7622 68.582C11.6606 68.6642 11.5334 68.7088 11.4023 68.7084C11.3921 68.7084 11.3818 68.7082 11.3714 68.7075Z" fill="#2F2E41"/>
<path d="M15.6988 33.1805C17.3529 33.1805 18.6938 31.8504 18.6938 30.2097C18.6938 28.569 17.3529 27.2389 15.6988 27.2389C14.0448 27.2389 12.7039 28.569 12.7039 30.2097C12.7039 31.8504 14.0448 33.1805 15.6988 33.1805Z" fill="#FFB8B8"/>
<path d="M10.7124 38.9376L11.0417 45.9854L11.1608 48.5494C11.1655 48.6611 11.2037 48.7687 11.2705 48.8587C11.3373 48.9487 11.4296 49.0168 11.5356 49.0545L19.2589 51.8296C19.3212 51.8526 19.3873 51.8641 19.4539 51.8635C19.53 51.8639 19.6053 51.849 19.6755 51.8199C19.7457 51.7907 19.8092 51.7478 19.8623 51.6938C19.9153 51.6397 19.9569 51.5756 19.9844 51.5053C20.012 51.4349 20.025 51.3598 20.0226 51.2844L19.706 38.6122C19.6852 37.5726 19.2993 36.5726 18.615 35.7849C17.9306 34.9971 16.9906 34.4709 15.9571 34.2969C15.8824 34.2856 15.8064 34.2743 15.7304 34.2642C15.0895 34.1853 14.4389 34.2467 13.8245 34.444C13.21 34.6413 12.6467 34.9697 12.174 35.4062C11.6845 35.8527 11.2999 36.4005 11.0473 37.0107C10.7948 37.6209 10.6804 38.2787 10.7124 38.9376Z" fill="#CCCCCC"/>
<path d="M22.9483 50.4234C22.7656 50.3671 22.5987 50.2693 22.4609 50.1378C22.3231 50.0062 22.2182 49.8445 22.1546 49.6656C22.091 49.4867 22.0705 49.2955 22.0946 49.1073C22.1187 48.9191 22.1869 48.7391 22.2936 48.5816L19.6746 45.1272L21.9346 44.9884L24.0752 48.2901C24.3044 48.4659 24.4638 48.716 24.5256 48.9967C24.5874 49.2774 24.5476 49.5708 24.4132 49.8253C24.2787 50.0798 24.0582 50.2792 23.7904 50.3886C23.5225 50.4979 23.2244 50.5102 22.9483 50.4234Z" fill="#FFB8B8"/>
<path d="M21.1068 47.9565C21.0374 47.9285 20.9743 47.8872 20.9211 47.8349C20.8679 47.7826 20.8257 47.7204 20.797 47.6518L16.8512 38.3269C16.7738 38.1443 16.7334 37.9484 16.7323 37.7503C16.7313 37.5523 16.7696 37.3559 16.8451 37.1726C16.9205 36.9892 17.0317 36.8224 17.1722 36.6816C17.3127 36.5409 17.4798 36.429 17.6639 36.3523C17.848 36.2757 18.0456 36.2358 18.2453 36.2349C18.4449 36.234 18.6428 36.2721 18.8276 36.3471C19.0125 36.4222 19.1806 36.5326 19.3223 36.672C19.4641 36.8115 19.5768 36.9773 19.6539 37.16L23.5997 46.4851C23.658 46.6234 23.6586 46.7789 23.6015 46.9177C23.5443 47.0564 23.434 47.167 23.2948 47.2251L21.543 47.9544C21.4741 47.9833 21.4 47.9984 21.3251 47.9988C21.2503 47.9992 21.1761 47.9848 21.1068 47.9565Z" fill="#CCCCCC"/>
<path d="M14.736 47.6275L18.5258 40.4296C18.5989 40.2912 18.7243 40.1871 18.8746 40.1404C19.0249 40.0936 19.1878 40.1078 19.3275 40.18L24.8285 43.0297C24.968 43.1022 25.0729 43.2267 25.12 43.3758C25.1672 43.5248 25.1528 43.6864 25.0801 43.825L21.2902 51.0229C21.2172 51.1613 21.0917 51.2654 20.9414 51.3121C20.7911 51.3589 20.6282 51.3447 20.4885 51.2725L14.9876 48.4228C14.848 48.3503 14.7432 48.2258 14.696 48.0767C14.6488 47.9277 14.6632 47.7661 14.736 47.6275Z" fill="#3F3D56"/>
<path d="M17.2776 44.339C17.2102 44.1615 17.1019 44.002 16.9614 43.8733C16.8208 43.7446 16.6519 43.6503 16.4681 43.5979C16.2843 43.5455 16.0906 43.5364 15.9027 43.5714C15.7147 43.6065 15.5376 43.6846 15.3854 43.7995L11.7542 41.4102L11.748 43.6563L15.1972 45.5809C15.3876 45.7974 15.6488 45.9405 15.935 45.9852C16.2211 46.0298 16.514 45.973 16.7622 45.8249C17.0104 45.6767 17.198 45.4466 17.2923 45.1749C17.3865 44.9032 17.3813 44.6073 17.2776 44.339Z" fill="#FFB8B8"/>
<path d="M12.6864 44.8442L9.71881 42.5124C9.39777 42.4055 9.10769 42.2229 8.87345 41.9803C8.63922 41.7377 8.46784 41.4423 8.37403 41.1195C8.28021 40.7967 8.26676 40.4562 8.33482 40.1271C8.40289 39.7981 8.55045 39.4903 8.76482 39.2303L11.4594 35.7275C11.6466 35.5005 11.9099 35.3479 12.2012 35.2977C12.4925 35.2475 12.7923 35.3029 13.0458 35.4539C13.2993 35.6048 13.4896 35.8412 13.5818 36.1199C13.674 36.3985 13.6621 36.7008 13.5481 36.9714L11.4162 40.4307L14.5493 41.9048C14.6221 41.9391 14.6868 41.9883 14.7391 42.0492C14.7914 42.1101 14.83 42.1813 14.8524 42.2582C14.8749 42.335 14.8807 42.4156 14.8694 42.4948C14.8581 42.574 14.8299 42.6499 14.7869 42.7176L13.5221 44.7029C13.4794 44.7699 13.4229 44.8273 13.3564 44.8713C13.2899 44.9153 13.2148 44.9449 13.136 44.9583C13.1328 44.9588 13.1297 44.9593 13.1265 44.9598C13.0491 44.9714 12.9701 44.9671 12.8944 44.9472C12.8187 44.9273 12.7479 44.8922 12.6864 44.8442Z" fill="#CCCCCC"/>
<path d="M13.4357 32.1989C13.4229 32.1616 13.4188 32.1219 13.4238 32.0828C13.4288 32.0437 13.4428 32.0062 13.4646 31.9733C13.4865 31.9404 13.5156 31.9129 13.5499 31.8929C13.5841 31.8729 13.6225 31.8609 13.6621 31.8579C13.7432 31.8623 13.8226 31.8829 13.8954 31.9185C13.9683 31.9542 14.0331 32.0041 14.086 32.0653C14.1943 32.1893 14.3205 32.2968 14.4605 32.3843C14.6053 32.4567 14.8018 32.4464 14.8844 32.3083C14.962 32.1786 14.9088 32.0049 14.8619 31.8543C14.7424 31.471 14.6755 31.0735 14.6631 30.6726C14.6496 30.225 14.7133 29.7579 14.9631 29.4088C15.2855 28.9583 15.8619 28.7872 16.4075 28.7996C16.9531 28.812 17.4898 28.9791 18.0302 29.0847C18.2167 29.1212 18.436 29.1398 18.5608 28.9964C18.6935 28.8439 18.6448 28.597 18.5883 28.3911C18.4419 27.8568 18.2865 27.3044 17.9463 26.8729C17.5784 26.4245 17.0529 26.131 16.4756 26.0516C15.9213 25.9835 15.3587 26.0468 14.834 26.2364C13.979 26.5037 13.2267 27.0236 12.6777 27.7264C12.1118 28.4739 11.8672 29.4133 11.9975 30.3391C12.1248 31.1455 12.5556 31.874 13.203 32.3777L13.4357 32.1989Z" fill="#2F2E41"/>
<path d="M51.3683 70.4903C50.5715 70.1461 49.8663 69.6229 49.3082 68.9619C48.7501 68.301 48.3546 67.5205 48.1527 66.682C47.9509 65.8434 47.9482 64.9699 48.1451 64.1301C48.3419 63.2904 48.7327 62.5076 49.2868 61.8434C48.6444 62.3086 48.1091 62.9041 47.7164 63.5902C47.3238 64.2764 47.0827 65.0375 47.0093 65.8231C46.9359 66.6087 47.0317 67.4008 47.2905 68.1469C47.5493 68.8929 47.9651 69.5758 48.5103 70.1503C49.0555 70.7248 49.7177 71.1777 50.4528 71.4789C51.188 71.7801 51.9793 71.9228 52.7743 71.8975C53.5693 71.8722 54.3497 71.6794 55.0639 71.332C55.778 70.9846 56.4095 70.4905 56.9165 69.8826C56.1258 70.4558 55.1975 70.8135 54.2241 70.9202C53.2507 71.0268 52.2661 70.8786 51.3683 70.4903Z" fill="#3F3D56"/>
</g>
<defs>
<clipPath id="clip0_15_2816">
<rect width="103" height="72" fill="white"/>
</clipPath>
</defs>
</svg>
