<svg width="54" height="54" viewBox="0 0 54 54" fill="none" xmlns="http://www.w3.org/2000/svg">
<circle cx="27" cy="27" r="27" fill="#FD8F52" fill-opacity="0.19"/>
<g clip-path="url(#clip0_15_979)">
<path d="M50 13.0256H4.01965V42H50V13.0256Z" fill="#E6E6E6"/>
<path d="M48.6852 16.6598H5.33447V40.2859H48.6852V16.6598Z" fill="white"/>
<path d="M49.9803 13H4V14.922H49.9803V13Z" fill="#FD8F52"/>
<path d="M44.9611 19.2452H29.1815V34.2313H44.9611V19.2452Z" fill="#E6E6E6"/>
<path d="M5.45164 14.3388C5.65159 14.3388 5.81369 14.1794 5.81369 13.9826C5.81369 13.7859 5.65159 13.6264 5.45164 13.6264C5.25169 13.6264 5.0896 13.7859 5.0896 13.9826C5.0896 14.1794 5.25169 14.3388 5.45164 14.3388Z" fill="white"/>
<path d="M6.82591 14.3388C7.02586 14.3388 7.18795 14.1794 7.18795 13.9826C7.18795 13.7859 7.02586 13.6264 6.82591 13.6264C6.62596 13.6264 6.46387 13.7859 6.46387 13.9826C6.46387 14.1794 6.62596 14.3388 6.82591 14.3388Z" fill="white"/>
<path d="M8.20018 14.3388C8.40013 14.3388 8.56222 14.1794 8.56222 13.9826C8.56222 13.7859 8.40013 13.6264 8.20018 13.6264C8.00023 13.6264 7.83813 13.7859 7.83813 13.9826C7.83813 14.1794 8.00023 14.3388 8.20018 14.3388Z" fill="white"/>
<path d="M12.876 19.2144H8.66809V23.3546H12.876V19.2144Z" fill="#FD8F52"/>
<path d="M18.7275 19.2381H14.5197V23.3783H18.7275V19.2381Z" fill="#E6E6E6"/>
<path d="M18.7442 24.9252H14.5364V38.7015H18.7442V24.9252Z" fill="#FD8F52"/>
<path d="M12.7612 24.8945H8.55334V31.9429H12.7612V24.8945Z" fill="#E6E6E6"/>
<path d="M36.9646 21.6123C36.2717 20.4606 34.9013 20.4069 34.9013 20.4069C34.9013 20.4069 33.5658 20.2389 32.709 21.9929C31.9105 23.6279 30.8083 25.2063 32.5317 25.5892L32.843 24.636L33.0358 25.6601C33.2812 25.6775 33.5273 25.6816 33.7731 25.6725C35.6186 25.6139 37.376 25.6897 37.3195 25.0383C37.244 24.172 37.6312 22.7205 36.9646 21.6123Z" fill="#2F2E41"/>
<path d="M32.2353 32.5488L29.899 34.1449C29.899 34.1449 28.5361 35.5497 29.5096 35.5497C30.4831 35.5497 30.8725 34.3365 30.8725 34.3365L33.8578 33.0594L32.2353 32.5488Z" fill="#FFB8B8"/>
<path d="M33.1764 26.323C33.1764 26.323 31.1321 32.549 31.7811 32.8681C32.43 33.1872 33.8578 33.3789 33.8578 33.3789L33.1764 26.323Z" fill="#2F2E41"/>
<path opacity="0.1" d="M33.1764 26.323C33.1764 26.323 31.1321 32.549 31.7811 32.8681C32.43 33.1872 33.8578 33.3789 33.8578 33.3789L33.1764 26.323Z" fill="black"/>
<path d="M39.6031 34.1772H35.0012L38.2708 32.549C38.3429 32.595 38.412 32.6453 38.4778 32.6997C38.9626 33.1012 39.3476 33.6067 39.6031 34.1772Z" fill="#2F2E41"/>
<path d="M34.4743 24.7266C35.4062 24.7266 36.1616 23.9833 36.1616 23.0664C36.1616 22.1495 35.4062 21.4062 34.4743 21.4062C33.5424 21.4062 32.787 22.1495 32.787 23.0664C32.787 23.9833 33.5424 24.7266 34.4743 24.7266Z" fill="#FFB8B8"/>
<path d="M34.4418 24.4393C34.4418 24.4393 34.8312 25.6525 34.4418 26.0995C34.0525 26.5466 36.5835 25.461 36.5835 25.461C36.5835 25.461 35.6749 24.1839 35.9345 23.6092L34.4418 24.4393Z" fill="#FFB8B8"/>
<path d="M38.1799 29.9825L38.0436 30.8567C38.0436 30.8567 38.1124 31.0552 38.1961 31.3446C38.3052 31.7219 38.4395 32.2536 38.4778 32.6995C38.5173 33.1516 38.4576 33.5155 38.1734 33.5385C37.7659 33.5717 37.5536 33.815 37.342 34.1771H32.6473C32.6597 33.9779 32.6745 33.771 32.6921 33.5584C32.7018 33.4306 32.7126 33.3012 32.7243 33.1701C32.7373 33.0194 33.197 30.1888 32.8515 29.5796C32.1379 28.3217 33.0463 27.6002 33.0463 27.6002C33.0463 27.6002 33.176 26.6423 33.176 26.3231C33.176 26.0728 34.1728 25.7835 34.6038 25.6699C34.6317 25.6628 34.6564 25.6558 34.679 25.6507C34.7536 25.6316 34.7984 25.6207 34.7984 25.6207L35.1391 25.4833C35.1391 25.4833 36.0963 25.3013 36.1613 25.1736C36.2028 25.1185 36.2609 25.0778 36.3274 25.0573C36.4643 24.9999 36.639 24.9589 36.6805 24.9181C36.7398 24.851 36.7934 24.7792 36.8408 24.7035C36.9652 24.5631 37.133 24.4665 37.3184 24.4287C38.0154 24.2556 39.0168 24.5985 39.0168 24.5985L38.6663 26.8494L38.1799 29.9825Z" fill="#2F2E41"/>
<path d="M40.2179 28.5899L37.8816 30.186C37.8816 30.186 36.5187 31.5908 37.4922 31.5908C38.4657 31.5908 38.8547 30.3778 38.8547 30.3778L41.84 29.1007L40.2179 28.5899Z" fill="#FFB8B8"/>
<path d="M36.204 21.5013L34.85 20.8036L34.0007 20.9331C33.6998 20.9791 33.4198 21.113 33.1972 21.3175C32.9746 21.5221 32.8196 21.7877 32.7524 22.08L32.5934 22.7701L33.5565 22.7337L33.8255 22.116V22.7235L34.2699 22.7067L34.5277 21.7233L34.6889 22.7701L36.2686 22.7384L36.204 21.5013Z" fill="#2F2E41"/>
<path d="M38.5629 24.7267L39.0172 24.599C39.0172 24.599 43.6249 26.4507 43.4951 28.0471C43.3653 29.6434 43.56 29.6432 42.7812 29.7073C42.0025 29.7713 39.7313 29.0049 39.7957 28.8772C39.8602 28.7495 40.3149 28.1108 40.3149 28.1108L38.5626 26.7699L38.5629 24.7267Z" fill="#2F2E41"/>
<path d="M36.1617 23.3219C36.3051 23.3219 36.4213 23.2075 36.4213 23.0665C36.4213 22.9254 36.3051 22.811 36.1617 22.811C36.0183 22.811 35.9021 22.9254 35.9021 23.0665C35.9021 23.2075 36.0183 23.3219 36.1617 23.3219Z" fill="#FFB8B8"/>
<path d="M44.9611 36.64H29.1815V38.7101H44.9611V36.64Z" fill="#E6E6E6"/>
<path d="M12.7612 33.4984H8.55334V38.6708H12.7612V33.4984Z" fill="#E6E6E6"/>
<path d="M24.7274 19.2664H20.5195V31.9429H24.7274V19.2664Z" fill="#E6E6E6"/>
<path d="M24.7107 33.511H20.5028V38.6864H24.7107V33.511Z" fill="#E6E6E6"/>
</g>
<defs>
<clipPath id="clip0_15_979">
<rect width="46" height="29" fill="white" transform="translate(4 13)"/>
</clipPath>
</defs>
</svg>
