<svg width="54" height="54" viewBox="0 0 54 54" fill="none" xmlns="http://www.w3.org/2000/svg">
<circle cx="27.7142" cy="27" r="27" fill="#FD8F52" fill-opacity="0.19"/>
<path d="M29.0558 53.1369C28.8822 53.1409 28.7079 53.1429 28.533 53.1429C24.3781 53.1429 19.1521 50.9085 14.4096 47.8155C14.0172 47.5596 13.6283 47.2978 13.2429 47.03L13.5809 44.9592L23.8134 43.5914L28.949 47.5451L29.0558 53.1369Z" fill="#2F2E41"/>
<path d="M29.5484 16.1599H28.0902C28.0451 16.1599 28.0018 16.1779 27.9698 16.2101C27.9379 16.2422 27.9199 16.2858 27.9199 16.3313V17.8C27.9199 17.8225 27.9244 17.8447 27.9329 17.8655C27.9415 17.8862 27.9541 17.9051 27.9699 17.921C27.9857 17.9368 28.0045 17.9494 28.0251 17.9579C28.0458 17.9665 28.0679 17.9709 28.0902 17.9708H29.5484C29.5934 17.9708 29.6367 17.9529 29.6686 17.9208C29.7005 17.8888 29.7185 17.8454 29.7187 17.8V16.3313C29.7185 16.2859 29.7006 16.2423 29.6686 16.2102C29.6367 16.1781 29.5935 16.16 29.5484 16.1599Z" fill="white"/>
<path d="M29.5484 18.6626H28.0902C28.0451 18.6626 28.0018 18.6807 27.9698 18.7129C27.9379 18.745 27.9199 18.7886 27.9199 18.8341V20.3028C27.9199 20.3253 27.9244 20.3475 27.9329 20.3683C27.9415 20.389 27.9541 20.4079 27.9699 20.4237C27.9857 20.4396 28.0045 20.4522 28.0251 20.4607C28.0458 20.4693 28.0679 20.4737 28.0902 20.4736H29.5484C29.5934 20.4736 29.6367 20.4556 29.6686 20.4236C29.7005 20.3916 29.7185 20.3482 29.7187 20.3028V18.8341C29.7185 18.7887 29.7006 18.7451 29.6686 18.713C29.6367 18.6809 29.5935 18.6628 29.5484 18.6626Z" fill="#E6E6E6"/>
<path d="M29.5484 21.1654H28.0902C28.0451 21.1654 28.0018 21.1835 27.9698 21.2157C27.9379 21.2478 27.9199 21.2914 27.9199 21.3369V22.8049C27.9199 22.8274 27.9242 22.8498 27.9328 22.8706C27.9413 22.8914 27.9539 22.9103 27.9697 22.9263C27.9855 22.9422 28.0043 22.9548 28.025 22.9634C28.0457 22.972 28.0678 22.9764 28.0902 22.9764H29.5484C29.5935 22.9764 29.6368 22.9583 29.6688 22.9261C29.7007 22.894 29.7187 22.8504 29.7187 22.8049V21.3369C29.7185 21.2914 29.7006 21.2479 29.6686 21.2158C29.6367 21.1836 29.5935 21.1655 29.5484 21.1654Z" fill="#E6E6E6"/>
<path d="M29.7161 23.8093C29.7088 23.7698 29.6881 23.7341 29.6574 23.7083C29.6268 23.6826 29.5883 23.6684 29.5484 23.6682H28.0902C28.0451 23.6682 28.0018 23.6863 27.9698 23.7184C27.9379 23.7506 27.9199 23.7942 27.9199 23.8396V25.3077C27.9199 25.3302 27.9242 25.3525 27.9328 25.3733C27.9413 25.3942 27.9539 25.4131 27.9697 25.429C27.9855 25.4449 28.0043 25.4576 28.025 25.4662C28.0457 25.4748 28.0678 25.4792 28.0902 25.4791H29.5484C29.5935 25.4791 29.6368 25.461 29.6688 25.4289C29.7007 25.3967 29.7187 25.3531 29.7187 25.3077V23.8396C29.7188 23.8295 29.7179 23.8193 29.7161 23.8093Z" fill="#E6E6E6"/>
<path d="M29.6145 26.1841C29.5935 26.1754 29.5711 26.1709 29.5484 26.1709H28.0902C28.0678 26.1709 28.0457 26.1753 28.025 26.1839C28.0043 26.1925 27.9855 26.2051 27.9697 26.2211C27.9539 26.237 27.9413 26.2559 27.9328 26.2767C27.9243 26.2976 27.9199 26.3199 27.9199 26.3424V27.8104C27.9198 27.833 27.9242 27.8553 27.9327 27.8762C27.9412 27.897 27.9537 27.916 27.9696 27.9319C27.9854 27.9479 28.0042 27.9605 28.0249 27.9691C28.0456 27.9776 28.0678 27.982 28.0902 27.9819H29.5484C29.5935 27.9819 29.6368 27.9638 29.6688 27.9317C29.7007 27.8995 29.7187 27.8559 29.7187 27.8104V26.3424C29.7186 26.3087 29.7087 26.2757 29.6902 26.2476C29.6717 26.2194 29.6454 26.1974 29.6145 26.1841Z" fill="#E6E6E6"/>
<path d="M32.6113 16.1599H31.1532C31.1081 16.1599 31.0647 16.1779 31.0328 16.2101C31.0009 16.2422 30.9829 16.2858 30.9829 16.3313V17.8C30.9829 17.8225 30.9874 17.8447 30.9959 17.8655C31.0045 17.8862 31.0171 17.9051 31.0329 17.921C31.0487 17.9368 31.0675 17.9494 31.0881 17.9579C31.1088 17.9665 31.1309 17.9709 31.1532 17.9708H32.6113C32.6564 17.9708 32.6996 17.9529 32.7316 17.9208C32.7635 17.8888 32.7815 17.8454 32.7817 17.8V16.3313C32.7815 16.2859 32.7635 16.2423 32.7316 16.2102C32.6997 16.1781 32.6565 16.16 32.6113 16.1599Z" fill="#E6E6E6"/>
<path d="M32.6113 18.6626H31.1532C31.1081 18.6626 31.0647 18.6807 31.0328 18.7129C31.0009 18.745 30.9829 18.7886 30.9829 18.8341V20.3028C30.9829 20.3253 30.9874 20.3475 30.9959 20.3683C31.0045 20.389 31.0171 20.4079 31.0329 20.4237C31.0487 20.4396 31.0675 20.4522 31.0881 20.4607C31.1088 20.4693 31.1309 20.4737 31.1532 20.4736H32.6113C32.6564 20.4736 32.6996 20.4556 32.7316 20.4236C32.7635 20.3916 32.7815 20.3482 32.7817 20.3028V18.8341C32.7815 18.7887 32.7635 18.7451 32.7316 18.713C32.6997 18.6809 32.6565 18.6628 32.6113 18.6626Z" fill="#FD8F52"/>
<path d="M32.6113 21.1654H31.1532C31.1081 21.1654 31.0647 21.1835 31.0328 21.2157C31.0009 21.2478 30.9829 21.2914 30.9829 21.3369V22.8049C30.9829 22.8274 30.9872 22.8498 30.9958 22.8706C31.0043 22.8914 31.0169 22.9103 31.0327 22.9263C31.0485 22.9422 31.0673 22.9548 31.088 22.9634C31.1087 22.972 31.1308 22.9764 31.1532 22.9764H32.6113C32.6565 22.9764 32.6998 22.9583 32.7318 22.9261C32.7637 22.894 32.7816 22.8504 32.7817 22.8049V21.3369C32.7815 21.2914 32.7635 21.2479 32.7316 21.2158C32.6997 21.1836 32.6565 21.1655 32.6113 21.1654Z" fill="#FD8F52"/>
<path d="M32.6113 23.6682H31.1532C31.1175 23.6682 31.0827 23.6796 31.0538 23.7006C31.0249 23.7217 31.0033 23.7514 30.9921 23.7856C30.986 23.8029 30.9829 23.8212 30.9829 23.8396V25.3077C30.9829 25.3302 30.9872 25.3525 30.9958 25.3733C31.0043 25.3942 31.0169 25.4131 31.0327 25.429C31.0485 25.4449 31.0673 25.4576 31.088 25.4662C31.1087 25.4748 31.1308 25.4792 31.1532 25.4791H32.6113C32.6565 25.4791 32.6998 25.461 32.7318 25.4289C32.7637 25.3967 32.7816 25.3531 32.7817 25.3077V23.8396C32.7815 23.7942 32.7635 23.7507 32.7316 23.7185C32.6997 23.6864 32.6565 23.6683 32.6113 23.6682Z" fill="#FD8F52"/>
<path d="M32.6113 26.1709H31.1532C31.1308 26.1709 31.1087 26.1753 31.088 26.1839C31.0673 26.1925 31.0485 26.2051 31.0327 26.2211C31.0169 26.237 31.0043 26.2559 30.9958 26.2767C30.9872 26.2976 30.9829 26.3199 30.9829 26.3424V27.8104C30.9829 27.833 30.9872 27.8553 30.9958 27.8761C31.0043 27.8969 31.0169 27.9159 31.0327 27.9318C31.0485 27.9477 31.0673 27.9604 31.088 27.969C31.1087 27.9776 31.1308 27.982 31.1532 27.9819H32.6113C32.6565 27.9819 32.6998 27.9638 32.7318 27.9317C32.7637 27.8995 32.7816 27.8559 32.7817 27.8104V26.3424C32.7816 26.2969 32.7637 26.2533 32.7318 26.2212C32.6998 26.189 32.6565 26.171 32.6113 26.1709Z" fill="#E6E6E6"/>
<path d="M35.6743 16.1599H34.2162C34.171 16.1599 34.1277 16.1779 34.0958 16.2101C34.0639 16.2422 34.0459 16.2858 34.0459 16.3313V17.8C34.0459 17.8225 34.0503 17.8447 34.0589 17.8655C34.0675 17.8862 34.08 17.9051 34.0959 17.921C34.1117 17.9368 34.1305 17.9494 34.1511 17.9579C34.1718 17.9665 34.1939 17.9709 34.2162 17.9708H35.6743C35.7194 17.9708 35.7626 17.9529 35.7946 17.9208C35.8265 17.8888 35.8445 17.8454 35.8447 17.8V16.3313C35.8445 16.2859 35.8265 16.2423 35.7946 16.2102C35.7627 16.1781 35.7195 16.16 35.6743 16.1599Z" fill="#FD8F52"/>
<path d="M35.6743 18.6626H34.2162C34.171 18.6626 34.1277 18.6807 34.0958 18.7129C34.0639 18.745 34.0459 18.7886 34.0459 18.8341V20.3028C34.0459 20.3253 34.0503 20.3475 34.0589 20.3683C34.0675 20.389 34.08 20.4079 34.0959 20.4237C34.1117 20.4396 34.1305 20.4522 34.1511 20.4607C34.1718 20.4693 34.1939 20.4737 34.2162 20.4736H35.6743C35.7194 20.4736 35.7626 20.4556 35.7946 20.4236C35.8265 20.3916 35.8445 20.3482 35.8447 20.3028V18.8341C35.8445 18.7887 35.8265 18.7451 35.7946 18.713C35.7627 18.6809 35.7195 18.6628 35.6743 18.6626Z" fill="#FD8F52"/>
<path d="M35.6743 21.1654H34.2162C34.171 21.1654 34.1277 21.1835 34.0958 21.2157C34.0639 21.2478 34.0459 21.2914 34.0459 21.3369V22.8049C34.0459 22.8274 34.0502 22.8498 34.0588 22.8706C34.0673 22.8914 34.0799 22.9103 34.0957 22.9263C34.1115 22.9422 34.1303 22.9548 34.151 22.9634C34.1717 22.972 34.1938 22.9764 34.2162 22.9764H35.6743C35.7195 22.9764 35.7628 22.9583 35.7947 22.9261C35.8267 22.894 35.8446 22.8504 35.8447 22.8049V21.3369C35.8445 21.2914 35.8265 21.2479 35.7946 21.2158C35.7627 21.1836 35.7195 21.1655 35.6743 21.1654Z" fill="#E6E6E6"/>
<path d="M35.6743 23.6682H34.2162C34.171 23.6682 34.1277 23.6863 34.0958 23.7184C34.0639 23.7506 34.0459 23.7942 34.0459 23.8396V25.3077C34.0459 25.3302 34.0502 25.3525 34.0588 25.3733C34.0673 25.3942 34.0799 25.4131 34.0957 25.429C34.1115 25.4449 34.1303 25.4576 34.151 25.4662C34.1717 25.4748 34.1938 25.4792 34.2162 25.4791H35.6743C35.7195 25.4791 35.7628 25.461 35.7947 25.4289C35.8267 25.3967 35.8446 25.3531 35.8447 25.3077V23.8396C35.8445 23.7942 35.8265 23.7507 35.7946 23.7185C35.7627 23.6864 35.7195 23.6683 35.6743 23.6682Z" fill="#FD8F52"/>
<path d="M35.6743 26.1709H34.2162C34.1938 26.1709 34.1717 26.1753 34.151 26.1839C34.1303 26.1925 34.1115 26.2051 34.0957 26.2211C34.0799 26.237 34.0673 26.2559 34.0588 26.2767C34.0502 26.2976 34.0459 26.3199 34.0459 26.3424V27.8104C34.0459 27.833 34.0502 27.8553 34.0588 27.8761C34.0673 27.8969 34.0799 27.9159 34.0957 27.9318C34.1115 27.9477 34.1303 27.9604 34.151 27.969C34.1717 27.9776 34.1938 27.982 34.2162 27.9819H35.6743C35.7195 27.9819 35.7628 27.9638 35.7947 27.9317C35.8267 27.8995 35.8446 27.8559 35.8447 27.8104V26.3424C35.8446 26.2969 35.8267 26.2533 35.7947 26.2212C35.7628 26.189 35.7195 26.171 35.6743 26.1709Z" fill="#FD8F52"/>
<path d="M38.7375 16.1599H37.2793C37.2342 16.1599 37.1909 16.1779 37.1589 16.2101C37.127 16.2422 37.109 16.2858 37.109 16.3313V17.8C37.109 17.8225 37.1135 17.8447 37.122 17.8655C37.1306 17.8862 37.1432 17.9051 37.159 17.921C37.1748 17.9368 37.1936 17.9494 37.2142 17.958C37.2349 17.9665 37.257 17.9709 37.2793 17.9708H38.7375C38.7825 17.9708 38.8257 17.9529 38.8577 17.9208C38.8896 17.8888 38.9076 17.8454 38.9078 17.8V16.3313C38.9076 16.2859 38.8897 16.2423 38.8577 16.2102C38.8258 16.1781 38.7826 16.16 38.7375 16.1599Z" fill="#FD8F52"/>
<path d="M38.7375 18.6626H37.2793C37.2342 18.6626 37.1908 18.6807 37.1589 18.7129C37.127 18.745 37.109 18.7886 37.109 18.8341V20.3028C37.109 20.3253 37.1135 20.3475 37.122 20.3683C37.1306 20.389 37.1432 20.4079 37.159 20.4237C37.1748 20.4396 37.1936 20.4522 37.2142 20.4607C37.2349 20.4693 37.257 20.4737 37.2793 20.4736H38.7375C38.7825 20.4736 38.8257 20.4556 38.8577 20.4236C38.8896 20.3916 38.9076 20.3482 38.9078 20.3028V18.8341C38.9076 18.7887 38.8897 18.7451 38.8577 18.713C38.8258 18.6809 38.7826 18.6628 38.7375 18.6626Z" fill="white"/>
<path d="M38.7375 21.1654H37.2793C37.2342 21.1654 37.1908 21.1835 37.1589 21.2157C37.127 21.2478 37.109 21.2914 37.109 21.3369V22.8049C37.109 22.8274 37.1133 22.8498 37.1219 22.8706C37.1304 22.8914 37.143 22.9103 37.1588 22.9263C37.1746 22.9422 37.1934 22.9548 37.2141 22.9634C37.2348 22.972 37.2569 22.9764 37.2793 22.9764H38.7375C38.7826 22.9764 38.8259 22.9583 38.8579 22.9261C38.8898 22.894 38.9078 22.8504 38.9078 22.8049V21.3369C38.9076 21.2914 38.8897 21.2479 38.8577 21.2158C38.8258 21.1836 38.7826 21.1655 38.7375 21.1654Z" fill="white"/>
<path d="M38.7375 23.6682H37.2793C37.2342 23.6682 37.1908 23.6863 37.1589 23.7184C37.127 23.7506 37.109 23.7942 37.109 23.8396V25.3077C37.109 25.3302 37.1133 25.3525 37.1219 25.3733C37.1304 25.3942 37.143 25.4131 37.1588 25.429C37.1746 25.4449 37.1934 25.4576 37.2141 25.4662C37.2348 25.4748 37.2569 25.4792 37.2793 25.4791H38.7375C38.7826 25.4791 38.8259 25.461 38.8579 25.4289C38.8898 25.3967 38.9078 25.3531 38.9078 25.3077V23.8396C38.9076 23.7942 38.8897 23.7507 38.8577 23.7185C38.8258 23.6864 38.7826 23.6683 38.7375 23.6682Z" fill="#E6E6E6"/>
<path d="M38.7375 26.1709H37.2793C37.2569 26.1709 37.2348 26.1753 37.2141 26.1839C37.1934 26.1925 37.1746 26.2051 37.1588 26.2211C37.143 26.237 37.1304 26.2559 37.1219 26.2767C37.1133 26.2976 37.109 26.3199 37.109 26.3424V27.8104C37.109 27.833 37.1133 27.8553 37.1219 27.8761C37.1304 27.8969 37.143 27.9159 37.1588 27.9318C37.1746 27.9477 37.1934 27.9604 37.2141 27.969C37.2348 27.9776 37.2569 27.982 37.2793 27.9819H38.7375C38.7826 27.9819 38.8259 27.9638 38.8579 27.9317C38.8898 27.8995 38.9078 27.8559 38.9078 27.8104V26.3424C38.9078 26.2969 38.8898 26.2533 38.8579 26.2212C38.8259 26.189 38.7826 26.171 38.7375 26.1709Z" fill="#FD8F52"/>
<path d="M41.8003 16.1599H40.3415C40.2965 16.16 40.2533 16.1781 40.2215 16.2103C40.1897 16.2424 40.1719 16.2859 40.1719 16.3313V17.8C40.1719 17.8453 40.1898 17.8887 40.2216 17.9208C40.2534 17.9528 40.2965 17.9708 40.3415 17.9708H41.8003C41.8454 17.9708 41.8886 17.9529 41.9205 17.9208C41.9525 17.8888 41.9705 17.8454 41.9706 17.8V16.3313C41.9705 16.2859 41.9525 16.2423 41.9206 16.2102C41.8887 16.1781 41.8455 16.16 41.8003 16.1599Z" fill="white"/>
<path d="M41.8003 18.6626H40.3415C40.2965 18.6628 40.2533 18.6809 40.2215 18.7131C40.1897 18.7452 40.1719 18.7887 40.1719 18.8341V20.3028C40.1719 20.3481 40.1898 20.3915 40.2216 20.4236C40.2534 20.4556 40.2965 20.4736 40.3415 20.4736H41.8003C41.8454 20.4736 41.8886 20.4556 41.9205 20.4236C41.9525 20.3916 41.9705 20.3482 41.9706 20.3028V18.8341C41.9705 18.7887 41.9525 18.7451 41.9206 18.713C41.8887 18.6809 41.8455 18.6628 41.8003 18.6626Z" fill="white"/>
<path d="M41.8003 21.1654H40.3415C40.2965 21.1656 40.2533 21.1837 40.2215 21.2158C40.1897 21.248 40.1719 21.2915 40.1719 21.3369V22.8049C40.1718 22.8274 40.1762 22.8497 40.1847 22.8704C40.1931 22.8912 40.2056 22.9101 40.2214 22.9261C40.2372 22.942 40.2559 22.9546 40.2765 22.9633C40.2971 22.9719 40.3192 22.9763 40.3415 22.9764H41.8003C41.8455 22.9764 41.8888 22.9583 41.9207 22.9261C41.9527 22.894 41.9706 22.8504 41.9706 22.8049V21.3369C41.9705 21.2914 41.9525 21.2479 41.9206 21.2158C41.8887 21.1836 41.8455 21.1655 41.8003 21.1654Z" fill="white"/>
<path d="M41.8003 23.6682H40.3415C40.2965 23.6683 40.2533 23.6865 40.2215 23.7186C40.1897 23.7508 40.1719 23.7943 40.1719 23.8396V25.3077C40.1718 25.3302 40.1762 25.3524 40.1846 25.3732C40.1931 25.394 40.2056 25.4129 40.2214 25.4288C40.2371 25.4448 40.2559 25.4574 40.2765 25.466C40.2971 25.4747 40.3192 25.4791 40.3415 25.4791H41.8003C41.8455 25.4791 41.8888 25.461 41.9207 25.4289C41.9527 25.3967 41.9706 25.3531 41.9706 25.3077V23.8396C41.9705 23.7942 41.9525 23.7507 41.9206 23.7185C41.8887 23.6864 41.8455 23.6683 41.8003 23.6682Z" fill="#FD8F52"/>
<path d="M41.8003 26.1709H40.3415C40.3192 26.171 40.2971 26.1754 40.2765 26.1841C40.2559 26.1927 40.2371 26.2053 40.2214 26.2213C40.2056 26.2372 40.1931 26.2561 40.1846 26.2769C40.1762 26.2977 40.1718 26.3199 40.1719 26.3424V27.8104C40.1718 27.8329 40.1762 27.8552 40.1846 27.876C40.1931 27.8968 40.2056 27.9157 40.2214 27.9316C40.2371 27.9475 40.2559 27.9602 40.2765 27.9688C40.2971 27.9774 40.3192 27.9819 40.3415 27.9819H41.8003C41.8455 27.9819 41.8888 27.9638 41.9207 27.9317C41.9527 27.8995 41.9706 27.8559 41.9706 27.8104V26.3424C41.9706 26.2969 41.9527 26.2533 41.9207 26.2212C41.8888 26.189 41.8455 26.171 41.8003 26.1709Z" fill="#E6E6E6"/>
<path d="M44.8633 16.1599H43.4045C43.3595 16.16 43.3163 16.1781 43.2845 16.2103C43.2527 16.2424 43.2348 16.2859 43.2349 16.3313V17.8C43.2349 17.8453 43.2527 17.8887 43.2846 17.9208C43.3164 17.9528 43.3595 17.9708 43.4045 17.9708H44.8633C44.9084 17.9708 44.9516 17.9529 44.9835 17.9208C45.0155 17.8888 45.0335 17.8454 45.0336 17.8V16.3313C45.0335 16.2859 45.0155 16.2423 44.9836 16.2102C44.9517 16.1781 44.9084 16.16 44.8633 16.1599Z" fill="white"/>
<path d="M44.8633 18.6626H43.4045C43.3595 18.6628 43.3163 18.6809 43.2845 18.7131C43.2527 18.7452 43.2348 18.7887 43.2349 18.8341V20.3028C43.2349 20.3481 43.2527 20.3915 43.2846 20.4236C43.3164 20.4556 43.3595 20.4736 43.4045 20.4736H44.8633C44.9084 20.4736 44.9516 20.4556 44.9835 20.4236C45.0155 20.3916 45.0335 20.3482 45.0336 20.3028V18.8341C45.0335 18.7887 45.0155 18.7451 44.9836 18.713C44.9517 18.6809 44.9084 18.6628 44.8633 18.6626Z" fill="white"/>
<path d="M44.8633 21.1654H43.4045C43.3595 21.1656 43.3163 21.1837 43.2845 21.2158C43.2527 21.248 43.2348 21.2915 43.2349 21.3369V22.8049C43.2348 22.8274 43.2391 22.8497 43.2476 22.8704C43.2561 22.8912 43.2686 22.9101 43.2844 22.9261C43.3001 22.942 43.3189 22.9546 43.3395 22.9633C43.3601 22.9719 43.3822 22.9763 43.4045 22.9764H44.8633C44.9085 22.9763 44.9518 22.9583 44.9837 22.9261C45.0157 22.894 45.0336 22.8504 45.0336 22.8049V21.3369C45.0335 21.2914 45.0155 21.2479 44.9836 21.2158C44.9517 21.1836 44.9084 21.1655 44.8633 21.1654Z" fill="#FD8F52"/>
<path d="M44.8633 23.6682H43.4045C43.3595 23.6683 43.3163 23.6865 43.2845 23.7186C43.2527 23.7508 43.2348 23.7943 43.2349 23.8396V25.3077C43.2348 25.3302 43.2391 25.3524 43.2476 25.3732C43.2561 25.394 43.2686 25.4129 43.2844 25.4288C43.3001 25.4448 43.3189 25.4574 43.3395 25.466C43.3601 25.4747 43.3822 25.4791 43.4045 25.4791H44.8633C44.9085 25.4791 44.9518 25.461 44.9837 25.4289C45.0157 25.3967 45.0336 25.3531 45.0336 25.3077V23.8396C45.0335 23.7942 45.0155 23.7507 44.9836 23.7185C44.9517 23.6864 44.9084 23.6683 44.8633 23.6682Z" fill="#E6E6E6"/>
<path d="M44.8633 26.1709H43.4045C43.3822 26.171 43.3601 26.1754 43.3395 26.1841C43.3189 26.1927 43.3001 26.2053 43.2844 26.2213C43.2686 26.2372 43.2561 26.2561 43.2476 26.2769C43.2391 26.2977 43.2348 26.3199 43.2349 26.3424V27.8104C43.2348 27.8329 43.2391 27.8552 43.2476 27.876C43.2561 27.8968 43.2686 27.9157 43.2844 27.9316C43.3001 27.9475 43.3189 27.9602 43.3395 27.9688C43.3601 27.9774 43.3822 27.9819 43.4045 27.9819H44.8633C44.9085 27.9819 44.9518 27.9638 44.9837 27.9317C45.0157 27.8995 45.0336 27.8559 45.0336 27.8104V26.3424C45.0336 26.2969 45.0157 26.2533 44.9837 26.2212C44.9518 26.189 44.9085 26.171 44.8633 26.1709Z" fill="white"/>
<path d="M47.9263 16.1599H46.4675C46.4225 16.16 46.3793 16.1781 46.3475 16.2103C46.3157 16.2424 46.2978 16.2859 46.2979 16.3313V17.8C46.2979 17.8453 46.3157 17.8887 46.3476 17.9208C46.3794 17.9528 46.4225 17.9708 46.4675 17.9708H47.9263C47.9714 17.9708 48.0146 17.9529 48.0465 17.9208C48.0784 17.8888 48.0965 17.8454 48.0966 17.8V16.3313C48.0965 16.2859 48.0785 16.2423 48.0466 16.2102C48.0147 16.1781 47.9714 16.16 47.9263 16.1599Z" fill="#FD8F52"/>
<path d="M47.9263 18.6626H46.4675C46.4224 18.6628 46.3793 18.6809 46.3475 18.7131C46.3157 18.7452 46.2978 18.7887 46.2979 18.8341V20.3028C46.2979 20.3481 46.3157 20.3915 46.3476 20.4236C46.3794 20.4556 46.4225 20.4736 46.4675 20.4736H47.9263C47.9714 20.4736 48.0146 20.4556 48.0465 20.4236C48.0784 20.3916 48.0965 20.3482 48.0966 20.3028V18.8341C48.0965 18.7887 48.0785 18.7451 48.0466 18.713C48.0147 18.6809 47.9714 18.6628 47.9263 18.6626Z" fill="#FD8F52"/>
<path d="M47.9263 21.1654H46.4675C46.4224 21.1656 46.3793 21.1837 46.3475 21.2158C46.3157 21.248 46.2978 21.2915 46.2979 21.3369V22.8049C46.2978 22.8274 46.3021 22.8497 46.3106 22.8704C46.3191 22.8912 46.3316 22.9101 46.3474 22.9261C46.3631 22.942 46.3818 22.9546 46.4025 22.9633C46.4231 22.9719 46.4452 22.9763 46.4675 22.9764H47.9263C47.9715 22.9763 48.0148 22.9583 48.0467 22.9261C48.0786 22.894 48.0966 22.8504 48.0966 22.8049V21.3369C48.0965 21.2914 48.0785 21.2479 48.0466 21.2158C48.0147 21.1836 47.9714 21.1655 47.9263 21.1654Z" fill="#E6E6E6"/>
<path d="M47.9263 23.6682H46.4675C46.4225 23.6683 46.3793 23.6865 46.3475 23.7186C46.3157 23.7508 46.2978 23.7943 46.2979 23.8396V25.3077C46.2978 25.3302 46.3021 25.3524 46.3106 25.3732C46.3191 25.394 46.3316 25.4129 46.3474 25.4288C46.3631 25.4448 46.3818 25.4574 46.4025 25.466C46.4231 25.4747 46.4452 25.4791 46.4675 25.4791H47.9263C47.9715 25.4791 48.0148 25.461 48.0467 25.4289C48.0786 25.3967 48.0966 25.3531 48.0966 25.3077V23.8396C48.0965 23.7942 48.0785 23.7507 48.0466 23.7185C48.0147 23.6864 47.9714 23.6683 47.9263 23.6682Z" fill="white"/>
<path d="M47.9263 26.1709H46.4675C46.4452 26.171 46.4231 26.1754 46.4025 26.1841C46.3818 26.1927 46.3631 26.2053 46.3474 26.2213C46.3316 26.2372 46.3191 26.2561 46.3106 26.2769C46.3021 26.2977 46.2978 26.3199 46.2979 26.3424V27.8104C46.2978 27.8329 46.3021 27.8552 46.3106 27.876C46.3191 27.8968 46.3316 27.9157 46.3474 27.9316C46.3631 27.9475 46.3818 27.9602 46.4025 27.9688C46.4231 27.9774 46.4452 27.9819 46.4675 27.9819H47.9263C47.9715 27.9819 48.0148 27.9638 48.0467 27.9317C48.0786 27.8995 48.0966 27.8559 48.0966 27.8104V26.3424C48.0966 26.2969 48.0786 26.2533 48.0467 26.2212C48.0148 26.189 47.9715 26.171 47.9263 26.1709Z" fill="#FD8F52"/>
<path d="M50.9894 16.1599H49.5306C49.4856 16.16 49.4424 16.1781 49.4106 16.2103C49.3788 16.2424 49.3609 16.2859 49.361 16.3313V17.8C49.361 17.8453 49.3788 17.8887 49.4107 17.9208C49.4425 17.9528 49.4856 17.9708 49.5306 17.9708H50.9894C51.0345 17.9708 51.0777 17.9529 51.1096 17.9208C51.1416 17.8888 51.1596 17.8454 51.1597 17.8V16.3313C51.1596 16.2859 51.1416 16.2423 51.1097 16.2102C51.0778 16.1781 51.0345 16.16 50.9894 16.1599Z" fill="#FD8F52"/>
<path d="M50.9894 18.6626H49.5306C49.4856 18.6628 49.4424 18.6809 49.4106 18.7131C49.3788 18.7452 49.3609 18.7887 49.361 18.8341V20.3028C49.361 20.3481 49.3788 20.3915 49.4107 20.4236C49.4425 20.4556 49.4856 20.4736 49.5306 20.4736H50.9894C51.0345 20.4736 51.0777 20.4556 51.1096 20.4236C51.1416 20.3916 51.1596 20.3482 51.1597 20.3028V18.8341C51.1596 18.7887 51.1416 18.7451 51.1097 18.713C51.0778 18.6809 51.0345 18.6628 50.9894 18.6626Z" fill="#FD8F52"/>
<path d="M50.9894 21.1654H49.5306C49.4856 21.1656 49.4424 21.1837 49.4106 21.2158C49.3788 21.248 49.3609 21.2915 49.361 21.3369V22.8049C49.3609 22.8274 49.3652 22.8497 49.3737 22.8704C49.3822 22.8912 49.3947 22.9101 49.4105 22.9261C49.4262 22.942 49.445 22.9546 49.4656 22.9633C49.4862 22.9719 49.5083 22.9763 49.5306 22.9764H50.9894C51.0346 22.9763 51.0779 22.9583 51.1098 22.9261C51.1417 22.894 51.1597 22.8504 51.1597 22.8049V21.3369C51.1596 21.2914 51.1416 21.2479 51.1097 21.2158C51.0778 21.1836 51.0345 21.1655 50.9894 21.1654Z" fill="#E6E6E6"/>
<path d="M50.9894 23.6682H49.5306C49.4856 23.6683 49.4424 23.6865 49.4106 23.7186C49.3788 23.7508 49.3609 23.7943 49.361 23.8396V25.3077C49.3609 25.3302 49.3652 25.3524 49.3737 25.3732C49.3822 25.394 49.3947 25.4129 49.4105 25.4288C49.4262 25.4448 49.445 25.4574 49.4656 25.466C49.4862 25.4747 49.5083 25.4791 49.5306 25.4791H50.9894C51.0346 25.4791 51.0779 25.461 51.1098 25.4289C51.1418 25.3967 51.1597 25.3531 51.1597 25.3077V23.8396C51.1596 23.7942 51.1416 23.7507 51.1097 23.7185C51.0778 23.6864 51.0345 23.6683 50.9894 23.6682Z" fill="#FD8F52"/>
<path d="M50.9894 26.1709H49.5306C49.5083 26.171 49.4862 26.1754 49.4656 26.1841C49.445 26.1927 49.4262 26.2053 49.4105 26.2213C49.3947 26.2372 49.3822 26.2561 49.3737 26.2769C49.3652 26.2977 49.3609 26.3199 49.361 26.3424V27.8104C49.3609 27.8329 49.3652 27.8552 49.3737 27.876C49.3822 27.8968 49.3947 27.9157 49.4105 27.9316C49.4262 27.9475 49.445 27.9602 49.4656 27.9688C49.4862 27.9774 49.5083 27.9819 49.5306 27.9819H50.9894C51.0346 27.9819 51.0779 27.9638 51.1098 27.9317C51.1418 27.8995 51.1597 27.8559 51.1597 27.8104V26.3424C51.1597 26.2969 51.1418 26.2533 51.1098 26.2212C51.0779 26.189 51.0346 26.171 50.9894 26.1709Z" fill="#FD8F52"/>
<path d="M54.0523 16.1599H52.5935C52.5484 16.16 52.5053 16.1781 52.4735 16.2103C52.4417 16.2424 52.4238 16.2859 52.4238 16.3313V17.8C52.4238 17.8453 52.4417 17.8887 52.4735 17.9208C52.5053 17.9528 52.5485 17.9708 52.5935 17.9708H54.0523C54.0973 17.9708 54.1406 17.9529 54.1725 17.9208C54.2044 17.8888 54.2224 17.8454 54.2226 17.8V16.3313C54.2225 16.2859 54.2045 16.2423 54.1726 16.2102C54.1406 16.1781 54.0974 16.16 54.0523 16.1599Z" fill="#E6E6E6"/>
<path d="M54.0523 18.6626H52.5935C52.5484 18.6628 52.5053 18.6809 52.4735 18.7131C52.4417 18.7452 52.4238 18.7887 52.4238 18.8341V20.3028C52.4238 20.3481 52.4417 20.3915 52.4735 20.4236C52.5053 20.4556 52.5485 20.4736 52.5935 20.4736H54.0523C54.0973 20.4736 54.1406 20.4556 54.1725 20.4236C54.2044 20.3916 54.2224 20.3482 54.2226 20.3028V18.8341C54.2225 18.7887 54.2045 18.7451 54.1726 18.713C54.1406 18.6809 54.0974 18.6628 54.0523 18.6626Z" fill="#FD8F52"/>
<path d="M54.0523 21.1654H52.5935C52.5484 21.1656 52.5053 21.1837 52.4735 21.2158C52.4417 21.248 52.4238 21.2915 52.4238 21.3369V22.8049C52.4238 22.8274 52.4281 22.8497 52.4366 22.8704C52.4451 22.8912 52.4576 22.9101 52.4733 22.9261C52.4891 22.942 52.5078 22.9546 52.5284 22.9633C52.5491 22.9719 52.5712 22.9763 52.5935 22.9764H54.0523C54.0974 22.9763 54.1407 22.9583 54.1727 22.9261C54.2046 22.894 54.2226 22.8504 54.2226 22.8049V21.3369C54.2225 21.2914 54.2045 21.2479 54.1726 21.2158C54.1406 21.1836 54.0974 21.1655 54.0523 21.1654Z" fill="#FD8F52"/>
<path d="M54.0523 23.6682H52.5935C52.5484 23.6683 52.5053 23.6865 52.4735 23.7186C52.4417 23.7508 52.4238 23.7943 52.4238 23.8396V25.3077C52.4238 25.3302 52.4281 25.3524 52.4366 25.3732C52.4451 25.394 52.4576 25.4129 52.4733 25.4288C52.4891 25.4448 52.5078 25.4574 52.5284 25.466C52.5491 25.4747 52.5712 25.4791 52.5935 25.4791H54.0523C54.0974 25.4791 54.1407 25.461 54.1727 25.4289C54.2046 25.3967 54.2226 25.3531 54.2226 25.3077V23.8396C54.2225 23.7942 54.2045 23.7507 54.1726 23.7185C54.1406 23.6864 54.0974 23.6683 54.0523 23.6682Z" fill="#FD8F52"/>
<path d="M54.0523 26.1709H52.5935C52.5712 26.171 52.5491 26.1754 52.5284 26.1841C52.5078 26.1927 52.4891 26.2053 52.4733 26.2213C52.4576 26.2372 52.4451 26.2561 52.4366 26.2769C52.4281 26.2977 52.4238 26.3199 52.4238 26.3424V27.8104C52.4238 27.8329 52.4281 27.8552 52.4366 27.876C52.4451 27.8968 52.4576 27.9157 52.4733 27.9316C52.4891 27.9475 52.5078 27.9602 52.5284 27.9688C52.5491 27.9774 52.5712 27.9819 52.5935 27.9819H54.0523C54.0974 27.9819 54.1407 27.9638 54.1727 27.9317C54.2046 27.8995 54.2226 27.8559 54.2226 27.8104V26.3424C54.2226 26.2969 54.2046 26.2533 54.1727 26.2212C54.1407 26.189 54.0974 26.171 54.0523 26.1709Z" fill="#E6E6E6"/>
<path d="M57.1154 16.1599H55.6566C55.6115 16.16 55.5684 16.1781 55.5366 16.2103C55.5048 16.2424 55.4869 16.2859 55.4869 16.3313V17.8C55.4869 17.8453 55.5048 17.8887 55.5366 17.9208C55.5685 17.9528 55.6116 17.9708 55.6566 17.9708H57.1154C57.1605 17.9708 57.2037 17.9529 57.2356 17.9208C57.2675 17.8888 57.2856 17.8454 57.2857 17.8V16.3313C57.2856 16.2859 57.2676 16.2423 57.2357 16.2102C57.2038 16.1781 57.1605 16.16 57.1154 16.1599Z" fill="#E6E6E6"/>
<path d="M57.1154 18.6626H55.6566C55.6115 18.6628 55.5684 18.6809 55.5366 18.7131C55.5048 18.7452 55.4869 18.7887 55.4869 18.8341V20.3028C55.4869 20.3481 55.5048 20.3915 55.5366 20.4236C55.5685 20.4556 55.6116 20.4736 55.6566 20.4736H57.1154C57.1605 20.4736 57.2037 20.4556 57.2356 20.4236C57.2675 20.3916 57.2856 20.3482 57.2857 20.3028V18.8341C57.2856 18.7887 57.2676 18.7451 57.2357 18.713C57.2038 18.6809 57.1605 18.6628 57.1154 18.6626Z" fill="#E6E6E6"/>
<path d="M57.1154 21.1654H55.6566C55.6115 21.1656 55.5684 21.1837 55.5366 21.2158C55.5048 21.248 55.4869 21.2915 55.4869 21.3369V22.8049C55.4869 22.8274 55.4912 22.8497 55.4997 22.8704C55.5082 22.8912 55.5207 22.9101 55.5365 22.9261C55.5522 22.942 55.5709 22.9546 55.5916 22.9633C55.6122 22.9719 55.6343 22.9763 55.6566 22.9764H57.1154C57.1606 22.9763 57.2039 22.9583 57.2358 22.9261C57.2677 22.894 57.2857 22.8504 57.2857 22.8049V21.3369C57.2856 21.2914 57.2676 21.2479 57.2357 21.2158C57.2038 21.1836 57.1605 21.1655 57.1154 21.1654Z" fill="#FD8F52"/>
<path d="M57.1154 23.6682H55.6566C55.6115 23.6683 55.5684 23.6865 55.5366 23.7186C55.5048 23.7508 55.4869 23.7943 55.4869 23.8396V25.3077C55.4869 25.3302 55.4912 25.3524 55.4997 25.3732C55.5082 25.394 55.5207 25.4129 55.5365 25.4288C55.5522 25.4448 55.5709 25.4574 55.5916 25.466C55.6122 25.4747 55.6343 25.4791 55.6566 25.4791H57.1154C57.1606 25.4791 57.2039 25.461 57.2358 25.4289C57.2677 25.3967 57.2857 25.3531 57.2857 25.3077V23.8396C57.2856 23.7942 57.2676 23.7507 57.2357 23.7185C57.2038 23.6864 57.1605 23.6683 57.1154 23.6682Z" fill="#E6E6E6"/>
<path d="M57.1154 26.1709H55.6566C55.6343 26.171 55.6122 26.1754 55.5916 26.1841C55.5709 26.1927 55.5522 26.2053 55.5365 26.2213C55.5207 26.2372 55.5082 26.2561 55.4997 26.2769C55.4912 26.2977 55.4869 26.3199 55.4869 26.3424V27.8104C55.4869 27.8329 55.4912 27.8552 55.4997 27.876C55.5082 27.8968 55.5207 27.9157 55.5365 27.9316C55.5522 27.9475 55.5709 27.9602 55.5916 27.9688C55.6122 27.9774 55.6343 27.9819 55.6566 27.9819H57.1154C57.1606 27.9819 57.2039 27.9638 57.2358 27.9317C57.2677 27.8995 57.2857 27.8559 57.2857 27.8104V26.3424C57.2857 26.2969 57.2677 26.2533 57.2358 26.2212C57.2039 26.189 57.1606 26.171 57.1154 26.1709Z" fill="#E6E6E6"/>
<path d="M23.5871 47.8156H23.5465L23.5812 47.811L23.5871 47.8156Z" fill="#2F2E41"/>
<path d="M20.097 20.4469C22.5687 20.4469 24.5724 18.4296 24.5724 15.9411C24.5724 13.4526 22.5687 11.4353 20.097 11.4353C17.6253 11.4353 15.6216 13.4526 15.6216 15.9411C15.6216 18.4296 17.6253 20.4469 20.097 20.4469Z" fill="#FFB6B6"/>
<path d="M24.0163 12.6376C24.0163 12.6376 25.1868 10.3847 22.6116 10.1799C22.6116 10.1799 20.4162 8.17486 18.1785 9.81332C18.1785 9.81332 16.9579 9.81332 16.2905 11.2039C16.2905 11.2039 15.3305 10.8374 15.1196 11.8183C15.1196 11.8183 14.4171 13.8664 15.1196 15.7097C15.822 17.553 16.0553 17.7578 16.0553 17.7578C16.0553 17.7578 14.9011 13.8932 17.7106 13.6884C20.5202 13.4836 23.6641 11.7159 23.8983 13.9688C24.1324 16.2217 24.4848 16.7768 24.4848 16.7768C24.4848 16.7768 26.7086 13.5592 24.0163 12.6376Z" fill="#2F2E41"/>
<path d="M31.674 27.0454L31.6595 27.1219L31.4978 27.9819L30.3796 33.9305L30.3134 34.2807L30.1746 35.0213L29.9846 36.0317L29.5634 38.2707L29.4429 38.9123L29.3977 39.1531L29.382 39.2375L29.2568 39.9016L29.2188 40.1021L28.9136 42.3793L28.647 44.3637L29.5392 45.2619L29.0073 45.7974L28.6581 47.8109L28.6588 47.8155H14.4095C13.8331 47.4396 13.2649 47.052 12.7051 46.6528L12.8224 45.7691C12.8224 45.7691 13.2259 44.1909 13.0562 44.0023C12.8872 43.8137 12.5164 43.4767 12.5164 43.4767L12.9835 42.3793L13.0483 42.2269L12.9396 39.9563L12.937 39.9016L12.901 39.153L12.8964 39.0568L12.8892 38.9123L12.751 36.0317L12.7483 35.9842L12.7064 35.111L12.6671 34.2807L12.6501 33.9305L12.4817 30.4266L12.3678 28.0472L12.2682 25.9757L12.6684 25.8392L16.9492 24.3745L18.7224 22.0537L22.4129 22.0814L24.2195 22.0953L27.2341 24.91L27.9199 25.2397L27.9251 25.2424L28.4171 25.4791L29.6643 26.0786L30.9829 26.713L31.6596 27.0382L31.674 27.0454Z" fill="#CACACA"/>
<path d="M19.1992 41.0558C18.9288 41.1613 18.6386 41.2058 18.3493 41.1861C18.0599 41.1665 17.7783 41.0833 17.5244 40.9422C17.2704 40.8012 17.0502 40.6058 16.8794 40.3699C16.7086 40.1339 16.5912 39.8631 16.5355 39.5765L9.55542 38.5795L11.9819 35.8161L18.2383 37.1866C18.7227 37.1243 19.2129 37.2432 19.6161 37.5206C20.0192 37.7979 20.3073 38.2145 20.4258 38.6915C20.5442 39.1684 20.4848 39.6725 20.2587 40.1083C20.0326 40.544 19.6557 40.8812 19.1992 41.0558Z" fill="#FFB6B6"/>
<path d="M16.0871 36.0317C15.9579 35.8667 15.7748 35.7529 15.5703 35.7105L12.7065 35.111L12.4123 35.0497C12.2414 35.0138 12.0799 34.9419 11.9385 34.8389C11.7971 34.7358 11.6788 34.6038 11.5916 34.4515C11.501 34.2917 11.4463 34.1139 11.4311 33.9305C11.4174 33.7638 11.4372 33.5961 11.4894 33.4372L12.4818 30.4267L13.1257 28.4732C13.2037 28.2377 13.2498 27.9925 13.2626 27.7445C13.2985 27.0582 13.0875 26.3818 12.6685 25.8392C12.3 25.3624 11.789 25.0175 11.2109 24.8555C10.6328 24.6935 10.0182 24.723 9.45807 24.9397C9.44169 24.9456 9.42466 24.9522 9.40828 24.9588C9.00656 25.1203 8.64765 25.3736 8.35991 25.6988C8.07217 26.024 7.86349 26.4121 7.75036 26.8324L7.05077 29.3946L5.6077 34.6764C5.46324 35.2056 5.43406 35.76 5.52214 36.3016C5.61023 36.8432 5.81351 37.3593 6.11806 37.8144C6.42262 38.2696 6.82127 38.6532 7.28671 38.9388C7.75216 39.2245 8.27342 39.4056 8.81481 39.4696L12.9396 39.9563L14.8485 40.1819C15.0692 40.2086 15.2918 40.1506 15.4719 40.0194C15.6521 39.8883 15.7766 39.6936 15.8205 39.4742C15.8236 39.4623 15.826 39.4502 15.8277 39.438L15.8736 39.1531L16.262 36.7538L16.266 36.7294C16.2862 36.607 16.2808 36.4817 16.25 36.3615C16.2192 36.2413 16.1637 36.129 16.0871 36.0317Z" fill="#CACACA"/>
<path d="M23.6454 41.1327C23.9279 41.1987 24.2214 41.2016 24.5051 41.1411C24.7889 41.0806 25.056 40.9582 25.2876 40.7825C25.5193 40.6068 25.7099 40.3821 25.846 40.1243C25.9821 39.8664 26.0603 39.5817 26.0753 39.2901L32.846 37.312L30.0567 34.9207L24.0547 37.1657C23.5665 37.1729 23.0978 37.3601 22.7375 37.692C22.3772 38.0238 22.1504 38.4772 22.0999 38.9662C22.0495 39.4551 22.1789 39.9458 22.4638 40.3451C22.7486 40.7444 23.169 41.0246 23.6454 41.1327Z" fill="#FFB6B6"/>
<path d="M36.2075 32.8872L32.9873 25.4257C32.7239 24.8131 32.2535 24.3143 31.6595 24.0177C31.4759 23.9267 31.2831 23.8559 31.0844 23.8067C31.0536 23.7988 31.0228 23.7915 30.992 23.7856C30.5707 23.693 30.1336 23.7011 29.716 23.8093C29.3342 23.9081 28.9774 24.0867 28.6688 24.3336C28.3602 24.5806 28.1068 24.8902 27.9251 25.2424C27.9231 25.2453 27.9213 25.2484 27.9198 25.2516C27.7168 25.647 27.6089 26.0848 27.6047 26.5298C27.6005 26.9748 27.7001 27.4146 27.8956 27.8137L27.9356 27.8942L30.2112 32.4955C30.2889 32.6528 30.3327 32.8249 30.3397 33.0005C30.3467 33.1761 30.3167 33.3512 30.2517 33.5143C30.1868 33.6774 30.0883 33.8248 29.9628 33.9469C29.8373 34.069 29.6875 34.163 29.5234 34.2227L29.3636 34.2807L26.4892 35.326C26.2735 35.4035 26.0961 35.5622 25.9943 35.7688C25.8926 35.9753 25.8744 36.2135 25.9435 36.4333L25.9508 36.4564L26.7565 39.0521C26.7604 39.064 26.7643 39.0759 26.7689 39.0878C26.776 39.1102 26.7847 39.132 26.7951 39.1531C26.8807 39.3464 27.0321 39.5026 27.2219 39.5937C27.4118 39.6847 27.6277 39.7046 27.8307 39.6496L29.3819 39.2375L29.6983 39.1531L33.7039 38.088C34.231 37.9478 34.7217 37.6945 35.1425 37.3456C35.5633 36.9967 35.9043 36.5604 36.1421 36.0665C36.3798 35.5726 36.5088 35.0328 36.52 34.484C36.5313 33.9353 36.4247 33.3906 36.2075 32.8872Z" fill="#CACACA"/>
<path d="M4.51233 39.1531C5.44056 40.2929 6.44163 41.3706 7.50917 42.3793H37.1154C37.4006 42.3798 37.674 42.4941 37.8756 42.6972C38.0773 42.9003 38.1907 43.1757 38.1909 43.4628L38.2335 51.016C40.0549 50.1735 41.7605 49.0978 43.3082 47.8155C43.7379 47.46 44.1543 47.0892 44.5573 46.7029C44.8213 46.451 45.079 46.1929 45.3303 45.9287C47.2145 43.9525 48.7402 41.6593 49.8383 39.1531H4.51233Z" fill="#3F3D56"/>
<path d="M45.3304 45.9287C45.0795 46.1931 44.8219 46.4512 44.5575 46.7029H38.2552V45.9287H45.3304Z" fill="white"/>
<path d="M31.615 21.1654C31.5839 21.1075 31.5378 21.0592 31.4816 21.0256C31.4255 20.9919 31.3613 20.9741 31.296 20.9742H9.8209C9.72462 20.9744 9.63237 21.0131 9.56435 21.0817C9.49632 21.1503 9.45809 21.2432 9.45801 21.3402V34.2807H31.6595V21.3402C31.6599 21.279 31.6445 21.2188 31.615 21.1654Z" fill="#3F3D56"/>
<path d="M9.43848 33.9304V35.5273C9.43848 35.5935 9.45143 35.659 9.47659 35.7202C9.50175 35.7813 9.53863 35.8369 9.58513 35.8837C9.63162 35.9305 9.68682 35.9677 9.74757 35.993C9.80832 36.0183 9.87343 36.0314 9.93918 36.0314H18.1336V39.1829H18.0248C18.0162 39.1829 18.0078 39.1846 17.9999 39.1879C17.992 39.1911 17.9848 39.196 17.9788 39.202C17.9727 39.2081 17.9679 39.2153 17.9647 39.2233C17.9614 39.2312 17.9597 39.2398 17.9597 39.2484V39.4675C17.9597 39.4761 17.9614 39.4847 17.9647 39.4926C17.9679 39.5006 17.9727 39.5078 17.9788 39.5139C17.9848 39.5199 17.992 39.5248 17.9999 39.5281C18.0078 39.5313 18.0162 39.533 18.0248 39.533H23.1117C23.1203 39.533 23.1287 39.5313 23.1366 39.5281C23.1445 39.5248 23.1517 39.5199 23.1577 39.5139C23.1638 39.5078 23.1686 39.5006 23.1718 39.4926C23.1751 39.4847 23.1768 39.4761 23.1768 39.4675V39.2484C23.1768 39.2398 23.1751 39.2312 23.1718 39.2233C23.1686 39.2153 23.1638 39.2081 23.1577 39.202C23.1517 39.196 23.1445 39.1911 23.1366 39.1879C23.1287 39.1846 23.1203 39.1829 23.1117 39.1829H23.0029V36.0314H31.1973C31.2631 36.0314 31.3282 36.0183 31.3889 35.993C31.4497 35.9677 31.5049 35.9305 31.5514 35.8837C31.5979 35.8369 31.6347 35.7813 31.6599 35.7202C31.6851 35.659 31.698 35.5935 31.698 35.5273V33.9304H9.43848Z" fill="#3F3D56"/>
<path d="M20.2993 29.3471C21.4318 29.3471 22.35 28.4227 22.35 27.2825C22.35 26.1422 21.4318 25.2178 20.2993 25.2178C19.1667 25.2178 18.2485 26.1422 18.2485 27.2825C18.2485 28.4227 19.1667 29.3471 20.2993 29.3471Z" fill="#FD8F52"/>
<path d="M25.5244 15.6949H25.1969C25.1969 13.202 22.7463 11.5685 20.2742 11.5672C19.9146 11.5661 19.5558 11.6012 19.2032 11.672C18.8062 11.7518 18.3942 11.8474 17.9894 11.9721C16.393 12.4647 14.9126 13.417 14.9126 15.6949C14.9123 16.1373 14.9682 16.5779 15.079 17.006L14.7619 17.0891C14.6444 16.6338 14.5849 16.1653 14.5851 15.6949C14.5851 13.7046 15.3967 12.3374 16.7985 11.5223C17.5354 11.0936 18.4348 10.8173 19.4652 10.6828C19.894 10.6253 20.3275 10.6121 20.7589 10.6432C23.6018 10.849 25.5244 13.0438 25.5244 15.6949Z" fill="#FD8F52"/>
<path d="M26.0701 15.8776L25.941 14.9174C25.9092 14.6749 25.7932 14.4515 25.6135 14.2869C25.4981 14.1796 25.3601 14.1 25.2097 14.0543C25.0593 14.0086 24.9006 13.998 24.7455 14.0231L24.5405 14.0515C24.4844 14.0589 24.4303 14.0775 24.3814 14.1061C24.3325 14.1348 24.2897 14.1729 24.2556 14.2183C24.2211 14.2636 24.1959 14.3153 24.1814 14.3704C24.1669 14.4255 24.1634 14.483 24.1711 14.5395L24.4691 16.7514C24.4814 16.8416 24.5215 16.9256 24.5838 16.9915C24.6461 17.0574 24.7275 17.1019 24.8163 17.1188C24.8426 17.1241 24.8694 17.1267 24.8962 17.1267C24.9155 17.1267 24.9348 17.1253 24.9539 17.1227L25.1831 17.0917C25.3229 17.073 25.4574 17.0258 25.5784 16.9529C25.6994 16.8799 25.8043 16.7829 25.8866 16.6677C25.9043 16.6426 25.9214 16.6169 25.9371 16.5905C26.0599 16.3747 26.1067 16.1235 26.0701 15.8776Z" fill="#FD8F52"/>
<path d="M24.4082 14.0917C24.3481 14.1211 24.2957 14.1645 24.2556 14.2183C24.2211 14.2636 24.1959 14.3153 24.1814 14.3704C24.1669 14.4255 24.1634 14.483 24.1711 14.5395L24.4691 16.7514C24.4814 16.8416 24.5215 16.9256 24.5838 16.9915C24.6461 17.0574 24.7275 17.1019 24.8163 17.1188L24.4082 14.0917Z" fill="white"/>
<path d="M26.07 15.8776L25.9409 14.9174C25.9091 14.6749 25.7931 14.4515 25.6134 14.2869L25.9101 16.4876C25.9146 16.5229 25.9236 16.5575 25.937 16.5905C26.0598 16.3747 26.1066 16.1235 26.07 15.8776Z" fill="#3F3D56"/>
<path d="M25.0501 16.5694C25.1397 16.5572 25.1848 16.3425 25.1507 16.0898C25.1167 15.8372 25.0164 15.6423 24.9268 15.6545C24.8372 15.6668 24.7921 15.8815 24.8262 16.1342C24.8602 16.3868 24.9605 16.5817 25.0501 16.5694Z" fill="#3F3D56"/>
<path d="M24.8537 15.3824C24.9433 15.3701 24.9883 15.1554 24.9543 14.9027C24.9203 14.6501 24.82 14.4552 24.7304 14.4674C24.6408 14.4797 24.5957 14.6944 24.6298 14.9471C24.6638 15.1997 24.764 15.3946 24.8537 15.3824Z" fill="#3F3D56"/>
<path d="M26.0983 15.844C26.1879 15.8318 26.233 15.617 26.1989 15.3644C26.1649 15.1117 26.0646 14.9168 25.975 14.9291C25.8854 14.9413 25.8403 15.1561 25.8744 15.4087C25.9084 15.6613 26.0087 15.8562 26.0983 15.844Z" fill="#3F3D56"/>
<path d="M20.2741 11.5671C19.9146 11.5661 19.5558 11.6012 19.2031 11.672C18.8062 11.7518 18.3942 11.8474 17.9893 11.9721C17.3572 11.9411 16.8921 11.7762 16.7985 11.5223C17.5354 11.0936 18.4348 10.8173 19.4652 10.6828C19.8939 10.6253 20.3274 10.6121 20.7589 10.6432C20.8046 10.6701 20.844 10.7065 20.8748 10.75C20.9055 10.7934 20.9267 10.8428 20.9371 10.8951C20.9678 11.1246 20.7078 11.3686 20.2741 11.5671Z" fill="#3F3D56"/>
<path d="M16.0924 17.9834L15.5881 15.8723C15.5701 15.7962 15.5301 15.727 15.4733 15.6737C15.4164 15.6203 15.3451 15.585 15.2684 15.5722C15.2467 15.5689 15.2248 15.5671 15.2029 15.567C15.172 15.5671 15.1412 15.5708 15.1112 15.5782L14.916 15.6257C14.6646 15.6869 14.4477 15.8459 14.3127 16.068C14.1778 16.2901 14.1358 16.557 14.1961 16.8101L14.4221 17.7571C14.4737 17.9801 14.5966 18.1798 14.7719 18.3256C14.8003 18.3487 14.83 18.3701 14.861 18.3896C14.9708 18.4589 15.0932 18.5053 15.2211 18.5262C15.3491 18.547 15.4798 18.5418 15.6057 18.5109L15.8003 18.4635C15.8517 18.4514 15.9001 18.4287 15.9424 18.3969C16.0053 18.3507 16.0532 18.2867 16.0799 18.2131C16.1066 18.1394 16.111 18.0595 16.0924 17.9834Z" fill="#FD8F52"/>
<path d="M15.0349 17.5906C15.1228 17.5693 15.1461 17.351 15.0868 17.1032C15.0276 16.8553 14.9083 16.6716 14.8203 16.6929C14.7324 16.7142 14.7092 16.9324 14.7684 17.1803C14.8277 17.4282 14.947 17.6119 15.0349 17.5906Z" fill="#3F3D56"/>
<path d="M14.3799 17.7884C14.4678 17.7671 14.4911 17.5489 14.4318 17.301C14.3726 17.0531 14.2533 16.8694 14.1653 16.8907C14.0774 16.9121 14.0541 17.1303 14.1134 17.3782C14.1726 17.626 14.2919 17.8097 14.3799 17.7884Z" fill="#3F3D56"/>
<path d="M16.1243 17.9754L15.62 15.8644C15.6003 15.782 15.5569 15.7073 15.4953 15.6495C15.4337 15.5918 15.3565 15.5537 15.2734 15.5399L15.9619 18.4232C16.0299 18.3731 16.0816 18.3038 16.1105 18.2241C16.1394 18.1444 16.1442 18.0579 16.1243 17.9754Z" fill="white"/>
<path d="M14.31 16.392C14.2961 16.3333 14.2699 16.2782 14.2333 16.2304C14.1624 16.4153 14.1494 16.6176 14.196 16.8101L14.422 17.7571C14.4736 17.9801 14.5965 18.1798 14.7718 18.3256L14.31 16.392Z" fill="#3F3D56"/>
</svg>
