<svg width="85" height="63" viewBox="0 0 85 63" fill="none" xmlns="http://www.w3.org/2000/svg">
<g clip-path="url(#clip0_81_3538)">
<path d="M59.8212 59.835H0V60.0337H59.8212V59.835Z" fill="#E6E6E6"/>
<path d="M18.5483 10.2676H18.0002L15.6706 18.7773C15.6706 18.7773 15.6249 24.4352 16.1731 27.1951C16.1731 27.1951 17.0866 25.9991 17.7261 25.9991C18.3656 25.9991 18.9594 19.9733 18.9594 19.9733C18.9594 19.9733 21.4717 11.3715 18.5483 10.2676Z" fill="#E6E6E6"/>
<path d="M30.6075 26.5513C30.6075 26.5513 29.1458 30.6911 30.5162 30.9671C31.8865 31.2431 32.6174 27.7472 32.2519 27.2872C31.8865 26.8273 30.6075 26.5513 30.6075 26.5513Z" fill="#FEB8B8"/>
<path d="M16.0244 25.6957C16.0244 25.6957 16.4353 30.07 17.7932 29.7375C19.1511 29.405 18.3478 25.9252 17.8236 25.6637C17.2995 25.4021 16.0244 25.6957 16.0244 25.6957Z" fill="#FEB8B8"/>
<path d="M19.5532 51.2982C19.5532 51.2982 20.1927 54.4261 19.0964 55.2541C18.0002 56.082 19.4619 57.83 19.4619 57.83L22.9334 54.1501C22.9334 54.1501 21.4717 51.8502 21.5631 50.4702L19.5532 51.2982Z" fill="#FEB8B8"/>
<path d="M25.0347 54.1504L24.6693 56.6343L24.5779 58.3822L26.5877 58.1982L26.8618 54.6104L25.0347 54.1504Z" fill="#FEB8B8"/>
<path d="M17.2998 26.1343C17.2998 26.1343 16.1732 26.5512 16.2645 27.7471C16.3559 28.9431 16.63 32.715 16.63 32.715C16.63 32.715 15.8078 40.8107 16.63 43.5707C17.4522 46.3306 19.0052 51.8504 19.0052 51.8504C19.0052 51.8504 21.3805 52.3104 21.9286 50.5624C21.9286 50.5624 21.8373 44.5826 20.8324 43.2947C19.8274 42.0067 20.5583 41.6387 20.6497 41.4547C20.741 41.2707 21.0151 40.9947 21.0151 40.7187C21.0151 40.4427 21.1064 39.4308 21.1064 39.0628C21.1064 38.6948 21.0151 38.7868 21.1978 38.2348C21.3805 37.6828 21.5632 37.4988 21.5632 37.4068C21.5632 37.3148 23.1163 32.439 23.1163 32.439L25.1261 43.7546C25.1261 43.7546 24.6693 54.8863 24.852 54.8863C25.0348 54.8863 27.0446 55.6223 27.7755 54.8863C27.7755 54.8863 29.6026 45.3186 29.2372 44.7666C28.8717 44.2146 28.7804 44.1226 28.8717 43.5707C28.9631 43.0187 29.1458 42.7427 28.9631 42.4667C28.7804 42.1907 28.5063 41.2707 28.7804 40.9947C29.0544 40.7187 29.1458 39.4308 29.1458 39.4308C29.1458 39.4308 30.6989 30.415 29.6939 29.1271C28.689 27.8391 17.2998 26.1343 17.2998 26.1343Z" fill="#2F2E41"/>
<path d="M20.3756 55.3461C20.3756 55.3461 19.2793 53.9662 18.9139 54.6102C18.5485 55.2542 18.0003 56.2661 18.0003 56.2661C18.0003 56.2661 13.8893 59.854 16.1732 59.946C18.4571 60.038 19.9188 58.3821 19.9188 58.3821C19.9188 58.3821 20.2842 56.5421 21.3805 56.5421L21.5632 57.0021L23.5731 55.7141C23.5731 55.7141 23.29 53.2715 22.4723 53.3428L20.3756 55.3461Z" fill="#2F2E41"/>
<path d="M24.2124 58.1061C24.2124 58.1061 26.5877 57.1862 26.8617 58.1061C27.1358 59.0261 27.1358 59.4861 27.1358 59.4861C27.1358 59.4861 29.1456 62.798 27.1358 62.982C25.126 63.166 24.2124 61.878 24.2124 61.878C24.2124 61.878 24.4865 60.3141 24.2124 60.1301C23.9383 59.9461 24.2124 58.1061 24.2124 58.1061Z" fill="#2F2E41"/>
<path d="M25.8569 7.32359C27.6228 7.32359 29.0544 5.88199 29.0544 4.10369C29.0544 2.32539 27.6228 0.883789 25.8569 0.883789C24.091 0.883789 22.6594 2.32539 22.6594 4.10369C22.6594 5.88199 24.091 7.32359 25.8569 7.32359Z" fill="#FEB8B8"/>
<path d="M23.4815 4.83984L22.842 8.42774L27.3185 9.5317C27.3185 9.5317 26.2679 6.90978 27.4099 5.75982C27.6988 5.46889 23.4815 4.83984 23.4815 4.83984Z" fill="#FEB8B8"/>
<path d="M23.1145 6.89893C23.0066 6.91938 22.9067 6.97008 22.8262 7.04519C22.7457 7.12029 22.6878 7.21676 22.6593 7.32349C22.5796 7.58781 22.4561 7.83665 22.2939 8.05947C22.2939 8.05947 18.0002 10.0834 18.0002 10.3594C18.0002 10.6354 19.7359 16.5232 19.7359 16.5232C19.7359 16.5232 19.8273 20.2031 19.0965 21.0311C18.3656 21.8591 17.6347 24.895 17.8175 25.171C18.0002 25.4469 16.5385 26.0909 17.0866 26.5509C17.6347 27.0109 25.3087 31.4268 29.8765 29.4028C29.8765 29.4028 29.9679 28.5749 29.8765 28.0229C29.7851 27.4709 30.4246 25.6309 30.2419 24.987C30.0592 24.343 30.2419 17.7192 30.2419 17.7192L31.1834 9.87581C31.2014 9.72683 31.1667 9.57622 31.0854 9.45046C31.0041 9.32469 30.8813 9.2318 30.7388 9.18811C29.6858 8.86585 27.244 7.54644 26.9074 7.82948C26.4716 8.19595 23.7524 7.94632 23.1145 6.89893Z" fill="#E6E6E6"/>
<path d="M30.3333 9.16346L30.3392 9.16111C30.4698 9.10833 30.6142 9.10086 30.7495 9.1399C30.8849 9.17893 31.0034 9.26224 31.0865 9.37667C31.6526 10.1568 32.844 11.9101 32.9827 13.0273C33.1654 14.4993 33.7135 18.4552 33.6222 19.0072C33.5308 19.5591 33.4395 19.6511 33.6222 19.9271C33.8049 20.2031 33.7135 20.1111 33.6222 20.3871C33.5308 20.6631 32.4345 28.2989 32.4345 28.2989C32.4345 28.2989 31.7037 26.6429 30.3333 27.1949C30.3333 27.1949 30.516 25.723 30.3333 25.263C30.1506 24.803 29.9679 24.527 30.1506 24.159C30.3333 23.791 30.1506 20.2031 30.0593 19.8351C29.9679 19.4671 30.0593 17.5352 30.0593 17.5352L29.2371 13.7633L30.3333 9.16346Z" fill="#E6E6E6"/>
<path d="M25.2596 4.65197L25.3676 3.8938C25.3928 3.71708 25.4955 3.48473 25.6663 3.53279C25.8115 3.57367 26.1279 3.69885 26.1808 3.66106C26.3792 3.51955 26.6794 3.76699 26.888 3.64129C26.9754 3.58862 27.0324 3.47578 27.134 3.46825C27.2021 3.47263 27.2663 3.50193 27.3145 3.55063C27.4499 3.66921 27.6095 3.7565 27.782 3.80635C27.8685 3.83008 27.9598 3.83007 28.0463 3.80632C28.1328 3.78257 28.2115 3.73594 28.2741 3.67128C28.2962 3.63683 28.326 3.60806 28.3611 3.58728C28.4023 3.57531 28.4463 3.57735 28.4863 3.59307L29.0192 3.7392C29.0976 3.453 29.1137 3.15312 29.0664 2.86007C29.0191 2.56703 28.9096 2.28771 28.7452 2.04123C28.529 1.74568 28.2669 1.48717 27.9689 1.27565C27.6389 1.02279 27.2983 0.784958 26.9471 0.562149C26.5627 0.31763 26.1551 0.0869725 25.7056 0.0182363C25.2561 -0.050493 24.7529 0.0724718 24.4701 0.430982C24.3372 0.334067 24.2372 0.198096 24.184 0.0417192C24.1523 0.0707625 24.1273 0.106458 24.1108 0.146287C24.0943 0.186116 24.0867 0.229105 24.0885 0.272223C24.0903 0.315341 24.1015 0.357537 24.1213 0.395829C24.141 0.434121 24.1689 0.467577 24.2029 0.493836L23.7521 0.203972C23.6254 0.337952 23.873 0.580902 23.765 0.730614C23.7324 0.767641 23.6905 0.79519 23.6437 0.810401C23.3989 0.906464 23.1746 1.04864 22.9828 1.22931C22.7237 1.49092 22.583 1.84603 22.4622 2.1949C22.1936 2.97089 21.9984 3.8608 22.38 4.58718C22.4233 4.66953 22.9944 6.02872 23.0705 6.08173C23.3277 6.2609 23.1603 5.82729 23.3445 6.08173C23.4891 6.28125 23.462 5.51761 23.6768 5.68523C23.761 5.7459 23.8609 5.78069 23.9643 5.78537C24.0678 5.79006 24.1703 5.76444 24.2596 5.71162C24.3486 5.64943 24.3199 5.3041 24.2719 4.98698C24.2627 4.92657 24.2684 4.86482 24.2884 4.80713C24.3084 4.74945 24.3422 4.69759 24.3867 4.6561C24.4313 4.61461 24.4853 4.58476 24.5439 4.56916C24.6026 4.55357 24.6642 4.55271 24.7233 4.56665C24.9908 4.63 25.2551 4.68415 25.2596 4.65197Z" fill="#2F2E41"/>
<path opacity="0.1" d="M29.6621 11.98L30.4703 21.1695C30.4703 21.1695 28.7626 13.4622 29.6621 11.98Z" fill="black"/>
<path d="M14.6492 43.7935C13.3415 45.6551 12.996 56.2502 12.919 59.6464C12.9171 59.7229 12.9151 59.7955 12.9141 59.8641H9.60373C9.56326 59.7915 9.52576 59.72 9.49023 59.6464C7.52809 55.7463 8.61674 51.0699 8.67398 50.8334C8.52495 51.5768 9.19906 53.7316 9.96102 55.8188C10.4259 49.4011 14.4005 44.1175 14.6492 43.7935Z" fill="#E6E6E6"/>
<path d="M73.5475 17.0282C74.783 17.0282 75.7847 16.0196 75.7847 14.7753C75.7847 13.5311 74.783 12.5225 73.5475 12.5225C72.3119 12.5225 71.3103 13.5311 71.3103 14.7753C71.3103 16.0196 72.3119 17.0282 73.5475 17.0282Z" fill="#FE676E"/>
<path d="M73.9951 18.1546H63.9278C63.0378 18.1546 62.1842 17.7986 61.5549 17.1648C60.9256 16.5311 60.572 15.6716 60.572 14.7753C60.572 13.8791 60.9256 13.0195 61.5549 12.3858C62.1842 11.752 63.0378 11.396 63.9278 11.396H73.9951C74.8851 11.396 75.7387 11.752 76.368 12.3858C76.9973 13.0195 77.3509 13.8791 77.3509 14.7753C77.3509 15.6716 76.9973 16.5311 76.368 17.1648C75.7387 17.7986 74.8851 18.1546 73.9951 18.1546ZM63.9278 11.8466C63.1565 11.8466 62.4167 12.1551 61.8713 12.7044C61.3259 13.2536 61.0195 13.9986 61.0195 14.7753C61.0195 15.5521 61.3259 16.297 61.8713 16.8462C62.4167 17.3955 63.1565 17.704 63.9278 17.704H73.9951C74.7665 17.704 75.5062 17.3955 76.0516 16.8462C76.597 16.297 76.9035 15.5521 76.9035 14.7753C76.9035 13.9986 76.597 13.2536 76.0516 12.7044C75.5062 12.1551 74.7665 11.8466 73.9951 11.8466H63.9278Z" fill="#3F3D56"/>
<path d="M64.2902 29.4301C65.5257 29.4301 66.5273 28.4214 66.5273 27.1772C66.5273 25.933 65.5257 24.9243 64.2902 24.9243C63.0546 24.9243 62.053 25.933 62.053 27.1772C62.053 28.4214 63.0546 29.4301 64.2902 29.4301Z" fill="#E6E6E6"/>
<path d="M73.9951 30.5565H63.9278C63.0378 30.5565 62.1842 30.2004 61.5549 29.5667C60.9256 28.933 60.572 28.0734 60.572 27.1772C60.572 26.2809 60.9256 25.4214 61.5549 24.7876C62.1842 24.1539 63.0378 23.7979 63.9278 23.7979H73.9951C74.8851 23.7979 75.7387 24.1539 76.368 24.7876C76.9973 25.4214 77.3509 26.2809 77.3509 27.1772C77.3509 28.0734 76.9973 28.933 76.368 29.5667C75.7387 30.2004 74.8851 30.5565 73.9951 30.5565ZM63.9278 24.2484C63.1565 24.2484 62.4167 24.557 61.8713 25.1062C61.3259 25.6555 61.0195 26.4004 61.0195 27.1772C61.0195 27.9539 61.3259 28.6988 61.8713 29.2481C62.4167 29.7973 63.1565 30.1059 63.9278 30.1059H73.9951C74.7665 30.1059 75.5062 29.7973 76.0516 29.2481C76.597 28.6988 76.9035 27.9539 76.9035 27.1772C76.9035 26.4004 76.597 25.6555 76.0516 25.1062C75.5062 24.557 74.7665 24.2484 73.9951 24.2484H63.9278Z" fill="#E6E6E6"/>
<path d="M64.2902 41.8319C65.5257 41.8319 66.5273 40.8233 66.5273 39.579C66.5273 38.3348 65.5257 37.3262 64.2902 37.3262C63.0546 37.3262 62.053 38.3348 62.053 39.579C62.053 40.8233 63.0546 41.8319 64.2902 41.8319Z" fill="#E6E6E6"/>
<path d="M73.9951 42.9583H63.9278C63.0378 42.9583 62.1842 42.6023 61.5549 41.9686C60.9256 41.3348 60.572 40.4753 60.572 39.579C60.572 38.6828 60.9256 37.8232 61.5549 37.1895C62.1842 36.5557 63.0378 36.1997 63.9278 36.1997H73.9951C74.8851 36.1997 75.7387 36.5557 76.368 37.1895C76.9973 37.8232 77.3509 38.6828 77.3509 39.579C77.3509 40.4753 76.9973 41.3348 76.368 41.9686C75.7387 42.6023 74.8851 42.9583 73.9951 42.9583ZM63.9278 36.6503C63.1565 36.6503 62.4167 36.9588 61.8713 37.5081C61.3259 38.0573 61.0195 38.8023 61.0195 39.579C61.0195 40.3558 61.3259 41.1007 61.8713 41.6499C62.4167 42.1992 63.1565 42.5078 63.9278 42.5078H73.9951C74.377 42.5078 74.7552 42.432 75.1081 42.2848C75.4609 42.1376 75.7816 41.9219 76.0516 41.6499C76.3217 41.378 76.5359 41.0551 76.6821 40.6998C76.8282 40.3445 76.9035 39.9636 76.9035 39.579C76.9035 39.1944 76.8282 38.8136 76.6821 38.4582C76.5359 38.1029 76.3217 37.78 76.0516 37.5081C75.7816 37.2361 75.4609 37.0204 75.1081 36.8732C74.7552 36.726 74.377 36.6503 73.9951 36.6503H63.9278Z" fill="#E6E6E6"/>
<path d="M84.5064 52.5208H53.4161C53.2853 52.5206 53.1598 52.4682 53.0673 52.375C52.9748 52.2819 52.9228 52.1556 52.9226 52.0238V2.33045C52.9228 2.1987 52.9748 2.07239 53.0673 1.97922C53.1598 1.88606 53.2853 1.83365 53.4161 1.8335H84.5064C84.6372 1.83365 84.7627 1.88606 84.8552 1.97922C84.9477 2.07239 84.9997 2.1987 84.9999 2.33045V52.0238C84.9997 52.1556 84.9477 52.2819 84.8552 52.375C84.7627 52.4682 84.6372 52.5206 84.5064 52.5208ZM53.4161 2.03228C53.3376 2.03237 53.2623 2.06381 53.2068 2.11971C53.1513 2.17561 53.1201 2.2514 53.12 2.33045V52.0238C53.1201 52.1029 53.1513 52.1786 53.2068 52.2345C53.2623 52.2904 53.3376 52.3219 53.4161 52.322H84.5064C84.5849 52.3219 84.6602 52.2904 84.7157 52.2345C84.7712 52.1786 84.8024 52.1029 84.8025 52.0238V2.33045C84.8024 2.2514 84.7712 2.17561 84.7157 2.11971C84.6602 2.06381 84.5849 2.03237 84.5064 2.03228H53.4161Z" fill="#E6E6E6"/>
</g>
<defs>
<clipPath id="clip0_81_3538">
<rect width="85" height="63" fill="white"/>
</clipPath>
</defs>
</svg>
