<svg width="78" height="68" viewBox="0 0 78 68" fill="none" xmlns="http://www.w3.org/2000/svg">
<g clip-path="url(#clip0_30_11520)">
<path d="M64.9821 16.1094H64.6114V5.9058C64.6114 4.33948 63.9921 2.83732 62.8896 1.72977C61.7872 0.622217 60.292 1.03398e-06 58.7329 0H37.2144C36.4425 0 35.678 0.152758 34.9648 0.449552C34.2516 0.746346 33.6036 1.18136 33.0577 1.72977C32.5118 2.27817 32.0788 2.92922 31.7834 3.64575C31.488 4.36227 31.3359 5.13024 31.3359 5.9058V61.8845C31.3359 63.4508 31.9553 64.953 33.0577 66.0605C34.1601 67.1681 35.6554 67.7903 37.2144 67.7903H58.7329C60.292 67.7903 61.7872 67.168 62.8896 66.0605C63.992 64.9529 64.6113 63.4508 64.6113 61.8845V23.3725H64.982L64.9821 16.1094Z" fill="#E6E6E6"/>
<path d="M58.9701 1.5359H56.1615C56.2907 1.85408 56.34 2.19929 56.3051 2.54112C56.2701 2.88295 56.1521 3.21091 55.9613 3.49611C55.7705 3.7813 55.5128 4.01497 55.2109 4.17654C54.9091 4.3381 54.5723 4.4226 54.2302 4.42259H41.9025C41.5605 4.42257 41.2237 4.33805 40.9219 4.17647C40.6201 4.01489 40.3624 3.78122 40.1716 3.49603C39.9808 3.21084 39.8628 2.88289 39.8279 2.54108C39.793 2.19926 39.8423 1.85407 39.9715 1.5359H37.348C36.1837 1.5359 35.0671 2.00057 34.2438 2.82768C33.4205 3.65479 32.958 4.77659 32.958 5.94629V61.8437C32.958 63.0134 33.4205 64.1352 34.2438 64.9623C35.0671 65.7894 36.1837 66.2541 37.348 66.2541H58.9701C60.1344 66.2541 61.251 65.7894 62.0743 64.9623C62.8976 64.1352 63.3601 63.0134 63.3601 61.8437V5.94621C63.3601 4.77651 62.8976 3.65474 62.0743 2.82765C61.251 2.00056 60.1344 1.5359 58.9701 1.5359Z" fill="white"/>
<path d="M41.619 14.5741C41.5018 14.5751 41.3858 14.5514 41.2783 14.5044C41.1709 14.4574 41.0745 14.3882 40.9955 14.3013C40.9016 14.1923 40.8313 14.0649 40.7888 13.9272C40.7463 13.7896 40.7327 13.6446 40.7487 13.5013C40.771 13.2285 40.8848 12.9714 41.0715 12.772C41.1612 12.6746 41.2697 12.5966 41.3904 12.5429C41.5111 12.4892 41.6415 12.4608 41.7736 12.4595C41.8963 12.4589 42.0178 12.4844 42.1302 12.5341C42.2425 12.5839 42.3432 12.6568 42.4256 12.7482C42.5191 12.8544 42.5897 12.9788 42.633 13.1138C42.6762 13.2487 42.6911 13.3912 42.6767 13.5322C42.6593 13.8217 42.535 14.0942 42.3282 14.2964C42.1357 14.4765 41.882 14.5758 41.619 14.5741ZM41.7736 12.8119C41.4302 12.8119 41.1335 13.1283 41.0981 13.5322C41.0864 13.6268 41.0943 13.7227 41.1211 13.8141C41.1479 13.9055 41.1932 13.9903 41.2542 14.0633C41.3002 14.1143 41.3566 14.1547 41.4196 14.182C41.4825 14.2093 41.5505 14.2228 41.619 14.2216C41.9401 14.2216 42.2836 13.9989 42.3273 13.5013C42.3374 13.409 42.3283 13.3155 42.3007 13.2269C42.2731 13.1382 42.2276 13.0563 42.1669 12.9862C42.1172 12.9311 42.0565 12.887 41.9887 12.857C41.9209 12.827 41.8476 12.8116 41.7736 12.8119Z" fill="#3F3D56"/>
<path d="M41.6303 15.6314C41.359 15.6358 41.0898 15.5822 40.8406 15.4742C40.5914 15.3661 40.368 15.2061 40.1851 15.0046C40.0022 14.8032 39.864 14.565 39.7797 14.3058C39.6954 14.0467 39.667 13.7725 39.6962 13.5014C39.7537 12.9324 40.017 12.4045 40.4361 12.0175C40.8553 11.6306 41.4012 11.4117 41.9704 11.4022C42.6019 11.4022 43.1215 11.606 43.473 11.9917C43.8063 12.3573 43.9624 12.8721 43.9125 13.4412C43.8652 13.9802 43.6376 14.261 43.4549 14.4016C43.3743 14.4676 43.2811 14.5165 43.1811 14.5453C43.081 14.5741 42.9762 14.5822 42.873 14.5692C42.5843 14.5177 42.2649 14.2542 42.3152 13.6808L42.4081 12.6208C42.4124 12.5744 42.4348 12.5316 42.4704 12.5018C42.506 12.472 42.552 12.4575 42.5982 12.4616C42.6443 12.4657 42.687 12.488 42.7169 12.5236C42.7468 12.5592 42.7614 12.6053 42.7576 12.6517L42.6646 13.7118C42.6396 13.9968 42.7404 14.1876 42.9342 14.2221C43.0458 14.2308 43.1564 14.1948 43.2416 14.1218C43.3683 14.0242 43.527 13.8216 43.563 13.4102C43.6048 12.934 43.4842 12.5258 43.2143 12.2297C42.931 11.9189 42.5008 11.7546 41.9704 11.7546C41.4889 11.7638 41.0273 11.9496 40.6728 12.277C40.3183 12.6045 40.0952 13.0509 40.0457 13.5321C40.0207 13.7545 40.0432 13.9797 40.1119 14.1926C40.1805 14.4054 40.2937 14.6011 40.4437 14.7665C40.5938 14.9319 40.7773 15.0632 40.9819 15.1516C41.1865 15.2399 41.4076 15.2834 41.6303 15.2789C41.905 15.2938 42.1794 15.2439 42.4315 15.133C42.4743 15.1151 42.5225 15.115 42.5654 15.1327C42.6083 15.1504 42.6425 15.1845 42.6605 15.2275C42.6784 15.2704 42.6787 15.3188 42.6613 15.362C42.6438 15.4052 42.6101 15.4397 42.5674 15.4579C42.2723 15.5869 41.9518 15.6463 41.6303 15.6314Z" fill="#3F3D56"/>
<path d="M39.7784 40.8191C39.7437 40.8191 39.7098 40.8087 39.681 40.7894C39.6521 40.77 39.6297 40.7425 39.6164 40.7103C39.6031 40.6781 39.5996 40.6427 39.6064 40.6085C39.6132 40.5743 39.6299 40.5429 39.6544 40.5183L40.7945 39.3729C40.8275 39.3402 40.872 39.322 40.9183 39.3222C40.9646 39.3223 41.0089 39.3409 41.0416 39.3738C41.0744 39.4067 41.0928 39.4512 41.093 39.4977C41.0932 39.5442 41.075 39.5889 41.0425 39.6221L39.9024 40.7675C39.8862 40.7838 39.8668 40.7968 39.8456 40.8057C39.8243 40.8146 39.8015 40.8191 39.7784 40.8191ZM42.6725 40.3785C42.6378 40.3785 42.6039 40.3682 42.5751 40.3488C42.5462 40.3295 42.5238 40.302 42.5105 40.2698C42.4972 40.2376 42.4937 40.2021 42.5005 40.1679C42.5073 40.1338 42.524 40.1024 42.5485 40.0777L43.5132 39.1085C43.5462 39.0759 43.5907 39.0577 43.637 39.0578C43.6833 39.058 43.7276 39.0766 43.7603 39.1094C43.7931 39.1423 43.8116 39.1869 43.8117 39.2334C43.8119 39.2799 43.7937 39.3246 43.7613 39.3577L42.7965 40.3269C42.7803 40.3433 42.7609 40.3563 42.7397 40.3652C42.7184 40.374 42.6956 40.3786 42.6725 40.3785ZM42.1463 40.3785C42.1233 40.3786 42.1005 40.374 42.0792 40.3652C42.0579 40.3563 42.0386 40.3433 42.0223 40.3269L41.3207 39.6221C41.3042 39.6057 41.2911 39.5863 41.2822 39.5649C41.2732 39.5434 41.2685 39.5204 41.2684 39.4972C41.2684 39.474 41.2729 39.4509 41.2817 39.4294C41.2905 39.4079 41.3035 39.3884 41.3198 39.372C41.3362 39.3555 41.3556 39.3425 41.377 39.3337C41.3984 39.3248 41.4213 39.3203 41.4445 39.3204C41.4676 39.3205 41.4905 39.3251 41.5118 39.3341C41.5332 39.3432 41.5525 39.3563 41.5688 39.3729L42.2704 40.0777C42.2949 40.1024 42.3116 40.1338 42.3183 40.1679C42.3251 40.2021 42.3216 40.2376 42.3084 40.2698C42.2951 40.302 42.2726 40.3295 42.2438 40.3488C42.2149 40.3682 42.181 40.3785 42.1463 40.3785Z" fill="#3F3D56"/>
<path d="M43.9004 39.4094C43.8137 39.4094 43.7289 39.3835 43.6568 39.3351C43.5847 39.2867 43.5285 39.2179 43.4953 39.1374C43.4621 39.0569 43.4534 38.9683 43.4703 38.8829C43.4873 38.7974 43.529 38.7189 43.5903 38.6573C43.6517 38.5957 43.7298 38.5538 43.8149 38.5368C43.8999 38.5198 43.9881 38.5285 44.0682 38.5618C44.1483 38.5952 44.2168 38.6516 44.265 38.7241C44.3132 38.7965 44.3389 38.8817 44.3389 38.9688C44.3388 39.0856 44.2925 39.1976 44.2103 39.2802C44.1281 39.3628 44.0167 39.4092 43.9004 39.4094ZM43.9004 38.8807C43.8831 38.8807 43.8661 38.8859 43.8517 38.8956C43.8373 38.9053 43.826 38.919 43.8194 38.9351C43.8127 38.9512 43.811 38.9689 43.8144 38.986C43.8178 39.0031 43.8261 39.0188 43.8384 39.0311C43.8507 39.0435 43.8663 39.0518 43.8833 39.0552C43.9003 39.0586 43.9179 39.0569 43.934 39.0502C43.95 39.0436 43.9637 39.0323 43.9733 39.0178C43.983 39.0033 43.9881 38.9863 43.9881 38.9688C43.9881 38.9455 43.9788 38.9231 43.9624 38.9066C43.946 38.89 43.9237 38.8807 43.9004 38.8807Z" fill="#3F3D56"/>
<path d="M42.4092 40.9072C42.3225 40.9072 42.2377 40.8813 42.1656 40.8329C42.0935 40.7845 42.0373 40.7157 42.0041 40.6352C41.9709 40.5547 41.9622 40.4662 41.9791 40.3807C41.996 40.2952 42.0378 40.2167 42.0991 40.1551C42.1605 40.0935 42.2386 40.0516 42.3237 40.0346C42.4087 40.0176 42.4969 40.0263 42.577 40.0596C42.6571 40.093 42.7256 40.1494 42.7738 40.2219C42.822 40.2943 42.8477 40.3795 42.8477 40.4666C42.8476 40.5834 42.8013 40.6954 42.7191 40.778C42.6369 40.8606 42.5255 40.9071 42.4092 40.9072ZM42.4092 40.3785C42.3919 40.3785 42.3749 40.3837 42.3605 40.3934C42.3461 40.4031 42.3348 40.4168 42.3282 40.4329C42.3215 40.449 42.3198 40.4667 42.3232 40.4838C42.3266 40.5009 42.3349 40.5166 42.3472 40.5289C42.3595 40.5413 42.3751 40.5497 42.3921 40.5531C42.4091 40.5565 42.4267 40.5547 42.4428 40.5481C42.4588 40.5414 42.4725 40.5301 42.4821 40.5156C42.4918 40.5011 42.4969 40.4841 42.4969 40.4666C42.4969 40.4433 42.4876 40.4209 42.4712 40.4044C42.4547 40.3879 42.4325 40.3786 42.4092 40.3785Z" fill="#3F3D56"/>
<path d="M41.1817 39.6737C41.0949 39.6737 41.0102 39.6478 40.938 39.5994C40.8659 39.551 40.8097 39.4822 40.7765 39.4017C40.7434 39.3212 40.7347 39.2326 40.7516 39.1472C40.7685 39.0617 40.8103 38.9832 40.8716 38.9216C40.9329 38.86 41.0111 38.8181 41.0961 38.8011C41.1812 38.7841 41.2693 38.7928 41.3495 38.8261C41.4296 38.8595 41.4981 38.9159 41.5463 38.9884C41.5944 39.0608 41.6202 39.146 41.6202 39.2331C41.62 39.3499 41.5738 39.4619 41.4916 39.5445C41.4094 39.6271 41.2979 39.6735 41.1817 39.6737ZM41.1817 39.145C41.1643 39.145 41.1474 39.1502 41.1329 39.1599C41.1185 39.1696 41.1073 39.1833 41.1006 39.1994C41.094 39.2155 41.0923 39.2332 41.0956 39.2503C41.099 39.2674 41.1074 39.2831 41.1197 39.2954C41.1319 39.3078 41.1475 39.3162 41.1646 39.3196C41.1816 39.323 41.1992 39.3212 41.2152 39.3145C41.2313 39.3079 41.245 39.2966 41.2546 39.2821C41.2642 39.2676 41.2694 39.2506 41.2694 39.2331C41.2693 39.2098 41.2601 39.1874 41.2437 39.1709C41.2272 39.1543 41.2049 39.1451 41.1817 39.145Z" fill="#3F3D56"/>
<path d="M39.5152 41.3477C39.4284 41.3477 39.3437 41.3219 39.2715 41.2735C39.1994 41.2251 39.1432 41.1563 39.11 41.0758C39.0768 40.9953 39.0682 40.9067 39.0851 40.8212C39.102 40.7358 39.1438 40.6573 39.2051 40.5957C39.2664 40.5341 39.3446 40.4921 39.4296 40.4751C39.5147 40.4581 39.6028 40.4668 39.683 40.5002C39.7631 40.5335 39.8316 40.59 39.8798 40.6624C39.9279 40.7349 39.9537 40.82 39.9537 40.9072C39.9535 41.024 39.9073 41.136 39.8251 41.2185C39.7429 41.3011 39.6314 41.3476 39.5152 41.3477ZM39.5152 40.8191C39.4978 40.8191 39.4809 40.8242 39.4664 40.8339C39.452 40.8436 39.4408 40.8574 39.4341 40.8735C39.4275 40.8896 39.4258 40.9073 39.4291 40.9244C39.4325 40.9415 39.4409 40.9572 39.4531 40.9695C39.4654 40.9818 39.481 40.9902 39.4981 40.9936C39.5151 40.997 39.5327 40.9953 39.5487 40.9886C39.5648 40.9819 39.5784 40.9706 39.5881 40.9561C39.5977 40.9416 39.6029 40.9246 39.6029 40.9072C39.6028 40.8838 39.5936 40.8614 39.5771 40.8449C39.5607 40.8284 39.5384 40.8191 39.5152 40.8191Z" fill="#3F3D56"/>
<path d="M56.1611 54.9367H52.4777C52.3149 54.9366 52.1589 54.8715 52.0438 54.7559C51.9287 54.6403 51.864 54.4835 51.8638 54.32V51.6768C51.864 51.5133 51.9287 51.3565 52.0438 51.2409C52.1589 51.1252 52.3149 51.0602 52.4777 51.06H56.1611C56.3238 51.0602 56.4799 51.1252 56.595 51.2409C56.7101 51.3565 56.7748 51.5133 56.775 51.6768V54.32C56.7748 54.4835 56.7101 54.6403 56.595 54.7559C56.4799 54.8715 56.3238 54.9366 56.1611 54.9367ZM52.4777 51.4124C52.4079 51.4125 52.341 51.4404 52.2917 51.49C52.2424 51.5395 52.2146 51.6067 52.2146 51.6768V54.32C52.2146 54.3901 52.2424 54.4573 52.2917 54.5068C52.341 54.5564 52.4079 54.5842 52.4777 54.5843H56.1611C56.2308 54.5842 56.2977 54.5564 56.347 54.5068C56.3964 54.4573 56.4241 54.3901 56.4242 54.32V51.6768C56.4241 51.6067 56.3964 51.5395 56.347 51.4899C56.2977 51.4404 56.2308 51.4125 56.1611 51.4124L52.4777 51.4124Z" fill="#3F3D56"/>
<path d="M54.3194 53.3508C54.2804 53.3508 54.2425 53.3378 54.2117 53.3137L52.6331 52.0802C52.615 52.066 52.5997 52.0483 52.5884 52.0282C52.577 52.0081 52.5696 51.9859 52.5668 51.9629C52.5639 51.94 52.5656 51.9167 52.5717 51.8944C52.5778 51.8721 52.5882 51.8512 52.6024 51.8329C52.6165 51.8146 52.6341 51.7994 52.6541 51.7879C52.6742 51.7765 52.6962 51.7691 52.7191 51.7662C52.7419 51.7634 52.7651 51.7651 52.7873 51.7712C52.8095 51.7773 52.8303 51.7878 52.8485 51.802L54.3194 52.9514L55.7904 51.802C55.8085 51.7878 55.8293 51.7773 55.8515 51.7712C55.8737 51.7651 55.8969 51.7634 55.9198 51.7662C55.9426 51.7691 55.9647 51.7765 55.9847 51.7879C56.0048 51.7994 56.0223 51.8146 56.0365 51.8329C56.0506 51.8512 56.0611 51.8721 56.0672 51.8944C56.0733 51.9167 56.0749 51.94 56.0721 51.9629C56.0692 51.9859 56.0619 52.0081 56.0505 52.0282C56.0391 52.0483 56.0239 52.066 56.0057 52.0802L54.4271 53.3137C54.3963 53.3378 54.3584 53.3508 54.3194 53.3508Z" fill="#3F3D56"/>
<path d="M74.1031 57.3763L53.8133 57.3843C53.7876 57.3843 53.7629 57.3741 53.7447 57.3558C53.7265 57.3375 53.7163 57.3127 53.7163 57.2869C53.7163 57.261 53.7265 57.2362 53.7447 57.2179C53.7629 57.1997 53.7876 57.1894 53.8133 57.1894L74.1031 57.1813C74.1289 57.1813 74.1536 57.1916 74.1717 57.2099C74.1899 57.2281 74.2002 57.2529 74.2002 57.2788C74.2002 57.3046 74.1899 57.3294 74.1717 57.3477C74.1536 57.366 74.1289 57.3763 74.1031 57.3763Z" fill="#CCCCCC"/>
<path d="M73.8333 58.6433C74.5834 58.6433 75.1915 58.0324 75.1915 57.2788C75.1915 56.5252 74.5834 55.9143 73.8333 55.9143C73.0832 55.9143 72.4751 56.5252 72.4751 57.2788C72.4751 58.0324 73.0832 58.6433 73.8333 58.6433Z" fill="#FE676E"/>
<path d="M73.6185 31.2555L53.1346 31.2636C53.1089 31.2636 53.0842 31.2533 53.066 31.235C53.0478 31.2167 53.0376 31.192 53.0376 31.1661C53.0376 31.1403 53.0478 31.1155 53.066 31.0972C53.0842 31.0789 53.1089 31.0686 53.1346 31.0686L73.6185 31.0606C73.6442 31.0606 73.6689 31.0708 73.6871 31.0891C73.7053 31.1074 73.7155 31.1322 73.7155 31.158C73.7155 31.1839 73.7053 31.2087 73.6871 31.2269C73.6689 31.2452 73.6442 31.2555 73.6185 31.2555Z" fill="#CCCCCC"/>
<path d="M73.8333 32.62C74.5834 32.62 75.1915 32.0091 75.1915 31.2555C75.1915 30.5019 74.5834 29.891 73.8333 29.891C73.0832 29.891 72.4751 30.5019 72.4751 31.2555C72.4751 32.0091 73.0832 32.62 73.8333 32.62Z" fill="#FE676E"/>
<path d="M21.1751 17.9027L41.659 17.9108C41.6847 17.9108 41.7094 17.9005 41.7276 17.8822C41.7458 17.864 41.756 17.8392 41.756 17.8133C41.756 17.7875 41.7458 17.7627 41.7276 17.7444C41.7094 17.7261 41.6847 17.7159 41.659 17.7159L21.1751 17.7078C21.1494 17.7078 21.1247 17.718 21.1065 17.7363C21.0883 17.7546 21.0781 17.7794 21.0781 17.8052C21.0781 17.8311 21.0883 17.8559 21.1065 17.8742C21.1247 17.8924 21.1494 17.9027 21.1751 17.9027Z" fill="#CCCCCC"/>
<path d="M20.9603 19.2672C21.7104 19.2672 22.3185 18.6563 22.3185 17.9027C22.3185 17.1491 21.7104 16.5382 20.9603 16.5382C20.2101 16.5382 19.6021 17.1491 19.6021 17.9027C19.6021 18.6563 20.2101 19.2672 20.9603 19.2672Z" fill="#FE676E"/>
<path d="M21.1751 44.3159L41.659 44.324C41.6847 44.324 41.7094 44.3137 41.7276 44.2954C41.7458 44.2771 41.756 44.2523 41.756 44.2265C41.756 44.2006 41.7458 44.1758 41.7276 44.1576C41.7094 44.1393 41.6847 44.129 41.659 44.129L21.1751 44.1209C21.1494 44.1209 21.1247 44.1312 21.1065 44.1495C21.0883 44.1678 21.0781 44.1926 21.0781 44.2184C21.0781 44.2443 21.0883 44.2691 21.1065 44.2873C21.1247 44.3056 21.1494 44.3159 21.1751 44.3159Z" fill="#CCCCCC"/>
<path d="M20.9603 45.6804C21.7104 45.6804 22.3185 45.0695 22.3185 44.3159C22.3185 43.5623 21.7104 42.9514 20.9603 42.9514C20.2101 42.9514 19.6021 43.5623 19.6021 44.3159C19.6021 45.0695 20.2101 45.6804 20.9603 45.6804Z" fill="#FE676E"/>
<path d="M54.3198 57.3843C53.4563 57.3843 52.6123 57.1271 51.8943 56.6452C51.1764 56.1632 50.6168 55.4782 50.2864 54.6768C49.956 53.8754 49.8695 52.9935 50.038 52.1427C50.2064 51.2919 50.6222 50.5104 51.2328 49.897C51.8433 49.2837 52.6212 48.8659 53.4681 48.6967C54.3149 48.5275 55.1927 48.6143 55.9904 48.9463C56.7882 49.2782 57.47 49.8404 57.9497 50.5617C58.4294 51.2829 58.6854 52.1309 58.6854 52.9984C58.6841 54.1612 58.2238 55.276 57.4053 56.0983C56.5869 56.9205 55.4772 57.383 54.3198 57.3843ZM54.3198 48.8074C53.4947 48.8074 52.6882 49.0532 52.0021 49.5137C51.3161 49.9742 50.7814 50.6287 50.4657 51.3945C50.1499 52.1604 50.0673 53.003 50.2283 53.816C50.3893 54.629 50.7866 55.3757 51.37 55.9619C51.9534 56.548 52.6967 56.9472 53.5059 57.1089C54.3151 57.2706 55.1539 57.1876 55.9162 56.8704C56.6785 56.5532 57.33 56.016 57.7884 55.3268C58.2468 54.6376 58.4914 53.8273 58.4914 52.9984C58.4902 51.8872 58.0503 50.822 57.2682 50.0363C56.4861 49.2506 55.4258 48.8086 54.3198 48.8074Z" fill="#CCCCCC"/>
<path d="M41.7075 44.3239C40.844 44.3239 40 44.0667 39.282 43.5848C38.5641 43.1028 38.0045 42.4179 37.6741 41.6164C37.3437 40.815 37.2572 39.9331 37.4257 39.0823C37.5941 38.2316 38.0099 37.45 38.6205 36.8367C39.231 36.2233 40.0089 35.8056 40.8558 35.6363C41.7026 35.4671 42.5804 35.5539 43.3781 35.8859C44.1759 36.2179 44.8577 36.78 45.3374 37.5013C45.8171 38.2226 46.0731 39.0705 46.0731 39.938C46.0718 41.1008 45.6115 42.2156 44.793 43.0379C43.9746 43.8601 42.8649 44.3226 41.7075 44.3239ZM41.7075 35.747C40.8824 35.747 40.0759 35.9928 39.3898 36.4533C38.7038 36.9138 38.1691 37.5684 37.8534 38.3342C37.5376 39.1 37.455 39.9426 37.616 40.7556C37.7769 41.5686 38.1743 42.3154 38.7577 42.9015C39.3411 43.4876 40.0844 43.8868 40.8936 44.0485C41.7028 44.2102 42.5416 44.1272 43.3039 43.81C44.0662 43.4928 44.7177 42.9556 45.1761 42.2664C45.6345 41.5772 45.8791 40.7669 45.8791 39.938C45.8779 38.8269 45.438 37.7616 44.6559 36.9759C43.8738 36.1902 42.8135 35.7482 41.7075 35.747Z" fill="#CCCCCC"/>
<path d="M53.4467 31.2636C52.5833 31.2636 51.7392 31.0063 51.0213 30.5244C50.3034 30.0425 49.7438 29.3575 49.4134 28.556C49.0829 27.7546 48.9965 26.8728 49.1649 26.022C49.3334 25.1712 49.7492 24.3897 50.3597 23.7763C50.9703 23.1629 51.7482 22.7452 52.595 22.5759C53.4419 22.4067 54.3197 22.4936 55.1174 22.8255C55.9151 23.1575 56.5969 23.7197 57.0767 24.4409C57.5564 25.1622 57.8124 26.0102 57.8124 26.8776C57.8111 28.0404 57.3507 29.1553 56.5323 29.9775C55.7138 30.7997 54.6042 31.2623 53.4467 31.2636ZM53.4467 22.6866C52.6217 22.6866 51.8151 22.9324 51.1291 23.3929C50.4431 23.8534 49.9084 24.508 49.5926 25.2738C49.2769 26.0396 49.1943 26.8823 49.3552 27.6952C49.5162 28.5082 49.9135 29.255 50.4969 29.8411C51.0803 30.4272 51.8237 30.8264 52.6329 30.9881C53.4421 31.1498 54.2809 31.0668 55.0431 30.7496C55.8054 30.4324 56.4569 29.8952 56.9153 29.206C57.3737 28.5168 57.6184 27.7065 57.6184 26.8776C57.6171 25.7665 57.1772 24.7012 56.3951 23.9155C55.6131 23.1298 54.5527 22.6879 53.4467 22.6866Z" fill="#CCCCCC"/>
<path d="M41.8046 17.9027C40.9412 17.9027 40.0971 17.6455 39.3792 17.1635C38.6613 16.6816 38.1017 15.9966 37.7713 15.1952C37.4409 14.3938 37.3544 13.5119 37.5229 12.6611C37.6913 11.8103 38.1071 11.0288 38.7176 10.4154C39.3282 9.80204 40.1061 9.38432 40.9529 9.21509C41.7998 9.04586 42.6776 9.13271 43.4753 9.46468C44.273 9.79664 44.9549 10.3588 45.4346 11.0801C45.9143 11.8013 46.1703 12.6493 46.1703 13.5168C46.169 14.6796 45.7086 15.7944 44.8902 16.6166C44.0717 17.4389 42.9621 17.9014 41.8046 17.9027ZM41.8046 9.32575C40.9796 9.32575 40.173 9.57155 39.487 10.0321C38.801 10.4926 38.2663 11.1471 37.9505 11.9129C37.6348 12.6787 37.5522 13.5214 37.7132 14.3344C37.8741 15.1474 38.2714 15.8941 38.8548 16.4803C39.4383 17.0664 40.1816 17.4655 40.9908 17.6273C41.8 17.789 42.6388 17.706 43.4011 17.3888C44.1633 17.0716 44.8148 16.5344 45.2732 15.8452C45.7316 15.156 45.9763 14.3457 45.9763 13.5168C45.975 12.4056 45.5351 11.3403 44.7531 10.5547C43.971 9.76896 42.9106 9.327 41.8046 9.32575Z" fill="#CCCCCC"/>
<path d="M14.407 47.6196C14.2877 47.5282 14.1889 47.4126 14.1169 47.2802C14.045 47.1479 14.0017 47.0018 13.9897 46.8515C13.987 46.8165 13.9862 46.7814 13.9872 46.7463L9.46941 43.6895C9.32155 43.5885 9.21015 43.4421 9.15182 43.2723C9.09349 43.1024 9.09134 42.9182 9.1457 42.747L11.3049 37.3576C11.3979 37.1256 11.5785 36.94 11.8073 36.8416C12.0361 36.7431 12.2944 36.7397 12.5257 36.8321C12.757 36.9246 12.9424 37.1053 13.0413 37.3348C13.1402 37.5643 13.1446 37.8238 13.0535 38.0565L11.3102 42.5098L14.828 45.7198C14.8745 45.7092 14.9216 45.7019 14.969 45.6979C15.2407 45.6762 15.5104 45.7598 15.7227 45.9314C15.935 46.1031 16.074 46.3499 16.111 46.6212C16.148 46.8924 16.0803 47.1677 15.9218 47.3904C15.7633 47.6131 15.5259 47.7665 15.2584 47.8191C15.1898 47.8323 15.1201 47.8391 15.0502 47.8391C14.8176 47.8393 14.5914 47.7621 14.407 47.6196Z" fill="#A0616A"/>
<path d="M9.47129 40.531C9.44485 40.469 9.43204 40.402 9.43374 40.3346C9.43544 40.2671 9.4516 40.2008 9.48113 40.1402L10.5119 38.0237C10.6159 37.6947 10.8455 37.4206 11.1504 37.2614C11.4552 37.1023 11.8105 37.071 12.1382 37.1746C12.466 37.2782 12.7394 37.5081 12.8987 37.814C13.058 38.1198 13.09 38.4766 12.9879 38.8062L12.6115 41.1397C12.6008 41.2063 12.5759 41.2698 12.5385 41.3258C12.5012 41.3819 12.4522 41.4292 12.395 41.4645C12.3378 41.4998 12.2737 41.5224 12.207 41.5306C12.1404 41.5388 12.0727 41.5324 12.0087 41.512L9.75941 40.7939C9.69539 40.7735 9.63651 40.7394 9.58679 40.6941C9.53706 40.6487 9.49766 40.5931 9.47129 40.531Z" fill="#FE676E"/>
<path d="M16.5808 66.6615H17.7702L18.336 62.0526L16.5806 62.0527L16.5808 66.6615Z" fill="#A0616A"/>
<path d="M16.2773 66.2714L18.6197 66.2714H18.6198C18.8158 66.2713 19.0099 66.3101 19.191 66.3855C19.3721 66.4609 19.5367 66.5713 19.6753 66.7106C19.8139 66.8498 19.9238 67.0151 19.9988 67.1971C20.0739 67.379 20.1125 67.574 20.1125 67.771V67.8197L16.2774 67.8199L16.2773 66.2714Z" fill="#2F2E41"/>
<path d="M4.9502 65.815L6.10215 66.1123L7.79215 61.7899L6.09196 61.351L4.9502 65.815Z" fill="#A0616A"/>
<path d="M4.75323 65.3612L7.02182 65.9469L7.02192 65.9469C7.21178 65.9959 7.39016 66.082 7.54689 66.2003C7.70363 66.3186 7.83563 66.4668 7.93538 66.6363C8.03512 66.8058 8.10065 66.9934 8.12822 67.1884C8.15579 67.3834 8.14487 67.5819 8.09607 67.7727L8.08399 67.8199L4.36963 66.8609L4.75323 65.3612Z" fill="#2F2E41"/>
<path d="M13.2925 35.0429C14.6084 35.0429 15.6752 33.9711 15.6752 32.649C15.6752 31.3269 14.6084 30.2552 13.2925 30.2552C11.9765 30.2552 10.9097 31.3269 10.9097 32.649C10.9097 33.9711 11.9765 35.0429 13.2925 35.0429Z" fill="#A0616A"/>
<path d="M12.0873 42.6062C11.5204 42.02 11.0391 41.356 10.6577 40.634C10.4548 40.2382 10.3368 39.8041 10.311 39.3596C10.2853 38.9152 10.3525 38.4702 10.5083 38.0535C10.6673 37.6274 10.9134 37.2395 11.2308 36.9148C11.5481 36.5901 11.9296 36.3357 12.3506 36.168C13.0891 35.8669 13.913 35.8545 14.6602 36.1331C15.4073 36.4117 16.0236 36.9613 16.3877 37.6735C16.9839 38.8457 17.2175 39.9918 17.0822 41.0801C16.8233 43.1606 16.6718 44.236 16.6318 44.2761L16.6184 44.2895L12.1859 44.4874L12.0873 42.6062Z" fill="#FE676E"/>
<path d="M12.3507 43.9117L16.3173 43.7133C16.4175 43.7083 16.5157 43.7424 16.5913 43.8086C16.667 43.8747 16.7142 43.9677 16.7231 44.0681L18.5479 64.6169C18.5527 64.6715 18.546 64.7265 18.5283 64.7783C18.5105 64.8302 18.4821 64.8777 18.4449 64.9177C18.4076 64.9578 18.3624 64.9895 18.3121 65.0108C18.2618 65.0321 18.2076 65.0425 18.1531 65.0413L16.6034 65.0082C16.5181 65.0064 16.4359 64.9764 16.3693 64.9229C16.3027 64.8694 16.2555 64.7954 16.235 64.7123L13.2745 52.7277C13.2551 52.6493 13.212 52.5789 13.151 52.5262C13.0901 52.4735 13.0144 52.4411 12.9343 52.4335C12.8542 52.4259 12.7738 52.4435 12.7041 52.4838C12.6345 52.5241 12.579 52.5852 12.5453 52.6586L6.93499 64.9002C6.89688 64.9833 6.83087 65.0503 6.74851 65.0895C6.66616 65.1286 6.57271 65.1374 6.48455 65.1143L4.92497 64.7056C4.82843 64.6804 4.74528 64.6188 4.69279 64.5337C4.6403 64.4485 4.62252 64.3462 4.64315 64.2482C5.15628 61.8146 8.22995 47.8783 12.0999 44.0209C12.1672 43.9547 12.2565 43.9158 12.3507 43.9117Z" fill="#2F2E41"/>
<path d="M19.862 46.2189C19.7186 46.1744 19.5861 46.1002 19.4731 46.0009C19.3602 45.9016 19.2693 45.7795 19.2064 45.6426C19.1919 45.6106 19.179 45.578 19.1679 45.5447L13.8776 44.2422C13.7041 44.1987 13.5493 44.0999 13.4362 43.9607C13.3231 43.8215 13.2578 43.6494 13.25 43.4699L13.4251 37.663C13.4326 37.4131 13.5384 37.1763 13.7193 37.0046C13.9002 36.8328 14.1415 36.7401 14.3903 36.7466C14.6391 36.7532 14.8752 36.8585 15.0468 37.0396C15.2185 37.2206 15.3118 37.4626 15.3063 37.7126L15.1999 42.4966L19.6045 44.2897C19.6444 44.2638 19.6861 44.2405 19.7292 44.2203C19.8865 44.147 20.0592 44.1133 20.2323 44.1221C20.4055 44.1309 20.5739 44.1819 20.7231 44.2707C20.8722 44.3595 20.9976 44.4835 21.0884 44.6319C21.1792 44.7803 21.2327 44.9486 21.2442 45.1224C21.2558 45.2962 21.225 45.4702 21.1547 45.6294C21.0843 45.7886 20.9764 45.9282 20.8404 46.0361C20.7043 46.1441 20.5441 46.2171 20.3737 46.249C20.2032 46.2808 20.0276 46.2705 19.862 46.2189Z" fill="#A0616A"/>
<path d="M12.8608 40.5565C12.8152 40.507 12.7807 40.4482 12.7597 40.3841C12.7387 40.32 12.7317 40.2522 12.7393 40.1851L13.0015 37.8436C12.9893 37.4986 13.1138 37.1629 13.3476 36.91C13.5815 36.6571 13.9056 36.5077 14.2489 36.4945C14.5922 36.4814 14.9267 36.6055 15.1791 36.8397C15.4315 37.0739 15.5811 37.3991 15.5952 37.744L16.0219 40.0687C16.0341 40.135 16.0319 40.2032 16.0154 40.2687C15.999 40.3341 15.9687 40.3952 15.9267 40.4478C15.8847 40.5004 15.8318 40.5432 15.7718 40.5735C15.7118 40.6037 15.6459 40.6206 15.5788 40.623L13.2201 40.7066C13.153 40.7091 13.0862 40.6969 13.0242 40.671C12.9621 40.6451 12.9064 40.606 12.8608 40.5565Z" fill="#FE676E"/>
<path d="M9.87814 35.8095L10.1271 35.0011L10.2974 35.9084L11.6956 35.8712L11.6892 34.9766L12.2207 35.8594L13.4878 35.5781C13.2171 35.2157 12.9432 34.8477 12.7701 34.4205C12.597 33.9934 12.5339 33.4924 12.6957 33.06C13.0956 31.991 14.6119 32.2902 15.4412 32.2811C15.6832 32.2785 15.9563 32.2609 16.1147 32.0622C16.2341 31.9126 16.2536 31.6985 16.2476 31.5006C16.2164 30.4817 15.6075 29.5095 14.7466 29.1044C14.3252 28.9095 13.8554 28.8455 13.3976 28.9208C13.1588 28.9588 12.9269 29.0321 12.7096 29.1386C12.5159 29.2336 12.3124 29.4601 12.1037 29.454C11.9284 29.4488 11.6963 29.2654 11.5056 29.234C11.2757 29.1984 11.0413 29.2066 10.8145 29.2583C10.3587 29.3603 9.94785 29.6073 9.6429 29.9626C8.99481 30.7191 8.80224 31.834 8.9152 32.8603C9.02816 33.8867 9.41033 34.8519 9.78824 35.8004" fill="#2F2E41"/>
<path d="M77.903 68H0.0970149C0.071285 68 0.0466088 67.9897 0.0284149 67.9714C0.0102211 67.9532 0 67.9284 0 67.9025C0 67.8767 0.0102211 67.8519 0.0284149 67.8336C0.0466088 67.8153 0.071285 67.8051 0.0970149 67.8051H77.903C77.9287 67.8051 77.9534 67.8153 77.9716 67.8336C77.9898 67.8519 78 67.8767 78 67.9025C78 67.9284 77.9898 67.9532 77.9716 67.9714C77.9534 67.9897 77.9287 68 77.903 68Z" fill="#E6E6E6"/>
<path d="M76.5904 66.7921C76.8865 66.5508 77.1023 66.2245 77.2089 65.8568C77.2878 65.4846 77.13 65.0476 76.7772 64.9036C76.381 64.7499 75.9574 65.0266 75.6368 65.3049C75.3163 65.5833 74.9474 65.9021 74.527 65.8422C74.7424 65.645 74.9032 65.3951 74.9938 65.1169C75.0844 64.8387 75.1017 64.5417 75.0441 64.2547C75.0267 64.1354 74.9765 64.0233 74.8991 63.9311C74.68 63.6948 74.2806 63.7968 74.0164 63.9829C73.1789 64.5751 72.9453 65.7176 72.9421 66.7468C72.8567 66.3746 72.9276 65.9878 72.926 65.614C72.9244 65.2402 72.8197 64.8049 72.5007 64.6075C72.303 64.5008 72.0809 64.4478 71.8565 64.4538C71.4796 64.4408 71.0608 64.4781 70.803 64.7548C70.4809 65.0978 70.5663 65.6755 70.8449 66.0493C71.1236 66.4231 71.5456 66.6642 71.9338 66.9264C72.2464 67.1126 72.513 67.3677 72.7134 67.6724C72.7371 67.7145 72.7565 67.759 72.7713 67.8051H75.1311C75.6609 67.5353 76.1518 67.1945 76.5904 66.7921Z" fill="#F2F2F2"/>
<path d="M52.0393 29.4543C51.9954 29.4541 51.9523 29.4429 51.9138 29.4217C51.8753 29.4006 51.8427 29.3701 51.8189 29.3331C51.7951 29.296 51.7809 29.2537 51.7775 29.2097C51.7742 29.1658 51.7817 29.1217 51.7996 29.0814L52.1032 28.401C51.6849 28.0278 51.4184 27.5125 51.355 26.9541C51.2915 26.3957 51.4355 25.8333 51.7593 25.375C52.0831 24.9166 52.5639 24.5945 53.1096 24.4703C53.6552 24.3462 54.2273 24.4288 54.7161 24.7023C55.2048 24.9758 55.5759 25.4209 55.7581 25.9523C55.9404 26.4837 55.9209 27.064 55.7035 27.5819C55.4861 28.0998 55.086 28.5188 54.58 28.7586C54.074 28.9984 53.4977 29.0422 52.9617 28.8814L52.1869 29.4083C52.1434 29.4382 52.092 29.4542 52.0393 29.4543ZM53.6057 24.7499C53.2021 24.7497 52.8085 24.8756 52.4793 25.1102C52.1502 25.3448 51.9018 25.6764 51.7687 26.0591C51.6355 26.4419 51.6242 26.8568 51.7363 27.2462C51.8484 27.6357 52.0783 27.9805 52.3941 28.2329L52.4898 28.3095L52.1632 29.0417L52.9127 28.5319L52.9867 28.5569C53.254 28.6471 53.5377 28.6779 53.8181 28.647C54.0985 28.6161 54.3688 28.5244 54.6103 28.3781C54.8519 28.2319 55.0589 28.0346 55.217 27.8C55.3752 27.5653 55.4806 27.299 55.5261 27.0193C55.5715 26.7397 55.5559 26.4534 55.4803 26.1805C55.4047 25.9075 55.271 25.6543 55.0883 25.4384C54.9056 25.2225 54.6784 25.0491 54.4224 24.9303C54.1664 24.8114 53.8877 24.7498 53.6057 24.7499Z" fill="#3F3D56"/>
<path d="M53.6056 26.9162C53.7799 26.9162 53.9211 26.7742 53.9211 26.5991C53.9211 26.4241 53.7799 26.2821 53.6056 26.2821C53.4313 26.2821 53.29 26.4241 53.29 26.5991C53.29 26.7742 53.4313 26.9162 53.6056 26.9162Z" fill="#3F3D56"/>
<path d="M52.7115 26.9162C52.8858 26.9162 53.0271 26.7742 53.0271 26.5991C53.0271 26.4241 52.8858 26.2821 52.7115 26.2821C52.5373 26.2821 52.396 26.4241 52.396 26.5991C52.396 26.7742 52.5373 26.9162 52.7115 26.9162Z" fill="#3F3D56"/>
<path d="M54.4996 26.9162C54.6739 26.9162 54.8152 26.7742 54.8152 26.5991C54.8152 26.4241 54.6739 26.2821 54.4996 26.2821C54.3254 26.2821 54.1841 26.4241 54.1841 26.5991C54.1841 26.7742 54.3254 26.9162 54.4996 26.9162Z" fill="#3F3D56"/>
</g>
<defs>
<clipPath id="clip0_30_11520">
<rect width="78" height="68" fill="white"/>
</clipPath>
</defs>
</svg>
