<svg width="76" height="55" viewBox="0 0 76 55" fill="none" xmlns="http://www.w3.org/2000/svg">
<g clip-path="url(#clip0_39_2795)">
<path d="M48.4308 41.2318V54.4901H15.1605C11.3698 54.4901 8.28564 51.5162 8.28564 47.8609C8.28564 44.2057 11.3698 41.2318 15.1605 41.2318H48.4308Z" fill="#F2F2F2"/>
<path d="M49.2482 54.3881C49.2482 54.5233 49.1943 54.653 49.0986 54.7486C49.0028 54.8442 48.8729 54.898 48.7375 54.898H14.5681C12.7123 54.898 10.9325 54.162 9.62027 52.8518C8.30802 51.5417 7.5708 49.7648 7.5708 47.9119C7.5708 46.0591 8.30802 44.2822 9.62027 42.972C10.9325 41.6619 12.7123 40.9258 14.5681 40.9258H48.7375C48.8729 40.9258 49.0028 40.9796 49.0986 41.0752C49.1944 41.1708 49.2482 41.3005 49.2482 41.4358C49.2482 41.571 49.1944 41.7007 49.0986 41.7964C49.0028 41.892 48.8729 41.9457 48.7375 41.9457H14.5681C12.9832 41.9457 11.4633 42.5743 10.3426 43.6932C9.2219 44.8121 8.59231 46.3296 8.59231 47.9119C8.59231 49.4943 9.2219 51.0118 10.3426 52.1307C11.4633 53.2496 12.9832 53.8782 14.5681 53.8782H48.7375C48.8729 53.8782 49.0028 53.9319 49.0986 54.0276C49.1943 54.1232 49.2482 54.2529 49.2482 54.3881Z" fill="#FE676E"/>
<path d="M48.431 44.2914H12.6783C12.6512 44.2914 12.6252 44.2807 12.6061 44.2615C12.5869 44.2424 12.5762 44.2165 12.5762 44.1894C12.5762 44.1624 12.5869 44.1364 12.6061 44.1173C12.6252 44.0982 12.6512 44.0874 12.6783 44.0874H48.431C48.4581 44.0874 48.4841 44.0982 48.5032 44.1173C48.5224 44.1364 48.5332 44.1624 48.5332 44.1894C48.5332 44.2165 48.5224 44.2424 48.5032 44.2615C48.4841 44.2807 48.4581 44.2914 48.431 44.2914Z" fill="#CCCCCC"/>
<path d="M48.431 46.7391H12.6783C12.6512 46.7391 12.6252 46.7283 12.6061 46.7092C12.5869 46.6901 12.5762 46.6641 12.5762 46.6371C12.5762 46.61 12.5869 46.5841 12.6061 46.565C12.6252 46.5459 12.6512 46.5351 12.6783 46.5351H48.431C48.4581 46.5351 48.4841 46.5459 48.5032 46.565C48.5224 46.5841 48.5332 46.61 48.5332 46.6371C48.5332 46.6641 48.5224 46.6901 48.5032 46.7092C48.4841 46.7283 48.4581 46.7391 48.431 46.7391Z" fill="#CCCCCC"/>
<path d="M48.431 49.1868H12.6783C12.6512 49.1868 12.6252 49.176 12.6061 49.1569C12.5869 49.1378 12.5762 49.1118 12.5762 49.0848C12.5762 49.0577 12.5869 49.0318 12.6061 49.0127C12.6252 48.9935 12.6512 48.9828 12.6783 48.9828H48.431C48.4581 48.9828 48.4841 48.9935 48.5032 49.0127C48.5224 49.0318 48.5332 49.0577 48.5332 49.0848C48.5332 49.1118 48.5224 49.1378 48.5032 49.1569C48.4841 49.176 48.4581 49.1868 48.431 49.1868Z" fill="#CCCCCC"/>
<path d="M48.431 51.6344H12.6783C12.6512 51.6344 12.6252 51.6237 12.6061 51.6046C12.5869 51.5854 12.5762 51.5595 12.5762 51.5325C12.5762 51.5054 12.5869 51.4795 12.6061 51.4603C12.6252 51.4412 12.6512 51.4305 12.6783 51.4305H48.431C48.4581 51.4305 48.4841 51.4412 48.5032 51.4603C48.5224 51.4795 48.5332 51.5054 48.5332 51.5325C48.5332 51.5595 48.5224 51.5854 48.5032 51.6046C48.4841 51.6237 48.4581 51.6344 48.431 51.6344Z" fill="#CCCCCC"/>
<path d="M74.1439 43.7275L65.8121 54.0515L39.9051 33.2105C36.9534 30.8359 36.4207 26.5882 38.7178 23.742C41.0148 20.8957 45.2853 20.5119 48.237 22.8865L74.1439 43.7275Z" fill="#F2F2F2"/>
<path d="M66.5128 54.4839C66.4278 54.5892 66.3044 54.6565 66.1697 54.6709C66.0351 54.6854 65.9001 54.6459 65.7946 54.5611L39.1876 33.1569C37.7426 31.9944 36.8192 30.3064 36.6207 28.4642C36.4222 26.622 36.9649 24.7765 38.1292 23.3337C39.2936 21.891 40.9843 20.9691 42.8295 20.7709C44.6747 20.5728 46.5231 21.1145 47.9682 22.277L74.5752 43.6812C74.6274 43.7232 74.6709 43.7751 74.7031 43.8339C74.7353 43.8927 74.7556 43.9572 74.7627 44.0238C74.7699 44.0904 74.7639 44.1578 74.745 44.2221C74.7261 44.2863 74.6948 44.3463 74.6527 44.3984C74.6106 44.4506 74.5586 44.494 74.4997 44.5261C74.4408 44.5582 74.3761 44.5784 74.3094 44.5855C74.2427 44.5927 74.1752 44.5866 74.1109 44.5677C74.0465 44.5488 73.9865 44.5174 73.9342 44.4754L47.3272 23.0712C46.7162 22.5792 46.0141 22.2123 45.261 21.9913C44.5079 21.7704 43.7186 21.6997 42.9381 21.7834C42.1576 21.867 41.4013 22.1034 40.7124 22.479C40.0234 22.8545 39.4153 23.3619 38.9228 23.9722C38.4303 24.5824 38.0631 25.2835 37.8421 26.0355C37.621 26.7875 37.5506 27.5756 37.6347 28.3548C37.7188 29.134 37.9558 29.889 38.3323 30.5767C38.7087 31.2644 39.2171 31.8713 39.8286 32.3627L66.4356 53.7669C66.541 53.8518 66.6084 53.975 66.6228 54.1095C66.6373 54.2439 66.5977 54.3786 66.5128 54.4839Z" fill="#CCCCCC"/>
<path d="M72.2212 46.11L44.3813 23.7139C44.3709 23.7055 44.3622 23.6952 44.3558 23.6834C44.3493 23.6717 44.3453 23.6588 44.3438 23.6454C44.3424 23.6321 44.3436 23.6187 44.3474 23.6058C44.3512 23.593 44.3575 23.581 44.3659 23.5705C44.3743 23.5601 44.3847 23.5514 44.3964 23.545C44.4082 23.5386 44.4212 23.5346 44.4345 23.5331C44.4478 23.5317 44.4613 23.5329 44.4742 23.5367C44.4871 23.5404 44.4991 23.5467 44.5095 23.5551L72.3494 45.9511C72.3599 45.9595 72.3686 45.9699 72.375 45.9817C72.3815 45.9934 72.3855 46.0063 72.387 46.0197C72.3884 46.033 72.3872 46.0465 72.3835 46.0593C72.3797 46.0722 72.3734 46.0842 72.365 46.0946C72.3565 46.1051 72.3461 46.1137 72.3344 46.1201C72.3226 46.1266 72.3096 46.1306 72.2963 46.132C72.2829 46.1335 72.2694 46.1322 72.2566 46.1285C72.2437 46.1247 72.2317 46.1184 72.2212 46.11Z" fill="#CCCCCC"/>
<path d="M70.6831 48.0159L42.8431 25.6199C42.8221 25.6029 42.8086 25.5783 42.8058 25.5514C42.8029 25.5245 42.8108 25.4976 42.8278 25.4766C42.8448 25.4555 42.8694 25.4421 42.8963 25.4392C42.9233 25.4363 42.9502 25.4441 42.9713 25.4611L70.8112 47.8571C70.8217 47.8655 70.8304 47.8759 70.8368 47.8876C70.8433 47.8994 70.8474 47.9123 70.8488 47.9256C70.8502 47.9389 70.849 47.9524 70.8453 47.9653C70.8415 47.9781 70.8352 47.9901 70.8268 48.0006C70.8184 48.011 70.808 48.0197 70.7962 48.0261C70.7844 48.0325 70.7715 48.0366 70.7581 48.038C70.7448 48.0394 70.7313 48.0382 70.7184 48.0344C70.7055 48.0306 70.6935 48.0243 70.6831 48.0159Z" fill="#CCCCCC"/>
<path d="M69.1451 49.9219L41.3052 27.5259C41.2841 27.5089 41.2706 27.4843 41.2677 27.4574C41.2648 27.4305 41.2727 27.4035 41.2897 27.3825C41.3067 27.3614 41.3314 27.3479 41.3583 27.3451C41.3853 27.3422 41.4122 27.3501 41.4333 27.367L69.2732 49.7631C69.2837 49.7715 69.2924 49.7818 69.2988 49.7936C69.3052 49.8053 69.3093 49.8182 69.3107 49.8316C69.3122 49.8449 69.3109 49.8583 69.3072 49.8712C69.3034 49.884 69.2971 49.896 69.2887 49.9065C69.2803 49.9169 69.2699 49.9256 69.2581 49.932C69.2463 49.9384 69.2334 49.9424 69.2201 49.9439C69.2067 49.9453 69.1933 49.9441 69.1804 49.9403C69.1675 49.9365 69.1555 49.9303 69.1451 49.9219Z" fill="#CCCCCC"/>
<path d="M67.607 51.8278L39.7671 29.4318C39.7566 29.4234 39.7479 29.413 39.7415 29.4013C39.7351 29.3895 39.731 29.3766 39.7296 29.3633C39.7282 29.35 39.7294 29.3365 39.7331 29.3237C39.7369 29.3108 39.7432 29.2989 39.7516 29.2884C39.76 29.278 39.7704 29.2693 39.7822 29.2629C39.794 29.2565 39.8069 29.2524 39.8202 29.251C39.8336 29.2496 39.8471 29.2508 39.8599 29.2546C39.8728 29.2583 39.8848 29.2646 39.8952 29.273L67.7352 51.669C67.7456 51.6774 67.7543 51.6878 67.7608 51.6995C67.7672 51.7113 67.7713 51.7242 67.7727 51.7375C67.7742 51.7509 67.773 51.7643 67.7692 51.7772C67.7654 51.7901 67.7591 51.8021 67.7507 51.8125C67.7423 51.8229 67.7319 51.8316 67.7201 51.838C67.7083 51.8444 67.6954 51.8485 67.682 51.8499C67.6687 51.8513 67.6552 51.8501 67.6423 51.8463C67.6294 51.8425 67.6174 51.8363 67.607 51.8278Z" fill="#CCCCCC"/>
<path d="M75.8979 55H0.102151C0.0750585 55 0.0490761 54.9893 0.0299191 54.9701C0.0107622 54.951 0 54.9251 0 54.898C0 54.871 0.0107622 54.845 0.0299191 54.8259C0.0490761 54.8068 0.0750585 54.796 0.102151 54.796H75.8979C75.9249 54.796 75.9509 54.8068 75.9701 54.8259C75.9892 54.845 76 54.871 76 54.898C76 54.9251 75.9892 54.951 75.9701 54.9701C75.9509 54.9893 75.9249 55 75.8979 55Z" fill="#CCCCCC"/>
<path d="M34.5352 39.8383L33.3674 39.8381L32.812 35.3409L34.5356 35.3411L34.5352 39.8383Z" fill="#FFB8B8"/>
<path d="M32.5333 39.505H34.7855V40.9208H31.1152C31.1152 40.7349 31.1519 40.5508 31.2232 40.379C31.2944 40.2072 31.3989 40.0512 31.5306 39.9197C31.6622 39.7882 31.8186 39.6839 31.9906 39.6128C32.1627 39.5416 32.3471 39.505 32.5333 39.505Z" fill="#2F2E41"/>
<path d="M22.6045 39.8383L21.4367 39.8381L20.8813 35.3409L22.6049 35.3411L22.6045 39.8383Z" fill="#FFB8B8"/>
<path d="M20.6026 39.505H22.8548V40.9208H19.1846C19.1846 40.7349 19.2212 40.5508 19.2925 40.379C19.3638 40.2072 19.4682 40.0512 19.5999 39.9197C19.7316 39.7882 19.8879 39.6839 20.06 39.6128C20.232 39.5416 20.4164 39.505 20.6026 39.505Z" fill="#2F2E41"/>
<path d="M26.5049 6.47952V5.96958C26.5049 5.09727 26.852 4.26068 27.4698 3.64386C28.0876 3.02704 28.9255 2.68051 29.7992 2.68051C30.673 2.68051 31.5109 3.02704 32.1287 3.64386C32.7465 4.26068 33.0936 5.09727 33.0936 5.96958V6.47952C33.0936 7.1084 32.8434 7.71152 32.398 8.15621C31.9526 8.60089 31.3485 8.85071 30.7186 8.85071H28.8799C28.568 8.85071 28.2592 8.78938 27.971 8.67022C27.6829 8.55106 27.421 8.3764 27.2005 8.15621C26.98 7.93602 26.805 7.67463 26.6857 7.38694C26.5663 7.09925 26.5049 6.79091 26.5049 6.47952Z" fill="#2F2E41"/>
<path d="M29.7995 9.02619C31.1851 9.02619 32.3084 7.9047 32.3084 6.52129C32.3084 5.13787 31.1851 4.01639 29.7995 4.01639C28.4138 4.01639 27.2905 5.13787 27.2905 6.52129C27.2905 7.9047 28.4138 9.02619 29.7995 9.02619Z" fill="#FFB8B8"/>
<path d="M16.1526 15.1303C16.2544 15.0343 16.3761 14.9618 16.509 14.9178C16.6419 14.8738 16.7829 14.8595 16.922 14.8758C17.061 14.8921 17.1949 14.9387 17.314 15.0122C17.4331 15.0857 17.5346 15.1844 17.6113 15.3014L19.7621 14.8952L20.3281 16.1399L17.2828 16.6709C17.0775 16.7866 16.8368 16.8232 16.6063 16.7736C16.3758 16.724 16.1716 16.5917 16.0323 16.4018C15.893 16.2119 15.8283 15.9775 15.8505 15.7432C15.8726 15.5089 15.9801 15.2908 16.1526 15.1303Z" fill="#FFB8B8"/>
<path d="M27.8717 10.6462L24.3448 12.9659L18.3937 14.8631C18.3148 14.8885 18.2472 14.9403 18.2023 15.0098C18.1573 15.0793 18.1379 15.1622 18.1473 15.2444L18.2772 16.3608C18.2829 16.4102 18.299 16.4579 18.3242 16.5007C18.3495 16.5436 18.3835 16.5807 18.424 16.6097C18.4645 16.6387 18.5106 16.6589 18.5594 16.6691C18.6082 16.6792 18.6585 16.6791 18.7072 16.6687L24.3081 15.47C24.5792 15.4124 24.8355 15.2997 25.0611 15.139L29.0233 12.3245C29.167 12.2219 29.2816 12.084 29.356 11.9241C29.4305 11.7642 29.4622 11.5878 29.4481 11.412C29.4336 11.236 29.3734 11.0668 29.2735 10.921C29.1736 10.7753 29.0374 10.658 28.8784 10.5808C28.7193 10.5035 28.5429 10.4689 28.3663 10.4804C28.1898 10.4919 28.0194 10.549 27.8717 10.6462Z" fill="#CCCCCC"/>
<path d="M33.3881 38.5621C33.2984 38.5621 33.2107 38.536 33.1357 38.4871C33.0606 38.4382 33.0014 38.3685 32.9654 38.2866L27.6117 25.0792C27.5992 25.0505 27.5782 25.0264 27.5515 25.01C27.5249 24.9936 27.4939 24.9858 27.4626 24.9876C27.4314 24.9893 27.4014 25.0006 27.3768 25.0199C27.3521 25.0391 27.334 25.0655 27.3248 25.0953L22.957 37.9532C22.9386 38.013 22.9081 38.0684 22.8674 38.1161C22.8267 38.1637 22.7767 38.2025 22.7204 38.2301C22.6641 38.2578 22.6028 38.2736 22.5401 38.2767C22.4775 38.2797 22.4149 38.27 22.3562 38.248L20.8915 37.6996C20.812 37.6702 20.7423 37.6192 20.69 37.5525C20.6378 37.4858 20.6051 37.406 20.5956 37.3218C19.9367 31.591 25.6827 17.1254 25.7408 16.98L25.7569 16.9397L30.9949 18.0965L31.0058 18.1084C33.0956 20.3845 34.8133 34.7406 35.1364 37.5954C35.1485 37.6985 35.125 37.8026 35.0698 37.8906C35.0146 37.9786 34.9311 38.0452 34.8329 38.0795L33.5401 38.536C33.4913 38.5532 33.4398 38.5621 33.3881 38.5621Z" fill="#2F2E41"/>
<path d="M28.8752 18.5622C27.6062 18.5622 26.1913 18.3095 25.7558 17.2669L25.7457 17.2429L25.7593 17.2207C26.1031 16.6576 26.5574 15.697 26.3132 15.5166C25.8321 15.1615 25.5987 14.5773 25.6194 13.7803C25.6644 12.05 26.8453 10.5138 28.5579 9.95757C29.0359 9.80484 29.5224 9.67978 30.0149 9.58304C30.3739 9.51071 30.7445 9.51867 31.1001 9.60634C31.4557 9.69401 31.7874 9.85921 32.0714 10.0901C32.359 10.3225 32.5915 10.6156 32.7522 10.9483C32.9128 11.2811 32.9976 11.6453 33.0006 12.0146C33.0185 13.8637 32.7334 16.4392 31.273 18.2073C31.2045 18.2893 31.1093 18.3446 31.004 18.3635C30.3014 18.4903 29.5892 18.5568 28.8752 18.5622Z" fill="#CCCCCC"/>
<path d="M28.4033 18.4929C28.4724 18.2456 28.6364 18.0354 28.8598 17.9082C29.0832 17.7809 29.3478 17.7468 29.5963 17.8133C29.647 17.8274 29.6965 17.8457 29.7442 17.868L31.3772 16.3842L32.5129 17.1481L30.1776 19.2114C30.0721 19.4012 29.9061 19.5504 29.706 19.6351C29.5058 19.7199 29.283 19.7354 29.073 19.6791C28.9507 19.6457 28.8362 19.5884 28.7362 19.5105C28.6362 19.4327 28.5526 19.3358 28.4904 19.2255C28.4281 19.1152 28.3883 18.9936 28.3734 18.8679C28.3584 18.7422 28.3686 18.6147 28.4033 18.4929Z" fill="#FFB8B8"/>
<path d="M31.1181 18.5118C31.0121 18.5118 30.9094 18.4752 30.8274 18.4082L30.1834 17.8828C30.1298 17.839 30.0867 17.7836 30.0575 17.7209C30.0283 17.6581 30.0136 17.5896 30.0147 17.5203C30.0158 17.4511 30.0325 17.3831 30.0637 17.3212C30.0948 17.2594 30.1396 17.2054 30.1946 17.1633L32.8956 15.095C32.9276 15.0704 32.9486 15.0341 32.9541 14.9941C32.9595 14.9541 32.9489 14.9136 32.9246 14.8814L31.2574 12.6809C31.0638 12.4261 30.9666 12.1111 30.9832 11.7916C30.9998 11.4722 31.129 11.1689 31.3481 10.9355C31.5788 10.6867 31.8947 10.5336 32.2332 10.5066C32.5717 10.4796 32.908 10.5806 33.1753 10.7895L33.1859 10.8007L34.9267 13.2894C35.115 13.4367 35.2666 13.6255 35.3696 13.8411C35.4727 14.0566 35.5245 14.293 35.5209 14.5318C35.5174 14.7706 35.4586 15.0053 35.3491 15.2177C35.2396 15.43 35.0825 15.6143 34.8899 15.756L31.3917 18.4218C31.3125 18.4802 31.2166 18.5118 31.1181 18.5118Z" fill="#CCCCCC"/>
<path d="M27.5771 5.81662V4.57379L29.7995 3.60492L31.9185 4.57379V5.81662C31.9185 5.87071 31.897 5.9226 31.8587 5.96085C31.8204 5.9991 31.7684 6.02059 31.7142 6.02059H27.7814C27.7273 6.02059 27.6753 5.9991 27.637 5.96085C27.5987 5.9226 27.5771 5.87071 27.5771 5.81662Z" fill="#2F2E41"/>
<path d="M29.6974 2.84539C29.3707 1.8012 30.0569 0.604504 31.0714 0.191185C32.0859 -0.222133 33.2997 0.0667892 34.1557 0.749653C35.0118 1.43252 35.5429 2.45532 35.8243 3.51259C36.1057 4.56987 36.1592 5.67235 36.2111 6.76509C37.4576 6.99368 38.3055 8.46972 37.8737 9.6593C37.4419 10.8489 35.8437 11.4399 34.7399 10.8181C33.6362 10.1963 33.3165 8.52497 34.1131 7.54089C34.49 7.07525 34.7006 6.49736 34.7114 5.89876C34.7223 5.30015 34.5327 4.71505 34.1729 4.23612C33.8131 3.75719 33.3035 3.41181 32.7248 3.25468C32.1462 3.09755 31.5316 3.13766 30.9783 3.36865C30.364 3.62513 29.5932 2.95872 29.6974 2.84539Z" fill="#2F2E41"/>
<path d="M15.692 10.3091C14.1996 10.2993 12.7259 9.97708 11.3661 9.36319C11.2852 9.32717 11.2165 9.26842 11.1684 9.1941C11.1203 9.11979 11.0948 9.03311 11.0952 8.94463V5.23049C11.0954 5.10881 11.1438 4.99215 11.23 4.90611C11.3162 4.82008 11.433 4.77168 11.5549 4.77155H19.8291C19.951 4.77168 20.0678 4.82008 20.154 4.90612C20.2402 4.99216 20.2886 5.10881 20.2888 5.23049V8.94464C20.2891 9.03312 20.2637 9.11979 20.2156 9.19411C20.1675 9.26842 20.0988 9.32717 20.0179 9.36319C18.658 9.97708 17.1843 10.2993 15.692 10.3091Z" fill="#FE676E"/>
<path d="M15.6909 7.3002C15.6295 7.30025 15.5688 7.28806 15.5122 7.26434L8.95091 4.50054C8.8663 4.46491 8.79431 4.40478 8.74425 4.32792C8.69418 4.25106 8.66832 4.16099 8.67 4.06931C8.67168 3.97764 8.70083 3.88858 8.75369 3.8136C8.80654 3.73862 8.88068 3.68117 8.96655 3.64865L15.528 1.16346C15.6336 1.12325 15.7505 1.1235 15.856 1.16416L22.3295 3.64934C22.4149 3.68212 22.4885 3.73959 22.541 3.81439C22.5935 3.88919 22.6224 3.97792 22.6241 4.06923C22.6258 4.16054 22.6002 4.25028 22.5505 4.32696C22.5008 4.40364 22.4293 4.46379 22.3452 4.4997L15.8717 7.26345C15.8145 7.28775 15.753 7.30025 15.6909 7.3002Z" fill="#FE676E"/>
<path d="M11.861 9.61592C12.1994 9.61592 12.4739 9.34195 12.4739 9.00399C12.4739 8.66604 12.1994 8.39207 11.861 8.39207C11.5225 8.39207 11.248 8.66604 11.248 9.00399C11.248 9.34195 11.5225 9.61592 11.861 9.61592Z" fill="#3F3D56"/>
<path opacity="0.2" d="M22.3675 4.10738L15.894 6.87114C15.8435 6.89269 15.7892 6.90386 15.7343 6.90399C15.6794 6.90412 15.6251 6.89321 15.5745 6.87191L9.01316 4.10819C8.93076 4.07431 8.86201 4.01398 8.81778 3.93674C8.78885 3.98683 8.77092 4.04249 8.76519 4.10003C8.75946 4.15756 8.76605 4.21566 8.78452 4.27046C8.803 4.32525 8.83294 4.3755 8.87236 4.41786C8.91178 4.46022 8.95977 4.49372 9.01316 4.51614L15.5745 7.27986C15.6251 7.30116 15.6794 7.31207 15.7343 7.31194C15.7892 7.31181 15.8435 7.30063 15.894 7.27909L22.3675 4.51533C22.4207 4.49271 22.4684 4.45911 22.5075 4.41673C22.5466 4.37435 22.5763 4.32417 22.5946 4.26949C22.6129 4.21481 22.6194 4.15687 22.6136 4.09952C22.6078 4.04216 22.5899 3.98668 22.5611 3.93674C22.5172 4.01336 22.4491 4.07335 22.3675 4.10738Z" fill="black"/>
<path d="M11.9127 9.0016C11.9398 9.0016 11.9658 8.99085 11.9849 8.97173C12.0041 8.9526 12.0148 8.92666 12.0148 8.89961V5.48699L15.3839 4.26161C15.411 4.26201 15.4371 4.25165 15.4566 4.23281C15.476 4.21397 15.4872 4.18819 15.4876 4.16114C15.488 4.13409 15.4776 4.10799 15.4587 4.08858C15.4399 4.06917 15.414 4.05804 15.3869 4.05763L12.0179 5.28302C11.9908 5.28239 11.9638 5.28727 11.9387 5.29736C11.9135 5.30744 11.8906 5.32252 11.8715 5.34168C11.8521 5.36061 11.8367 5.38322 11.8263 5.40818C11.8158 5.43314 11.8105 5.45993 11.8105 5.48699V8.89961C11.8105 8.92666 11.8213 8.9526 11.8405 8.97172C11.8596 8.99085 11.8856 9.00159 11.9127 9.0016Z" fill="#3F3D56"/>
</g>
<defs>
<clipPath id="clip0_39_2795">
<rect width="76" height="55" fill="white"/>
</clipPath>
</defs>
</svg>
