<svg width="90" height="68" viewBox="0 0 90 68" fill="none" xmlns="http://www.w3.org/2000/svg">
<g clip-path="url(#clip0_30_11714)">
<path d="M83.271 61.8083C80.3222 64.0413 76.7296 66.3033 73.1975 67.3698C72.1793 67.6864 71.1286 67.8885 70.0651 67.9724C69.0709 68.0519 68.0702 67.9746 67.1001 67.7436C64.551 67.1131 62.1866 66.009 59.8988 64.719C59.1514 64.2969 58.4125 63.8555 57.678 63.4044C56.4791 62.6676 55.292 61.905 54.1017 61.1607C53.9235 61.0479 53.7463 60.9373 53.5681 60.8277H53.567C53.2797 60.6483 52.9916 60.4715 52.7029 60.2971C52.6521 60.266 52.6014 60.2359 52.5495 60.2048C52.004 59.8761 51.4492 59.555 50.885 59.2413C50.8159 59.2037 50.7467 59.1651 50.6776 59.1275C49.586 58.5254 48.4641 57.9794 47.3162 57.4917C46.5623 57.1759 45.7986 56.8913 45.0274 56.6485H45.0263C44.7314 56.5562 44.4355 56.4692 44.1384 56.3897C43.2477 56.1467 42.3401 55.97 41.423 55.8612C40.1592 55.7091 38.881 55.7192 37.6198 55.8913C37.5344 55.9031 37.4502 55.915 37.3649 55.9289C33.9516 56.4724 30.8365 58.3047 27.4081 58.7365C27.2968 58.7505 27.1867 58.7634 27.0754 58.773C27.0279 58.7773 26.9803 58.7827 26.9328 58.7859C25.9365 58.8707 24.9339 58.8462 23.943 58.7129C21.1746 58.3498 18.4785 57.2232 16.0515 55.8032C10.3775 52.4833 5.77604 47.3804 2.97847 41.471C2.49806 40.4582 2.07154 39.421 1.70066 38.3637C0.663713 35.4318 0.0926633 32.3571 0.0080701 29.2503C-0.254405 18.471 5.90565 7.65623 15.5773 2.78106C25.25 -2.09411 37.9741 -0.481942 45.7749 7.0075C50.507 11.5508 53.2451 17.7073 56.8064 23.2076C60.3676 28.7068 65.4292 33.96 71.9576 34.7613C75.2833 35.1694 78.7635 34.38 81.951 35.4068C83.716 35.976 85.2217 37.0651 86.4347 38.4528C87.2502 39.3945 87.9327 40.4424 88.4632 41.5676C88.8521 42.381 89.1676 43.2271 89.4062 44.096C89.4505 44.256 89.4915 44.416 89.5315 44.5761C91.1193 51.0247 88.582 57.7849 83.271 61.8083Z" fill="#F2F2F2"/>
<path d="M30.1538 50.1343H20.0005C18.4793 50.1343 17.2461 51.3605 17.2461 52.8731V52.8731C17.2461 54.3858 18.4793 55.612 20.0005 55.612H30.1538C31.675 55.612 32.9082 54.3858 32.9082 52.8731C32.9082 51.3605 31.675 50.1343 30.1538 50.1343Z" fill="#3F3D56"/>
<path d="M27.0753 54.2157V58.773C26.0323 58.8733 24.9812 58.8531 23.9429 58.7128V54.2157H27.0753Z" fill="#3F3D56"/>
<path d="M37.6199 55.8912C37.5346 55.9031 37.4503 55.9149 37.365 55.9288C33.9517 56.4723 30.8366 58.3047 27.4082 58.7364C27.297 58.7504 27.1868 58.7633 27.0755 58.773C27.028 58.7773 26.9805 58.7826 26.9329 58.7858C26.0958 57.9706 25.2587 57.1028 24.4724 56.2038C24.0457 55.7172 23.6331 55.221 23.2453 54.7184C22.2386 53.4209 21.3853 52.0869 20.8215 50.7766C20.8787 50.1482 20.4856 48.695 20.2976 47.5823L20.2965 47.5812C20.2166 47.114 20.1734 46.708 20.2134 46.447C20.4424 44.9412 21.6791 45.1141 22.0593 43.6383C22.4023 43.3553 22.7675 43.0999 23.1514 42.8747C23.2151 42.8371 23.2799 42.7995 23.3469 42.7619L27.473 39.9264L29.05 41.4644L31.4501 43.8059L34.0511 46.3418L31.8433 48.5597C31.8433 48.5597 33.6882 50.6745 35.8452 53.4939C36.4242 54.2511 37.0258 55.0599 37.6199 55.8912Z" fill="#2F2E41"/>
<path d="M73.1974 54.2157V67.3698C72.1791 67.6864 71.1284 67.8885 70.0649 67.9723V54.2157H73.1974Z" fill="#3F3D56"/>
<path d="M77.2481 53.1416H67.0947C65.5735 53.1416 64.3403 54.3679 64.3403 55.8805V55.8805C64.3403 57.3931 65.5735 58.6194 67.0947 58.6194H77.2481C78.7693 58.6194 80.0024 57.3931 80.0024 55.8805C80.0024 54.3679 78.7693 53.1416 77.2481 53.1416Z" fill="#3F3D56"/>
<path d="M52.5496 60.2047C52.0041 59.876 51.4493 59.5549 50.8851 59.2413C50.816 59.2037 50.7469 59.165 50.6777 59.1274L51.0493 58.9695L52.0517 58.541L52.0614 58.5367L52.0722 58.5732L52.5496 60.2047Z" fill="#FFB6B6"/>
<path d="M54.1015 61.1606C53.9233 61.0478 53.7461 60.9372 53.5679 60.8276H53.5668C53.2795 60.6483 52.9915 60.4714 52.7027 60.297C52.6519 60.2659 52.6012 60.2358 52.5493 60.2047C52.0038 59.876 51.449 59.5549 50.8848 59.2412C50.8157 59.2036 50.7466 59.165 50.6774 59.1274C49.5858 58.5253 48.4639 57.9793 47.316 57.4916C46.5621 57.1758 45.7984 56.8912 45.0272 56.6485H45.0261L44.4202 55.6399L41.6928 51.0977L41.0933 50.0999C41.0933 50.0999 39.0486 50.7014 36.1549 51.2781C35.1018 51.4887 33.9374 51.6949 32.7157 51.8689C31.4098 52.0536 30.0402 52.2008 28.6792 52.2716C28.0301 52.306 27.383 52.3232 26.7458 52.3178C25.0985 52.3071 23.5161 52.1535 22.1303 51.7883C21.668 51.3565 20.2746 50.769 19.2766 50.2309H19.2755C18.8564 50.0054 18.5086 49.7895 18.326 49.5972C17.274 48.4909 18.1727 47.6285 17.2373 46.4212C17.2247 45.9783 17.2474 45.5351 17.3053 45.0958C17.315 45.0228 17.3247 44.9487 17.3366 44.8735L17.6315 39.8941L19.822 39.6063L23.1554 39.1681L26.7663 38.6933L27.1638 41.7888C27.1638 41.7888 29.9754 41.647 33.5377 41.6943C39.2592 41.7716 46.9153 42.3387 47.9522 44.7725C48.0494 45.0013 48.1467 45.2322 48.2439 45.4632C48.475 46.0152 48.704 46.5702 48.9308 47.128C49.7528 49.1472 50.537 51.1858 51.2532 53.1126C51.6982 54.3113 52.1173 55.467 52.5029 56.5486C52.8129 57.4186 53.1002 58.2413 53.3627 58.9985C53.6025 59.6902 53.8196 60.3271 54.0129 60.8985C54.0432 60.9877 54.0723 61.0757 54.1015 61.1606Z" fill="#2F2E41"/>
<path d="M33.9511 30.9915L27.0322 25.1485L31.5337 20.6184L34.6742 25.7334L46.3154 28.0284C46.6654 27.7664 47.0846 27.6114 47.5217 27.5822C47.9588 27.553 48.395 27.6509 48.7771 27.864C49.1592 28.0771 49.4707 28.3961 49.6736 28.7822C49.8765 29.1682 49.9621 29.6047 49.9199 30.0383C49.8777 30.4719 49.7095 30.8839 49.4359 31.2241C49.1623 31.5643 48.795 31.818 48.3789 31.9542C47.9628 32.0904 47.5158 32.1033 47.0924 31.9913C46.6691 31.8793 46.2876 31.6472 45.9946 31.3234L33.9511 30.9915Z" fill="#A0616A"/>
<path d="M20.9172 17.4693C20.1176 20.0559 27.7329 26.2251 27.7329 26.2251C27.8175 25.6041 32.1351 30.9588 32.4289 30.4739C33.2637 29.0956 34.1823 25.6887 35.1461 25.2533C35.6973 25.0043 32.5354 21.5431 32.5354 21.5431C32.5354 21.5431 30.9224 19.4212 28.7928 16.7319C28.2049 15.9605 27.4303 15.3496 26.5411 14.9559C25.6519 14.5623 24.6769 14.3987 23.7071 14.4806C23.7071 14.4806 21.7168 14.8827 20.9172 17.4693Z" fill="#3F3D56"/>
<path d="M24.2846 11.7431C26.8691 11.7431 28.9642 9.65973 28.9642 7.0898C28.9642 4.51986 26.8691 2.43652 24.2846 2.43652C21.7001 2.43652 19.605 4.51986 19.605 7.0898C19.605 9.65973 21.7001 11.7431 24.2846 11.7431Z" fill="#A0616A"/>
<path d="M26.6242 14.8186C27.6324 15.4145 28.2355 16.5096 28.5816 17.6239C29.2226 19.6868 29.6084 21.8198 29.7305 23.9756L30.0962 30.4295L34.6248 44.1719C30.7 47.4742 15.9471 44.9224 15.9471 44.9224C15.9471 44.9224 15.4942 44.7723 15.9471 44.322C16.4 43.8716 16.8408 44.2706 16.388 43.8203C15.9351 43.37 16.2473 43.8717 16.3983 43.4213C16.5492 42.971 16.3983 43.2712 16.2473 43.1211C16.0963 42.971 17.4159 41.6201 17.4159 41.6201L16.2083 33.7318L14.6987 17.8207C16.5102 15.5691 20.1533 14.2418 20.1533 14.2418L21.0946 12.5569L25.8013 12.9313L26.6242 14.8186Z" fill="#3F3D56"/>
<path d="M28.1419 4.61758C28.5057 4.88732 28.7751 5.26371 28.9124 5.69374C28.9651 4.99098 28.9685 4.28541 28.9224 3.58219C28.8673 3.08803 28.5174 2.97688 28.1123 2.84808C27.7464 2.73172 27.3326 2.60027 27.2213 2.12056C25.7503 0.697593 23.1896 0.769347 21.4371 1.2657C20.4728 1.53883 19.9179 1.88975 19.8683 2.09533L19.858 2.13765L19.8188 2.15712C19.0755 2.52668 18.9308 3.6937 18.9404 4.60761C18.9585 6.32949 19.5564 8.2851 19.8932 8.44396C19.911 8.45237 19.9155 8.44908 19.9232 8.44268C20.4304 8.03966 21.0492 8.47331 21.3211 8.70905C21.4815 7.63888 21.9979 6.65301 22.7878 5.90891C23.5778 5.16482 24.5957 4.7054 25.679 4.60405C26.0328 4.57005 26.3838 4.51153 26.7294 4.42892C26.9047 4.38383 27.0849 4.36031 27.266 4.3589C27.5777 4.3542 27.8834 4.44446 28.1419 4.61758Z" fill="#2F2E41"/>
<path d="M22.2456 38.0022L20.8141 37.2732C20.7374 37.2189 20.6829 37.1389 20.6606 37.0479C20.6383 36.9569 20.6496 36.861 20.6925 36.7777C20.7355 36.6943 20.8071 36.6291 20.8944 36.5939C20.9817 36.5588 21.0788 36.556 21.168 36.5861L22.5995 37.3151C22.6761 37.3695 22.7306 37.4494 22.7529 37.5404C22.7753 37.6314 22.7639 37.7273 22.721 37.8107C22.678 37.894 22.6064 37.9592 22.5191 37.9944C22.4318 38.0296 22.3347 38.0323 22.2456 38.0022Z" fill="#FE676E"/>
<path d="M17.4276 36.0491L15.0728 27.3318L21.3655 26.1472L21.0271 32.1308L29.2953 40.5963C29.733 40.5785 30.1665 40.6878 30.5429 40.9107C30.9192 41.1337 31.2222 41.4607 31.4149 41.8519C31.6076 42.2431 31.6817 42.6816 31.6281 43.114C31.5745 43.5463 31.3955 43.9538 31.113 44.2868C30.8305 44.6197 30.4567 44.8638 30.0371 44.9891C29.6176 45.1145 29.1704 45.1158 28.7501 44.9928C28.3299 44.8698 27.9547 44.6278 27.6703 44.2965C27.3859 43.9651 27.2046 43.5586 27.1486 43.1266L17.4276 36.0491Z" fill="#A0616A"/>
<path d="M14.429 17.5578C12.293 19.2346 15.0346 28.6137 15.0346 28.6137C15.4591 28.1505 15.9523 34.9963 16.4711 34.7632C17.9457 34.1007 20.6483 31.8162 21.6902 32.0024C22.2861 32.1089 21.6618 27.4742 21.6618 27.4742C21.6618 27.4742 21.547 24.8168 21.3312 21.4006C21.2882 20.4337 20.9999 19.4933 20.4931 18.667C19.9863 17.8406 19.2774 17.1552 18.4326 16.6746C18.4326 16.6746 16.565 15.8811 14.429 17.5578Z" fill="#3F3D56"/>
<path d="M88.4633 41.5675L2.97849 41.4709C2.49809 40.4581 2.07156 39.4209 1.70068 38.3636L86.4348 38.4528C87.2503 39.3944 87.9327 40.4424 88.4633 41.5675Z" fill="#3F3D56"/>
<path d="M61.2362 64.1035C60.7944 64.3162 60.3487 64.5213 59.899 64.719C59.1515 64.2969 58.4127 63.8554 57.6782 63.4043L60.4023 62.2142L61.2362 64.1035Z" fill="#FFB6B6"/>
<path d="M81.098 49.3029C80.6551 49.8937 80.1982 50.4726 79.7273 51.0397C79.293 51.5628 78.8473 52.0758 78.39 52.5788C78.201 52.7872 78.0098 52.9945 77.8143 53.1996C77.4546 53.5831 77.087 53.9601 76.7115 54.3306C76.0353 54.5422 74.6657 54.9149 73.1978 55.2629C72.1295 55.5153 71.0094 55.7548 70.0654 55.9073C69.5369 56.0017 69.0023 56.0584 68.4657 56.0771C67.8284 56.0824 67.1814 56.0652 66.5322 56.0309C65.7999 55.9922 65.0665 55.9321 64.3417 55.8547C62.4568 55.6582 60.6314 55.3521 59.0565 55.0374C58.4797 54.9235 57.9375 54.8075 57.4385 54.6947C56.4934 54.4831 55.7027 54.2855 55.1302 54.1351C54.4854 53.9676 54.1181 53.8591 54.1181 53.8591L52.5033 56.5486L51.6651 57.9438L51.0494 58.9695L50.8853 59.2412C50.8161 59.2037 50.747 59.165 50.6779 59.1274C49.5863 58.5253 48.4643 57.9793 47.3165 57.4916C46.5625 57.1758 45.7989 56.8912 45.0276 56.6485H45.0266C44.7317 56.5561 44.4357 56.4691 44.1387 56.3896C44.2316 56.1415 44.3255 55.8916 44.4206 55.6399C44.5977 55.1705 44.7785 54.6969 44.9628 54.2189C45.3614 53.1835 45.774 52.1331 46.1985 51.088C46.5463 50.2299 46.9006 49.3749 47.2592 48.5318C47.4245 48.1429 47.7604 47.8014 48.2303 47.5017C48.4548 47.3609 48.6891 47.236 48.9313 47.128C50.2761 46.519 52.257 46.1226 54.44 45.8681C54.6204 45.8477 54.8019 45.8273 54.9844 45.8079C56.7915 45.6189 58.7087 45.5212 60.5018 45.4761C61.3994 45.4535 62.2657 45.4449 63.0714 45.4438C63.3318 45.4438 63.5849 45.4445 63.8308 45.446H63.8319C64.4962 45.4492 65.1075 45.4589 65.6454 45.4696C65.7502 45.4718 65.8517 45.475 65.9511 45.4771H65.9522C66.0192 45.4782 66.0851 45.4803 66.1499 45.4814C67.3261 45.5115 68.0477 45.548 68.0477 45.548L68.3274 43.3655L68.3847 42.9252L68.4387 42.5063V42.5052L68.4452 42.4526L68.4895 42.4515L69.2672 42.4365L75.8042 42.3097L79.3751 42.2399L78.8092 44.6522L77.8748 48.6327C77.9699 49.2621 81.1304 48.7691 81.098 49.3029Z" fill="#2F2E41"/>
<path d="M62.0417 63.7061C61.7749 63.8415 61.506 63.9746 61.2359 64.1035C60.7941 64.3162 60.3484 64.5213 59.8987 64.719C59.1512 64.2969 58.4124 63.8554 57.6779 63.4043C56.479 62.6675 55.2919 61.9049 54.1016 61.1606C53.9233 61.0478 53.7462 60.9372 53.568 60.8276H53.5669C53.0765 60.1037 52.5764 59.3497 52.072 58.5732C52.0644 58.5624 52.0579 58.5517 52.0514 58.5409C51.9218 58.3433 51.7929 58.1443 51.6648 57.9438C50.8579 56.6871 50.0467 55.3768 49.2593 54.0385L51.2532 53.1126L54.9603 51.392L55.5997 51.0956L57.4381 54.6947L59.0778 57.9051L59.4429 58.6194L62.0417 63.7061Z" fill="#2F2E41"/>
<path d="M62.6005 46.4263L72.0519 37.363L74.6715 29.9875L70.8075 28.3167C68.8228 30.2072 66.6774 36.0955 66.6774 36.0955L60.1735 44.3233C60.1228 44.3406 60.0723 44.3589 60.0224 44.3808C59.7294 44.5093 59.4748 44.7107 59.283 44.9656C59.0912 45.2205 58.9688 45.5203 58.9276 45.836C58.8864 46.1517 58.9278 46.4727 59.0477 46.7678C59.1677 47.063 59.3622 47.3224 59.6125 47.5209C59.8628 47.7195 60.1603 47.8505 60.4763 47.9013C60.7924 47.9521 61.1163 47.9209 61.4167 47.8109C61.7171 47.7008 61.9839 47.5156 62.1913 47.2731C62.3987 47.0305 62.5396 46.7389 62.6005 46.4263Z" fill="#FFB8B8"/>
<path d="M69.7202 29.1402L74.6214 30.6874L74.6399 30.6844C76.4641 30.3805 77.9778 27.4179 78.9264 24.986C79.2385 24.1839 79.2327 23.2939 78.9101 22.4959C78.5875 21.6978 77.9723 21.0514 77.1887 20.6872C76.6089 20.4224 75.9661 20.3241 75.3331 20.4035C74.7 20.483 74.1019 20.7369 73.6064 21.1366L71.0896 23.1815L69.7202 29.1402Z" fill="#FE676E"/>
<path d="M81.0779 49.4117L81.1066 49.3739C82.6358 47.3572 80.5443 42.3631 80.2281 41.6388L81.6499 41.22L81.4021 38.528L81.2827 37.3276L82.3883 36.2837L82.392 36.257L83.1523 30.8768L84.1471 27.3159C84.522 25.9697 84.53 24.5485 84.17 23.1983C83.8101 21.848 83.0953 20.6174 82.0991 19.6326L80.0654 17.6248L77.629 13.8327L73.544 13.7278L72.075 16.3227C70.7089 16.5999 69.484 17.3449 68.6135 18.4278C67.743 19.5108 67.2821 20.8631 67.3112 22.2492L67.4495 29.1571L65.9838 37.716L65.9426 39.2707L64.504 40.7803L64.77 42.3065L63.6938 42.7327L63.1672 44.9014C62.9661 45.1516 61.6381 46.8208 61.626 47.2861C61.6242 47.356 61.6743 47.4248 61.7837 47.5026C62.6432 48.1141 67.4477 49.4392 69.61 48.6426C71.9132 47.7947 80.9401 49.3871 81.031 49.4033L81.0779 49.4117Z" fill="#FE676E"/>
<path d="M75.2298 12.5654C78.2187 12.5654 80.6417 10.156 80.6417 7.18392C80.6417 4.21183 78.2187 1.80247 75.2298 1.80247C72.2409 1.80247 69.8179 4.21183 69.8179 7.18392C69.8179 10.156 72.2409 12.5654 75.2298 12.5654Z" fill="#FFB8B8"/>
<path d="M74.5698 12.6374C75.4079 12.6504 76.2456 12.5921 77.0737 12.4634C77.8945 12.2974 79.7308 10.9593 80.2427 10.1541C80.623 9.5559 80.8662 8.6217 81.0032 7.9434C81.1878 7.04579 81.1808 6.11963 80.9826 5.2249C80.7843 4.33016 80.3993 3.48681 79.8525 2.74943C79.6423 2.44101 79.3522 2.1948 79.0129 2.03686C78.9828 2.02517 78.9518 2.0148 78.9206 2.00594C78.4261 1.87658 77.9818 1.6032 77.6447 1.22092C77.5794 1.1436 77.5085 1.07106 77.4326 1.00387C77.0516 0.684164 76.6 0.45865 76.1146 0.345762C75.331 0.137243 74.1971 0.344226 72.7443 0.961559C72.0144 1.27172 71.2162 1.15947 70.6021 1.02702C70.5677 1.0204 70.5321 1.02287 70.4989 1.03418C70.4657 1.04548 70.4361 1.06523 70.413 1.09146C70.1517 1.33535 69.8073 1.47187 69.449 1.47358C69.2295 1.48316 68.9992 1.78535 68.7208 2.17942C68.6577 2.26888 68.584 2.37328 68.5308 2.43678L68.5237 2.31478L68.3996 2.45088C68.2044 2.66477 68.0669 2.92431 67.9997 3.2053C67.9326 3.48629 67.9381 3.7796 68.0156 4.05792C68.0932 4.33624 68.2403 4.59052 68.4433 4.79708C68.6463 5.00363 68.8986 5.15575 69.1766 5.23926C69.3974 5.29767 69.6236 5.33352 69.8517 5.34624C69.9899 5.3586 70.1328 5.37138 70.2698 5.39501C70.7094 5.48452 71.1181 5.68585 71.4561 5.97933C71.7941 6.27281 72.0497 6.64842 72.1981 7.06949C72.2332 7.16682 72.2904 7.25483 72.3651 7.32673C72.4398 7.39862 72.5302 7.45248 72.6292 7.48414C72.7281 7.5158 72.8331 7.52442 72.936 7.50933C73.0389 7.49424 73.1369 7.45585 73.2224 7.39711C73.3651 7.28664 73.5326 7.21212 73.7105 7.1799C73.8884 7.14769 74.0715 7.15874 74.2442 7.21212C74.3934 7.29463 74.5095 7.42565 74.5732 7.5832C74.6505 7.75874 74.7786 7.9074 74.9412 8.01022C75.4975 8.29539 75.5358 9.5587 75.336 10.6118C75.1435 11.627 74.7628 12.3613 74.4104 12.3976C74.139 12.4255 74.108 12.4447 74.0884 12.4924L74.0708 12.5351L74.1013 12.5751C74.2511 12.6291 74.411 12.6503 74.5698 12.6374Z" fill="#2F2E41"/>
<path d="M71.0643 27.5132L68.9776 23.3764C65.9487 23.5821 59.9373 27.0644 59.9373 27.0644L48.5636 29.4623C48.2266 29.3336 47.8615 29.2953 47.505 29.3514C47.1485 29.4076 46.8131 29.5561 46.5326 29.7821C46.2522 30.008 46.0365 30.3035 45.9074 30.6387C45.7783 30.9739 45.7403 31.337 45.7971 31.6914C45.854 32.0459 46.0038 32.3792 46.2314 32.6578C46.459 32.9364 46.7564 33.1505 47.0936 33.2785C47.4309 33.4065 47.7961 33.4438 48.1525 33.3869C48.5089 33.3299 48.8439 33.1806 49.1238 32.9539L63.5919 31.9227L71.0643 27.5132Z" fill="#FFB8B8"/>
<path d="M70.2223 28.1924L75.672 24.1653L76.632 20.7254C76.8179 20.0494 76.8101 19.3352 76.6093 18.6634C76.4084 17.9916 76.0227 17.389 75.4955 16.9238C74.7767 16.298 73.8457 15.9669 72.8908 15.9976C71.9358 16.0282 71.0282 16.4183 70.3514 17.0889C68.3006 19.1243 65.9615 21.964 66.464 23.9331L66.4691 23.9531L70.2223 28.1924Z" fill="#FE676E"/>
<path d="M63.4765 38.964H48.8945V40.8973H63.4765V38.964Z" fill="white"/>
<path d="M26.2113 38.964H11.6294V40.8973H26.2113V38.964Z" fill="white"/>
<path d="M27.9141 29.6667V38.8719C27.9142 38.9892 27.9611 39.1017 28.0445 39.1846C28.1279 39.2676 28.241 39.3142 28.359 39.3143H42.0773C42.1953 39.3142 42.3084 39.2676 42.3918 39.1846C42.4752 39.1017 42.5221 38.9892 42.5222 38.8719V29.6667C42.5219 29.5495 42.475 29.4372 42.3916 29.3544C42.3082 29.2715 42.1952 29.225 42.0773 29.2248H28.359C28.2411 29.225 28.1281 29.2715 28.0447 29.3544C27.9613 29.4372 27.9143 29.5495 27.9141 29.6667Z" fill="#3F3D56"/>
<path d="M28.2358 29.7813V38.7583C28.2359 38.821 28.261 38.8811 28.3056 38.9254C28.3502 38.9697 28.4106 38.9947 28.4736 38.9948H41.9631C42.0261 38.9947 42.0865 38.9697 42.1311 38.9254C42.1756 38.8811 42.2007 38.821 42.2008 38.7583V29.7813C42.2008 29.7185 42.1758 29.6583 42.1312 29.6139C42.0866 29.5695 42.0262 29.5445 41.9631 29.5443H28.4736C28.4105 29.5445 28.35 29.5695 28.3055 29.6139C28.2609 29.6583 28.2358 29.7185 28.2358 29.7813Z" fill="#FE676E"/>
<path d="M27.6272 40.6671C27.6523 40.6985 27.6843 40.7237 27.7206 40.741C27.757 40.7583 27.7968 40.7672 27.8371 40.767H42.5262C42.5664 40.7669 42.606 40.758 42.6423 40.7408C42.6785 40.7236 42.7105 40.6986 42.7358 40.6675C42.7611 40.6365 42.7791 40.6003 42.7886 40.5614C42.798 40.5226 42.7987 40.4822 42.7904 40.4431L42.5624 39.3661C42.5529 39.3222 42.5326 39.2813 42.5032 39.2472C42.4738 39.2131 42.4363 39.1869 42.3941 39.1709C42.3635 39.1589 42.331 39.1528 42.2982 39.1529H28.0642C28.0314 39.1528 27.9989 39.1589 27.9683 39.1709C27.9261 39.1869 27.8886 39.2131 27.8592 39.2472C27.8298 39.2813 27.8095 39.3222 27.8 39.3661L27.572 40.4431C27.5639 40.4822 27.5646 40.5225 27.5742 40.5613C27.5837 40.6001 27.6018 40.6362 27.6272 40.6671Z" fill="#2F2E41"/>
<path d="M41.7942 39.6167H42.1411C42.1702 39.6167 42.1938 39.5933 42.1938 39.5643V39.3993C42.1938 39.3703 42.1702 39.3468 42.1411 39.3468H41.7942C41.765 39.3468 41.7414 39.3703 41.7414 39.3993V39.5643C41.7414 39.5933 41.765 39.6167 41.7942 39.6167Z" fill="#3F3D56"/>
<path d="M40.8894 39.6167H41.2363C41.2655 39.6167 41.2891 39.5933 41.2891 39.5643V39.3993C41.2891 39.3703 41.2655 39.3468 41.2363 39.3468H40.8894C40.8603 39.3468 40.8366 39.3703 40.8366 39.3993V39.5643C40.8366 39.5933 40.8603 39.6167 40.8894 39.6167Z" fill="#3F3D56"/>
<path d="M39.9846 39.6167H40.3315C40.3607 39.6167 40.3843 39.5933 40.3843 39.5643V39.3993C40.3843 39.3703 40.3607 39.3468 40.3315 39.3468H39.9846C39.9555 39.3468 39.9319 39.3703 39.9319 39.3993V39.5643C39.9319 39.5933 39.9555 39.6167 39.9846 39.6167Z" fill="#3F3D56"/>
<path d="M39.0798 39.6167H39.4268C39.4559 39.6167 39.4795 39.5933 39.4795 39.5643V39.3993C39.4795 39.3703 39.4559 39.3468 39.4268 39.3468H39.0798C39.0507 39.3468 39.0271 39.3703 39.0271 39.3993V39.5643C39.0271 39.5933 39.0507 39.6167 39.0798 39.6167Z" fill="#3F3D56"/>
<path d="M38.1745 39.6167H38.5215C38.5506 39.6167 38.5742 39.5933 38.5742 39.5643V39.3993C38.5742 39.3703 38.5506 39.3468 38.5215 39.3468H38.1745C38.1454 39.3468 38.1218 39.3703 38.1218 39.3993V39.5643C38.1218 39.5933 38.1454 39.6167 38.1745 39.6167Z" fill="#3F3D56"/>
<path d="M37.2697 39.6167H37.6167C37.6458 39.6167 37.6694 39.5933 37.6694 39.5643V39.3993C37.6694 39.3703 37.6458 39.3468 37.6167 39.3468H37.2697C37.2406 39.3468 37.217 39.3703 37.217 39.3993V39.5643C37.217 39.5933 37.2406 39.6167 37.2697 39.6167Z" fill="#3F3D56"/>
<path d="M36.365 39.6167H36.7119C36.741 39.6167 36.7646 39.5933 36.7646 39.5643V39.3993C36.7646 39.3703 36.741 39.3468 36.7119 39.3468H36.365C36.3358 39.3468 36.3122 39.3703 36.3122 39.3993V39.5643C36.3122 39.5933 36.3358 39.6167 36.365 39.6167Z" fill="#3F3D56"/>
<path d="M35.4602 39.6167H35.8071C35.8363 39.6167 35.8599 39.5933 35.8599 39.5643V39.3993C35.8599 39.3703 35.8363 39.3468 35.8071 39.3468H35.4602C35.4311 39.3468 35.4074 39.3703 35.4074 39.3993V39.5643C35.4074 39.5933 35.4311 39.6167 35.4602 39.6167Z" fill="#3F3D56"/>
<path d="M34.5554 39.6167H34.9023C34.9315 39.6167 34.9551 39.5933 34.9551 39.5643V39.3993C34.9551 39.3703 34.9315 39.3468 34.9023 39.3468H34.5554C34.5263 39.3468 34.5027 39.3703 34.5027 39.3993V39.5643C34.5027 39.5933 34.5263 39.6167 34.5554 39.6167Z" fill="#3F3D56"/>
<path d="M33.6506 39.6167H33.9976C34.0267 39.6167 34.0503 39.5933 34.0503 39.5643V39.3993C34.0503 39.3703 34.0267 39.3468 33.9976 39.3468H33.6506C33.6215 39.3468 33.5979 39.3703 33.5979 39.3993V39.5643C33.5979 39.5933 33.6215 39.6167 33.6506 39.6167Z" fill="#3F3D56"/>
<path d="M32.7458 39.6167H33.0928C33.1219 39.6167 33.1455 39.5933 33.1455 39.5643V39.3993C33.1455 39.3703 33.1219 39.3468 33.0928 39.3468H32.7458C32.7167 39.3468 32.6931 39.3703 32.6931 39.3993V39.5643C32.6931 39.5933 32.7167 39.6167 32.7458 39.6167Z" fill="#3F3D56"/>
<path d="M31.841 39.6167H32.188C32.2171 39.6167 32.2407 39.5933 32.2407 39.5643V39.3993C32.2407 39.3703 32.2171 39.3468 32.188 39.3468H31.841C31.8119 39.3468 31.7883 39.3703 31.7883 39.3993V39.5643C31.7883 39.5933 31.8119 39.6167 31.841 39.6167Z" fill="#3F3D56"/>
<path d="M30.9363 39.6167H31.2832C31.3123 39.6167 31.3359 39.5933 31.3359 39.5643V39.3993C31.3359 39.3703 31.3123 39.3468 31.2832 39.3468H30.9363C30.9071 39.3468 30.8835 39.3703 30.8835 39.3993V39.5643C30.8835 39.5933 30.9071 39.6167 30.9363 39.6167Z" fill="#3F3D56"/>
<path d="M30.0315 39.6167H30.3784C30.4075 39.6167 30.4312 39.5933 30.4312 39.5643V39.3993C30.4312 39.3703 30.4075 39.3468 30.3784 39.3468H30.0315C30.0023 39.3468 29.9787 39.3703 29.9787 39.3993V39.5643C29.9787 39.5933 30.0023 39.6167 30.0315 39.6167Z" fill="#3F3D56"/>
<path d="M29.1262 39.6167H29.4731C29.5023 39.6167 29.5259 39.5933 29.5259 39.5643V39.3993C29.5259 39.3703 29.5023 39.3468 29.4731 39.3468H29.1262C29.0971 39.3468 29.0735 39.3703 29.0735 39.3993V39.5643C29.0735 39.5933 29.0971 39.6167 29.1262 39.6167Z" fill="#3F3D56"/>
<path d="M28.2214 39.6167H28.5684C28.5975 39.6167 28.6211 39.5933 28.6211 39.5643V39.3993C28.6211 39.3703 28.5975 39.3468 28.5684 39.3468H28.2214C28.1923 39.3468 28.1687 39.3703 28.1687 39.3993V39.5643C28.1687 39.5933 28.1923 39.6167 28.2214 39.6167Z" fill="#3F3D56"/>
<path d="M41.8049 40.0666H42.1519C42.181 40.0666 42.2046 40.0431 42.2046 40.0142V39.8491C42.2046 39.8202 42.181 39.7967 42.1519 39.7967H41.8049C41.7758 39.7967 41.7522 39.8202 41.7522 39.8491V40.0142C41.7522 40.0431 41.7758 40.0666 41.8049 40.0666Z" fill="#3F3D56"/>
<path d="M40.9001 40.0666H41.2471C41.2762 40.0666 41.2998 40.0431 41.2998 40.0142V39.8491C41.2998 39.8202 41.2762 39.7967 41.2471 39.7967H40.9001C40.871 39.7967 40.8474 39.8202 40.8474 39.8491V40.0142C40.8474 40.0431 40.871 40.0666 40.9001 40.0666Z" fill="#3F3D56"/>
<path d="M39.9953 40.0666H40.3423C40.3714 40.0666 40.395 40.0431 40.395 40.0142V39.8491C40.395 39.8202 40.3714 39.7967 40.3423 39.7967H39.9953C39.9662 39.7967 39.9426 39.8202 39.9426 39.8491V40.0142C39.9426 40.0431 39.9662 40.0666 39.9953 40.0666Z" fill="#3F3D56"/>
<path d="M39.0901 40.0666H39.437C39.4661 40.0666 39.4897 40.0431 39.4897 40.0142V39.8491C39.4897 39.8202 39.4661 39.7967 39.437 39.7967H39.0901C39.0609 39.7967 39.0373 39.8202 39.0373 39.8491V40.0142C39.0373 40.0431 39.0609 40.0666 39.0901 40.0666Z" fill="#3F3D56"/>
<path d="M38.1853 40.0666H38.5322C38.5613 40.0666 38.585 40.0431 38.585 40.0142V39.8491C38.585 39.8202 38.5613 39.7967 38.5322 39.7967H38.1853C38.1562 39.7967 38.1325 39.8202 38.1325 39.8491V40.0142C38.1325 40.0431 38.1562 40.0666 38.1853 40.0666Z" fill="#3F3D56"/>
<path d="M37.2805 40.0666H37.6274C37.6566 40.0666 37.6802 40.0431 37.6802 40.0142V39.8491C37.6802 39.8202 37.6566 39.7967 37.6274 39.7967H37.2805C37.2514 39.7967 37.2278 39.8202 37.2278 39.8491V40.0142C37.2278 40.0431 37.2514 40.0666 37.2805 40.0666Z" fill="#3F3D56"/>
<path d="M36.3757 40.0666H36.7227C36.7518 40.0666 36.7754 40.0431 36.7754 40.0142V39.8491C36.7754 39.8202 36.7518 39.7967 36.7227 39.7967H36.3757C36.3466 39.7967 36.323 39.8202 36.323 39.8491V40.0142C36.323 40.0431 36.3466 40.0666 36.3757 40.0666Z" fill="#3F3D56"/>
<path d="M35.4709 40.0666H35.8179C35.847 40.0666 35.8706 40.0431 35.8706 40.0142V39.8491C35.8706 39.8202 35.847 39.7967 35.8179 39.7967H35.4709C35.4418 39.7967 35.4182 39.8202 35.4182 39.8491V40.0142C35.4182 40.0431 35.4418 40.0666 35.4709 40.0666Z" fill="#3F3D56"/>
<path d="M34.5661 40.0666H34.9131C34.9422 40.0666 34.9658 40.0431 34.9658 40.0142V39.8491C34.9658 39.8202 34.9422 39.7967 34.9131 39.7967H34.5661C34.537 39.7967 34.5134 39.8202 34.5134 39.8491V40.0142C34.5134 40.0431 34.537 40.0666 34.5661 40.0666Z" fill="#3F3D56"/>
<path d="M33.6614 40.0666H34.0083C34.0374 40.0666 34.061 40.0431 34.061 40.0142V39.8491C34.061 39.8202 34.0374 39.7967 34.0083 39.7967H33.6614C33.6322 39.7967 33.6086 39.8202 33.6086 39.8491V40.0142C33.6086 40.0431 33.6322 40.0666 33.6614 40.0666Z" fill="#3F3D56"/>
<path d="M32.7566 40.0666H33.1035C33.1326 40.0666 33.1562 40.0431 33.1562 40.0142V39.8491C33.1562 39.8202 33.1326 39.7967 33.1035 39.7967H32.7566C32.7274 39.7967 32.7038 39.8202 32.7038 39.8491V40.0142C32.7038 40.0431 32.7274 40.0666 32.7566 40.0666Z" fill="#3F3D56"/>
<path d="M31.8518 40.0666H32.1987C32.2279 40.0666 32.2515 40.0431 32.2515 40.0142V39.8491C32.2515 39.8202 32.2279 39.7967 32.1987 39.7967H31.8518C31.8227 39.7967 31.799 39.8202 31.799 39.8491V40.0142C31.799 40.0431 31.8227 40.0666 31.8518 40.0666Z" fill="#3F3D56"/>
<path d="M30.947 40.0666H31.2939C31.3231 40.0666 31.3467 40.0431 31.3467 40.0142V39.8491C31.3467 39.8202 31.3231 39.7967 31.2939 39.7967H30.947C30.9179 39.7967 30.8943 39.8202 30.8943 39.8491V40.0142C30.8943 40.0431 30.9179 40.0666 30.947 40.0666Z" fill="#3F3D56"/>
<path d="M30.0417 40.0666H30.3887C30.4178 40.0666 30.4414 40.0431 30.4414 40.0142V39.8491C30.4414 39.8202 30.4178 39.7967 30.3887 39.7967H30.0417C30.0126 39.7967 29.989 39.8202 29.989 39.8491V40.0142C29.989 40.0431 30.0126 40.0666 30.0417 40.0666Z" fill="#3F3D56"/>
<path d="M29.1369 40.0666H29.4839C29.513 40.0666 29.5366 40.0431 29.5366 40.0142V39.8491C29.5366 39.8202 29.513 39.7967 29.4839 39.7967H29.1369C29.1078 39.7967 29.0842 39.8202 29.0842 39.8491V40.0142C29.0842 40.0431 29.1078 40.0666 29.1369 40.0666Z" fill="#3F3D56"/>
<path d="M28.2321 40.0666H28.5791C28.6082 40.0666 28.6318 40.0431 28.6318 40.0142V39.8491C28.6318 39.8202 28.6082 39.7967 28.5791 39.7967H28.2321C28.203 39.7967 28.1794 39.8202 28.1794 39.8491V40.0142C28.1794 40.0431 28.203 40.0666 28.2321 40.0666Z" fill="#3F3D56"/>
<path d="M34.2947 40.6065H37.8086C37.8377 40.6065 37.8613 40.583 37.8613 40.554V40.389C37.8613 40.36 37.8377 40.3365 37.8086 40.3365H34.2947C34.2656 40.3365 34.242 40.36 34.242 40.389V40.554C34.242 40.583 34.2656 40.6065 34.2947 40.6065Z" fill="#3F3D56"/>
</g>
<defs>
<clipPath id="clip0_30_11714">
<rect width="90" height="68" fill="white"/>
</clipPath>
</defs>
</svg>
