<svg width="69" height="63" viewBox="0 0 69 63" fill="none" xmlns="http://www.w3.org/2000/svg">
<g clip-path="url(#clip0_30_11688)">
<path d="M59.4644 5.79288L1.64844 22.6557L3.17982 27.9172L60.9958 11.0544L59.4644 5.79288Z" fill="#3F3D56"/>
<path d="M8.5561 46.8237L0.0344835 17.5452C-0.0286934 17.3282 -0.00314015 17.0949 0.105518 16.8967C0.214176 16.6985 0.397039 16.5516 0.613882 16.4883L57.0282 0.0342928C57.2451 -0.0287377 57.478 -0.00307106 57.676 0.105662C57.8739 0.214395 58.0207 0.397309 58.0841 0.614253L65.6336 26.5529L65.4 26.621L57.8505 0.6824C57.8051 0.527504 57.7003 0.396925 57.5589 0.31927C57.4175 0.241616 57.2512 0.223217 57.0963 0.268107L0.681942 16.7221C0.527054 16.7673 0.396438 16.8722 0.318825 17.0138C0.241212 17.1554 0.22296 17.3221 0.268084 17.4771L8.7897 46.7556L8.5561 46.8237Z" fill="#3F3D56"/>
<path d="M53.1469 26.6733C52.9758 26.6732 52.8093 26.6175 52.6724 26.5147C52.5355 26.4119 52.4355 26.2675 52.3874 26.103L50.9581 21.1923C50.8997 20.9907 50.9235 20.7742 51.0244 20.5902C51.1252 20.4062 51.2949 20.2698 51.4961 20.2109L56.4017 18.7801C56.6031 18.7216 56.8194 18.7455 57.0032 18.8465C57.187 18.9475 57.3232 19.1173 57.3821 19.3187L58.8114 24.2295C58.8698 24.431 58.846 24.6475 58.7451 24.8315C58.6442 25.0155 58.4746 25.1519 58.2734 25.2109L53.3678 26.6416C53.296 26.6626 53.2217 26.6733 53.1469 26.6733Z" fill="#FE676E"/>
<path d="M8.42445 17.6358C8.40976 17.5853 8.39229 17.5357 8.37212 17.4872C8.23496 17.1539 7.97961 16.8832 7.65514 16.7269C7.33067 16.5707 6.95997 16.54 6.61427 16.6408C6.26857 16.7415 5.97226 16.9666 5.78227 17.2728C5.59229 17.5789 5.52203 17.9446 5.58501 18.2995C5.59385 18.3513 5.60563 18.4025 5.62029 18.4529C5.70913 18.7565 5.8938 19.0231 6.14667 19.2127C6.39953 19.4024 6.70698 19.505 7.02296 19.5051C7.16092 19.5054 7.2982 19.4858 7.43052 19.4467C7.80193 19.338 8.11514 19.0864 8.30147 18.7469C8.48779 18.4074 8.53202 18.0078 8.42445 17.6358ZM7.36239 19.2129C7.05265 19.3028 6.7199 19.2662 6.43711 19.111C6.15432 18.9557 5.94458 18.6945 5.85386 18.3847C5.83962 18.3343 5.82824 18.283 5.81976 18.2313C5.77413 17.9389 5.83645 17.6399 5.99507 17.3901C6.15369 17.1404 6.39774 16.9571 6.68159 16.8744C6.96544 16.7917 7.26966 16.8154 7.53736 16.9409C7.80506 17.0665 8.0179 17.2853 8.1361 17.5566C8.15814 17.6042 8.17645 17.6535 8.19087 17.7039C8.28065 18.014 8.24383 18.3471 8.08849 18.63C7.93316 18.9129 7.67201 19.1225 7.36239 19.2129Z" fill="#FE676E"/>
<path d="M4.84354 18.6795C4.76568 18.4118 4.77316 18.1265 4.86493 17.8633C4.9567 17.6001 5.12819 17.3721 5.35551 17.2111C5.14253 17.2007 4.93016 17.2414 4.73609 17.3298C4.54201 17.4182 4.37185 17.5518 4.23977 17.7194C4.1077 17.8869 4.01754 18.0837 3.9768 18.2932C3.93606 18.5027 3.94593 18.7189 4.00557 18.9239C4.06522 19.1288 4.17292 19.3165 4.3197 19.4713C4.46648 19.6261 4.64809 19.7436 4.84941 19.8139C5.05073 19.8843 5.26592 19.9054 5.47706 19.8756C5.6882 19.8459 5.88918 19.766 6.06325 19.6427C5.7851 19.6291 5.51812 19.529 5.29949 19.3564C5.08086 19.1837 4.92148 18.9471 4.84354 18.6795Z" fill="#FE676E"/>
<path d="M42.662 24.7151C42.6361 24.6219 42.5921 24.5347 42.5326 24.4585C42.473 24.3824 42.399 24.3187 42.3148 24.2712C42.2306 24.2237 42.1379 24.1933 42.042 24.1817C41.9461 24.1701 41.8488 24.1775 41.7557 24.2036L33.6789 26.4651L32.8091 26.7087H38.2714L39.1413 26.4651L42.1523 25.6224C42.34 25.5696 42.4991 25.4444 42.5947 25.2743C42.6902 25.1042 42.7144 24.903 42.662 24.7151Z" fill="#CCCCCC"/>
<path d="M36.948 23.0259C36.8954 22.838 36.7704 22.6786 36.6004 22.5829C36.4304 22.4872 36.2295 22.463 36.0417 22.5157L23.9223 25.9085C23.7529 25.9566 23.6063 26.0636 23.5088 26.2103C23.4113 26.357 23.3694 26.5338 23.3906 26.7087H26.5282L27.3992 26.4651L36.4383 23.9344C36.6261 23.8815 36.7853 23.7561 36.8809 23.5857C36.9765 23.4154 37.0006 23.2141 36.948 23.0259Z" fill="#CCCCCC"/>
<path d="M68.1484 26.4648H9.38822C9.16244 26.4651 8.94598 26.555 8.78633 26.7148C8.62668 26.8746 8.53687 27.0913 8.53662 27.3173V62.1475C8.53686 62.3735 8.62666 62.5902 8.78632 62.75C8.94597 62.9099 9.16243 62.9997 9.38822 63H68.1484C68.3742 62.9997 68.5906 62.9098 68.7503 62.75C68.9099 62.5902 68.9997 62.3735 69 62.1475V27.3173C68.9997 27.0913 68.9099 26.8746 68.7503 26.7148C68.5906 26.555 68.3742 26.4651 68.1484 26.4648ZM68.7567 62.1475C68.7566 62.309 68.6925 62.4638 68.5784 62.578C68.4644 62.6922 68.3097 62.7564 68.1484 62.7564H9.38822C9.22691 62.7564 9.07222 62.6922 8.95816 62.578C8.8441 62.4638 8.77999 62.309 8.77993 62.1475V27.3173C8.78 27.1558 8.84411 27.001 8.95817 26.8868C9.07223 26.7726 9.22691 26.7084 9.38822 26.7084H68.1484C68.3097 26.7084 68.4644 26.7726 68.5784 26.8868C68.6925 27.001 68.7566 27.1558 68.7567 27.3173V62.1475Z" fill="#3F3D56"/>
<path d="M15.1059 31.2147C14.8171 31.2147 14.5349 31.129 14.2948 30.9684C14.0547 30.8078 13.8676 30.5796 13.7571 30.3125C13.6466 30.0455 13.6177 29.7516 13.674 29.4682C13.7304 29.1847 13.8694 28.9243 14.0736 28.7199C14.2778 28.5155 14.5379 28.3763 14.8211 28.3199C15.1043 28.2635 15.3978 28.2925 15.6645 28.4031C15.9313 28.5137 16.1593 28.701 16.3197 28.9413C16.4801 29.1817 16.5658 29.4642 16.5658 29.7533C16.5653 30.1407 16.4114 30.5122 16.1377 30.7861C15.864 31.0601 15.4929 31.2142 15.1059 31.2147ZM15.1059 28.5354C14.8653 28.5354 14.6301 28.6068 14.43 28.7407C14.2299 28.8745 14.074 29.0647 13.9819 29.2872C13.8898 29.5097 13.8657 29.7546 13.9127 29.9909C13.9596 30.2271 14.0755 30.4441 14.2456 30.6144C14.4158 30.7847 14.6325 30.9007 14.8685 30.9477C15.1045 30.9947 15.3491 30.9706 15.5714 30.8784C15.7937 30.7862 15.9837 30.6301 16.1174 30.4299C16.2511 30.2296 16.3224 29.9941 16.3224 29.7533C16.3221 29.4304 16.1938 29.1208 15.9657 28.8925C15.7376 28.6642 15.4284 28.5358 15.1059 28.5354Z" fill="#FE676E"/>
<path d="M12.8367 29.7533C12.8367 29.4745 12.9236 29.2027 13.0853 28.9757C13.2469 28.7487 13.4753 28.5778 13.7385 28.4869C13.537 28.4173 13.3217 28.3969 13.1107 28.4274C12.8996 28.4579 12.6989 28.5385 12.5253 28.6624C12.3517 28.7863 12.2101 28.95 12.1125 29.1397C12.0148 29.3294 11.9639 29.5398 11.9639 29.7533C11.9639 29.9667 12.0148 30.1771 12.1125 30.3668C12.2101 30.5566 12.3517 30.7202 12.5253 30.8441C12.6989 30.968 12.8996 31.0486 13.1107 31.0791C13.3217 31.1096 13.537 31.0892 13.7385 31.0196C13.4753 30.9287 13.2469 30.7578 13.0853 30.5308C12.9236 30.3038 12.8367 30.032 12.8367 29.7533Z" fill="#FE676E"/>
<path d="M21.0236 47.0196C20.7333 47.0192 20.455 46.9036 20.2498 46.6982C20.0445 46.4927 19.929 46.2141 19.9287 45.9235V42.6353C19.9287 42.3446 20.0441 42.0659 20.2494 41.8603C20.4547 41.6548 20.7332 41.5393 21.0236 41.5393C21.314 41.5393 21.5925 41.6548 21.7978 41.8603C22.0032 42.0659 22.1185 42.3446 22.1185 42.6353V45.9235C22.1182 46.2141 22.0027 46.4927 21.7975 46.6982C21.5922 46.9036 21.3139 47.0192 21.0236 47.0196Z" fill="#FE676E"/>
<path d="M23.943 47.0196C23.6528 47.0192 23.3745 46.9036 23.1692 46.6982C22.9639 46.4927 22.8485 46.2141 22.8481 45.9235V42.6353C22.8481 42.3446 22.9635 42.0659 23.1688 41.8603C23.3742 41.6548 23.6527 41.5393 23.943 41.5393C24.2334 41.5393 24.5119 41.6548 24.7173 41.8603C24.9226 42.0659 25.038 42.3446 25.038 42.6353V45.9235C25.0376 46.2141 24.9222 46.4927 24.7169 46.6982C24.5116 46.9036 24.2333 47.0192 23.943 47.0196Z" fill="#FE676E"/>
<path d="M26.863 47.0196C26.5727 47.0192 26.2944 46.9036 26.0891 46.6982C25.8839 46.4927 25.7684 46.2141 25.7681 45.9235V42.6353C25.7681 42.3446 25.8834 42.0659 26.0888 41.8603C26.2941 41.6548 26.5726 41.5393 26.863 41.5393C27.1534 41.5393 27.4319 41.6548 27.6372 41.8603C27.8425 42.0659 27.9579 42.3446 27.9579 42.6353V45.9235C27.9576 46.2141 27.8421 46.4927 27.6368 46.6982C27.4316 46.9036 27.1533 47.0192 26.863 47.0196Z" fill="#FE676E"/>
<path d="M31.3644 47.0196C31.0742 47.0192 30.7959 46.9036 30.5906 46.6982C30.3853 46.4927 30.2699 46.2141 30.2695 45.9235V42.6353C30.2695 42.3446 30.3849 42.0659 30.5902 41.8603C30.7956 41.6548 31.0741 41.5393 31.3644 41.5393C31.6548 41.5393 31.9333 41.6548 32.1387 41.8603C32.344 42.0659 32.4593 42.3446 32.4593 42.6353V45.9235C32.459 46.2141 32.3436 46.4927 32.1383 46.6982C31.933 46.9036 31.6547 47.0192 31.3644 47.0196Z" fill="#FE676E"/>
<path d="M34.2839 47.0196C33.9936 47.0192 33.7153 46.9036 33.51 46.6982C33.3048 46.4927 33.1893 46.2141 33.189 45.9235V42.6353C33.189 42.3446 33.3043 42.0659 33.5097 41.8603C33.715 41.6548 33.9935 41.5393 34.2839 41.5393C34.5743 41.5393 34.8528 41.6548 35.0581 41.8603C35.2634 42.0659 35.3788 42.3446 35.3788 42.6353V45.9235C35.3785 46.2141 35.263 46.4927 35.0577 46.6982C34.8525 46.9036 34.5742 47.0192 34.2839 47.0196Z" fill="#FE676E"/>
<path d="M37.2038 47.0196C36.9135 47.0192 36.6352 46.9036 36.43 46.6982C36.2247 46.4927 36.1092 46.2141 36.1089 45.9235V42.6353C36.1089 42.3446 36.2242 42.0659 36.4296 41.8603C36.6349 41.6548 36.9134 41.5393 37.2038 41.5393C37.4942 41.5393 37.7727 41.6548 37.978 41.8603C38.1833 42.0659 38.2987 42.3446 38.2987 42.6353V45.9235C38.2984 46.2141 38.1829 46.4927 37.9776 46.6982C37.7724 46.9036 37.4941 47.0192 37.2038 47.0196Z" fill="#FE676E"/>
<path d="M41.7053 47.0196C41.415 47.0192 41.1367 46.9036 40.9314 46.6982C40.7262 46.4927 40.6107 46.2141 40.6104 45.9235V42.6353C40.6104 42.3446 40.7257 42.0659 40.931 41.8603C41.1364 41.6548 41.4149 41.5393 41.7053 41.5393C41.9956 41.5393 42.2741 41.6548 42.4795 41.8603C42.6848 42.0659 42.8002 42.3446 42.8002 42.6353V45.9235C42.7998 46.2141 42.6844 46.4927 42.4791 46.6982C42.2739 46.9036 41.9955 47.0192 41.7053 47.0196Z" fill="#FE676E"/>
<path d="M44.6247 47.0196C44.3344 47.0192 44.0561 46.9036 43.8508 46.6982C43.6456 46.4927 43.5301 46.2141 43.5298 45.9235V42.6353C43.5298 42.3446 43.6451 42.0659 43.8505 41.8603C44.0558 41.6548 44.3343 41.5393 44.6247 41.5393C44.9151 41.5393 45.1936 41.6548 45.3989 41.8603C45.6042 42.0659 45.7196 42.3446 45.7196 42.6353V45.9235C45.7193 46.2141 45.6038 46.4927 45.3985 46.6982C45.1933 46.9036 44.915 47.0192 44.6247 47.0196Z" fill="#FE676E"/>
<path d="M47.5446 47.0196C47.2543 47.0192 46.976 46.9036 46.7708 46.6982C46.5655 46.4927 46.45 46.2141 46.4497 45.9235V42.6353C46.4497 42.3446 46.5651 42.0659 46.7704 41.8603C46.9757 41.6548 47.2542 41.5393 47.5446 41.5393C47.835 41.5393 48.1135 41.6548 48.3188 41.8603C48.5242 42.0659 48.6395 42.3446 48.6395 42.6353V45.9235C48.6392 46.2141 48.5237 46.4927 48.3185 46.6982C48.1132 46.9036 47.8349 47.0192 47.5446 47.0196Z" fill="#FE676E"/>
<path d="M52.0461 47.0196C51.7558 47.0192 51.4775 46.9036 51.2722 46.6982C51.067 46.4927 50.9515 46.2141 50.9512 45.9235V42.6353C50.9512 42.3446 51.0665 42.0659 51.2719 41.8603C51.4772 41.6548 51.7557 41.5393 52.0461 41.5393C52.3365 41.5393 52.615 41.6548 52.8203 41.8603C53.0256 42.0659 53.141 42.3446 53.141 42.6353V45.9235C53.1407 46.2141 53.0252 46.4927 52.8199 46.6982C52.6147 46.9036 52.3364 47.0192 52.0461 47.0196Z" fill="#FE676E"/>
<path d="M54.9655 47.0196C54.6752 47.0192 54.3969 46.9036 54.1917 46.6982C53.9864 46.4927 53.8709 46.2141 53.8706 45.9235V42.6353C53.8706 42.3446 53.986 42.0659 54.1913 41.8603C54.3966 41.6548 54.6751 41.5393 54.9655 41.5393C55.2559 41.5393 55.5344 41.6548 55.7397 41.8603C55.9451 42.0659 56.0604 42.3446 56.0604 42.6353V45.9235C56.0601 46.2141 55.9446 46.4927 55.7394 46.6982C55.5341 46.9036 55.2558 47.0192 54.9655 47.0196Z" fill="#FE676E"/>
<path d="M57.8854 47.0196C57.5952 47.0192 57.3169 46.9036 57.1116 46.6982C56.9063 46.4927 56.7909 46.2141 56.7905 45.9235V42.6353C56.7905 42.3446 56.9059 42.0659 57.1112 41.8603C57.3166 41.6548 57.595 41.5393 57.8854 41.5393C58.1758 41.5393 58.4543 41.6548 58.6597 41.8603C58.865 42.0659 58.9803 42.3446 58.9803 42.6353V45.9235C58.98 46.2141 58.8646 46.4927 58.6593 46.6982C58.454 46.9036 58.1757 47.0192 57.8854 47.0196Z" fill="#FE676E"/>
<path d="M28.4468 59.2183H12.6996C12.5044 59.2183 12.3173 59.1407 12.1794 59.0026C12.0414 58.8645 11.9639 58.6771 11.9639 58.4818C11.9639 58.2865 12.0414 58.0992 12.1794 57.961C12.3173 57.8229 12.5044 57.7453 12.6996 57.7453H28.4468C28.642 57.7453 28.8291 57.8229 28.9671 57.961C29.105 58.0992 29.1825 58.2865 29.1825 58.4818C29.1825 58.6771 29.105 58.8645 28.9671 59.0026C28.8291 59.1407 28.642 59.2183 28.4468 59.2183Z" fill="#E6E6E6"/>
<path d="M23.3982 56.0519H17.7484C17.5533 56.0519 17.3661 55.9743 17.2282 55.8362C17.0902 55.6981 17.0127 55.5107 17.0127 55.3154C17.0127 55.1201 17.0902 54.9328 17.2282 54.7947C17.3661 54.6565 17.5533 54.5789 17.7484 54.5789H23.3982C23.5933 54.5789 23.7804 54.6565 23.9184 54.7947C24.0564 54.9328 24.1339 55.1201 24.1339 55.3154C24.1339 55.5107 24.0564 55.6981 23.9184 55.8362C23.7804 55.9743 23.5933 56.0519 23.3982 56.0519Z" fill="#E6E6E6"/>
<path d="M68.713 33.7451H8.73633V33.9887H68.713V33.7451Z" fill="#3F3D56"/>
</g>
<defs>
<clipPath id="clip0_30_11688">
<rect width="69" height="63" fill="white"/>
</clipPath>
</defs>
</svg>
