<svg width="82" height="56" viewBox="0 0 82 56" fill="none" xmlns="http://www.w3.org/2000/svg">
<g clip-path="url(#clip0_39_2861)">
<path d="M48.2544 41.0823C59.6186 41.0823 68.8311 31.8857 68.8311 20.5412C68.8311 9.19659 59.6186 0 48.2544 0C36.8902 0 27.6777 9.19659 27.6777 20.5412C27.6777 31.8857 36.8902 41.0823 48.2544 41.0823Z" fill="#D7D6D6"/>
<path d="M11.6052 49.6642C12.1641 49.8604 12.7642 49.9095 13.3476 49.8069C13.9311 49.7043 14.4783 49.4534 14.9364 49.0784C16.1032 48.1008 16.469 46.4902 16.7666 44.9989L17.6471 40.5878L15.8038 41.8547C14.4783 42.7659 13.1229 43.7062 12.2051 45.0259C11.2873 46.3457 10.8867 48.1472 11.6241 49.5752" fill="#2F2E41"/>
<path d="M11.7628 55.0048C11.5762 53.6483 11.3844 52.2743 11.5152 50.9032C11.6315 49.6855 12.0036 48.4962 12.7612 47.521C13.1634 47.0044 13.6527 46.5617 14.2072 46.213C14.3518 46.1219 14.4849 46.3506 14.3409 46.4413C13.3815 47.0467 12.6393 47.9406 12.2216 48.9941C11.7601 50.1657 11.686 51.4428 11.7656 52.6874C11.8136 53.4401 11.9155 54.1878 12.0182 54.9345C12.0263 54.9683 12.0213 55.0039 12.0041 55.034C11.9869 55.0642 11.9589 55.0868 11.9257 55.0972C11.8919 55.1063 11.8557 55.1017 11.8252 55.0844C11.7947 55.0671 11.7723 55.0385 11.7628 55.0048Z" fill="#D7D6D6"/>
<path d="M24.1089 53.1364C24.3271 53.3937 24.6079 53.5905 24.9244 53.708C25.2409 53.8254 25.5824 53.8595 25.9159 53.807C26.7719 53.6621 27.4168 52.9754 27.9938 52.3278L29.7004 50.4123L28.4283 50.5049C27.5135 50.5714 26.5755 50.6437 25.7432 51.0285C24.9109 51.4133 24.1937 52.1838 24.1439 53.0981" fill="#2F2E41"/>
<path d="M22.6441 55.8076C22.9441 55.0869 23.2465 54.3562 23.7067 53.7197C24.1155 53.1544 24.6419 52.6768 25.2959 52.4153C25.6429 52.277 26.0113 52.2002 26.3846 52.1883C26.482 52.1851 26.4814 52.3359 26.3844 52.339C25.7379 52.3606 25.1149 52.5865 24.6052 52.9843C24.0401 53.4276 23.6349 54.0342 23.3146 54.669C23.1209 55.0529 22.9551 55.4498 22.79 55.8465C22.7842 55.8655 22.7715 55.8815 22.7543 55.8914C22.7371 55.9013 22.7168 55.9043 22.6975 55.8999C22.6782 55.8946 22.6618 55.882 22.6518 55.8647C22.6418 55.8474 22.639 55.8269 22.6441 55.8076Z" fill="#D7D6D6"/>
<path d="M13.5596 52.6044C13.7993 52.9681 14.1288 53.264 14.5163 53.4637C14.9039 53.6633 15.3364 53.76 15.7722 53.7444C16.8923 53.6913 17.8261 52.9109 18.6666 52.17L21.1529 49.9786L19.5074 49.9C18.3241 49.8435 17.1102 49.7908 15.9831 50.155C14.856 50.5193 13.8165 51.3961 13.6104 52.5607" fill="#2F2E41"/>
<path d="M11.2357 55.7846C12.1336 54.1985 13.1752 52.4358 15.0362 51.8724C15.5536 51.7163 16.0962 51.6603 16.6347 51.7076C16.8044 51.7222 16.7621 51.9834 16.5927 51.9688C15.69 51.894 14.7891 52.1319 14.0416 52.6425C13.3223 53.1313 12.7623 53.8108 12.2883 54.5314C11.9979 54.9728 11.7378 55.4329 11.4777 55.8923C11.3946 56.0392 11.1516 55.9332 11.2357 55.7846Z" fill="#D7D6D6"/>
<path d="M50.0138 28.7119C51.7992 27.7323 54.0213 27.9289 55.9449 28.5986C57.8686 29.2684 59.6118 30.3656 61.4799 31.1772C67.1884 33.6572 74.0686 33.2573 79.4502 30.1327C79.9592 31.3146 79.4132 32.6665 78.8134 33.8051C78.2136 34.9437 77.5301 36.1778 77.777 37.4404C78.0929 39.0561 79.7899 40.0249 80.4774 41.5211C81.1301 42.9415 80.7798 44.6096 80.2791 46.0902C79.7783 47.5708 79.1285 49.0625 79.2136 50.6229C79.2987 52.1833 80.4343 53.8333 81.9998 53.8346C79.6799 54.1944 77.3143 54.5545 74.9958 54.1857C72.6773 53.817 70.3711 52.5929 69.2946 50.5101C68.7565 49.4691 68.5491 48.2721 67.9311 47.2762C66.8786 45.58 64.8587 44.7823 62.9528 44.1811C61.0469 43.5799 59.0073 43.0008 57.6655 41.522C56.3869 40.113 55.9819 38.1503 55.3045 36.3735C54.1636 33.3991 52.1821 30.8194 49.6006 28.9478" fill="#FE676E"/>
<path d="M52.0825 21.3297C51.4558 21.0386 50.6863 20.9432 50.0486 21.2137C49.4108 21.4841 48.976 22.1774 49.1823 22.7909C49.2758 23.0691 49.4887 23.3427 49.4057 23.6236C49.3419 23.8398 49.1191 23.9826 48.9004 24.0841C48.6816 24.1856 48.4423 24.271 48.2841 24.4422C48.1259 24.6134 48.0929 24.9081 48.2905 25.0409C48.3556 25.0846 48.437 25.1054 48.5002 25.1515C48.554 25.1951 48.5928 25.2544 48.6112 25.3212C48.6297 25.3879 48.6268 25.4587 48.603 25.5237C48.5504 25.6545 48.4634 25.7687 48.3512 25.8544C48.1269 26.0475 47.8303 26.2686 47.9 26.5428C47.9258 26.6161 47.969 26.682 48.0259 26.7351C48.0827 26.7882 48.1515 26.8268 48.2265 26.8476C48.3822 26.8924 48.5437 26.9137 48.7058 26.9108L55.3262 27.119C55.5447 27.1353 55.7645 27.1231 55.9798 27.0825C56.0845 27.0634 56.1841 27.023 56.2724 26.9638C56.3608 26.9046 56.4359 26.8278 56.4932 26.7382C56.62 26.504 56.5367 26.2154 56.3802 25.9967C56.2236 25.7779 56.002 25.6054 55.8189 25.4045C55.6358 25.2036 55.486 24.9529 55.5183 24.6933C55.5441 24.4854 55.6814 24.3058 55.78 24.117C55.8785 23.9282 55.9358 23.6922 55.8081 23.5185C55.6283 23.2737 55.1964 23.2958 54.9919 23.0677C54.8375 22.8956 54.8673 22.6478 54.852 22.4258C54.8151 21.8919 54.4448 21.3876 53.9176 21.1535C53.6496 21.0386 53.358 20.989 53.067 21.0088C52.776 21.0286 52.4938 21.1172 52.2438 21.2673L52.0825 21.3297Z" fill="#2F2E41"/>
<path d="M47.8992 54.8439L46.8623 54.5329L47.5705 50.3923L49.1008 50.8513L47.8992 54.8439Z" fill="#A0616A"/>
<path d="M47.8614 55.9266L44.5181 54.9238L44.5308 54.8816C44.5821 54.711 44.6666 54.5522 44.7794 54.4141C44.8923 54.2761 45.0312 54.1617 45.1884 54.0773C45.3455 53.9929 45.5178 53.9402 45.6953 53.9223C45.8728 53.9044 46.0522 53.9215 46.2231 53.9728L48.2652 54.5853L47.8614 55.9266Z" fill="#2F2E41"/>
<path d="M57.6837 54.8789L56.601 54.8788L56.0859 50.7099L57.6839 50.71L57.6837 54.8789Z" fill="#A0616A"/>
<path d="M57.9598 55.9266L54.4688 55.9265V55.8824C54.4687 55.7042 54.5039 55.5279 54.5722 55.3633C54.6405 55.1987 54.7406 55.0492 54.8667 54.9232C54.9929 54.7973 55.1427 54.6973 55.3076 54.6292C55.4724 54.561 55.6491 54.5259 55.8276 54.5259L57.9598 54.526L57.9598 55.9266Z" fill="#2F2E41"/>
<path d="M56.1811 51.7258C56.0866 51.7257 55.9952 51.6921 55.9233 51.6309C55.8515 51.5697 55.8038 51.4849 55.7888 51.3918L54.1813 41.3809C54.1706 41.3146 54.1386 41.2536 54.09 41.2071C54.0415 41.1606 53.9791 41.1312 53.9123 41.1233C53.8454 41.1154 53.7779 41.1295 53.7198 41.1635C53.6618 41.1974 53.6164 41.2493 53.5906 41.3113L49.4257 51.3206C49.3869 51.413 49.3146 51.4874 49.2233 51.529C49.132 51.5706 49.0283 51.5762 48.933 51.5449L47.4287 51.0443C47.335 51.0134 47.2563 50.9488 47.2078 50.863C47.1594 50.7772 47.1447 50.6765 47.1667 50.5805L50.5799 35.5033C50.5966 35.4307 50.6334 35.3642 50.686 35.3113C50.7386 35.2585 50.805 35.2214 50.8777 35.2043L55.4551 34.1436C55.5114 34.1308 55.5697 34.1303 55.6262 34.142C55.6827 34.1537 55.736 34.1774 55.7825 34.2114C58.7967 36.3977 58.542 43.5405 57.9803 51.2965C57.9733 51.3936 57.9308 51.4847 57.8608 51.5526C57.7909 51.6204 57.6985 51.6602 57.601 51.6645L56.1985 51.7254C56.1927 51.7256 56.1868 51.7258 56.1811 51.7258Z" fill="#2F2E41"/>
<path d="M52.3277 27.0678C53.5257 27.0678 54.4968 26.0983 54.4968 24.9025C54.4968 23.7066 53.5257 22.7372 52.3277 22.7372C51.1298 22.7372 50.1587 23.7066 50.1587 24.9025C50.1587 26.0983 51.1298 27.0678 52.3277 27.0678Z" fill="#A0616A"/>
<path d="M52.4214 36.1249C51.9008 36.1216 51.3873 36.0031 50.918 35.778L50.9019 35.7705L50.8955 35.7539L48.95 30.7221L48.913 29.8478C48.9006 29.5555 48.9497 29.2638 49.0571 28.9915C49.1645 28.7192 49.3278 28.4724 49.5365 28.2669C49.7452 28.0614 49.9948 27.9019 50.269 27.7985C50.5432 27.6952 50.8361 27.6503 51.1288 27.6668L53.1942 27.7829C53.7277 27.8132 54.2297 28.0453 54.5978 28.432C54.9659 28.8187 55.1725 29.3309 55.1756 29.8644C55.2293 29.9673 55.6103 30.7717 54.8636 31.5275C54.8357 31.6996 54.5746 33.4888 55.5601 34.4727L55.5878 34.5003L55.5636 34.5311C55.5479 34.551 54.2822 36.1246 52.4214 36.1249Z" fill="#3F3D56"/>
<path d="M55.3218 36.5045C55.4438 36.4603 55.5547 36.39 55.6465 36.2984C55.7384 36.2068 55.8091 36.0962 55.8535 35.9745C55.8979 35.8527 55.9151 35.7227 55.9037 35.5936C55.8924 35.4645 55.8528 35.3394 55.7878 35.2272L57.8507 32.8431L56.2244 32.6318L54.5148 34.9282C54.3333 35.0497 54.2027 35.2335 54.1478 35.4447C54.0929 35.6559 54.1175 35.8798 54.2169 36.0741C54.3164 36.2684 54.4838 36.4196 54.6874 36.4989C54.8911 36.5782 55.1168 36.5802 55.3218 36.5045Z" fill="#A0616A"/>
<path d="M56.6116 34.6643C56.5341 34.6643 56.4583 34.6416 56.3936 34.5991L55.3733 33.9311C55.2876 33.8752 55.2268 33.7883 55.2038 33.6886C55.1807 33.5889 55.1972 33.4842 55.2498 33.3964L55.9884 32.1577C56.0284 32.0906 56.0537 32.0159 56.0627 31.9385C56.0717 31.861 56.0641 31.7825 56.0406 31.7081C56.017 31.6338 55.978 31.5652 55.926 31.507C55.874 31.4487 55.8103 31.4021 55.739 31.3702L53.6171 30.4206C53.3561 30.3023 53.1431 30.0991 53.013 29.8442C52.8828 29.5893 52.8432 29.2978 52.9007 29.0175C52.9404 28.8285 53.0232 28.6511 53.1427 28.4993C53.2622 28.3474 53.4152 28.2251 53.5898 28.1419C53.7644 28.0587 53.9559 28.0169 54.1493 28.0196C54.3427 28.0223 54.5329 28.0695 54.7051 28.1576L57.9243 29.8043C58.1414 29.9154 58.332 30.072 58.4829 30.2635C58.6338 30.4549 58.7415 30.6766 58.7985 30.9135C58.8556 31.1503 58.8607 31.3967 58.8136 31.6357C58.7664 31.8747 58.668 32.1007 58.5252 32.2982L56.9338 34.4996C56.8971 34.5506 56.8487 34.5922 56.7927 34.6208C56.7366 34.6495 56.6746 34.6644 56.6116 34.6643Z" fill="#3F3D56"/>
<path d="M50.1088 24.5946C50.7938 24.5397 51.3625 23.8566 51.2913 23.1743C51.2833 23.4555 51.3791 23.7299 51.5605 23.9452C51.7419 24.1605 51.9963 24.3018 52.2752 24.342C52.5894 24.3766 52.9339 24.2817 53.2073 24.4399C53.5103 24.6152 53.6072 25.0408 53.9228 25.1922C54.2277 25.3384 54.6149 25.139 54.7656 24.8366C54.9162 24.5343 54.8792 24.171 54.7794 23.8483C54.637 23.3882 54.3778 22.9727 54.0269 22.6422C53.676 22.3117 53.2454 22.0775 52.777 21.9623C52.3086 21.8472 51.8183 21.855 51.3538 21.9851C50.8893 22.1151 50.4664 22.3629 50.1263 22.7045C49.8382 22.9937 49.6096 23.3623 49.5725 23.7684C49.5354 24.1745 49.7241 24.6152 50.0895 24.7976L50.1088 24.5946Z" fill="#2F2E41"/>
<path d="M45.0623 18.5967C45.1766 18.6582 45.276 18.744 45.3535 18.848C45.431 18.952 45.4847 19.0716 45.5108 19.1986C45.5369 19.3255 45.5349 19.4567 45.5048 19.5827C45.4747 19.7088 45.4172 19.8267 45.3365 19.9283L47.0285 22.5876L45.3888 22.5595L44.0334 20.0385C43.8716 19.8918 43.7693 19.691 43.7459 19.474C43.7224 19.2571 43.7796 19.0391 43.9064 18.8614C44.0332 18.6837 44.2209 18.5586 44.434 18.5098C44.647 18.461 44.8706 18.492 45.0623 18.5967Z" fill="#A0616A"/>
<path d="M46.4264 20.4904L48.6054 25.6302L50.8899 29.4973C50.9863 29.6605 51.0443 29.8435 51.0595 30.0324C51.0747 30.2213 51.0468 30.4112 50.9777 30.5877C50.9086 30.7643 50.8003 30.9228 50.6608 31.0514C50.5214 31.18 50.3545 31.2753 50.1728 31.3301C49.8845 31.4155 49.5752 31.3952 49.3007 31.2728C49.0262 31.1504 48.8045 30.9341 48.6758 30.6628L44.2728 21.271C44.2489 21.22 44.2361 21.1644 44.2354 21.1081C44.2346 21.0518 44.2459 20.9959 44.2685 20.9443C44.291 20.8927 44.3243 20.8464 44.3662 20.8086C44.408 20.7708 44.4575 20.7424 44.5112 20.7251L45.9388 20.2673C45.9659 20.2586 45.9938 20.2528 46.0221 20.2499C46.1064 20.2414 46.1912 20.2602 46.264 20.3035C46.3368 20.3468 46.3937 20.4123 46.4264 20.4904Z" fill="#3F3D56"/>
<path d="M66.8522 56H0.088312C0.0648902 56 0.0424276 55.9907 0.0258659 55.9742C0.00930421 55.9576 0 55.9352 0 55.9118C0 55.8885 0.00930421 55.866 0.0258659 55.8495C0.0424276 55.833 0.0648902 55.8237 0.088312 55.8237H66.8522C66.8756 55.8237 66.8981 55.833 66.9146 55.8495C66.9312 55.866 66.9405 55.8885 66.9405 55.9118C66.9405 55.9352 66.9312 55.9576 66.9146 55.9742C66.8981 55.9907 66.8756 56 66.8522 56Z" fill="#FFB8B8"/>
<path d="M52.7982 9.53996V16.769C52.7982 16.7924 52.7889 16.8148 52.7723 16.8314C52.7558 16.8479 52.7333 16.8572 52.7099 16.8572C52.6865 16.8572 52.664 16.8479 52.6474 16.8314C52.6309 16.8148 52.6216 16.7924 52.6216 16.769V9.53996C52.6216 9.51658 52.6309 9.49415 52.6474 9.47762C52.664 9.46109 52.6865 9.4518 52.7099 9.4518C52.7333 9.4518 52.7558 9.46109 52.7723 9.47762C52.7889 9.49415 52.7982 9.51658 52.7982 9.53996Z" fill="#FFB8B8"/>
<path d="M60.4658 15.6728L57.968 18.1663C57.9514 18.1828 57.929 18.192 57.9056 18.192C57.8822 18.192 57.8598 18.1827 57.8433 18.1662C57.8267 18.1497 57.8174 18.1273 57.8174 18.1039C57.8174 18.0806 57.8266 18.0582 57.8431 18.0416L60.3409 15.5481C60.3491 15.5399 60.3589 15.5334 60.3696 15.5289C60.3803 15.5245 60.3918 15.5222 60.4034 15.5221C60.4151 15.5221 60.4266 15.5244 60.4373 15.5288C60.448 15.5333 60.4578 15.5398 60.466 15.548C60.4742 15.5562 60.4807 15.5659 60.4851 15.5766C60.4896 15.5873 60.4919 15.5988 60.4919 15.6104C60.4918 15.622 60.4895 15.6335 60.4851 15.6442C60.4806 15.6549 60.4741 15.6646 60.4658 15.6728Z" fill="#FFB8B8"/>
<path d="M44.9537 15.6728L47.4516 18.1663C47.4681 18.1828 47.4906 18.1921 47.514 18.1921C47.5375 18.1921 47.5599 18.1828 47.5765 18.1663C47.593 18.1498 47.6023 18.1273 47.6023 18.104C47.6023 18.0806 47.593 18.0582 47.5765 18.0416L45.0786 15.5481C45.0704 15.5399 45.0607 15.5334 45.05 15.5289C45.0393 15.5245 45.0278 15.5222 45.0161 15.5221C45.0045 15.5221 44.993 15.5244 44.9823 15.5288C44.9716 15.5333 44.9618 15.5398 44.9536 15.548C44.9454 15.5562 44.9389 15.5659 44.9344 15.5766C44.93 15.5873 44.9277 15.5988 44.9277 15.6104C44.9277 15.622 44.9301 15.6335 44.9345 15.6442C44.939 15.6549 44.9455 15.6646 44.9537 15.6728Z" fill="#FFB8B8"/>
</g>
<defs>
<clipPath id="clip0_39_2861">
<rect width="82" height="56" fill="white"/>
</clipPath>
</defs>
</svg>
