<svg width="41" height="41" viewBox="0 0 41 41" fill="none" xmlns="http://www.w3.org/2000/svg">
<circle cx="20.5" cy="20.5" r="19.5" fill="url(#paint0_linear_139_5007)" stroke="#A25B33" stroke-width="2"/>
<path d="M19.1348 19.748H20.5898C21.1042 19.748 21.5273 19.6602 21.8594 19.4844C22.1979 19.3021 22.4486 19.0547 22.6113 18.7422C22.7806 18.4232 22.8652 18.0553 22.8652 17.6387C22.8652 17.2285 22.7904 16.8737 22.6406 16.5742C22.4909 16.2682 22.263 16.0339 21.957 15.8711C21.6576 15.7018 21.2734 15.6172 20.8047 15.6172C20.4271 15.6172 20.0788 15.6921 19.7598 15.8418C19.4473 15.9915 19.1966 16.2064 19.0078 16.4863C18.8255 16.7598 18.7344 17.0885 18.7344 17.4727H16.1465C16.1465 16.7044 16.3483 16.0306 16.752 15.4512C17.1621 14.8652 17.7155 14.4062 18.4121 14.0742C19.1087 13.7422 19.8867 13.5762 20.7461 13.5762C21.6836 13.5762 22.5039 13.7324 23.207 14.0449C23.9167 14.3509 24.4668 14.8034 24.8574 15.4023C25.2546 16.0013 25.4531 16.7435 25.4531 17.6289C25.4531 18.0521 25.3522 18.4753 25.1504 18.8984C24.9551 19.3151 24.6654 19.6927 24.2812 20.0312C23.9036 20.3633 23.4382 20.6335 22.8848 20.8418C22.3379 21.0436 21.7096 21.1445 21 21.1445H19.1348V19.748ZM19.1348 21.7402V20.3633H21C21.8008 20.3633 22.4941 20.4577 23.0801 20.6465C23.6725 20.8288 24.1608 21.0892 24.5449 21.4277C24.929 21.7598 25.2122 22.1471 25.3945 22.5898C25.5833 23.0326 25.6777 23.5078 25.6777 24.0156C25.6777 24.6797 25.554 25.2721 25.3066 25.793C25.0592 26.3073 24.7109 26.7435 24.2617 27.1016C23.819 27.4596 23.2982 27.7331 22.6992 27.9219C22.1003 28.1042 21.4525 28.1953 20.7559 28.1953C20.1504 28.1953 19.5612 28.1139 18.9883 27.9512C18.4219 27.7819 17.9108 27.5312 17.4551 27.1992C16.9993 26.8607 16.638 26.4375 16.3711 25.9297C16.1042 25.4154 15.9707 24.8197 15.9707 24.1426H18.5586C18.5586 24.5332 18.653 24.8815 18.8418 25.1875C19.0371 25.4935 19.304 25.7344 19.6426 25.9102C19.9876 26.0794 20.375 26.1641 20.8047 26.1641C21.2799 26.1641 21.6868 26.0794 22.0254 25.9102C22.3704 25.7344 22.6341 25.487 22.8164 25.168C22.9987 24.8424 23.0898 24.4551 23.0898 24.0059C23.0898 23.472 22.9889 23.0391 22.7871 22.707C22.5853 22.375 22.2956 22.1309 21.918 21.9746C21.5469 21.8184 21.1042 21.7402 20.5898 21.7402H19.1348Z" fill="white"/>
<defs>
<linearGradient id="paint0_linear_139_5007" x1="20.5" y1="0" x2="20.5" y2="41" gradientUnits="userSpaceOnUse">
<stop stop-color="#C68345"/>
<stop offset="1" stop-color="#A7683B"/>
</linearGradient>
</defs>
</svg>
