<svg width="60" height="60" viewBox="0 0 60 60" fill="none" xmlns="http://www.w3.org/2000/svg">
<g clip-path="url(#clip0_64_2476)">
<path d="M28.2859 0.499554L26.45 1.57254L3.83016 14.792L1.99417 15.865C1.10329 16.387 0.442121 17.2662 0.155711 18.3098C-0.130698 19.3533 -0.0189554 20.4759 0.466425 21.4313L17.3109 54.4985C17.7982 55.4527 18.6191 56.1609 19.5934 56.4677C20.5676 56.7745 21.6157 56.6548 22.5077 56.1349L22.5124 56.1321L48.7947 40.7723L48.7995 40.7695C49.6903 40.2474 50.3515 39.3682 50.6379 38.3247C50.9243 37.2811 50.8126 36.1585 50.3272 35.2031L33.4828 2.13595C32.9954 1.18172 32.1745 0.473531 31.2003 0.166754C30.226 -0.140024 29.1779 -0.0203383 28.2859 0.499554Z" fill="#F2F2F2"/>
<path d="M28.815 1.53737L26.6404 2.80825L4.69777 15.6319L2.5232 16.9028C1.88878 17.2746 1.41794 17.9007 1.21398 18.6438C1.01002 19.3869 1.0896 20.1864 1.43525 20.8667L18.2797 53.9339C18.6268 54.6134 19.2113 55.1177 19.9051 55.3362C20.5989 55.5547 21.3453 55.4694 21.9805 55.0992L21.9852 55.0964L48.2675 39.7366L48.2723 39.7338C48.9067 39.362 49.3775 38.7359 49.5815 37.9928C49.7854 37.2497 49.7058 36.4502 49.3602 35.7699L32.5158 2.7027C32.1687 2.02318 31.5841 1.51886 30.8904 1.30039C30.1966 1.08193 29.4502 1.16715 28.815 1.53737Z" fill="white"/>
<path d="M29.1776 11.8015L19.3753 17.5301C19.2268 17.6169 19.0522 17.6369 18.8899 17.5858C18.7276 17.5347 18.5909 17.4167 18.5099 17.2576C18.4288 17.0985 18.4101 16.9115 18.4578 16.7377C18.5056 16.5639 18.6158 16.4174 18.7643 16.3307L28.5666 10.602C28.7151 10.5152 28.8897 10.4952 29.052 10.5463C29.2143 10.5974 29.351 10.7155 29.432 10.8745C29.513 11.0336 29.5317 11.2206 29.484 11.3944C29.4363 11.5683 29.3261 11.7147 29.1776 11.8015Z" fill="#F2F2F2"/>
<path d="M32.5183 12.4758L20.4063 19.5542C20.2579 19.641 20.0832 19.661 19.921 19.6099C19.7587 19.5588 19.622 19.4408 19.5409 19.2817C19.4599 19.1227 19.4412 18.9356 19.4889 18.7618C19.5366 18.588 19.6468 18.4416 19.7953 18.3548L31.9073 11.2763C31.9808 11.2334 32.0615 11.2063 32.1448 11.1968C32.2281 11.1872 32.3123 11.1953 32.3927 11.2206C32.473 11.2459 32.5479 11.2879 32.6132 11.3442C32.6784 11.4006 32.7326 11.4701 32.7727 11.5488C32.8128 11.6276 32.838 11.714 32.847 11.8032C32.8559 11.8925 32.8483 11.9827 32.8247 12.0687C32.8011 12.1548 32.7619 12.2351 32.7093 12.3049C32.6567 12.3748 32.5918 12.4328 32.5183 12.4758Z" fill="#F2F2F2"/>
<path d="M15.3455 15.1454L6.30835 20.4269C6.23721 20.4685 6.18441 20.5387 6.16155 20.6219C6.13869 20.7052 6.14765 20.7948 6.18645 20.8711L10.0347 28.4255C10.0735 28.5017 10.139 28.5583 10.2168 28.5828C10.2945 28.6072 10.3782 28.5976 10.4494 28.5561L19.4865 23.2746C19.5576 23.233 19.6104 23.1629 19.6333 23.0796C19.6562 22.9963 19.6472 22.9067 19.6084 22.8305L15.7601 15.276C15.7213 15.1998 15.6558 15.1433 15.5781 15.1188C15.5003 15.0943 15.4166 15.1039 15.3455 15.1454Z" fill="#F2F2F2"/>
<path d="M34.0412 21.3869L20.7456 29.1571C20.6721 29.2001 20.5914 29.2271 20.5081 29.2367C20.4248 29.2462 20.3406 29.2381 20.2602 29.2128C20.1799 29.1875 20.105 29.1455 20.0398 29.0892C19.9746 29.0329 19.9203 28.9634 19.8802 28.8846C19.8401 28.8058 19.8149 28.7194 19.8059 28.6302C19.797 28.541 19.8046 28.4508 19.8282 28.3647C19.8518 28.2786 19.891 28.1984 19.9436 28.1285C19.9962 28.0587 20.0611 28.0006 20.1346 27.9576L33.4302 20.1875C33.5787 20.1007 33.7533 20.0806 33.9156 20.1317C34.0779 20.1828 34.2146 20.3009 34.2956 20.46C34.3767 20.619 34.3954 20.806 34.3477 20.9799C34.2999 21.1537 34.1897 21.3001 34.0412 21.3869Z" fill="#F2F2F2"/>
<path d="M37.3819 22.0612L21.7767 31.1812C21.6282 31.268 21.4536 31.288 21.2913 31.2369C21.129 31.1858 20.9923 31.0678 20.9113 30.9087C20.8303 30.7497 20.8116 30.5626 20.8593 30.3888C20.907 30.215 21.0172 30.0685 21.1657 29.9818L36.7709 20.8618C36.9194 20.775 37.094 20.755 37.2563 20.8061C37.4186 20.8572 37.5553 20.9752 37.6363 21.1343C37.7174 21.2933 37.7361 21.4804 37.6884 21.6542C37.6407 21.828 37.5304 21.9744 37.3819 22.0612Z" fill="#F2F2F2"/>
<path d="M15.6821 35.5205C17.1766 35.5205 18.3881 34.2228 18.3881 32.6221C18.3881 31.0213 17.1766 29.7236 15.6821 29.7236C14.1876 29.7236 12.976 31.0213 12.976 32.6221C12.976 34.2228 14.1876 35.5205 15.6821 35.5205Z" fill="#F2F2F2"/>
<path d="M56.1698 14.126H26.2191C25.2036 14.1272 24.23 14.5598 23.512 15.3289C22.7939 16.0981 22.39 17.1409 22.3889 18.2286V55.8976C22.39 56.9853 22.7939 58.0281 23.512 58.7972C24.23 59.5663 25.2036 59.999 26.2191 60.0002H56.1698C57.1853 59.999 58.1589 59.5663 58.8769 58.7972C59.595 58.0281 59.9989 56.9853 60 55.8976V18.2286C59.9989 17.1409 59.595 16.0981 58.8769 15.3289C58.1589 14.5598 57.1853 14.1272 56.1698 14.126Z" fill="#E6E6E6"/>
<path d="M56.1698 15.3066H26.219C25.4959 15.3075 24.8026 15.6156 24.2912 16.1633C23.7799 16.711 23.4923 17.4536 23.4915 18.2282V55.8972C23.4923 56.6718 23.7799 57.4144 24.2912 57.9621C24.8026 58.5098 25.4959 58.8179 26.219 58.8188H56.1698C56.893 58.8179 57.5863 58.5098 58.0976 57.9621C58.6089 57.4144 58.8966 56.6718 58.8974 55.8972V18.2282C58.8966 17.4536 58.6089 16.711 58.0976 16.1633C57.5863 15.6156 56.893 15.3075 56.1698 15.3066Z" fill="white"/>
<path d="M51.8983 24.5031H40.7319C40.5627 24.5031 40.4005 24.4311 40.2809 24.303C40.1613 24.1749 40.0941 24.0011 40.0941 23.8199C40.0941 23.6387 40.1613 23.4649 40.2809 23.3368C40.4005 23.2087 40.5627 23.1367 40.7319 23.1367H51.8983C51.9822 23.1366 52.0652 23.1542 52.1426 23.1885C52.2201 23.2228 52.2905 23.2731 52.3498 23.3366C52.4091 23.4 52.4562 23.4753 52.4883 23.5583C52.5204 23.6412 52.5369 23.7301 52.5369 23.8199C52.5369 23.9097 52.5204 23.9986 52.4883 24.0815C52.4562 24.1645 52.4091 24.2398 52.3498 24.3033C52.2905 24.3667 52.2201 24.417 52.1426 24.4513C52.0652 24.4856 51.9822 24.5032 51.8983 24.5031Z" fill="#FE676E"/>
<path d="M54.5294 26.8088H40.7319C40.5627 26.8088 40.4005 26.7368 40.2809 26.6087C40.1613 26.4805 40.0941 26.3068 40.0941 26.1256C40.0941 25.9444 40.1613 25.7706 40.2809 25.6425C40.4005 25.5144 40.5627 25.4424 40.7319 25.4424H54.5294C54.6986 25.4424 54.8608 25.5144 54.9804 25.6425C55.1 25.7706 55.1672 25.9444 55.1672 26.1256C55.1672 26.3068 55.1 26.4805 54.9804 26.6087C54.8608 26.7368 54.6986 26.8088 54.5294 26.8088Z" fill="#FE676E"/>
<path d="M38.2607 20.3423H27.9659C27.8848 20.3423 27.8071 20.3768 27.7498 20.4382C27.6925 20.4996 27.6603 20.5828 27.6603 20.6696V29.2754C27.6603 29.3622 27.6925 29.4455 27.7498 29.5069C27.8071 29.5683 27.8848 29.6028 27.9659 29.6028H38.2607C38.3418 29.6028 38.4195 29.5683 38.4768 29.5069C38.5341 29.4455 38.5663 29.3622 38.5663 29.2754V20.6696C38.5663 20.5828 38.5341 20.4996 38.4768 20.4382C38.4195 20.3768 38.3418 20.3423 38.2607 20.3423Z" fill="#E6E6E6"/>
<path d="M30.7898 25.6269C30.7941 26.3534 30.5441 27.0553 30.0891 27.5941C29.639 28.1233 28.9688 28.4742 28.2926 28.329C27.6699 28.1953 27.1638 27.6123 27.227 26.9071C27.2374 26.7543 27.2789 26.6059 27.3484 26.472C27.4179 26.3382 27.5139 26.2222 27.6296 26.1322C27.7452 26.0421 27.8779 25.9802 28.0182 25.9507C28.1585 25.9212 28.3031 25.9248 28.442 25.9613C29.0336 26.1257 29.2693 27.0389 28.7763 27.4675C28.658 27.5704 28.4881 27.3905 28.6075 27.2867C28.9334 27.0033 28.8327 26.3834 28.4394 26.228C27.9814 26.047 27.4963 26.4363 27.4633 26.9377C27.4243 27.5323 27.8495 27.98 28.371 28.0854C28.9351 28.1994 29.4944 27.8902 29.8766 27.4633C30.3147 26.9677 30.5565 26.3095 30.5511 25.6269C30.5522 25.5938 30.5652 25.5624 30.5875 25.5393C30.6097 25.5163 30.6395 25.5034 30.6705 25.5034C30.7014 25.5034 30.7312 25.5163 30.7535 25.5393C30.7757 25.5624 30.7888 25.5938 30.7898 25.6269Z" fill="#2F2E41"/>
<path d="M33.1213 27.2527C35.4738 27.2527 37.3808 25.2101 37.3808 22.6903C37.3808 20.1706 35.4738 18.1279 33.1213 18.1279C30.7688 18.1279 28.8618 20.1706 28.8618 22.6903C28.8618 25.2101 30.7688 27.2527 33.1213 27.2527Z" fill="#FE676E"/>
<path d="M32.9034 24.6368L32.8989 24.4663C33.1951 24.4575 33.4561 24.4376 33.6523 24.2841C33.7079 24.2381 33.7536 24.1798 33.7863 24.1132C33.819 24.0466 33.838 23.9732 33.8418 23.898C33.8453 23.8521 33.8388 23.806 33.8229 23.7632C33.807 23.7204 33.7821 23.6821 33.7501 23.6513C33.6198 23.5335 33.4103 23.5716 33.2576 23.6466L33.1259 23.7113L33.3784 21.7344L33.5361 21.7575L33.3213 23.4392C33.5288 23.3738 33.7211 23.402 33.8528 23.5211C33.9034 23.5684 33.9431 23.6275 33.9688 23.694C33.9944 23.7604 34.0054 23.8323 34.0009 23.904C33.9962 24.005 33.971 24.1037 33.927 24.1931C33.883 24.2825 33.8213 24.3606 33.7462 24.4218C33.4941 24.6191 33.1666 24.6289 32.9034 24.6368Z" fill="#2F2E41"/>
<path d="M35.1734 21.9028H34.3161V22.0733H35.1734V21.9028Z" fill="#2F2E41"/>
<path d="M32.4673 21.9028H31.61V22.0733H32.4673V21.9028Z" fill="#2F2E41"/>
<path d="M30.7618 29.6027C31.0811 29.3857 31.4262 29.2157 31.7878 29.0972C31.7533 28.9658 31.7538 28.8267 31.7893 28.6956C31.8373 28.5301 31.934 28.3856 32.065 28.2837C32.1959 28.1819 32.3541 28.1281 32.516 28.1304H33.5538C33.7159 28.1282 33.8744 28.1821 34.0056 28.2841C34.1368 28.3861 34.2338 28.5307 34.2821 28.6965C34.3176 28.8273 34.3182 28.9661 34.2836 29.0972C34.6452 29.2158 34.9902 29.3858 35.3096 29.6027H30.7618Z" fill="#2F2E41"/>
<path d="M38.0004 20.997C37.9228 20.8964 37.8273 20.8132 37.7195 20.7524C37.6249 20.6995 37.5198 20.6717 37.4131 20.6714C37.2665 20.6733 37.1242 20.7246 37.0064 20.818C36.6824 21.0635 36.458 21.5929 36.458 22.2059C36.458 22.9748 36.8114 23.6124 37.2706 23.7233C37.3174 23.7345 37.3651 23.7402 37.4131 23.7403C37.9391 23.7403 38.3681 23.0524 38.3681 22.2059C38.3681 21.7148 38.2241 21.2775 38.0004 20.997Z" fill="#3F3D56"/>
<path d="M29.252 20.7814H29.2513C29.1449 20.7106 29.0223 20.6726 28.8971 20.6714C28.7904 20.6717 28.6853 20.6995 28.5907 20.7524C28.4828 20.8132 28.3873 20.8964 28.3097 20.997L28.3089 20.9979C28.0861 21.2784 27.942 21.7157 27.942 22.2059C27.942 22.8674 28.2031 23.4317 28.5692 23.6474C28.6694 23.7075 28.7822 23.7395 28.8971 23.7403C28.9226 23.7403 28.9481 23.7386 28.9735 23.7352H28.9743C29.4645 23.6721 29.8521 23.0106 29.8521 22.2059C29.8521 21.5614 29.603 21.0081 29.252 20.7814Z" fill="#3F3D56"/>
<path d="M28.6289 23.5008C28.6478 23.5008 28.6665 23.496 28.6834 23.4867C28.7002 23.4774 28.7148 23.464 28.7258 23.4475C28.7369 23.431 28.7441 23.4119 28.7469 23.3919C28.7497 23.3718 28.7481 23.3513 28.742 23.332C28.5138 22.6053 28.4452 21.832 28.5414 21.0722C28.6377 20.3124 28.8962 19.5866 29.2968 18.9512C29.6975 18.3158 30.2296 17.788 30.8517 17.4087C31.4738 17.0293 32.1692 16.8088 32.8838 16.7641C33.5985 16.7195 34.3131 16.8519 34.9722 17.1512C35.6312 17.4504 36.217 17.9084 36.6839 18.4896C37.1509 19.0707 37.4864 19.7594 37.6645 20.5021C37.8426 21.2447 37.8584 22.0213 37.7107 22.7716C37.7041 22.8048 37.7102 22.8394 37.7274 22.8678C37.7447 22.8962 37.7719 22.9161 37.8028 22.9231C37.8338 22.9301 37.8661 22.9236 37.8927 22.9051C37.9192 22.8866 37.9378 22.8575 37.9443 22.8243C38.0997 22.0356 38.0832 21.219 37.896 20.4382C37.7089 19.6573 37.3561 18.9332 36.8652 18.3222C36.3743 17.7111 35.7584 17.2295 35.0654 16.9149C34.3725 16.6002 33.6211 16.461 32.8698 16.5079C32.1184 16.5549 31.3873 16.7868 30.7332 17.1857C30.0791 17.5846 29.5197 18.1396 29.0985 18.8077C28.6773 19.4758 28.4056 20.2389 28.3045 21.0378C28.2035 21.8367 28.2757 22.6497 28.5158 23.4138C28.5237 23.4392 28.539 23.4612 28.5592 23.4768C28.5795 23.4924 28.6039 23.5008 28.6289 23.5008Z" fill="#3F3D56"/>
<path d="M35.2611 19.734C35.4298 19.9806 35.3466 20.3129 35.1689 20.5255C34.9377 20.8022 34.5689 20.8196 34.2487 20.7683C33.8894 20.7107 33.5083 20.5304 33.1446 20.6519C32.8346 20.7554 32.6134 21.0566 32.2913 21.1323C32.0057 21.1994 31.6641 21.1106 31.5639 20.7845C31.5158 20.6278 31.7463 20.5606 31.7942 20.7165C31.859 20.9274 32.1387 20.9232 32.2989 20.8648C32.5557 20.7712 32.7536 20.5433 33.0061 20.4345C33.3037 20.3062 33.6266 20.3642 33.9296 20.4372C34.2151 20.5061 34.5438 20.6082 34.8283 20.4796C35.0389 20.3844 35.2064 20.0844 35.0549 19.8631C34.964 19.7301 35.1711 19.6024 35.2611 19.734Z" fill="#2F2E41"/>
<path d="M51.8815 35.4128H36.7356C36.6518 35.4128 36.5689 35.3951 36.4915 35.3608C36.4141 35.3264 36.3438 35.2761 36.2846 35.2127C36.2254 35.1492 36.1784 35.0739 36.1463 34.991C36.1143 34.9081 36.0978 34.8193 36.0978 34.7296C36.0978 34.6399 36.1143 34.551 36.1463 34.4681C36.1784 34.3852 36.2254 34.3099 36.2846 34.2465C36.3438 34.183 36.4141 34.1327 36.4915 34.0984C36.5689 34.0641 36.6518 34.0464 36.7356 34.0464H51.8815C52.0505 34.0466 52.2126 34.1187 52.3321 34.2468C52.4515 34.3749 52.5186 34.5485 52.5186 34.7296C52.5186 34.9106 52.4515 35.0843 52.3321 35.2124C52.2126 35.3405 52.0505 35.4126 51.8815 35.4128Z" fill="#E6E6E6"/>
<path d="M54.5126 37.7184H36.7357C36.6518 37.7185 36.5688 37.7009 36.4913 37.6666C36.4139 37.6324 36.3435 37.582 36.2842 37.5186C36.2249 37.4551 36.1778 37.3798 36.1457 37.2969C36.1136 37.2139 36.0971 37.125 36.0971 37.0352C36.0971 36.9455 36.1136 36.8566 36.1457 36.7736C36.1778 36.6907 36.2249 36.6153 36.2842 36.5519C36.3435 36.4884 36.4139 36.4381 36.4913 36.4038C36.5688 36.3695 36.6518 36.352 36.7357 36.3521H54.5126C54.5964 36.352 54.6794 36.3695 54.7569 36.4038C54.8344 36.4381 54.9048 36.4884 54.9641 36.5519C55.0234 36.6153 55.0704 36.6907 55.1025 36.7736C55.1346 36.8566 55.1512 36.9455 55.1512 37.0352C55.1512 37.125 55.1346 37.2139 55.1025 37.2969C55.0704 37.3798 55.0234 37.4551 54.9641 37.5186C54.9048 37.582 54.8344 37.6324 54.7569 37.6666C54.6794 37.7009 54.5964 37.7185 54.5126 37.7184Z" fill="#E6E6E6"/>
<path d="M51.8815 43.6999H36.7356C36.5664 43.6999 36.4042 43.6279 36.2846 43.4998C36.165 43.3716 36.0978 43.1979 36.0978 43.0167C36.0978 42.8355 36.165 42.6617 36.2846 42.5336C36.4042 42.4055 36.5664 42.3335 36.7356 42.3335H51.8815C52.0507 42.3335 52.2129 42.4055 52.3325 42.5336C52.4521 42.6617 52.5193 42.8355 52.5193 43.0167C52.5193 43.1979 52.4521 43.3716 52.3325 43.4998C52.2129 43.6279 52.0507 43.6999 51.8815 43.6999Z" fill="#E6E6E6"/>
<path d="M54.5126 46.0055H36.7356C36.5664 46.0055 36.4042 45.9336 36.2846 45.8054C36.165 45.6773 36.0978 45.5035 36.0978 45.3223C36.0978 45.1412 36.165 44.9674 36.2846 44.8393C36.4042 44.7111 36.5664 44.6392 36.7356 44.6392H54.5126C54.6817 44.6392 54.844 44.7111 54.9636 44.8393C55.0832 44.9674 55.1504 45.1412 55.1504 45.3223C55.1504 45.5035 55.0832 45.6773 54.9636 45.8054C54.844 45.9336 54.6817 46.0055 54.5126 46.0055Z" fill="#E6E6E6"/>
<path d="M30.7412 38.7549C32.2357 38.7549 33.4472 37.4572 33.4472 35.8564C33.4472 34.2557 32.2357 32.958 30.7412 32.958C29.2467 32.958 28.0352 34.2557 28.0352 35.8564C28.0352 37.4572 29.2467 38.7549 30.7412 38.7549Z" fill="#E6E6E6"/>
<path d="M30.7412 47.1094C32.2357 47.1094 33.4472 45.8117 33.4472 44.2109C33.4472 42.6102 32.2357 41.3125 30.7412 41.3125C29.2467 41.3125 28.0352 42.6102 28.0352 44.2109C28.0352 45.8117 29.2467 47.1094 30.7412 47.1094Z" fill="#E6E6E6"/>
<path d="M51.8815 52.0539H36.7356C36.5664 52.0539 36.4042 51.9819 36.2846 51.8538C36.165 51.7257 36.0978 51.5519 36.0978 51.3707C36.0978 51.1895 36.165 51.0157 36.2846 50.8876C36.4042 50.7595 36.5664 50.6875 36.7356 50.6875H51.8815C52.0507 50.6875 52.2129 50.7595 52.3325 50.8876C52.4521 51.0157 52.5193 51.1895 52.5193 51.3707C52.5193 51.5519 52.4521 51.7257 52.3325 51.8538C52.2129 51.9819 52.0507 52.0539 51.8815 52.0539Z" fill="#E6E6E6"/>
<path d="M54.5126 54.36H36.7356C36.5664 54.36 36.4042 54.2881 36.2846 54.1599C36.165 54.0318 36.0978 53.858 36.0978 53.6768C36.0978 53.4956 36.165 53.3219 36.2846 53.1938C36.4042 53.0656 36.5664 52.9937 36.7356 52.9937H54.5126C54.6817 52.9937 54.844 53.0656 54.9636 53.1938C55.0832 53.3219 55.1504 53.4956 55.1504 53.6768C55.1504 53.858 55.0832 54.0318 54.9636 54.1599C54.844 54.2881 54.6817 54.36 54.5126 54.36Z" fill="#E6E6E6"/>
<path d="M30.7412 55.4639C32.2357 55.4639 33.4472 54.1662 33.4472 52.5654C33.4472 50.9647 32.2357 49.667 30.7412 49.667C29.2467 49.667 28.0352 50.9647 28.0352 52.5654C28.0352 54.1662 29.2467 55.4639 30.7412 55.4639Z" fill="#E6E6E6"/>
</g>
<defs>
<clipPath id="clip0_64_2476">
<rect width="60" height="60" fill="white"/>
</clipPath>
</defs>
</svg>
