<svg width="54" height="65" viewBox="0 0 54 65" fill="none" xmlns="http://www.w3.org/2000/svg">
<g clip-path="url(#clip0_76_5170)">
<path d="M0.386038 31.0887C0.584453 31.4197 0.853109 31.7033 1.17308 31.9194C1.49306 32.1356 1.85657 32.279 2.23801 32.3395C2.61944 32.4001 3.00953 32.3764 3.3808 32.27C3.75207 32.1636 4.09548 31.9772 4.38684 31.7239L12.5308 36.3908L12.2273 31.5257L4.54017 27.8399C4.08182 27.379 3.47019 27.1022 2.82119 27.0618C2.17219 27.0214 1.5309 27.2203 1.01885 27.6207C0.506803 28.0212 0.159561 28.5954 0.0429293 29.2346C-0.0737024 29.8737 0.0483784 30.5334 0.386038 31.0887Z" fill="#FFB8B8"/>
<path d="M23.9636 49.784C21.5479 53.1623 21.6343 58.8143 22.3083 65.0001H33.7301L34.2267 63.8424L34.8889 65.0001H45.6486C45.6486 65.0001 44.8209 49.2879 43.3311 48.7917C41.8413 48.2955 23.9636 49.784 23.9636 49.784Z" fill="#2F2E41"/>
<path d="M33.7302 14.4881C36.9299 14.4881 39.5238 11.8964 39.5238 8.69936C39.5238 5.50234 36.9299 2.91064 33.7302 2.91064C30.5304 2.91064 27.9365 5.50234 27.9365 8.69936C27.9365 11.8964 30.5304 14.4881 33.7302 14.4881Z" fill="#FFB8B8"/>
<path d="M37.9176 15.9897L39.0506 18.1594L46.8871 21.6498L44.8272 41.5672L43.9602 43.6297L44.4286 45.4209L43.2993 46.7428C44.4329 47.7676 44.5769 48.8404 43.9602 49.9501L40.3515 50.7761C40.3515 50.7761 20.2862 52.5588 21.9772 49.4529C23.8249 46.0594 24.2954 36.0372 20.2165 30.6815C16.7536 26.1347 19.4122 20.2348 19.4122 20.2348L27.6263 17.7821L30.6476 15.9897L37.9176 15.9897Z" fill="#3F3D56"/>
<path d="M36.3023 0.219811C36.3295 0.162256 36.3733 0.114145 36.4281 0.0816575C36.4829 0.0491698 36.5462 0.0337881 36.6098 0.0374886C33.9573 -0.121038 31.1635 0.187849 28.9444 1.64828C28.4068 2.00209 27.9 2.42411 27.315 2.68077C27.2873 2.69317 27.2634 2.71249 27.2455 2.73686C27.2275 2.76123 27.2162 2.78981 27.2126 2.81984C27.209 2.84987 27.2132 2.88032 27.2249 2.90824C27.2365 2.93615 27.2552 2.96058 27.2791 2.97915L27.3434 3.0295C27.3687 3.04936 27.3881 3.07579 27.3995 3.10591C27.4109 3.13603 27.4137 3.16868 27.4078 3.20033C27.4019 3.23197 27.3874 3.26138 27.366 3.28538C27.3445 3.30937 27.3168 3.32701 27.286 3.3364C27.2539 3.34618 27.2252 3.36494 27.2034 3.39045C27.1816 3.41596 27.1675 3.44717 27.1629 3.4804C27.1582 3.51363 27.1632 3.5475 27.1772 3.57801C27.1911 3.60853 27.2135 3.63441 27.2417 3.65263L27.7341 3.9706C27.7589 3.98634 27.7794 4.00804 27.7936 4.03372C27.8078 4.0594 27.8154 4.08825 27.8155 4.1176C27.8157 4.14695 27.8085 4.17587 27.7945 4.2017C27.7806 4.22754 27.7604 4.24947 27.7358 4.26547C27.6941 4.2912 27.6503 4.31339 27.6048 4.3318C27.5766 4.34241 27.5515 4.36012 27.5321 4.38321C27.5126 4.40631 27.4995 4.43401 27.4939 4.46366C27.4883 4.49331 27.4904 4.5239 27.5001 4.55248C27.5098 4.58106 27.5267 4.60667 27.5491 4.62684C27.7623 4.8165 27.9259 5.0554 28.0255 5.3227C28.1896 5.74907 28.2191 6.21343 28.2469 6.6694C28.4165 6.01148 29.1351 5.6242 29.8139 5.58485C30.4928 5.5455 31.1548 5.76928 31.8155 5.93015C33.2544 6.27952 34.7488 6.33696 36.2103 6.09907C35.714 7.09418 36.1327 8.28114 36.5539 9.3102L37.9176 8.72621C39.7904 7.66996 38.4859 12.1381 37.7857 12.7515C39.2153 13.2467 42.9571 7.75045 41.7534 5.6656C41.1272 4.5811 41.5717 3.18234 40.3406 2.15377C39.7373 1.51917 38.5327 1.80123 37.9176 1.2738C37.6755 1.06621 38.0445 0.510837 37.7118 0.389803C37.6013 0.349603 36.3206 0.179294 36.3023 0.219811Z" fill="#2F2E41"/>
<path d="M26.4886 18.3428C25.4255 23.0586 22.6988 34.0693 19.9324 36.372C19.7569 36.5375 19.5466 36.6616 19.3168 36.7351C9.59294 39.102 6.47723 33.0646 6.47723 33.0646C6.47723 33.0646 9.0831 31.7958 9.14919 29.3158L14.4044 30.9449L18.9854 20.6445L19.6595 20.0163L19.6633 20.0125L26.4886 18.3428Z" fill="#3F3D56"/>
<path d="M47.2214 61.8907C47.4999 61.6233 47.7162 61.2981 47.8553 60.9381C47.9944 60.5781 48.0527 60.192 48.0263 59.807C47.9998 59.422 47.8892 59.0475 47.7022 58.7098C47.5152 58.3722 47.2564 58.0796 46.944 57.8527L49.67 48.8765L44.9928 50.2628L43.1212 58.5742C42.7745 59.1239 42.6416 59.7815 42.7477 60.4225C42.8538 61.0635 43.1916 61.6433 43.697 62.0521C44.2024 62.4609 44.8403 62.6702 45.4899 62.6405C46.1395 62.6108 46.7556 62.344 47.2214 61.8907Z" fill="#FFB8B8"/>
<path d="M44.7265 21.1479L46.8871 21.6501C46.8871 21.6501 55.8173 39.0103 53.6653 42.3181C51.5134 45.6259 48.8771 56.5773 48.8771 56.5773C48.8771 56.5773 44.9779 55.8028 43.4881 53.8181L46.2163 40.8296L43.4022 29.9137L44.7265 21.1479Z" fill="#3F3D56"/>
<path d="M3.73691 46.9271L3.81449 18.9674C3.8167 18.4015 4.04349 17.8596 4.4451 17.4606C4.84671 17.0615 5.39034 16.8379 5.95673 16.8389L27.0906 16.8974C27.657 16.8996 28.1994 17.1262 28.5988 17.5275C28.9982 17.9287 29.2219 18.4719 29.221 19.0378L29.1434 46.9975C29.1412 47.5634 28.9144 48.1053 28.5128 48.5043C28.1112 48.9034 27.5676 49.1269 27.0012 49.126L5.8673 49.0675C5.30091 49.0653 4.75853 48.8387 4.35914 48.4374C3.95976 48.0361 3.73598 47.493 3.73691 46.9271Z" fill="#E6E6E6"/>
<path d="M5.38145 38.4865L5.43133 20.5115C5.43339 19.9815 5.64578 19.474 6.0219 19.1003C6.39802 18.7266 6.90715 18.5172 7.4376 18.5181L25.6004 18.5684C26.1308 18.5704 26.6388 18.7826 27.0129 19.1584C27.3869 19.5342 27.5965 20.0429 27.5957 20.5729L27.5266 45.4532C27.5245 45.9832 27.3121 46.4907 26.936 46.8645C26.5599 47.2382 26.0507 47.4475 25.5203 47.4467L14.2688 47.4155C11.906 47.4063 9.64335 46.4611 7.97723 44.7871C6.31111 43.1132 5.37758 40.8473 5.38145 38.4865Z" fill="white"/>
<path d="M23.5192 26.4138H9.35691C9.13155 26.4138 8.91541 26.3244 8.75606 26.1652C8.5967 26.006 8.50717 25.79 8.50717 25.5648C8.50717 25.3397 8.5967 25.1237 8.75606 24.9645C8.91541 24.8053 9.13155 24.7158 9.35691 24.7158H23.5192C23.7446 24.7158 23.9607 24.8053 24.1201 24.9645C24.2794 25.1237 24.369 25.3397 24.369 25.5648C24.369 25.79 24.2794 26.006 24.1201 26.1652C23.9607 26.3244 23.7446 26.4138 23.5192 26.4138Z" fill="#FE676E"/>
<path d="M12.4726 22.4988H9.35691C9.13155 22.4988 8.91541 22.4094 8.75606 22.2501C8.5967 22.0909 8.50717 21.875 8.50717 21.6498C8.50717 21.4246 8.5967 21.2087 8.75606 21.0495C8.91541 20.8902 9.13155 20.8008 9.35691 20.8008H12.4726C12.698 20.8008 12.9141 20.8902 13.0735 21.0495C13.2328 21.2087 13.3224 21.4246 13.3224 21.6498C13.3224 21.875 13.2328 22.0909 13.0735 22.2501C12.9141 22.4094 12.698 22.4988 12.4726 22.4988Z" fill="#FE676E"/>
<path d="M23.5192 30.3289H9.35691C9.13155 30.3289 8.91541 30.2394 8.75606 30.0802C8.5967 29.921 8.50717 29.705 8.50717 29.4799C8.50717 29.2547 8.5967 29.0387 8.75606 28.8795C8.91541 28.7203 9.13155 28.6309 9.35691 28.6309H23.5192C23.7446 28.6309 23.9607 28.7203 24.1201 28.8795C24.2794 29.0387 24.369 29.2547 24.369 29.4799C24.369 29.705 24.2794 29.921 24.1201 30.0802C23.9607 30.2394 23.7446 30.3289 23.5192 30.3289Z" fill="#FE676E"/>
<path d="M23.5192 34.2434H9.35691C9.13155 34.2434 8.91541 34.154 8.75606 33.9948C8.5967 33.8355 8.50717 33.6196 8.50717 33.3944C8.50717 33.1692 8.5967 32.9533 8.75606 32.7941C8.91541 32.6349 9.13155 32.5454 9.35691 32.5454H23.5192C23.7446 32.5454 23.9607 32.6349 24.1201 32.7941C24.2794 32.9533 24.369 33.1692 24.369 33.3944C24.369 33.6196 24.2794 33.8355 24.1201 33.9948C23.9607 34.154 23.7446 34.2434 23.5192 34.2434Z" fill="#FE676E"/>
<path d="M22.3733 44.5592C24.2406 44.5592 25.7544 43.0467 25.7544 41.1809C25.7544 39.3152 24.2406 37.8027 22.3733 37.8027C20.506 37.8027 18.9922 39.3152 18.9922 41.1809C18.9922 43.0467 20.506 44.5592 22.3733 44.5592Z" fill="#FE676E"/>
<path d="M21.912 42.9393C21.8537 42.9393 21.7961 42.9257 21.7439 42.8996C21.6916 42.8735 21.6462 42.8357 21.6112 42.789L20.6888 41.5601C20.6591 41.5206 20.6374 41.4757 20.6251 41.4279C20.6128 41.38 20.6101 41.3303 20.617 41.2814C20.624 41.2325 20.6405 41.1854 20.6657 41.1429C20.6909 41.1004 20.7242 41.0633 20.7637 41.0337C20.8033 41.004 20.8483 40.9825 20.8962 40.9702C20.944 40.958 20.9939 40.9553 21.0428 40.9623C21.0917 40.9693 21.1388 40.9859 21.1813 41.0111C21.2238 41.0363 21.2609 41.0697 21.2905 41.1092L21.894 41.9131L23.444 39.5902C23.4713 39.549 23.5065 39.5135 23.5475 39.4859C23.5886 39.4583 23.6347 39.4391 23.6832 39.4293C23.7317 39.4195 23.7817 39.4194 23.8303 39.429C23.8788 39.4385 23.925 39.4576 23.9662 39.485C24.0074 39.5124 24.0427 39.5477 24.0702 39.5888C24.0977 39.6299 24.1169 39.676 24.1265 39.7245C24.1361 39.773 24.1361 39.823 24.1263 39.8715C24.1166 39.9199 24.0974 39.966 24.0698 40.0071L22.225 42.772C22.1916 42.822 22.1468 42.8633 22.0941 42.8924C22.0415 42.9214 21.9826 42.9375 21.9225 42.9392C21.919 42.9393 21.9155 42.9393 21.912 42.9393Z" fill="white"/>
<path d="M15.1635 10.3299C16.0499 10.3299 16.7685 9.61193 16.7685 8.72624C16.7685 7.84055 16.0499 7.12256 15.1635 7.12256C14.277 7.12256 13.5584 7.84055 13.5584 8.72624C13.5584 9.61193 14.277 10.3299 15.1635 10.3299Z" fill="#F2F2F2"/>
<path d="M9.30971 56.4593C10.1962 56.4593 10.9148 55.7413 10.9148 54.8556C10.9148 53.9699 10.1962 53.252 9.30971 53.252C8.42326 53.252 7.70465 53.9699 7.70465 54.8556C7.70465 55.7413 8.42326 56.4593 9.30971 56.4593Z" fill="#F2F2F2"/>
<path d="M46.2262 16.556C47.1126 16.556 47.8312 15.838 47.8312 14.9523C47.8312 14.0666 47.1126 13.3486 46.2262 13.3486C45.3397 13.3486 44.6211 14.0666 44.6211 14.9523C44.6211 15.838 45.3397 16.556 46.2262 16.556Z" fill="#F2F2F2"/>
</g>
<defs>
<clipPath id="clip0_76_5170">
<rect width="54" height="65" fill="white"/>
</clipPath>
</defs>
</svg>
